M48
; DRILL file {KiCad (6.0.7)} date Tue May 23 17:20:03 2023
; FORMAT={-:-/ absolute / inch / decimal}
; #@! TF.CreationDate,2023-05-23T17:20:03-04:00
; #@! TF.GenerationSoftware,Kicad,Pcbnew,(6.0.7)
; #@! TF.FileFunction,Plated,1,2,PTH
FMAT,2
INCH
; #@! TA.AperFunction,Plated,PTH,ComponentDrill
T1C0.0276
; #@! TA.AperFunction,Plated,PTH,ComponentDrill
T2C0.0287
; #@! TA.AperFunction,Plated,PTH,ComponentDrill
T3C0.0394
; #@! TA.AperFunction,Plated,PTH,ComponentDrill
T4C0.0591
%
G90
G05
T1
X3.8189Y-3.8919
X3.8189Y-4.2183
X3.8189Y-5.4273
X6.5748Y-3.8919
X6.5748Y-4.2183
X6.5748Y-5.4273
X6.5748Y-5.7538
T2
X3.8189Y-5.7538
T3
X3.2244Y-1.6055
X3.2244Y-2.2055
X3.3244Y-1.6055
X3.3244Y-2.2055
X3.4244Y-1.6055
X3.4244Y-2.2055
X3.4327Y-3.6646
X3.4327Y-6.4205
X3.5244Y-1.6055
X3.5244Y-2.2055
X3.6244Y-1.6055
X3.6244Y-2.2055
X3.7244Y-1.6055
X3.7244Y-2.2055
X3.7327Y-3.6646
X3.7327Y-6.4205
X3.8244Y-1.6055
X3.8244Y-2.2055
X3.9244Y-1.6055
X3.9244Y-2.2055
X4.0244Y-1.6055
X4.0244Y-2.2055
X4.1244Y-1.6055
X4.1244Y-2.2055
X4.2244Y-1.6055
X4.2244Y-2.2055
X4.3244Y-1.6055
X4.3244Y-2.2055
X6.1886Y-3.6646
X6.1886Y-6.4205
X6.4886Y-3.6646
X6.4886Y-6.4205
T4
X3.4327Y-3.3646
X3.4327Y-6.1205
X3.6815Y-3.2646
X3.6815Y-6.0205
X6.1886Y-3.3646
X6.1886Y-6.1205
X6.4374Y-3.2646
X6.4374Y-6.0205
T0
M30
