%TF.GenerationSoftware,KiCad,Pcbnew,(6.0.7)*%
%TF.CreationDate,2023-05-31T01:42:51-04:00*%
%TF.ProjectId,Big_Keys_Keyboard,4269675f-4b65-4797-935f-4b6579626f61,rev?*%
%TF.SameCoordinates,Original*%
%TF.FileFunction,Copper,L1,Top*%
%TF.FilePolarity,Positive*%
%FSLAX46Y46*%
G04 Gerber Fmt 4.6, Leading zero omitted, Abs format (unit mm)*
G04 Created by KiCad (PCBNEW (6.0.7)) date 2023-05-31 01:42:51*
%MOMM*%
%LPD*%
G01*
G04 APERTURE LIST*
%TA.AperFunction,ComponentPad*%
%ADD10C,1.238000*%
%TD*%
%TA.AperFunction,ComponentPad*%
%ADD11R,1.238000X1.238000*%
%TD*%
%TA.AperFunction,ComponentPad*%
%ADD12C,1.879600*%
%TD*%
%TA.AperFunction,ComponentPad*%
%ADD13C,1.508000*%
%TD*%
%TA.AperFunction,ComponentPad*%
%ADD14C,2.250000*%
%TD*%
%TA.AperFunction,ComponentPad*%
%ADD15C,1.600000*%
%TD*%
%TA.AperFunction,ComponentPad*%
%ADD16O,1.600000X1.600000*%
%TD*%
%TA.AperFunction,SMDPad,CuDef*%
%ADD17R,1.550000X0.600000*%
%TD*%
%TA.AperFunction,SMDPad,CuDef*%
%ADD18R,1.800000X1.200000*%
%TD*%
%TA.AperFunction,ViaPad*%
%ADD19C,0.800000*%
%TD*%
%TA.AperFunction,Conductor*%
%ADD20C,0.250000*%
%TD*%
%TA.AperFunction,Conductor*%
%ADD21C,0.381000*%
%TD*%
G04 APERTURE END LIST*
D10*
%TO.P,D1,A*%
%TO.N,Net-(D1-PadA)*%
X97000000Y-98854000D03*
D11*
%TO.P,D1,C*%
%TO.N,ROW1*%
X97000000Y-107146000D03*
%TD*%
D10*
%TO.P,D3,A*%
%TO.N,Net-(D3-PadA)*%
X167000000Y-98854000D03*
D11*
%TO.P,D3,C*%
%TO.N,ROW1*%
X167000000Y-107146000D03*
%TD*%
D12*
%TO.P,B1,1,TXO*%
%TO.N,unconnected-(B1-Pad1)*%
X64900000Y-56020000D03*
%TO.P,B1,2,RXI*%
%TO.N,unconnected-(B1-Pad2)*%
X67440000Y-56020000D03*
%TO.P,B1,3,GND*%
%TO.N,GND*%
X69980000Y-56020000D03*
%TO.P,B1,4,GND*%
X72520000Y-56020000D03*
%TO.P,B1,5,2*%
%TO.N,SDA*%
X75060000Y-56020000D03*
%TO.P,B1,6,\u002A3*%
%TO.N,SCL*%
X77600000Y-56020000D03*
%TO.P,B1,7,4*%
%TO.N,ROW1*%
X80140000Y-56020000D03*
%TO.P,B1,8,\u002A5*%
%TO.N,ROW2*%
X82680000Y-56020000D03*
%TO.P,B1,9,\u002A6*%
%TO.N,COL1*%
X85220000Y-56020000D03*
%TO.P,B1,10,7*%
%TO.N,COL2*%
X87760000Y-56020000D03*
%TO.P,B1,11,8*%
%TO.N,unconnected-(B1-Pad11)*%
X90300000Y-56020000D03*
%TO.P,B1,12,\u002A9*%
%TO.N,unconnected-(B1-Pad12)*%
X92840000Y-56020000D03*
%TO.P,B1,13,\u002A10*%
%TO.N,unconnected-(B1-Pad13)*%
X92840000Y-40780000D03*
%TO.P,B1,14,11(MOSI)*%
%TO.N,unconnected-(B1-Pad14)*%
X90300000Y-40780000D03*
%TO.P,B1,15,12(MISO)*%
%TO.N,unconnected-(B1-Pad15)*%
X87760000Y-40780000D03*
%TO.P,B1,16,13(SCK)*%
%TO.N,unconnected-(B1-Pad16)*%
X85220000Y-40780000D03*
%TO.P,B1,17,A0*%
%TO.N,unconnected-(B1-Pad17)*%
X82680000Y-40780000D03*
%TO.P,B1,18,A1*%
%TO.N,unconnected-(B1-Pad18)*%
X80140000Y-40780000D03*
%TO.P,B1,19,A2*%
%TO.N,unconnected-(B1-Pad19)*%
X77600000Y-40780000D03*
%TO.P,B1,20,A3*%
%TO.N,unconnected-(B1-Pad20)*%
X75060000Y-40780000D03*
%TO.P,B1,21,VCC*%
%TO.N,VCC*%
X72520000Y-40780000D03*
%TO.P,B1,22,RESET*%
%TO.N,unconnected-(B1-Pad22)*%
X69980000Y-40780000D03*
%TO.P,B1,23,GND*%
%TO.N,GND*%
X67440000Y-40780000D03*
%TO.P,B1,24,RAW*%
%TO.N,unconnected-(B1-Pad24)*%
X64900000Y-40780000D03*
%TD*%
D13*
%TO.P,U3,BR1*%
%TO.N,N/C*%
X157190000Y-93080000D03*
%TO.P,U3,BR2*%
X164810000Y-93080000D03*
D14*
%TO.P,U3,P$1*%
%TO.N,Net-(D3-PadA)*%
X163510000Y-82920000D03*
%TO.P,U3,P$2*%
%TO.N,COL2*%
X157190000Y-85460000D03*
%TD*%
D13*
%TO.P,U1,BR1*%
%TO.N,N/C*%
X87190000Y-93080000D03*
%TO.P,U1,BR2*%
X94810000Y-93080000D03*
D14*
%TO.P,U1,P$1*%
%TO.N,Net-(D1-PadA)*%
X93510000Y-82920000D03*
%TO.P,U1,P$2*%
%TO.N,COL1*%
X87190000Y-85460000D03*
%TD*%
D15*
%TO.P,R1,1*%
%TO.N,SCL*%
X123020000Y-67700000D03*
D16*
%TO.P,R1,2*%
%TO.N,VCC*%
X133180000Y-67700000D03*
%TD*%
D13*
%TO.P,U2,BR1*%
%TO.N,N/C*%
X87190000Y-163080000D03*
%TO.P,U2,BR2*%
X94810000Y-163080000D03*
D14*
%TO.P,U2,P$1*%
%TO.N,Net-(D2-PadA)*%
X93510000Y-152920000D03*
%TO.P,U2,P$2*%
%TO.N,COL1*%
X87190000Y-155460000D03*
%TD*%
D17*
%TO.P,J2,1,1*%
%TO.N,SCL*%
X186400000Y-112500000D03*
%TO.P,J2,2,2*%
%TO.N,SDA*%
X186400000Y-111500000D03*
%TO.P,J2,3,3*%
%TO.N,VCC*%
X186400000Y-110500000D03*
%TO.P,J2,4,4*%
%TO.N,GND*%
X186400000Y-109500000D03*
D18*
%TO.P,J2,S1,SHIELD*%
X190275000Y-113800000D03*
%TO.P,J2,S2,SHIELD*%
X190275000Y-108200000D03*
%TD*%
D10*
%TO.P,D2,A*%
%TO.N,Net-(D2-PadA)*%
X97000000Y-146146000D03*
D11*
%TO.P,D2,C*%
%TO.N,ROW2*%
X97000000Y-137854000D03*
%TD*%
D17*
%TO.P,J1,1,1*%
%TO.N,SCL*%
X65600000Y-109500000D03*
%TO.P,J1,2,2*%
%TO.N,SDA*%
X65600000Y-110500000D03*
%TO.P,J1,3,3*%
%TO.N,VCC*%
X65600000Y-111500000D03*
%TO.P,J1,4,4*%
%TO.N,GND*%
X65600000Y-112500000D03*
D18*
%TO.P,J1,S1,SHIELD*%
X61725000Y-108200000D03*
%TO.P,J1,S2,SHIELD*%
X61725000Y-113800000D03*
%TD*%
D15*
%TO.P,R2,1*%
%TO.N,SDA*%
X123040000Y-72300000D03*
D16*
%TO.P,R2,2*%
%TO.N,VCC*%
X133200000Y-72300000D03*
%TD*%
D13*
%TO.P,U4,BR1*%
%TO.N,N/C*%
X157190000Y-163080000D03*
%TO.P,U4,BR2*%
X164810000Y-163080000D03*
D14*
%TO.P,U4,P$1*%
%TO.N,Net-(D4-PadA)*%
X163510000Y-152920000D03*
%TO.P,U4,P$2*%
%TO.N,COL2*%
X157190000Y-155460000D03*
%TD*%
D10*
%TO.P,D4,A*%
%TO.N,Net-(D4-PadA)*%
X167000000Y-146146000D03*
D11*
%TO.P,D4,C*%
%TO.N,ROW2*%
X167000000Y-137854000D03*
%TD*%
D19*
%TO.N,SDA*%
X163500000Y-110500000D03*
X107400000Y-110300000D03*
X84700000Y-110500000D03*
X117000000Y-72300000D03*
%TO.N,SCL*%
X105600000Y-109400000D03*
X114600000Y-67700000D03*
X161100000Y-108775500D03*
X84700000Y-109400000D03*
%TO.N,VCC*%
X165200000Y-110500000D03*
X84400000Y-111500000D03*
X109700000Y-111300000D03*
%TO.N,GND*%
X110700000Y-112400000D03*
X142800000Y-109500000D03*
X84400000Y-112500000D03*
X164800000Y-109500000D03*
%TD*%
D20*
%TO.N,SDA*%
X112600000Y-53100000D02*
X117000000Y-57500000D01*
X77980000Y-53100000D02*
X112600000Y-53100000D01*
X117000000Y-57500000D02*
X117000000Y-72300000D01*
X107400000Y-101800000D02*
X107400000Y-110300000D01*
X84700000Y-110500000D02*
X65600000Y-110500000D01*
X75060000Y-56020000D02*
X77980000Y-53100000D01*
X117000000Y-72300000D02*
X117000000Y-88100000D01*
X163500000Y-110500000D02*
X164500000Y-111500000D01*
X117000000Y-88100000D02*
X117000000Y-92200000D01*
X164500000Y-111500000D02*
X186400000Y-111500000D01*
X117000000Y-92200000D02*
X107400000Y-101800000D01*
%TO.N,SCL*%
X114600000Y-87900000D02*
X114600000Y-92900000D01*
X161100000Y-108775500D02*
X161100000Y-110100000D01*
X79236443Y-54383557D02*
X110735001Y-54383557D01*
X105600000Y-101900000D02*
X105600000Y-109400000D01*
X114600000Y-67700000D02*
X114600000Y-75900000D01*
X114600000Y-92900000D02*
X106100000Y-101400000D01*
X77600000Y-56020000D02*
X79236443Y-54383557D01*
X65700000Y-109400000D02*
X65600000Y-109500000D01*
X163500000Y-112500000D02*
X186400000Y-112500000D01*
X84700000Y-109400000D02*
X65700000Y-109400000D01*
X114600000Y-75900000D02*
X114600000Y-87900000D01*
X114600000Y-58248556D02*
X114600000Y-67700000D01*
X161100000Y-110100000D02*
X163500000Y-112500000D01*
X106100000Y-101400000D02*
X105600000Y-101900000D01*
X110735001Y-54383557D02*
X114600000Y-58248556D01*
D21*
%TO.N,ROW1*%
X101680146Y-77560146D02*
X101680146Y-102465854D01*
X101680146Y-102465854D02*
X97000000Y-107146000D01*
X80140000Y-56020000D02*
X101680146Y-77560146D01*
%TO.N,ROW2*%
X97000000Y-137854000D02*
X102600000Y-132254000D01*
X82781950Y-56020000D02*
X82680000Y-56020000D01*
X102600000Y-132254000D02*
X102600000Y-75838050D01*
X102600000Y-75838050D02*
X82781950Y-56020000D01*
%TO.N,COL1*%
X85725000Y-153995000D02*
X87190000Y-155460000D01*
X87190000Y-85460000D02*
X87782717Y-86052717D01*
X87782717Y-89917283D02*
X85725000Y-91975000D01*
X85725000Y-91975000D02*
X85725000Y-153995000D01*
X87782717Y-86052717D02*
X87782717Y-89917283D01*
%TO.N,COL2*%
X157190000Y-85460000D02*
X155075175Y-85460000D01*
X155075175Y-85460000D02*
X153760176Y-86774999D01*
X153760176Y-86774999D02*
X153760176Y-152030176D01*
X153760176Y-152030176D02*
X157190000Y-155460000D01*
D20*
%TO.N,VCC*%
X109700000Y-101200000D02*
X133200000Y-77700000D01*
X72520000Y-40780000D02*
X80040000Y-48300000D01*
X165200000Y-110500000D02*
X186400000Y-110500000D01*
X109700000Y-111300000D02*
X109700000Y-101200000D01*
X80040000Y-48300000D02*
X131600000Y-48300000D01*
X133180000Y-49920000D02*
X133180000Y-67700000D01*
X84400000Y-111500000D02*
X65600000Y-111500000D01*
X133200000Y-49900000D02*
X133180000Y-49920000D01*
X133200000Y-77700000D02*
X133200000Y-72300000D01*
X131600000Y-48300000D02*
X133200000Y-49900000D01*
X133180000Y-72280000D02*
X133200000Y-72300000D01*
X133180000Y-67700000D02*
X133180000Y-72280000D01*
%TO.N,GND*%
X69020000Y-39200000D02*
X125000000Y-39200000D01*
X125000000Y-39200000D02*
X138000000Y-52200000D01*
X138000000Y-52200000D02*
X138000000Y-75500000D01*
X110700000Y-112400000D02*
X110700000Y-102800000D01*
X84400000Y-112500000D02*
X65600000Y-112500000D01*
X164800000Y-109500000D02*
X186400000Y-109500000D01*
X110700000Y-102800000D02*
X138000000Y-75500000D01*
X67440000Y-40780000D02*
X69020000Y-39200000D01*
X138000000Y-104700000D02*
X142800000Y-109500000D01*
X138000000Y-75500000D02*
X138000000Y-104700000D01*
D21*
%TO.N,Net-(D1-PadA)*%
X99588750Y-82920000D02*
X100806250Y-84137500D01*
X100806250Y-84137500D02*
X100806250Y-96837500D01*
X93510000Y-82920000D02*
X99588750Y-82920000D01*
X100806250Y-96837500D02*
X98789750Y-98854000D01*
X98789750Y-98854000D02*
X97000000Y-98854000D01*
%TO.N,Net-(D2-PadA)*%
X100806250Y-150812500D02*
X100806250Y-146843750D01*
X98698750Y-152920000D02*
X100806250Y-150812500D01*
X93510000Y-152920000D02*
X98698750Y-152920000D01*
X100108500Y-146146000D02*
X97000000Y-146146000D01*
X100806250Y-146843750D02*
X100108500Y-146146000D01*
%TO.N,Net-(D3-PadA)*%
X171450000Y-96837500D02*
X169433500Y-98854000D01*
X169433500Y-98854000D02*
X167000000Y-98854000D01*
X171450000Y-84137500D02*
X171450000Y-96837500D01*
X163510000Y-82920000D02*
X170232500Y-82920000D01*
X170232500Y-82920000D02*
X171450000Y-84137500D01*
%TO.N,Net-(D4-PadA)*%
X167755000Y-152920000D02*
X170656250Y-150018750D01*
X169164750Y-146146000D02*
X167000000Y-146146000D01*
X170656250Y-150018750D02*
X170656250Y-147637500D01*
X170656250Y-147637500D02*
X169164750Y-146146000D01*
X163510000Y-152920000D02*
X167755000Y-152920000D01*
%TD*%
%TA.AperFunction,Conductor*%
%TO.N,GND*%
G36*
X60618023Y-106920002D02*
G01*
X60664516Y-106973658D01*
X60674620Y-107043932D01*
X60645126Y-107108512D01*
X60594132Y-107143982D01*
X60586946Y-107146676D01*
X60571351Y-107155214D01*
X60469276Y-107231715D01*
X60456715Y-107244276D01*
X60380214Y-107346351D01*
X60371676Y-107361946D01*
X60326522Y-107482394D01*
X60322895Y-107497649D01*
X60317369Y-107548514D01*
X60317000Y-107555328D01*
X60317000Y-107927885D01*
X60321475Y-107943124D01*
X60322865Y-107944329D01*
X60330548Y-107946000D01*
X63114884Y-107946000D01*
X63130123Y-107941525D01*
X63131328Y-107940135D01*
X63132999Y-107932452D01*
X63132999Y-107555331D01*
X63132629Y-107548510D01*
X63127105Y-107497648D01*
X63123479Y-107482396D01*
X63078324Y-107361946D01*
X63069786Y-107346351D01*
X62993285Y-107244276D01*
X62980724Y-107231715D01*
X62878649Y-107155214D01*
X62863054Y-107146676D01*
X62855868Y-107143982D01*
X62799104Y-107101340D01*
X62774404Y-107034778D01*
X62789612Y-106965430D01*
X62839898Y-106915312D01*
X62900098Y-106900000D01*
X66874000Y-106900000D01*
X66942121Y-106920002D01*
X66988614Y-106973658D01*
X67000000Y-107026000D01*
X67000000Y-108640500D01*
X66979998Y-108708621D01*
X66926342Y-108755114D01*
X66874000Y-108766500D01*
X66682550Y-108766500D01*
X66624842Y-108751736D01*
X66621705Y-108749385D01*
X66485316Y-108698255D01*
X66423134Y-108691500D01*
X64776866Y-108691500D01*
X64714684Y-108698255D01*
X64578295Y-108749385D01*
X64461739Y-108836739D01*
X64374385Y-108953295D01*
X64323255Y-109089684D01*
X64316500Y-109151866D01*
X64316500Y-109848134D01*
X64323255Y-109910316D01*
X64326027Y-109917709D01*
X64326027Y-109917711D01*
X64340295Y-109955771D01*
X64345478Y-110026578D01*
X64340295Y-110044229D01*
X64323255Y-110089684D01*
X64316500Y-110151866D01*
X64316500Y-110848134D01*
X64323255Y-110910316D01*
X64326027Y-110917709D01*
X64326027Y-110917711D01*
X64340295Y-110955771D01*
X64345478Y-111026578D01*
X64340295Y-111044229D01*
X64323255Y-111089684D01*
X64316500Y-111151866D01*
X64316500Y-111848134D01*
X64323255Y-111910316D01*
X64326029Y-111917715D01*
X64340562Y-111956482D01*
X64345745Y-112027289D01*
X64340562Y-112044942D01*
X64326522Y-112082394D01*
X64322895Y-112097649D01*
X64317369Y-112148514D01*
X64317000Y-112155328D01*
X64317000Y-112227885D01*
X64321475Y-112243124D01*
X64322865Y-112244329D01*
X64330548Y-112246000D01*
X64543142Y-112246000D01*
X64587371Y-112254018D01*
X64707282Y-112298971D01*
X64707288Y-112298973D01*
X64714684Y-112301745D01*
X64776866Y-112308500D01*
X65728000Y-112308500D01*
X65796121Y-112328502D01*
X65842614Y-112382158D01*
X65854000Y-112434500D01*
X65854000Y-113289884D01*
X65858475Y-113305123D01*
X65859865Y-113306328D01*
X65867548Y-113307999D01*
X66419669Y-113307999D01*
X66426490Y-113307629D01*
X66477352Y-113302105D01*
X66492604Y-113298479D01*
X66613054Y-113253324D01*
X66628649Y-113244786D01*
X66730724Y-113168285D01*
X66743285Y-113155724D01*
X66773174Y-113115843D01*
X66830033Y-113073328D01*
X66900851Y-113068302D01*
X66963145Y-113102362D01*
X66997135Y-113164693D01*
X67000000Y-113191408D01*
X67000000Y-114874000D01*
X66979998Y-114942121D01*
X66926342Y-114988614D01*
X66874000Y-115000000D01*
X63049766Y-115000000D01*
X62981645Y-114979998D01*
X62935152Y-114926342D01*
X62925048Y-114856068D01*
X62954542Y-114791488D01*
X62974200Y-114773174D01*
X62980726Y-114768283D01*
X62993285Y-114755724D01*
X63069786Y-114653649D01*
X63078324Y-114638054D01*
X63123478Y-114517606D01*
X63127105Y-114502351D01*
X63132631Y-114451486D01*
X63133000Y-114444672D01*
X63133000Y-114072115D01*
X63128525Y-114056876D01*
X63127135Y-114055671D01*
X63119452Y-114054000D01*
X60335116Y-114054000D01*
X60319877Y-114058475D01*
X60318672Y-114059865D01*
X60317001Y-114067548D01*
X60317001Y-114444669D01*
X60317371Y-114451490D01*
X60322895Y-114502352D01*
X60326521Y-114517604D01*
X60371676Y-114638054D01*
X60380214Y-114653649D01*
X60456715Y-114755724D01*
X60469274Y-114768283D01*
X60475800Y-114773174D01*
X60518314Y-114830034D01*
X60523339Y-114900853D01*
X60489279Y-114963146D01*
X60426948Y-114997136D01*
X60400234Y-115000000D01*
X60126000Y-115000000D01*
X60057879Y-114979998D01*
X60011386Y-114926342D01*
X60000000Y-114874000D01*
X60000000Y-113527885D01*
X60317000Y-113527885D01*
X60321475Y-113543124D01*
X60322865Y-113544329D01*
X60330548Y-113546000D01*
X61452885Y-113546000D01*
X61468124Y-113541525D01*
X61469329Y-113540135D01*
X61471000Y-113532452D01*
X61471000Y-113527885D01*
X61979000Y-113527885D01*
X61983475Y-113543124D01*
X61984865Y-113544329D01*
X61992548Y-113546000D01*
X63114884Y-113546000D01*
X63130123Y-113541525D01*
X63131328Y-113540135D01*
X63132999Y-113532452D01*
X63132999Y-113155331D01*
X63132629Y-113148510D01*
X63127105Y-113097648D01*
X63123479Y-113082396D01*
X63078324Y-112961946D01*
X63069786Y-112946351D01*
X62993580Y-112844669D01*
X64317001Y-112844669D01*
X64317371Y-112851490D01*
X64322895Y-112902352D01*
X64326521Y-112917604D01*
X64371676Y-113038054D01*
X64380214Y-113053649D01*
X64456715Y-113155724D01*
X64469276Y-113168285D01*
X64571351Y-113244786D01*
X64586946Y-113253324D01*
X64707394Y-113298478D01*
X64722649Y-113302105D01*
X64773514Y-113307631D01*
X64780328Y-113308000D01*
X65327885Y-113308000D01*
X65343124Y-113303525D01*
X65344329Y-113302135D01*
X65346000Y-113294452D01*
X65346000Y-112772115D01*
X65341525Y-112756876D01*
X65340135Y-112755671D01*
X65332452Y-112754000D01*
X64335116Y-112754000D01*
X64319877Y-112758475D01*
X64318672Y-112759865D01*
X64317001Y-112767548D01*
X64317001Y-112844669D01*
X62993580Y-112844669D01*
X62993285Y-112844276D01*
X62980724Y-112831715D01*
X62878649Y-112755214D01*
X62863054Y-112746676D01*
X62742606Y-112701522D01*
X62727351Y-112697895D01*
X62676486Y-112692369D01*
X62669672Y-112692000D01*
X61997115Y-112692000D01*
X61981876Y-112696475D01*
X61980671Y-112697865D01*
X61979000Y-112705548D01*
X61979000Y-113527885D01*
X61471000Y-113527885D01*
X61471000Y-112710116D01*
X61466525Y-112694877D01*
X61465135Y-112693672D01*
X61457452Y-112692001D01*
X60780331Y-112692001D01*
X60773510Y-112692371D01*
X60722648Y-112697895D01*
X60707396Y-112701521D01*
X60586946Y-112746676D01*
X60571351Y-112755214D01*
X60469276Y-112831715D01*
X60456715Y-112844276D01*
X60380214Y-112946351D01*
X60371676Y-112961946D01*
X60326522Y-113082394D01*
X60322895Y-113097649D01*
X60317369Y-113148514D01*
X60317000Y-113155328D01*
X60317000Y-113527885D01*
X60000000Y-113527885D01*
X60000000Y-108844669D01*
X60317001Y-108844669D01*
X60317371Y-108851490D01*
X60322895Y-108902352D01*
X60326521Y-108917604D01*
X60371676Y-109038054D01*
X60380214Y-109053649D01*
X60456715Y-109155724D01*
X60469276Y-109168285D01*
X60571351Y-109244786D01*
X60586946Y-109253324D01*
X60707394Y-109298478D01*
X60722649Y-109302105D01*
X60773514Y-109307631D01*
X60780328Y-109308000D01*
X61452885Y-109308000D01*
X61468124Y-109303525D01*
X61469329Y-109302135D01*
X61471000Y-109294452D01*
X61471000Y-109289884D01*
X61979000Y-109289884D01*
X61983475Y-109305123D01*
X61984865Y-109306328D01*
X61992548Y-109307999D01*
X62669669Y-109307999D01*
X62676490Y-109307629D01*
X62727352Y-109302105D01*
X62742604Y-109298479D01*
X62863054Y-109253324D01*
X62878649Y-109244786D01*
X62980724Y-109168285D01*
X62993285Y-109155724D01*
X63069786Y-109053649D01*
X63078324Y-109038054D01*
X63123478Y-108917606D01*
X63127105Y-108902351D01*
X63132631Y-108851486D01*
X63133000Y-108844672D01*
X63133000Y-108472115D01*
X63128525Y-108456876D01*
X63127135Y-108455671D01*
X63119452Y-108454000D01*
X61997115Y-108454000D01*
X61981876Y-108458475D01*
X61980671Y-108459865D01*
X61979000Y-108467548D01*
X61979000Y-109289884D01*
X61471000Y-109289884D01*
X61471000Y-108472115D01*
X61466525Y-108456876D01*
X61465135Y-108455671D01*
X61457452Y-108454000D01*
X60335116Y-108454000D01*
X60319877Y-108458475D01*
X60318672Y-108459865D01*
X60317001Y-108467548D01*
X60317001Y-108844669D01*
X60000000Y-108844669D01*
X60000000Y-107026000D01*
X60020002Y-106957879D01*
X60073658Y-106911386D01*
X60126000Y-106900000D01*
X60549902Y-106900000D01*
X60618023Y-106920002D01*
G37*
%TD.AperFunction*%
%TD*%
%TA.AperFunction,Conductor*%
%TO.N,GND*%
G36*
X188831221Y-107320002D02*
G01*
X188877714Y-107373658D01*
X188887818Y-107443932D01*
X188881082Y-107470230D01*
X188876522Y-107482395D01*
X188872895Y-107497649D01*
X188867369Y-107548514D01*
X188867000Y-107555328D01*
X188867000Y-107927885D01*
X188871475Y-107943124D01*
X188872865Y-107944329D01*
X188880548Y-107946000D01*
X190403000Y-107946000D01*
X190471121Y-107966002D01*
X190517614Y-108019658D01*
X190529000Y-108072000D01*
X190529000Y-109289884D01*
X190533475Y-109305123D01*
X190534865Y-109306328D01*
X190542548Y-109307999D01*
X191219669Y-109307999D01*
X191226490Y-109307629D01*
X191277352Y-109302105D01*
X191292604Y-109298479D01*
X191329770Y-109284546D01*
X191400577Y-109279363D01*
X191462946Y-109313284D01*
X191497076Y-109375539D01*
X191500000Y-109402528D01*
X191500000Y-112597472D01*
X191479998Y-112665593D01*
X191426342Y-112712086D01*
X191356068Y-112722190D01*
X191329770Y-112715454D01*
X191292606Y-112701522D01*
X191277351Y-112697895D01*
X191226486Y-112692369D01*
X191219672Y-112692000D01*
X190547115Y-112692000D01*
X190531876Y-112696475D01*
X190530671Y-112697865D01*
X190529000Y-112705548D01*
X190529000Y-113928000D01*
X190508998Y-113996121D01*
X190455342Y-114042614D01*
X190403000Y-114054000D01*
X188885116Y-114054000D01*
X188869877Y-114058475D01*
X188868672Y-114059865D01*
X188867001Y-114067548D01*
X188867001Y-114444669D01*
X188867371Y-114451490D01*
X188872895Y-114502352D01*
X188876521Y-114517603D01*
X188881082Y-114529770D01*
X188886265Y-114600577D01*
X188852345Y-114662946D01*
X188790090Y-114697075D01*
X188763100Y-114700000D01*
X185426000Y-114700000D01*
X185357879Y-114679998D01*
X185311386Y-114626342D01*
X185300000Y-114574000D01*
X185300000Y-113527885D01*
X188867000Y-113527885D01*
X188871475Y-113543124D01*
X188872865Y-113544329D01*
X188880548Y-113546000D01*
X190002885Y-113546000D01*
X190018124Y-113541525D01*
X190019329Y-113540135D01*
X190021000Y-113532452D01*
X190021000Y-112710116D01*
X190016525Y-112694877D01*
X190015135Y-112693672D01*
X190007452Y-112692001D01*
X189330331Y-112692001D01*
X189323510Y-112692371D01*
X189272648Y-112697895D01*
X189257396Y-112701521D01*
X189136946Y-112746676D01*
X189121351Y-112755214D01*
X189019276Y-112831715D01*
X189006715Y-112844276D01*
X188930214Y-112946351D01*
X188921676Y-112961946D01*
X188876522Y-113082394D01*
X188872895Y-113097649D01*
X188867369Y-113148514D01*
X188867000Y-113155328D01*
X188867000Y-113527885D01*
X185300000Y-113527885D01*
X185300000Y-113403062D01*
X185320002Y-113334941D01*
X185373658Y-113288448D01*
X185443932Y-113278344D01*
X185470229Y-113285080D01*
X185507282Y-113298971D01*
X185507288Y-113298973D01*
X185514684Y-113301745D01*
X185576866Y-113308500D01*
X187223134Y-113308500D01*
X187285316Y-113301745D01*
X187421705Y-113250615D01*
X187538261Y-113163261D01*
X187625615Y-113046705D01*
X187676745Y-112910316D01*
X187683500Y-112848134D01*
X187683500Y-112151866D01*
X187676745Y-112089684D01*
X187659705Y-112044229D01*
X187654522Y-111973422D01*
X187659705Y-111955771D01*
X187673973Y-111917711D01*
X187673973Y-111917709D01*
X187676745Y-111910316D01*
X187683500Y-111848134D01*
X187683500Y-111151866D01*
X187676745Y-111089684D01*
X187659705Y-111044229D01*
X187654522Y-110973422D01*
X187659705Y-110955771D01*
X187673973Y-110917711D01*
X187673973Y-110917709D01*
X187676745Y-110910316D01*
X187683500Y-110848134D01*
X187683500Y-110151866D01*
X187676745Y-110089684D01*
X187659438Y-110043518D01*
X187654255Y-109972711D01*
X187659438Y-109955058D01*
X187673478Y-109917606D01*
X187677105Y-109902351D01*
X187682631Y-109851486D01*
X187683000Y-109844672D01*
X187683000Y-109772115D01*
X187678525Y-109756876D01*
X187677135Y-109755671D01*
X187669452Y-109754000D01*
X187456858Y-109754000D01*
X187412629Y-109745982D01*
X187292718Y-109701029D01*
X187292712Y-109701027D01*
X187285316Y-109698255D01*
X187223134Y-109691500D01*
X186272000Y-109691500D01*
X186203879Y-109671498D01*
X186157386Y-109617842D01*
X186146000Y-109565500D01*
X186146000Y-109227885D01*
X186654000Y-109227885D01*
X186658475Y-109243124D01*
X186659865Y-109244329D01*
X186667548Y-109246000D01*
X187664884Y-109246000D01*
X187680123Y-109241525D01*
X187681328Y-109240135D01*
X187682999Y-109232452D01*
X187682999Y-109155331D01*
X187682629Y-109148510D01*
X187677105Y-109097648D01*
X187673479Y-109082396D01*
X187628324Y-108961946D01*
X187619786Y-108946351D01*
X187543580Y-108844669D01*
X188867001Y-108844669D01*
X188867371Y-108851490D01*
X188872895Y-108902352D01*
X188876521Y-108917604D01*
X188921676Y-109038054D01*
X188930214Y-109053649D01*
X189006715Y-109155724D01*
X189019276Y-109168285D01*
X189121351Y-109244786D01*
X189136946Y-109253324D01*
X189257394Y-109298478D01*
X189272649Y-109302105D01*
X189323514Y-109307631D01*
X189330328Y-109308000D01*
X190002885Y-109308000D01*
X190018124Y-109303525D01*
X190019329Y-109302135D01*
X190021000Y-109294452D01*
X190021000Y-108472115D01*
X190016525Y-108456876D01*
X190015135Y-108455671D01*
X190007452Y-108454000D01*
X188885116Y-108454000D01*
X188869877Y-108458475D01*
X188868672Y-108459865D01*
X188867001Y-108467548D01*
X188867001Y-108844669D01*
X187543580Y-108844669D01*
X187543285Y-108844276D01*
X187530724Y-108831715D01*
X187428649Y-108755214D01*
X187413054Y-108746676D01*
X187292606Y-108701522D01*
X187277351Y-108697895D01*
X187226486Y-108692369D01*
X187219672Y-108692000D01*
X186672115Y-108692000D01*
X186656876Y-108696475D01*
X186655671Y-108697865D01*
X186654000Y-108705548D01*
X186654000Y-109227885D01*
X186146000Y-109227885D01*
X186146000Y-108710116D01*
X186141525Y-108694877D01*
X186140135Y-108693672D01*
X186132452Y-108692001D01*
X185580331Y-108692001D01*
X185573510Y-108692371D01*
X185522648Y-108697895D01*
X185507396Y-108701521D01*
X185470230Y-108715454D01*
X185399423Y-108720637D01*
X185337054Y-108686716D01*
X185302924Y-108624461D01*
X185300000Y-108597472D01*
X185300000Y-107426000D01*
X185320002Y-107357879D01*
X185373658Y-107311386D01*
X185426000Y-107300000D01*
X188763100Y-107300000D01*
X188831221Y-107320002D01*
G37*
%TD.AperFunction*%
%TD*%
%TA.AperFunction,Conductor*%
%TO.N,GND*%
G36*
X64715197Y-39120002D02*
G01*
X64761690Y-39173658D01*
X64771794Y-39243932D01*
X64742300Y-39308512D01*
X64682574Y-39346896D01*
X64666135Y-39350550D01*
X64563209Y-39366300D01*
X64336838Y-39440289D01*
X64125590Y-39550258D01*
X64121457Y-39553361D01*
X64121454Y-39553363D01*
X64047555Y-39608848D01*
X63935140Y-39693252D01*
X63770602Y-39865431D01*
X63767693Y-39869696D01*
X63767687Y-39869704D01*
X63735186Y-39917349D01*
X63636394Y-40062172D01*
X63536122Y-40278191D01*
X63472477Y-40507685D01*
X63471928Y-40512819D01*
X63471928Y-40512821D01*
X63469113Y-40539160D01*
X63447170Y-40744494D01*
X63447467Y-40749646D01*
X63447467Y-40749650D01*
X63455863Y-40895263D01*
X63460879Y-40982255D01*
X63462016Y-40987301D01*
X63462017Y-40987307D01*
X63482830Y-41079659D01*
X63513237Y-41214585D01*
X63515179Y-41219367D01*
X63515180Y-41219371D01*
X63600893Y-41430457D01*
X63602837Y-41435244D01*
X63605536Y-41439648D01*
X63722676Y-41630802D01*
X63727274Y-41638306D01*
X63883204Y-41818317D01*
X64066442Y-41970444D01*
X64070894Y-41973046D01*
X64070899Y-41973049D01*
X64169333Y-42030569D01*
X64272065Y-42090601D01*
X64494552Y-42175560D01*
X64499618Y-42176591D01*
X64499619Y-42176591D01*
X64553956Y-42187646D01*
X64727928Y-42223041D01*
X64862121Y-42227962D01*
X64960760Y-42231579D01*
X64960764Y-42231579D01*
X64965924Y-42231768D01*
X64971044Y-42231112D01*
X64971046Y-42231112D01*
X65197023Y-42202164D01*
X65197024Y-42202164D01*
X65202151Y-42201507D01*
X65286803Y-42176110D01*
X65425316Y-42134554D01*
X65425317Y-42134553D01*
X65430262Y-42133070D01*
X65644133Y-42028295D01*
X65648336Y-42025297D01*
X65648341Y-42025294D01*
X65725155Y-41970503D01*
X66614326Y-41970503D01*
X66619607Y-41977558D01*
X66807821Y-42087541D01*
X66817108Y-42091991D01*
X67029861Y-42173233D01*
X67039763Y-42176110D01*
X67262911Y-42221510D01*
X67273163Y-42222733D01*
X67500738Y-42231077D01*
X67511024Y-42230610D01*
X67736915Y-42201673D01*
X67747001Y-42199530D01*
X67965128Y-42134088D01*
X67974723Y-42130328D01*
X68179237Y-42030137D01*
X68188083Y-42024863D01*
X68253631Y-41978108D01*
X68262032Y-41967408D01*
X68255045Y-41954256D01*
X67452811Y-41152021D01*
X67438868Y-41144408D01*
X67437034Y-41144539D01*
X67430420Y-41148790D01*
X66621083Y-41958128D01*
X66614326Y-41970503D01*
X65725155Y-41970503D01*
X65833816Y-41892996D01*
X65833818Y-41892994D01*
X65838020Y-41889997D01*
X66006716Y-41721889D01*
X66009732Y-41717692D01*
X66009739Y-41717684D01*
X66072170Y-41630802D01*
X66128164Y-41587154D01*
X66198868Y-41580708D01*
X66245626Y-41604169D01*
X66249976Y-41604890D01*
X66260387Y-41600402D01*
X67067979Y-40792811D01*
X67075592Y-40778868D01*
X67075461Y-40777034D01*
X67071210Y-40770420D01*
X66265220Y-39964431D01*
X66252803Y-39957651D01*
X66189899Y-39982699D01*
X66120210Y-39969135D01*
X66072360Y-39925688D01*
X66054216Y-39897642D01*
X66051406Y-39893298D01*
X65891124Y-39717150D01*
X65887073Y-39713951D01*
X65887069Y-39713947D01*
X65708278Y-39572747D01*
X65708273Y-39572744D01*
X65704224Y-39569546D01*
X65699708Y-39567053D01*
X65699705Y-39567051D01*
X65500250Y-39456946D01*
X65500246Y-39456944D01*
X65495726Y-39454449D01*
X65490857Y-39452725D01*
X65490853Y-39452723D01*
X65276105Y-39376676D01*
X65276101Y-39376675D01*
X65271230Y-39374950D01*
X65266140Y-39374043D01*
X65266135Y-39374042D01*
X65131423Y-39350047D01*
X65067866Y-39318409D01*
X65031503Y-39257432D01*
X65033879Y-39186475D01*
X65074240Y-39128067D01*
X65139772Y-39100752D01*
X65153519Y-39100000D01*
X67190383Y-39100000D01*
X67258504Y-39120002D01*
X67304997Y-39173658D01*
X67315101Y-39243932D01*
X67285607Y-39308512D01*
X67225881Y-39346896D01*
X67209442Y-39350550D01*
X67108437Y-39366006D01*
X67098410Y-39368395D01*
X66881951Y-39439144D01*
X66872442Y-39443141D01*
X66670451Y-39548292D01*
X66661716Y-39553793D01*
X66625535Y-39580958D01*
X66617081Y-39592285D01*
X66623825Y-39604614D01*
X67427189Y-40407979D01*
X67441132Y-40415592D01*
X67442966Y-40415461D01*
X67449580Y-40411210D01*
X68257331Y-39603458D01*
X68264348Y-39590607D01*
X68256574Y-39579937D01*
X68248004Y-39573169D01*
X68239417Y-39567464D01*
X68040055Y-39457410D01*
X68030643Y-39453180D01*
X67815971Y-39377160D01*
X67806014Y-39374530D01*
X67668571Y-39350047D01*
X67605014Y-39318409D01*
X67568651Y-39257431D01*
X67571028Y-39186475D01*
X67611389Y-39128067D01*
X67676921Y-39100752D01*
X67690668Y-39100000D01*
X69727076Y-39100000D01*
X69795197Y-39120002D01*
X69841690Y-39173658D01*
X69851794Y-39243932D01*
X69822300Y-39308512D01*
X69762574Y-39346896D01*
X69746135Y-39350550D01*
X69643209Y-39366300D01*
X69416838Y-39440289D01*
X69205590Y-39550258D01*
X69201457Y-39553361D01*
X69201454Y-39553363D01*
X69127555Y-39608848D01*
X69015140Y-39693252D01*
X68850602Y-39865431D01*
X68808064Y-39927790D01*
X68753155Y-39972790D01*
X68682631Y-39980961D01*
X68630940Y-39956588D01*
X68628940Y-39956307D01*
X68617755Y-39961456D01*
X67812021Y-40767189D01*
X67804408Y-40781132D01*
X67804539Y-40782966D01*
X67808790Y-40789580D01*
X68614826Y-41595615D01*
X68628096Y-41602861D01*
X68690005Y-41579078D01*
X68759523Y-41593490D01*
X68801899Y-41630245D01*
X68804574Y-41633899D01*
X68807274Y-41638306D01*
X68963204Y-41818317D01*
X69146442Y-41970444D01*
X69150894Y-41973046D01*
X69150899Y-41973049D01*
X69249333Y-42030569D01*
X69352065Y-42090601D01*
X69574552Y-42175560D01*
X69579618Y-42176591D01*
X69579619Y-42176591D01*
X69633956Y-42187646D01*
X69807928Y-42223041D01*
X69942121Y-42227962D01*
X70040760Y-42231579D01*
X70040764Y-42231579D01*
X70045924Y-42231768D01*
X70051044Y-42231112D01*
X70051046Y-42231112D01*
X70277023Y-42202164D01*
X70277024Y-42202164D01*
X70282151Y-42201507D01*
X70366803Y-42176110D01*
X70505316Y-42134554D01*
X70505317Y-42134553D01*
X70510262Y-42133070D01*
X70724133Y-42028295D01*
X70728336Y-42025297D01*
X70728341Y-42025294D01*
X70913816Y-41892996D01*
X70913818Y-41892994D01*
X70918020Y-41889997D01*
X71086716Y-41721889D01*
X71144979Y-41640807D01*
X71200972Y-41597160D01*
X71271676Y-41590714D01*
X71334640Y-41623516D01*
X71346582Y-41637176D01*
X71347274Y-41638306D01*
X71503204Y-41818317D01*
X71686442Y-41970444D01*
X71690894Y-41973046D01*
X71690899Y-41973049D01*
X71789333Y-42030569D01*
X71892065Y-42090601D01*
X72114552Y-42175560D01*
X72119618Y-42176591D01*
X72119619Y-42176591D01*
X72173956Y-42187646D01*
X72347928Y-42223041D01*
X72482121Y-42227962D01*
X72580760Y-42231579D01*
X72580764Y-42231579D01*
X72585924Y-42231768D01*
X72591044Y-42231112D01*
X72591046Y-42231112D01*
X72817023Y-42202164D01*
X72817024Y-42202164D01*
X72822151Y-42201507D01*
X72827102Y-42200022D01*
X72827105Y-42200021D01*
X72921951Y-42171566D01*
X72992946Y-42171150D01*
X73047253Y-42203157D01*
X79536348Y-48692253D01*
X79543888Y-48700539D01*
X79548000Y-48707018D01*
X79553777Y-48712443D01*
X79597651Y-48753643D01*
X79600493Y-48756398D01*
X79620230Y-48776135D01*
X79623427Y-48778615D01*
X79632447Y-48786318D01*
X79664679Y-48816586D01*
X79671625Y-48820405D01*
X79671628Y-48820407D01*
X79682434Y-48826348D01*
X79698953Y-48837199D01*
X79714959Y-48849614D01*
X79722228Y-48852759D01*
X79722232Y-48852762D01*
X79755537Y-48867174D01*
X79766187Y-48872391D01*
X79804940Y-48893695D01*
X79812615Y-48895666D01*
X79812616Y-48895666D01*
X79824562Y-48898733D01*
X79843267Y-48905137D01*
X79861855Y-48913181D01*
X79869678Y-48914420D01*
X79869688Y-48914423D01*
X79905524Y-48920099D01*
X79917144Y-48922505D01*
X79952289Y-48931528D01*
X79959970Y-48933500D01*
X79980224Y-48933500D01*
X79999934Y-48935051D01*
X80019943Y-48938220D01*
X80027835Y-48937474D01*
X80063961Y-48934059D01*
X80075819Y-48933500D01*
X94374000Y-48933500D01*
X94442121Y-48953502D01*
X94488614Y-49007158D01*
X94500000Y-49059500D01*
X94500000Y-52340500D01*
X94479998Y-52408621D01*
X94426342Y-52455114D01*
X94374000Y-52466500D01*
X78058768Y-52466500D01*
X78047585Y-52465973D01*
X78040092Y-52464298D01*
X78032166Y-52464547D01*
X78032165Y-52464547D01*
X77972002Y-52466438D01*
X77968044Y-52466500D01*
X77940144Y-52466500D01*
X77936154Y-52467004D01*
X77924320Y-52467936D01*
X77880111Y-52469326D01*
X77872495Y-52471539D01*
X77872493Y-52471539D01*
X77860652Y-52474979D01*
X77841293Y-52478988D01*
X77839983Y-52479154D01*
X77821203Y-52481526D01*
X77813837Y-52484442D01*
X77813831Y-52484444D01*
X77780098Y-52497800D01*
X77768868Y-52501645D01*
X77752828Y-52506305D01*
X77726407Y-52513981D01*
X77719584Y-52518016D01*
X77708966Y-52524295D01*
X77691213Y-52532992D01*
X77683568Y-52536019D01*
X77672383Y-52540448D01*
X77665968Y-52545109D01*
X77636612Y-52566437D01*
X77626695Y-52572951D01*
X77588638Y-52595458D01*
X77574317Y-52609779D01*
X77559284Y-52622619D01*
X77542893Y-52634528D01*
X77537842Y-52640634D01*
X77514702Y-52668605D01*
X77506712Y-52677384D01*
X75589295Y-54594801D01*
X75526983Y-54628827D01*
X75458142Y-54624479D01*
X75436114Y-54616679D01*
X75436108Y-54616677D01*
X75431230Y-54614950D01*
X75426140Y-54614043D01*
X75426135Y-54614042D01*
X75298814Y-54591364D01*
X75196764Y-54573186D01*
X75107637Y-54572097D01*
X74963795Y-54570339D01*
X74963793Y-54570339D01*
X74958625Y-54570276D01*
X74723209Y-54606300D01*
X74496838Y-54680289D01*
X74285590Y-54790258D01*
X74281457Y-54793361D01*
X74281454Y-54793363D01*
X74207314Y-54849029D01*
X74095140Y-54933252D01*
X73930602Y-55105431D01*
X73888064Y-55167790D01*
X73833155Y-55212790D01*
X73762631Y-55220961D01*
X73710940Y-55196588D01*
X73708940Y-55196307D01*
X73697755Y-55201456D01*
X72892021Y-56007189D01*
X72884408Y-56021132D01*
X72884539Y-56022966D01*
X72888790Y-56029580D01*
X73694826Y-56835615D01*
X73708096Y-56842861D01*
X73770005Y-56819078D01*
X73839523Y-56833490D01*
X73881899Y-56870245D01*
X73884574Y-56873899D01*
X73887274Y-56878306D01*
X74043204Y-57058317D01*
X74226442Y-57210444D01*
X74230894Y-57213046D01*
X74230899Y-57213049D01*
X74329333Y-57270569D01*
X74432065Y-57330601D01*
X74654552Y-57415560D01*
X74659618Y-57416591D01*
X74659619Y-57416591D01*
X74826430Y-57450529D01*
X74889196Y-57483711D01*
X74924058Y-57545559D01*
X74919949Y-57616436D01*
X74878172Y-57673841D01*
X74811993Y-57699546D01*
X74801310Y-57700000D01*
X72775566Y-57700000D01*
X72707445Y-57679998D01*
X72660952Y-57626342D01*
X72650848Y-57556068D01*
X72680342Y-57491488D01*
X72740068Y-57453104D01*
X72759556Y-57449021D01*
X72816915Y-57441673D01*
X72827001Y-57439530D01*
X73045128Y-57374088D01*
X73054723Y-57370328D01*
X73259237Y-57270137D01*
X73268083Y-57264863D01*
X73333631Y-57218108D01*
X73342032Y-57207408D01*
X73335045Y-57194256D01*
X72532811Y-56392021D01*
X72518868Y-56384408D01*
X72517034Y-56384539D01*
X72510420Y-56388790D01*
X71701083Y-57198128D01*
X71694326Y-57210503D01*
X71699607Y-57217558D01*
X71887821Y-57327541D01*
X71897108Y-57331991D01*
X72109861Y-57413233D01*
X72119763Y-57416110D01*
X72288942Y-57450530D01*
X72351707Y-57483711D01*
X72386569Y-57545559D01*
X72382460Y-57616437D01*
X72340683Y-57673841D01*
X72274504Y-57699546D01*
X72263821Y-57700000D01*
X70235566Y-57700000D01*
X70167445Y-57679998D01*
X70120952Y-57626342D01*
X70110848Y-57556068D01*
X70140342Y-57491488D01*
X70200068Y-57453104D01*
X70219556Y-57449021D01*
X70276915Y-57441673D01*
X70287001Y-57439530D01*
X70505128Y-57374088D01*
X70514723Y-57370328D01*
X70719237Y-57270137D01*
X70728083Y-57264863D01*
X70793631Y-57218108D01*
X70802032Y-57207408D01*
X70795045Y-57194256D01*
X69992811Y-56392021D01*
X69978868Y-56384408D01*
X69977034Y-56384539D01*
X69970420Y-56388790D01*
X69161083Y-57198128D01*
X69154326Y-57210503D01*
X69159607Y-57217558D01*
X69347821Y-57327541D01*
X69357108Y-57331991D01*
X69569861Y-57413233D01*
X69579763Y-57416110D01*
X69748942Y-57450530D01*
X69811707Y-57483711D01*
X69846569Y-57545559D01*
X69842460Y-57616437D01*
X69800683Y-57673841D01*
X69734504Y-57699546D01*
X69723821Y-57700000D01*
X67699504Y-57700000D01*
X67631383Y-57679998D01*
X67584890Y-57626342D01*
X67574786Y-57556068D01*
X67604280Y-57491488D01*
X67664006Y-57453104D01*
X67683494Y-57449021D01*
X67737024Y-57442164D01*
X67737027Y-57442163D01*
X67742151Y-57441507D01*
X67747101Y-57440022D01*
X67965316Y-57374554D01*
X67965317Y-57374553D01*
X67970262Y-57373070D01*
X68184133Y-57268295D01*
X68188336Y-57265297D01*
X68188341Y-57265294D01*
X68373816Y-57132996D01*
X68373818Y-57132994D01*
X68378020Y-57129997D01*
X68546716Y-56961889D01*
X68549732Y-56957692D01*
X68549739Y-56957684D01*
X68612170Y-56870802D01*
X68668164Y-56827154D01*
X68738868Y-56820708D01*
X68785626Y-56844169D01*
X68789976Y-56844890D01*
X68800387Y-56840402D01*
X69607979Y-56032811D01*
X69614356Y-56021132D01*
X70344408Y-56021132D01*
X70344539Y-56022966D01*
X70348790Y-56029580D01*
X71154826Y-56835615D01*
X71166832Y-56842171D01*
X71171671Y-56838474D01*
X71237946Y-56813015D01*
X71307464Y-56827428D01*
X71331418Y-56844268D01*
X71340387Y-56840402D01*
X72147979Y-56032811D01*
X72155592Y-56018868D01*
X72155461Y-56017034D01*
X72151210Y-56010420D01*
X71345220Y-55204431D01*
X71333688Y-55198134D01*
X71328721Y-55202026D01*
X71262762Y-55228293D01*
X71193073Y-55214730D01*
X71168788Y-55198315D01*
X71167321Y-55197052D01*
X71157756Y-55201455D01*
X70352021Y-56007189D01*
X70344408Y-56021132D01*
X69614356Y-56021132D01*
X69615592Y-56018868D01*
X69615461Y-56017034D01*
X69611210Y-56010420D01*
X68805220Y-55204431D01*
X68792803Y-55197651D01*
X68729899Y-55222699D01*
X68660210Y-55209135D01*
X68612360Y-55165688D01*
X68594216Y-55137642D01*
X68591406Y-55133298D01*
X68431124Y-54957150D01*
X68427073Y-54953951D01*
X68427069Y-54953947D01*
X68273018Y-54832285D01*
X69157081Y-54832285D01*
X69163825Y-54844614D01*
X69967189Y-55647979D01*
X69981132Y-55655592D01*
X69982966Y-55655461D01*
X69989580Y-55651210D01*
X70797331Y-54843458D01*
X70803432Y-54832285D01*
X71697081Y-54832285D01*
X71703825Y-54844614D01*
X72507189Y-55647979D01*
X72521132Y-55655592D01*
X72522966Y-55655461D01*
X72529580Y-55651210D01*
X73337331Y-54843458D01*
X73344348Y-54830607D01*
X73336574Y-54819937D01*
X73328004Y-54813169D01*
X73319417Y-54807464D01*
X73120055Y-54697410D01*
X73110643Y-54693180D01*
X72895971Y-54617160D01*
X72886014Y-54614530D01*
X72661805Y-54574591D01*
X72651554Y-54573622D01*
X72423830Y-54570840D01*
X72413546Y-54571560D01*
X72188437Y-54606006D01*
X72178410Y-54608395D01*
X71961951Y-54679144D01*
X71952442Y-54683141D01*
X71750451Y-54788292D01*
X71741716Y-54793793D01*
X71705535Y-54820958D01*
X71697081Y-54832285D01*
X70803432Y-54832285D01*
X70804348Y-54830607D01*
X70796574Y-54819937D01*
X70788004Y-54813169D01*
X70779417Y-54807464D01*
X70580055Y-54697410D01*
X70570643Y-54693180D01*
X70355971Y-54617160D01*
X70346014Y-54614530D01*
X70121805Y-54574591D01*
X70111554Y-54573622D01*
X69883830Y-54570840D01*
X69873546Y-54571560D01*
X69648437Y-54606006D01*
X69638410Y-54608395D01*
X69421951Y-54679144D01*
X69412442Y-54683141D01*
X69210451Y-54788292D01*
X69201716Y-54793793D01*
X69165535Y-54820958D01*
X69157081Y-54832285D01*
X68273018Y-54832285D01*
X68248278Y-54812747D01*
X68248273Y-54812744D01*
X68244224Y-54809546D01*
X68239708Y-54807053D01*
X68239705Y-54807051D01*
X68040250Y-54696946D01*
X68040246Y-54696944D01*
X68035726Y-54694449D01*
X68030857Y-54692725D01*
X68030853Y-54692723D01*
X67816105Y-54616676D01*
X67816101Y-54616675D01*
X67811230Y-54614950D01*
X67806140Y-54614043D01*
X67806135Y-54614042D01*
X67678814Y-54591364D01*
X67576764Y-54573186D01*
X67487637Y-54572097D01*
X67343795Y-54570339D01*
X67343793Y-54570339D01*
X67338625Y-54570276D01*
X67103209Y-54606300D01*
X66876838Y-54680289D01*
X66665590Y-54790258D01*
X66661457Y-54793361D01*
X66661454Y-54793363D01*
X66587314Y-54849029D01*
X66475140Y-54933252D01*
X66310602Y-55105431D01*
X66288629Y-55137642D01*
X66275186Y-55157349D01*
X66220274Y-55202351D01*
X66149749Y-55210522D01*
X66086002Y-55179267D01*
X66065306Y-55154784D01*
X66054217Y-55137642D01*
X66054212Y-55137636D01*
X66051406Y-55133298D01*
X65891124Y-54957150D01*
X65887073Y-54953951D01*
X65887069Y-54953947D01*
X65708278Y-54812747D01*
X65708273Y-54812744D01*
X65704224Y-54809546D01*
X65699708Y-54807053D01*
X65699705Y-54807051D01*
X65500250Y-54696946D01*
X65500246Y-54696944D01*
X65495726Y-54694449D01*
X65490857Y-54692725D01*
X65490853Y-54692723D01*
X65276105Y-54616676D01*
X65276101Y-54616675D01*
X65271230Y-54614950D01*
X65266140Y-54614043D01*
X65266135Y-54614042D01*
X65138814Y-54591364D01*
X65036764Y-54573186D01*
X64947637Y-54572097D01*
X64803795Y-54570339D01*
X64803793Y-54570339D01*
X64798625Y-54570276D01*
X64563209Y-54606300D01*
X64336838Y-54680289D01*
X64125590Y-54790258D01*
X64121457Y-54793361D01*
X64121454Y-54793363D01*
X64047314Y-54849029D01*
X63935140Y-54933252D01*
X63770602Y-55105431D01*
X63767693Y-55109696D01*
X63767687Y-55109704D01*
X63735186Y-55157349D01*
X63636394Y-55302172D01*
X63536122Y-55518191D01*
X63472477Y-55747685D01*
X63471928Y-55752819D01*
X63471928Y-55752821D01*
X63469113Y-55779160D01*
X63447170Y-55984494D01*
X63447467Y-55989646D01*
X63447467Y-55989650D01*
X63459053Y-56190592D01*
X63460879Y-56222255D01*
X63462016Y-56227301D01*
X63462017Y-56227307D01*
X63482830Y-56319659D01*
X63513237Y-56454585D01*
X63515179Y-56459367D01*
X63515180Y-56459371D01*
X63600893Y-56670457D01*
X63602837Y-56675244D01*
X63690979Y-56819078D01*
X63722676Y-56870802D01*
X63727274Y-56878306D01*
X63883204Y-57058317D01*
X64066442Y-57210444D01*
X64070894Y-57213046D01*
X64070899Y-57213049D01*
X64169333Y-57270569D01*
X64272065Y-57330601D01*
X64494552Y-57415560D01*
X64499618Y-57416591D01*
X64499619Y-57416591D01*
X64666430Y-57450529D01*
X64729196Y-57483711D01*
X64764058Y-57545559D01*
X64759949Y-57616436D01*
X64718172Y-57673841D01*
X64651993Y-57699546D01*
X64641310Y-57700000D01*
X60926000Y-57700000D01*
X60857879Y-57679998D01*
X60811386Y-57626342D01*
X60800000Y-57574000D01*
X60800000Y-39226000D01*
X60820002Y-39157879D01*
X60873658Y-39111386D01*
X60926000Y-39100000D01*
X64647076Y-39100000D01*
X64715197Y-39120002D01*
G37*
%TD.AperFunction*%
%TD*%
M02*
