%TF.GenerationSoftware,KiCad,Pcbnew,(6.0.7)*%
%TF.CreationDate,2023-05-31T01:42:51-04:00*%
%TF.ProjectId,Big_Keys_Keyboard,4269675f-4b65-4797-935f-4b6579626f61,rev?*%
%TF.SameCoordinates,Original*%
%TF.FileFunction,Copper,L2,Bot*%
%TF.FilePolarity,Positive*%
%FSLAX46Y46*%
G04 Gerber Fmt 4.6, Leading zero omitted, Abs format (unit mm)*
G04 Created by KiCad (PCBNEW (6.0.7)) date 2023-05-31 01:42:51*
%MOMM*%
%LPD*%
G01*
G04 APERTURE LIST*
%TA.AperFunction,ComponentPad*%
%ADD10C,1.238000*%
%TD*%
%TA.AperFunction,ComponentPad*%
%ADD11R,1.238000X1.238000*%
%TD*%
%TA.AperFunction,ComponentPad*%
%ADD12C,1.879600*%
%TD*%
%TA.AperFunction,ComponentPad*%
%ADD13C,1.508000*%
%TD*%
%TA.AperFunction,ComponentPad*%
%ADD14C,2.250000*%
%TD*%
%TA.AperFunction,ComponentPad*%
%ADD15C,1.600000*%
%TD*%
%TA.AperFunction,ComponentPad*%
%ADD16O,1.600000X1.600000*%
%TD*%
%TA.AperFunction,ViaPad*%
%ADD17C,0.800000*%
%TD*%
%TA.AperFunction,Conductor*%
%ADD18C,0.250000*%
%TD*%
%TA.AperFunction,Conductor*%
%ADD19C,0.381000*%
%TD*%
G04 APERTURE END LIST*
D10*
%TO.P,D1,A*%
%TO.N,Net-(D1-PadA)*%
X97000000Y-98854000D03*
D11*
%TO.P,D1,C*%
%TO.N,ROW1*%
X97000000Y-107146000D03*
%TD*%
D10*
%TO.P,D3,A*%
%TO.N,Net-(D3-PadA)*%
X167000000Y-98854000D03*
D11*
%TO.P,D3,C*%
%TO.N,ROW1*%
X167000000Y-107146000D03*
%TD*%
D12*
%TO.P,B1,1,TXO*%
%TO.N,unconnected-(B1-Pad1)*%
X64900000Y-56020000D03*
%TO.P,B1,2,RXI*%
%TO.N,unconnected-(B1-Pad2)*%
X67440000Y-56020000D03*
%TO.P,B1,3,GND*%
%TO.N,GND*%
X69980000Y-56020000D03*
%TO.P,B1,4,GND*%
X72520000Y-56020000D03*
%TO.P,B1,5,2*%
%TO.N,SDA*%
X75060000Y-56020000D03*
%TO.P,B1,6,\u002A3*%
%TO.N,SCL*%
X77600000Y-56020000D03*
%TO.P,B1,7,4*%
%TO.N,ROW1*%
X80140000Y-56020000D03*
%TO.P,B1,8,\u002A5*%
%TO.N,ROW2*%
X82680000Y-56020000D03*
%TO.P,B1,9,\u002A6*%
%TO.N,COL1*%
X85220000Y-56020000D03*
%TO.P,B1,10,7*%
%TO.N,COL2*%
X87760000Y-56020000D03*
%TO.P,B1,11,8*%
%TO.N,unconnected-(B1-Pad11)*%
X90300000Y-56020000D03*
%TO.P,B1,12,\u002A9*%
%TO.N,unconnected-(B1-Pad12)*%
X92840000Y-56020000D03*
%TO.P,B1,13,\u002A10*%
%TO.N,unconnected-(B1-Pad13)*%
X92840000Y-40780000D03*
%TO.P,B1,14,11(MOSI)*%
%TO.N,unconnected-(B1-Pad14)*%
X90300000Y-40780000D03*
%TO.P,B1,15,12(MISO)*%
%TO.N,unconnected-(B1-Pad15)*%
X87760000Y-40780000D03*
%TO.P,B1,16,13(SCK)*%
%TO.N,unconnected-(B1-Pad16)*%
X85220000Y-40780000D03*
%TO.P,B1,17,A0*%
%TO.N,unconnected-(B1-Pad17)*%
X82680000Y-40780000D03*
%TO.P,B1,18,A1*%
%TO.N,unconnected-(B1-Pad18)*%
X80140000Y-40780000D03*
%TO.P,B1,19,A2*%
%TO.N,unconnected-(B1-Pad19)*%
X77600000Y-40780000D03*
%TO.P,B1,20,A3*%
%TO.N,unconnected-(B1-Pad20)*%
X75060000Y-40780000D03*
%TO.P,B1,21,VCC*%
%TO.N,VCC*%
X72520000Y-40780000D03*
%TO.P,B1,22,RESET*%
%TO.N,unconnected-(B1-Pad22)*%
X69980000Y-40780000D03*
%TO.P,B1,23,GND*%
%TO.N,GND*%
X67440000Y-40780000D03*
%TO.P,B1,24,RAW*%
%TO.N,unconnected-(B1-Pad24)*%
X64900000Y-40780000D03*
%TD*%
D13*
%TO.P,U3,BR1*%
%TO.N,N/C*%
X157190000Y-93080000D03*
%TO.P,U3,BR2*%
X164810000Y-93080000D03*
D14*
%TO.P,U3,P$1*%
%TO.N,Net-(D3-PadA)*%
X163510000Y-82920000D03*
%TO.P,U3,P$2*%
%TO.N,COL2*%
X157190000Y-85460000D03*
%TD*%
D13*
%TO.P,U1,BR1*%
%TO.N,N/C*%
X87190000Y-93080000D03*
%TO.P,U1,BR2*%
X94810000Y-93080000D03*
D14*
%TO.P,U1,P$1*%
%TO.N,Net-(D1-PadA)*%
X93510000Y-82920000D03*
%TO.P,U1,P$2*%
%TO.N,COL1*%
X87190000Y-85460000D03*
%TD*%
D15*
%TO.P,R1,1*%
%TO.N,SCL*%
X123020000Y-67700000D03*
D16*
%TO.P,R1,2*%
%TO.N,VCC*%
X133180000Y-67700000D03*
%TD*%
D13*
%TO.P,U2,BR1*%
%TO.N,N/C*%
X87190000Y-163080000D03*
%TO.P,U2,BR2*%
X94810000Y-163080000D03*
D14*
%TO.P,U2,P$1*%
%TO.N,Net-(D2-PadA)*%
X93510000Y-152920000D03*
%TO.P,U2,P$2*%
%TO.N,COL1*%
X87190000Y-155460000D03*
%TD*%
D10*
%TO.P,D2,A*%
%TO.N,Net-(D2-PadA)*%
X97000000Y-146146000D03*
D11*
%TO.P,D2,C*%
%TO.N,ROW2*%
X97000000Y-137854000D03*
%TD*%
D15*
%TO.P,R2,1*%
%TO.N,SDA*%
X123040000Y-72300000D03*
D16*
%TO.P,R2,2*%
%TO.N,VCC*%
X133200000Y-72300000D03*
%TD*%
D13*
%TO.P,U4,BR1*%
%TO.N,N/C*%
X157190000Y-163080000D03*
%TO.P,U4,BR2*%
X164810000Y-163080000D03*
D14*
%TO.P,U4,P$1*%
%TO.N,Net-(D4-PadA)*%
X163510000Y-152920000D03*
%TO.P,U4,P$2*%
%TO.N,COL2*%
X157190000Y-155460000D03*
%TD*%
D10*
%TO.P,D4,A*%
%TO.N,Net-(D4-PadA)*%
X167000000Y-146146000D03*
D11*
%TO.P,D4,C*%
%TO.N,ROW2*%
X167000000Y-137854000D03*
%TD*%
D17*
%TO.N,SDA*%
X163500000Y-110500000D03*
X107400000Y-110300000D03*
X84700000Y-110500000D03*
X117000000Y-72300000D03*
%TO.N,SCL*%
X105600000Y-109400000D03*
X114600000Y-67700000D03*
X161100000Y-108775500D03*
X84700000Y-109400000D03*
%TO.N,VCC*%
X165200000Y-110500000D03*
X84400000Y-111500000D03*
X109700000Y-111300000D03*
%TO.N,GND*%
X110700000Y-112400000D03*
X142800000Y-109500000D03*
X84400000Y-112500000D03*
X164800000Y-109500000D03*
%TD*%
D18*
%TO.N,SDA*%
X163300000Y-110300000D02*
X163500000Y-110500000D01*
X123040000Y-72300000D02*
X117000000Y-72300000D01*
X107400000Y-110300000D02*
X84900000Y-110300000D01*
X107400000Y-110300000D02*
X163300000Y-110300000D01*
X84900000Y-110300000D02*
X84700000Y-110500000D01*
%TO.N,SCL*%
X105600000Y-109400000D02*
X84700000Y-109400000D01*
X123020000Y-67700000D02*
X114600000Y-67700000D01*
X105600000Y-109400000D02*
X106225000Y-108775000D01*
X161099500Y-108775000D02*
X161100000Y-108775500D01*
X106225000Y-108775000D02*
X161099500Y-108775000D01*
D19*
%TO.N,ROW1*%
X97000000Y-107146000D02*
X167000000Y-107146000D01*
%TO.N,ROW2*%
X97000000Y-137854000D02*
X167000000Y-137854000D01*
%TO.N,COL1*%
X85220000Y-56020000D02*
X87190000Y-57990000D01*
X87190000Y-57990000D02*
X87190000Y-85460000D01*
%TO.N,COL2*%
X157190000Y-85460000D02*
X117200000Y-85460000D01*
X117200000Y-85460000D02*
X87760000Y-56020000D01*
D18*
%TO.N,VCC*%
X109500000Y-111500000D02*
X84400000Y-111500000D01*
X164400000Y-111300000D02*
X165200000Y-110500000D01*
X109700000Y-111300000D02*
X164400000Y-111300000D01*
X109700000Y-111300000D02*
X109500000Y-111500000D01*
%TO.N,GND*%
X110500000Y-112600000D02*
X84500000Y-112600000D01*
X110700000Y-112400000D02*
X110500000Y-112600000D01*
X84500000Y-112600000D02*
X84400000Y-112500000D01*
X142800000Y-109500000D02*
X164800000Y-109500000D01*
%TD*%
%TA.AperFunction,Conductor*%
%TO.N,GND*%
G36*
X64715197Y-39120002D02*
G01*
X64761690Y-39173658D01*
X64771794Y-39243932D01*
X64742300Y-39308512D01*
X64682574Y-39346896D01*
X64666135Y-39350550D01*
X64563209Y-39366300D01*
X64336838Y-39440289D01*
X64125590Y-39550258D01*
X64121457Y-39553361D01*
X64121454Y-39553363D01*
X64047555Y-39608848D01*
X63935140Y-39693252D01*
X63770602Y-39865431D01*
X63767693Y-39869696D01*
X63767687Y-39869704D01*
X63735186Y-39917349D01*
X63636394Y-40062172D01*
X63536122Y-40278191D01*
X63472477Y-40507685D01*
X63471928Y-40512819D01*
X63471928Y-40512821D01*
X63469113Y-40539160D01*
X63447170Y-40744494D01*
X63447467Y-40749646D01*
X63447467Y-40749650D01*
X63455863Y-40895263D01*
X63460879Y-40982255D01*
X63462016Y-40987301D01*
X63462017Y-40987307D01*
X63482830Y-41079659D01*
X63513237Y-41214585D01*
X63515179Y-41219367D01*
X63515180Y-41219371D01*
X63600893Y-41430457D01*
X63602837Y-41435244D01*
X63605536Y-41439648D01*
X63722676Y-41630802D01*
X63727274Y-41638306D01*
X63883204Y-41818317D01*
X64066442Y-41970444D01*
X64070894Y-41973046D01*
X64070899Y-41973049D01*
X64169333Y-42030569D01*
X64272065Y-42090601D01*
X64494552Y-42175560D01*
X64499618Y-42176591D01*
X64499619Y-42176591D01*
X64553956Y-42187646D01*
X64727928Y-42223041D01*
X64862121Y-42227962D01*
X64960760Y-42231579D01*
X64960764Y-42231579D01*
X64965924Y-42231768D01*
X64971044Y-42231112D01*
X64971046Y-42231112D01*
X65197023Y-42202164D01*
X65197024Y-42202164D01*
X65202151Y-42201507D01*
X65286803Y-42176110D01*
X65425316Y-42134554D01*
X65425317Y-42134553D01*
X65430262Y-42133070D01*
X65644133Y-42028295D01*
X65648336Y-42025297D01*
X65648341Y-42025294D01*
X65725155Y-41970503D01*
X66614326Y-41970503D01*
X66619607Y-41977558D01*
X66807821Y-42087541D01*
X66817108Y-42091991D01*
X67029861Y-42173233D01*
X67039763Y-42176110D01*
X67262911Y-42221510D01*
X67273163Y-42222733D01*
X67500738Y-42231077D01*
X67511024Y-42230610D01*
X67736915Y-42201673D01*
X67747001Y-42199530D01*
X67965128Y-42134088D01*
X67974723Y-42130328D01*
X68179237Y-42030137D01*
X68188083Y-42024863D01*
X68253631Y-41978108D01*
X68262032Y-41967408D01*
X68255045Y-41954256D01*
X67452811Y-41152021D01*
X67438868Y-41144408D01*
X67437034Y-41144539D01*
X67430420Y-41148790D01*
X66621083Y-41958128D01*
X66614326Y-41970503D01*
X65725155Y-41970503D01*
X65833816Y-41892996D01*
X65833818Y-41892994D01*
X65838020Y-41889997D01*
X66006716Y-41721889D01*
X66009732Y-41717692D01*
X66009739Y-41717684D01*
X66072170Y-41630802D01*
X66128164Y-41587154D01*
X66198868Y-41580708D01*
X66245626Y-41604169D01*
X66249976Y-41604890D01*
X66260387Y-41600402D01*
X67067979Y-40792811D01*
X67075592Y-40778868D01*
X67075461Y-40777034D01*
X67071210Y-40770420D01*
X66265220Y-39964431D01*
X66252803Y-39957651D01*
X66189899Y-39982699D01*
X66120210Y-39969135D01*
X66072360Y-39925688D01*
X66054216Y-39897642D01*
X66051406Y-39893298D01*
X65891124Y-39717150D01*
X65887073Y-39713951D01*
X65887069Y-39713947D01*
X65708278Y-39572747D01*
X65708273Y-39572744D01*
X65704224Y-39569546D01*
X65699708Y-39567053D01*
X65699705Y-39567051D01*
X65500250Y-39456946D01*
X65500246Y-39456944D01*
X65495726Y-39454449D01*
X65490857Y-39452725D01*
X65490853Y-39452723D01*
X65276105Y-39376676D01*
X65276101Y-39376675D01*
X65271230Y-39374950D01*
X65266140Y-39374043D01*
X65266135Y-39374042D01*
X65131423Y-39350047D01*
X65067866Y-39318409D01*
X65031503Y-39257432D01*
X65033879Y-39186475D01*
X65074240Y-39128067D01*
X65139772Y-39100752D01*
X65153519Y-39100000D01*
X67190383Y-39100000D01*
X67258504Y-39120002D01*
X67304997Y-39173658D01*
X67315101Y-39243932D01*
X67285607Y-39308512D01*
X67225881Y-39346896D01*
X67209442Y-39350550D01*
X67108437Y-39366006D01*
X67098410Y-39368395D01*
X66881951Y-39439144D01*
X66872442Y-39443141D01*
X66670451Y-39548292D01*
X66661716Y-39553793D01*
X66625535Y-39580958D01*
X66617081Y-39592285D01*
X66623825Y-39604614D01*
X67427189Y-40407979D01*
X67441132Y-40415592D01*
X67442966Y-40415461D01*
X67449580Y-40411210D01*
X68257331Y-39603458D01*
X68264348Y-39590607D01*
X68256574Y-39579937D01*
X68248004Y-39573169D01*
X68239417Y-39567464D01*
X68040055Y-39457410D01*
X68030643Y-39453180D01*
X67815971Y-39377160D01*
X67806014Y-39374530D01*
X67668571Y-39350047D01*
X67605014Y-39318409D01*
X67568651Y-39257431D01*
X67571028Y-39186475D01*
X67611389Y-39128067D01*
X67676921Y-39100752D01*
X67690668Y-39100000D01*
X69727076Y-39100000D01*
X69795197Y-39120002D01*
X69841690Y-39173658D01*
X69851794Y-39243932D01*
X69822300Y-39308512D01*
X69762574Y-39346896D01*
X69746135Y-39350550D01*
X69643209Y-39366300D01*
X69416838Y-39440289D01*
X69205590Y-39550258D01*
X69201457Y-39553361D01*
X69201454Y-39553363D01*
X69127555Y-39608848D01*
X69015140Y-39693252D01*
X68850602Y-39865431D01*
X68808064Y-39927790D01*
X68753155Y-39972790D01*
X68682631Y-39980961D01*
X68630940Y-39956588D01*
X68628940Y-39956307D01*
X68617755Y-39961456D01*
X67812021Y-40767189D01*
X67804408Y-40781132D01*
X67804539Y-40782966D01*
X67808790Y-40789580D01*
X68614826Y-41595615D01*
X68628096Y-41602861D01*
X68690005Y-41579078D01*
X68759523Y-41593490D01*
X68801899Y-41630245D01*
X68804574Y-41633899D01*
X68807274Y-41638306D01*
X68963204Y-41818317D01*
X69146442Y-41970444D01*
X69150894Y-41973046D01*
X69150899Y-41973049D01*
X69249333Y-42030569D01*
X69352065Y-42090601D01*
X69574552Y-42175560D01*
X69579618Y-42176591D01*
X69579619Y-42176591D01*
X69633956Y-42187646D01*
X69807928Y-42223041D01*
X69942121Y-42227962D01*
X70040760Y-42231579D01*
X70040764Y-42231579D01*
X70045924Y-42231768D01*
X70051044Y-42231112D01*
X70051046Y-42231112D01*
X70277023Y-42202164D01*
X70277024Y-42202164D01*
X70282151Y-42201507D01*
X70366803Y-42176110D01*
X70505316Y-42134554D01*
X70505317Y-42134553D01*
X70510262Y-42133070D01*
X70724133Y-42028295D01*
X70728336Y-42025297D01*
X70728341Y-42025294D01*
X70913816Y-41892996D01*
X70913818Y-41892994D01*
X70918020Y-41889997D01*
X71086716Y-41721889D01*
X71144979Y-41640807D01*
X71200972Y-41597160D01*
X71271676Y-41590714D01*
X71334640Y-41623516D01*
X71346582Y-41637176D01*
X71347274Y-41638306D01*
X71503204Y-41818317D01*
X71686442Y-41970444D01*
X71690894Y-41973046D01*
X71690899Y-41973049D01*
X71789333Y-42030569D01*
X71892065Y-42090601D01*
X72114552Y-42175560D01*
X72119618Y-42176591D01*
X72119619Y-42176591D01*
X72173956Y-42187646D01*
X72347928Y-42223041D01*
X72482121Y-42227962D01*
X72580760Y-42231579D01*
X72580764Y-42231579D01*
X72585924Y-42231768D01*
X72591044Y-42231112D01*
X72591046Y-42231112D01*
X72817023Y-42202164D01*
X72817024Y-42202164D01*
X72822151Y-42201507D01*
X72906803Y-42176110D01*
X73045316Y-42134554D01*
X73045317Y-42134553D01*
X73050262Y-42133070D01*
X73264133Y-42028295D01*
X73268336Y-42025297D01*
X73268341Y-42025294D01*
X73453816Y-41892996D01*
X73453818Y-41892994D01*
X73458020Y-41889997D01*
X73626716Y-41721889D01*
X73684979Y-41640807D01*
X73740972Y-41597160D01*
X73811676Y-41590714D01*
X73874640Y-41623516D01*
X73886582Y-41637176D01*
X73887274Y-41638306D01*
X74043204Y-41818317D01*
X74226442Y-41970444D01*
X74230894Y-41973046D01*
X74230899Y-41973049D01*
X74329333Y-42030569D01*
X74432065Y-42090601D01*
X74654552Y-42175560D01*
X74659618Y-42176591D01*
X74659619Y-42176591D01*
X74713956Y-42187646D01*
X74887928Y-42223041D01*
X75022121Y-42227962D01*
X75120760Y-42231579D01*
X75120764Y-42231579D01*
X75125924Y-42231768D01*
X75131044Y-42231112D01*
X75131046Y-42231112D01*
X75357023Y-42202164D01*
X75357024Y-42202164D01*
X75362151Y-42201507D01*
X75446803Y-42176110D01*
X75585316Y-42134554D01*
X75585317Y-42134553D01*
X75590262Y-42133070D01*
X75804133Y-42028295D01*
X75808336Y-42025297D01*
X75808341Y-42025294D01*
X75993816Y-41892996D01*
X75993818Y-41892994D01*
X75998020Y-41889997D01*
X76166716Y-41721889D01*
X76224979Y-41640807D01*
X76280972Y-41597160D01*
X76351676Y-41590714D01*
X76414640Y-41623516D01*
X76426582Y-41637176D01*
X76427274Y-41638306D01*
X76583204Y-41818317D01*
X76766442Y-41970444D01*
X76770894Y-41973046D01*
X76770899Y-41973049D01*
X76869333Y-42030569D01*
X76972065Y-42090601D01*
X77194552Y-42175560D01*
X77199618Y-42176591D01*
X77199619Y-42176591D01*
X77253956Y-42187646D01*
X77427928Y-42223041D01*
X77562121Y-42227962D01*
X77660760Y-42231579D01*
X77660764Y-42231579D01*
X77665924Y-42231768D01*
X77671044Y-42231112D01*
X77671046Y-42231112D01*
X77897023Y-42202164D01*
X77897024Y-42202164D01*
X77902151Y-42201507D01*
X77986803Y-42176110D01*
X78125316Y-42134554D01*
X78125317Y-42134553D01*
X78130262Y-42133070D01*
X78344133Y-42028295D01*
X78348336Y-42025297D01*
X78348341Y-42025294D01*
X78533816Y-41892996D01*
X78533818Y-41892994D01*
X78538020Y-41889997D01*
X78706716Y-41721889D01*
X78764979Y-41640807D01*
X78820972Y-41597160D01*
X78891676Y-41590714D01*
X78954640Y-41623516D01*
X78966582Y-41637176D01*
X78967274Y-41638306D01*
X79123204Y-41818317D01*
X79306442Y-41970444D01*
X79310894Y-41973046D01*
X79310899Y-41973049D01*
X79409333Y-42030569D01*
X79512065Y-42090601D01*
X79734552Y-42175560D01*
X79739618Y-42176591D01*
X79739619Y-42176591D01*
X79793956Y-42187646D01*
X79967928Y-42223041D01*
X80102121Y-42227962D01*
X80200760Y-42231579D01*
X80200764Y-42231579D01*
X80205924Y-42231768D01*
X80211044Y-42231112D01*
X80211046Y-42231112D01*
X80437023Y-42202164D01*
X80437024Y-42202164D01*
X80442151Y-42201507D01*
X80526803Y-42176110D01*
X80665316Y-42134554D01*
X80665317Y-42134553D01*
X80670262Y-42133070D01*
X80884133Y-42028295D01*
X80888336Y-42025297D01*
X80888341Y-42025294D01*
X81073816Y-41892996D01*
X81073818Y-41892994D01*
X81078020Y-41889997D01*
X81246716Y-41721889D01*
X81304979Y-41640807D01*
X81360972Y-41597160D01*
X81431676Y-41590714D01*
X81494640Y-41623516D01*
X81506582Y-41637176D01*
X81507274Y-41638306D01*
X81663204Y-41818317D01*
X81846442Y-41970444D01*
X81850894Y-41973046D01*
X81850899Y-41973049D01*
X81949333Y-42030569D01*
X82052065Y-42090601D01*
X82274552Y-42175560D01*
X82279618Y-42176591D01*
X82279619Y-42176591D01*
X82333956Y-42187646D01*
X82507928Y-42223041D01*
X82642121Y-42227962D01*
X82740760Y-42231579D01*
X82740764Y-42231579D01*
X82745924Y-42231768D01*
X82751044Y-42231112D01*
X82751046Y-42231112D01*
X82977023Y-42202164D01*
X82977024Y-42202164D01*
X82982151Y-42201507D01*
X83066803Y-42176110D01*
X83205316Y-42134554D01*
X83205317Y-42134553D01*
X83210262Y-42133070D01*
X83424133Y-42028295D01*
X83428336Y-42025297D01*
X83428341Y-42025294D01*
X83613816Y-41892996D01*
X83613818Y-41892994D01*
X83618020Y-41889997D01*
X83786716Y-41721889D01*
X83844979Y-41640807D01*
X83900972Y-41597160D01*
X83971676Y-41590714D01*
X84034640Y-41623516D01*
X84046582Y-41637176D01*
X84047274Y-41638306D01*
X84203204Y-41818317D01*
X84386442Y-41970444D01*
X84390894Y-41973046D01*
X84390899Y-41973049D01*
X84489333Y-42030569D01*
X84592065Y-42090601D01*
X84814552Y-42175560D01*
X84819618Y-42176591D01*
X84819619Y-42176591D01*
X84873956Y-42187646D01*
X85047928Y-42223041D01*
X85182121Y-42227962D01*
X85280760Y-42231579D01*
X85280764Y-42231579D01*
X85285924Y-42231768D01*
X85291044Y-42231112D01*
X85291046Y-42231112D01*
X85517023Y-42202164D01*
X85517024Y-42202164D01*
X85522151Y-42201507D01*
X85606803Y-42176110D01*
X85745316Y-42134554D01*
X85745317Y-42134553D01*
X85750262Y-42133070D01*
X85964133Y-42028295D01*
X85968336Y-42025297D01*
X85968341Y-42025294D01*
X86153816Y-41892996D01*
X86153818Y-41892994D01*
X86158020Y-41889997D01*
X86326716Y-41721889D01*
X86384979Y-41640807D01*
X86440972Y-41597160D01*
X86511676Y-41590714D01*
X86574640Y-41623516D01*
X86586582Y-41637176D01*
X86587274Y-41638306D01*
X86743204Y-41818317D01*
X86926442Y-41970444D01*
X86930894Y-41973046D01*
X86930899Y-41973049D01*
X87029333Y-42030569D01*
X87132065Y-42090601D01*
X87354552Y-42175560D01*
X87359618Y-42176591D01*
X87359619Y-42176591D01*
X87413956Y-42187646D01*
X87587928Y-42223041D01*
X87722121Y-42227962D01*
X87820760Y-42231579D01*
X87820764Y-42231579D01*
X87825924Y-42231768D01*
X87831044Y-42231112D01*
X87831046Y-42231112D01*
X88057023Y-42202164D01*
X88057024Y-42202164D01*
X88062151Y-42201507D01*
X88146803Y-42176110D01*
X88285316Y-42134554D01*
X88285317Y-42134553D01*
X88290262Y-42133070D01*
X88504133Y-42028295D01*
X88508336Y-42025297D01*
X88508341Y-42025294D01*
X88693816Y-41892996D01*
X88693818Y-41892994D01*
X88698020Y-41889997D01*
X88866716Y-41721889D01*
X88924979Y-41640807D01*
X88980972Y-41597160D01*
X89051676Y-41590714D01*
X89114640Y-41623516D01*
X89126582Y-41637176D01*
X89127274Y-41638306D01*
X89283204Y-41818317D01*
X89466442Y-41970444D01*
X89470894Y-41973046D01*
X89470899Y-41973049D01*
X89569333Y-42030569D01*
X89672065Y-42090601D01*
X89894552Y-42175560D01*
X89899618Y-42176591D01*
X89899619Y-42176591D01*
X89953956Y-42187646D01*
X90127928Y-42223041D01*
X90262121Y-42227962D01*
X90360760Y-42231579D01*
X90360764Y-42231579D01*
X90365924Y-42231768D01*
X90371044Y-42231112D01*
X90371046Y-42231112D01*
X90597023Y-42202164D01*
X90597024Y-42202164D01*
X90602151Y-42201507D01*
X90686803Y-42176110D01*
X90825316Y-42134554D01*
X90825317Y-42134553D01*
X90830262Y-42133070D01*
X91044133Y-42028295D01*
X91048336Y-42025297D01*
X91048341Y-42025294D01*
X91233816Y-41892996D01*
X91233818Y-41892994D01*
X91238020Y-41889997D01*
X91406716Y-41721889D01*
X91464979Y-41640807D01*
X91520972Y-41597160D01*
X91591676Y-41590714D01*
X91654640Y-41623516D01*
X91666582Y-41637176D01*
X91667274Y-41638306D01*
X91823204Y-41818317D01*
X92006442Y-41970444D01*
X92010894Y-41973046D01*
X92010899Y-41973049D01*
X92109333Y-42030569D01*
X92212065Y-42090601D01*
X92434552Y-42175560D01*
X92439618Y-42176591D01*
X92439619Y-42176591D01*
X92493956Y-42187646D01*
X92667928Y-42223041D01*
X92802121Y-42227962D01*
X92900760Y-42231579D01*
X92900764Y-42231579D01*
X92905924Y-42231768D01*
X92911044Y-42231112D01*
X92911046Y-42231112D01*
X93137023Y-42202164D01*
X93137024Y-42202164D01*
X93142151Y-42201507D01*
X93226803Y-42176110D01*
X93365316Y-42134554D01*
X93365317Y-42134553D01*
X93370262Y-42133070D01*
X93584133Y-42028295D01*
X93588336Y-42025297D01*
X93588341Y-42025294D01*
X93773816Y-41892996D01*
X93773818Y-41892994D01*
X93778020Y-41889997D01*
X93946716Y-41721889D01*
X94085690Y-41528486D01*
X94131774Y-41435244D01*
X94188917Y-41319624D01*
X94188918Y-41319622D01*
X94191211Y-41314982D01*
X94253441Y-41110157D01*
X94292382Y-41050793D01*
X94357236Y-41021905D01*
X94427413Y-41032666D01*
X94480631Y-41079659D01*
X94500000Y-41146785D01*
X94500000Y-55664546D01*
X94479998Y-55732667D01*
X94426342Y-55779160D01*
X94356068Y-55789264D01*
X94291488Y-55759770D01*
X94251796Y-55695242D01*
X94216990Y-55556675D01*
X94216990Y-55556674D01*
X94215731Y-55551663D01*
X94120767Y-55333259D01*
X94103694Y-55306867D01*
X94037424Y-55204431D01*
X93991406Y-55133298D01*
X93831124Y-54957150D01*
X93827073Y-54953951D01*
X93827069Y-54953947D01*
X93648278Y-54812747D01*
X93648273Y-54812744D01*
X93644224Y-54809546D01*
X93639708Y-54807053D01*
X93639705Y-54807051D01*
X93440250Y-54696946D01*
X93440246Y-54696944D01*
X93435726Y-54694449D01*
X93430857Y-54692725D01*
X93430853Y-54692723D01*
X93216105Y-54616676D01*
X93216101Y-54616675D01*
X93211230Y-54614950D01*
X93206140Y-54614043D01*
X93206135Y-54614042D01*
X93078814Y-54591364D01*
X92976764Y-54573186D01*
X92887637Y-54572097D01*
X92743795Y-54570339D01*
X92743793Y-54570339D01*
X92738625Y-54570276D01*
X92503209Y-54606300D01*
X92276838Y-54680289D01*
X92065590Y-54790258D01*
X92061457Y-54793361D01*
X92061454Y-54793363D01*
X91879275Y-54930147D01*
X91875140Y-54933252D01*
X91710602Y-55105431D01*
X91688629Y-55137642D01*
X91675186Y-55157349D01*
X91620274Y-55202351D01*
X91549749Y-55210522D01*
X91486002Y-55179267D01*
X91465306Y-55154784D01*
X91454217Y-55137642D01*
X91454212Y-55137636D01*
X91451406Y-55133298D01*
X91291124Y-54957150D01*
X91287073Y-54953951D01*
X91287069Y-54953947D01*
X91108278Y-54812747D01*
X91108273Y-54812744D01*
X91104224Y-54809546D01*
X91099708Y-54807053D01*
X91099705Y-54807051D01*
X90900250Y-54696946D01*
X90900246Y-54696944D01*
X90895726Y-54694449D01*
X90890857Y-54692725D01*
X90890853Y-54692723D01*
X90676105Y-54616676D01*
X90676101Y-54616675D01*
X90671230Y-54614950D01*
X90666140Y-54614043D01*
X90666135Y-54614042D01*
X90538814Y-54591364D01*
X90436764Y-54573186D01*
X90347637Y-54572097D01*
X90203795Y-54570339D01*
X90203793Y-54570339D01*
X90198625Y-54570276D01*
X89963209Y-54606300D01*
X89736838Y-54680289D01*
X89525590Y-54790258D01*
X89521457Y-54793361D01*
X89521454Y-54793363D01*
X89339275Y-54930147D01*
X89335140Y-54933252D01*
X89170602Y-55105431D01*
X89148629Y-55137642D01*
X89135186Y-55157349D01*
X89080274Y-55202351D01*
X89009749Y-55210522D01*
X88946002Y-55179267D01*
X88925306Y-55154784D01*
X88914217Y-55137642D01*
X88914212Y-55137636D01*
X88911406Y-55133298D01*
X88751124Y-54957150D01*
X88747073Y-54953951D01*
X88747069Y-54953947D01*
X88568278Y-54812747D01*
X88568273Y-54812744D01*
X88564224Y-54809546D01*
X88559708Y-54807053D01*
X88559705Y-54807051D01*
X88360250Y-54696946D01*
X88360246Y-54696944D01*
X88355726Y-54694449D01*
X88350857Y-54692725D01*
X88350853Y-54692723D01*
X88136105Y-54616676D01*
X88136101Y-54616675D01*
X88131230Y-54614950D01*
X88126140Y-54614043D01*
X88126135Y-54614042D01*
X87998814Y-54591364D01*
X87896764Y-54573186D01*
X87807637Y-54572097D01*
X87663795Y-54570339D01*
X87663793Y-54570339D01*
X87658625Y-54570276D01*
X87423209Y-54606300D01*
X87196838Y-54680289D01*
X86985590Y-54790258D01*
X86981457Y-54793361D01*
X86981454Y-54793363D01*
X86799275Y-54930147D01*
X86795140Y-54933252D01*
X86630602Y-55105431D01*
X86608629Y-55137642D01*
X86595186Y-55157349D01*
X86540274Y-55202351D01*
X86469749Y-55210522D01*
X86406002Y-55179267D01*
X86385306Y-55154784D01*
X86374217Y-55137642D01*
X86374212Y-55137636D01*
X86371406Y-55133298D01*
X86211124Y-54957150D01*
X86207073Y-54953951D01*
X86207069Y-54953947D01*
X86028278Y-54812747D01*
X86028273Y-54812744D01*
X86024224Y-54809546D01*
X86019708Y-54807053D01*
X86019705Y-54807051D01*
X85820250Y-54696946D01*
X85820246Y-54696944D01*
X85815726Y-54694449D01*
X85810857Y-54692725D01*
X85810853Y-54692723D01*
X85596105Y-54616676D01*
X85596101Y-54616675D01*
X85591230Y-54614950D01*
X85586140Y-54614043D01*
X85586135Y-54614042D01*
X85458814Y-54591364D01*
X85356764Y-54573186D01*
X85267637Y-54572097D01*
X85123795Y-54570339D01*
X85123793Y-54570339D01*
X85118625Y-54570276D01*
X84883209Y-54606300D01*
X84656838Y-54680289D01*
X84445590Y-54790258D01*
X84441457Y-54793361D01*
X84441454Y-54793363D01*
X84259275Y-54930147D01*
X84255140Y-54933252D01*
X84090602Y-55105431D01*
X84068629Y-55137642D01*
X84055186Y-55157349D01*
X84000274Y-55202351D01*
X83929749Y-55210522D01*
X83866002Y-55179267D01*
X83845306Y-55154784D01*
X83834217Y-55137642D01*
X83834212Y-55137636D01*
X83831406Y-55133298D01*
X83671124Y-54957150D01*
X83667073Y-54953951D01*
X83667069Y-54953947D01*
X83488278Y-54812747D01*
X83488273Y-54812744D01*
X83484224Y-54809546D01*
X83479708Y-54807053D01*
X83479705Y-54807051D01*
X83280250Y-54696946D01*
X83280246Y-54696944D01*
X83275726Y-54694449D01*
X83270857Y-54692725D01*
X83270853Y-54692723D01*
X83056105Y-54616676D01*
X83056101Y-54616675D01*
X83051230Y-54614950D01*
X83046140Y-54614043D01*
X83046135Y-54614042D01*
X82918814Y-54591364D01*
X82816764Y-54573186D01*
X82727637Y-54572097D01*
X82583795Y-54570339D01*
X82583793Y-54570339D01*
X82578625Y-54570276D01*
X82343209Y-54606300D01*
X82116838Y-54680289D01*
X81905590Y-54790258D01*
X81901457Y-54793361D01*
X81901454Y-54793363D01*
X81719275Y-54930147D01*
X81715140Y-54933252D01*
X81550602Y-55105431D01*
X81528629Y-55137642D01*
X81515186Y-55157349D01*
X81460274Y-55202351D01*
X81389749Y-55210522D01*
X81326002Y-55179267D01*
X81305306Y-55154784D01*
X81294217Y-55137642D01*
X81294212Y-55137636D01*
X81291406Y-55133298D01*
X81131124Y-54957150D01*
X81127073Y-54953951D01*
X81127069Y-54953947D01*
X80948278Y-54812747D01*
X80948273Y-54812744D01*
X80944224Y-54809546D01*
X80939708Y-54807053D01*
X80939705Y-54807051D01*
X80740250Y-54696946D01*
X80740246Y-54696944D01*
X80735726Y-54694449D01*
X80730857Y-54692725D01*
X80730853Y-54692723D01*
X80516105Y-54616676D01*
X80516101Y-54616675D01*
X80511230Y-54614950D01*
X80506140Y-54614043D01*
X80506135Y-54614042D01*
X80378814Y-54591364D01*
X80276764Y-54573186D01*
X80187637Y-54572097D01*
X80043795Y-54570339D01*
X80043793Y-54570339D01*
X80038625Y-54570276D01*
X79803209Y-54606300D01*
X79576838Y-54680289D01*
X79365590Y-54790258D01*
X79361457Y-54793361D01*
X79361454Y-54793363D01*
X79179275Y-54930147D01*
X79175140Y-54933252D01*
X79010602Y-55105431D01*
X78988629Y-55137642D01*
X78975186Y-55157349D01*
X78920274Y-55202351D01*
X78849749Y-55210522D01*
X78786002Y-55179267D01*
X78765306Y-55154784D01*
X78754217Y-55137642D01*
X78754212Y-55137636D01*
X78751406Y-55133298D01*
X78591124Y-54957150D01*
X78587073Y-54953951D01*
X78587069Y-54953947D01*
X78408278Y-54812747D01*
X78408273Y-54812744D01*
X78404224Y-54809546D01*
X78399708Y-54807053D01*
X78399705Y-54807051D01*
X78200250Y-54696946D01*
X78200246Y-54696944D01*
X78195726Y-54694449D01*
X78190857Y-54692725D01*
X78190853Y-54692723D01*
X77976105Y-54616676D01*
X77976101Y-54616675D01*
X77971230Y-54614950D01*
X77966140Y-54614043D01*
X77966135Y-54614042D01*
X77838814Y-54591364D01*
X77736764Y-54573186D01*
X77647637Y-54572097D01*
X77503795Y-54570339D01*
X77503793Y-54570339D01*
X77498625Y-54570276D01*
X77263209Y-54606300D01*
X77036838Y-54680289D01*
X76825590Y-54790258D01*
X76821457Y-54793361D01*
X76821454Y-54793363D01*
X76639275Y-54930147D01*
X76635140Y-54933252D01*
X76470602Y-55105431D01*
X76448629Y-55137642D01*
X76435186Y-55157349D01*
X76380274Y-55202351D01*
X76309749Y-55210522D01*
X76246002Y-55179267D01*
X76225306Y-55154784D01*
X76214217Y-55137642D01*
X76214212Y-55137636D01*
X76211406Y-55133298D01*
X76051124Y-54957150D01*
X76047073Y-54953951D01*
X76047069Y-54953947D01*
X75868278Y-54812747D01*
X75868273Y-54812744D01*
X75864224Y-54809546D01*
X75859708Y-54807053D01*
X75859705Y-54807051D01*
X75660250Y-54696946D01*
X75660246Y-54696944D01*
X75655726Y-54694449D01*
X75650857Y-54692725D01*
X75650853Y-54692723D01*
X75436105Y-54616676D01*
X75436101Y-54616675D01*
X75431230Y-54614950D01*
X75426140Y-54614043D01*
X75426135Y-54614042D01*
X75298814Y-54591364D01*
X75196764Y-54573186D01*
X75107637Y-54572097D01*
X74963795Y-54570339D01*
X74963793Y-54570339D01*
X74958625Y-54570276D01*
X74723209Y-54606300D01*
X74496838Y-54680289D01*
X74285590Y-54790258D01*
X74281457Y-54793361D01*
X74281454Y-54793363D01*
X74099275Y-54930147D01*
X74095140Y-54933252D01*
X73930602Y-55105431D01*
X73888064Y-55167790D01*
X73833155Y-55212790D01*
X73762631Y-55220961D01*
X73710940Y-55196588D01*
X73708940Y-55196307D01*
X73697755Y-55201456D01*
X72892021Y-56007189D01*
X72884408Y-56021132D01*
X72884539Y-56022966D01*
X72888790Y-56029580D01*
X73694826Y-56835615D01*
X73708096Y-56842861D01*
X73770005Y-56819078D01*
X73839523Y-56833490D01*
X73881899Y-56870245D01*
X73884574Y-56873899D01*
X73887274Y-56878306D01*
X74043204Y-57058317D01*
X74226442Y-57210444D01*
X74230894Y-57213046D01*
X74230899Y-57213049D01*
X74329333Y-57270569D01*
X74432065Y-57330601D01*
X74654552Y-57415560D01*
X74659618Y-57416591D01*
X74659619Y-57416591D01*
X74826430Y-57450529D01*
X74889196Y-57483711D01*
X74924058Y-57545559D01*
X74919949Y-57616436D01*
X74878172Y-57673841D01*
X74811993Y-57699546D01*
X74801310Y-57700000D01*
X72775566Y-57700000D01*
X72707445Y-57679998D01*
X72660952Y-57626342D01*
X72650848Y-57556068D01*
X72680342Y-57491488D01*
X72740068Y-57453104D01*
X72759556Y-57449021D01*
X72816915Y-57441673D01*
X72827001Y-57439530D01*
X73045128Y-57374088D01*
X73054723Y-57370328D01*
X73259237Y-57270137D01*
X73268083Y-57264863D01*
X73333631Y-57218108D01*
X73342032Y-57207408D01*
X73335045Y-57194256D01*
X72532811Y-56392021D01*
X72518868Y-56384408D01*
X72517034Y-56384539D01*
X72510420Y-56388790D01*
X71701083Y-57198128D01*
X71694326Y-57210503D01*
X71699607Y-57217558D01*
X71887821Y-57327541D01*
X71897108Y-57331991D01*
X72109861Y-57413233D01*
X72119763Y-57416110D01*
X72288942Y-57450530D01*
X72351707Y-57483711D01*
X72386569Y-57545559D01*
X72382460Y-57616437D01*
X72340683Y-57673841D01*
X72274504Y-57699546D01*
X72263821Y-57700000D01*
X70235566Y-57700000D01*
X70167445Y-57679998D01*
X70120952Y-57626342D01*
X70110848Y-57556068D01*
X70140342Y-57491488D01*
X70200068Y-57453104D01*
X70219556Y-57449021D01*
X70276915Y-57441673D01*
X70287001Y-57439530D01*
X70505128Y-57374088D01*
X70514723Y-57370328D01*
X70719237Y-57270137D01*
X70728083Y-57264863D01*
X70793631Y-57218108D01*
X70802032Y-57207408D01*
X70795045Y-57194256D01*
X69992811Y-56392021D01*
X69978868Y-56384408D01*
X69977034Y-56384539D01*
X69970420Y-56388790D01*
X69161083Y-57198128D01*
X69154326Y-57210503D01*
X69159607Y-57217558D01*
X69347821Y-57327541D01*
X69357108Y-57331991D01*
X69569861Y-57413233D01*
X69579763Y-57416110D01*
X69748942Y-57450530D01*
X69811707Y-57483711D01*
X69846569Y-57545559D01*
X69842460Y-57616437D01*
X69800683Y-57673841D01*
X69734504Y-57699546D01*
X69723821Y-57700000D01*
X67699504Y-57700000D01*
X67631383Y-57679998D01*
X67584890Y-57626342D01*
X67574786Y-57556068D01*
X67604280Y-57491488D01*
X67664006Y-57453104D01*
X67683494Y-57449021D01*
X67737024Y-57442164D01*
X67737027Y-57442163D01*
X67742151Y-57441507D01*
X67747101Y-57440022D01*
X67965316Y-57374554D01*
X67965317Y-57374553D01*
X67970262Y-57373070D01*
X68184133Y-57268295D01*
X68188336Y-57265297D01*
X68188341Y-57265294D01*
X68373816Y-57132996D01*
X68373818Y-57132994D01*
X68378020Y-57129997D01*
X68546716Y-56961889D01*
X68549732Y-56957692D01*
X68549739Y-56957684D01*
X68612170Y-56870802D01*
X68668164Y-56827154D01*
X68738868Y-56820708D01*
X68785626Y-56844169D01*
X68789976Y-56844890D01*
X68800387Y-56840402D01*
X69607979Y-56032811D01*
X69614356Y-56021132D01*
X70344408Y-56021132D01*
X70344539Y-56022966D01*
X70348790Y-56029580D01*
X71154826Y-56835615D01*
X71166832Y-56842171D01*
X71171671Y-56838474D01*
X71237946Y-56813015D01*
X71307464Y-56827428D01*
X71331418Y-56844268D01*
X71340387Y-56840402D01*
X72147979Y-56032811D01*
X72155592Y-56018868D01*
X72155461Y-56017034D01*
X72151210Y-56010420D01*
X71345220Y-55204431D01*
X71333688Y-55198134D01*
X71328721Y-55202026D01*
X71262762Y-55228293D01*
X71193073Y-55214730D01*
X71168788Y-55198315D01*
X71167321Y-55197052D01*
X71157756Y-55201455D01*
X70352021Y-56007189D01*
X70344408Y-56021132D01*
X69614356Y-56021132D01*
X69615592Y-56018868D01*
X69615461Y-56017034D01*
X69611210Y-56010420D01*
X68805220Y-55204431D01*
X68792803Y-55197651D01*
X68729899Y-55222699D01*
X68660210Y-55209135D01*
X68612360Y-55165688D01*
X68594216Y-55137642D01*
X68591406Y-55133298D01*
X68431124Y-54957150D01*
X68427073Y-54953951D01*
X68427069Y-54953947D01*
X68273018Y-54832285D01*
X69157081Y-54832285D01*
X69163825Y-54844614D01*
X69967189Y-55647979D01*
X69981132Y-55655592D01*
X69982966Y-55655461D01*
X69989580Y-55651210D01*
X70797331Y-54843458D01*
X70803432Y-54832285D01*
X71697081Y-54832285D01*
X71703825Y-54844614D01*
X72507189Y-55647979D01*
X72521132Y-55655592D01*
X72522966Y-55655461D01*
X72529580Y-55651210D01*
X73337331Y-54843458D01*
X73344348Y-54830607D01*
X73336574Y-54819937D01*
X73328004Y-54813169D01*
X73319417Y-54807464D01*
X73120055Y-54697410D01*
X73110643Y-54693180D01*
X72895971Y-54617160D01*
X72886014Y-54614530D01*
X72661805Y-54574591D01*
X72651554Y-54573622D01*
X72423830Y-54570840D01*
X72413546Y-54571560D01*
X72188437Y-54606006D01*
X72178410Y-54608395D01*
X71961951Y-54679144D01*
X71952442Y-54683141D01*
X71750451Y-54788292D01*
X71741716Y-54793793D01*
X71705535Y-54820958D01*
X71697081Y-54832285D01*
X70803432Y-54832285D01*
X70804348Y-54830607D01*
X70796574Y-54819937D01*
X70788004Y-54813169D01*
X70779417Y-54807464D01*
X70580055Y-54697410D01*
X70570643Y-54693180D01*
X70355971Y-54617160D01*
X70346014Y-54614530D01*
X70121805Y-54574591D01*
X70111554Y-54573622D01*
X69883830Y-54570840D01*
X69873546Y-54571560D01*
X69648437Y-54606006D01*
X69638410Y-54608395D01*
X69421951Y-54679144D01*
X69412442Y-54683141D01*
X69210451Y-54788292D01*
X69201716Y-54793793D01*
X69165535Y-54820958D01*
X69157081Y-54832285D01*
X68273018Y-54832285D01*
X68248278Y-54812747D01*
X68248273Y-54812744D01*
X68244224Y-54809546D01*
X68239708Y-54807053D01*
X68239705Y-54807051D01*
X68040250Y-54696946D01*
X68040246Y-54696944D01*
X68035726Y-54694449D01*
X68030857Y-54692725D01*
X68030853Y-54692723D01*
X67816105Y-54616676D01*
X67816101Y-54616675D01*
X67811230Y-54614950D01*
X67806140Y-54614043D01*
X67806135Y-54614042D01*
X67678814Y-54591364D01*
X67576764Y-54573186D01*
X67487637Y-54572097D01*
X67343795Y-54570339D01*
X67343793Y-54570339D01*
X67338625Y-54570276D01*
X67103209Y-54606300D01*
X66876838Y-54680289D01*
X66665590Y-54790258D01*
X66661457Y-54793361D01*
X66661454Y-54793363D01*
X66479275Y-54930147D01*
X66475140Y-54933252D01*
X66310602Y-55105431D01*
X66288629Y-55137642D01*
X66275186Y-55157349D01*
X66220274Y-55202351D01*
X66149749Y-55210522D01*
X66086002Y-55179267D01*
X66065306Y-55154784D01*
X66054217Y-55137642D01*
X66054212Y-55137636D01*
X66051406Y-55133298D01*
X65891124Y-54957150D01*
X65887073Y-54953951D01*
X65887069Y-54953947D01*
X65708278Y-54812747D01*
X65708273Y-54812744D01*
X65704224Y-54809546D01*
X65699708Y-54807053D01*
X65699705Y-54807051D01*
X65500250Y-54696946D01*
X65500246Y-54696944D01*
X65495726Y-54694449D01*
X65490857Y-54692725D01*
X65490853Y-54692723D01*
X65276105Y-54616676D01*
X65276101Y-54616675D01*
X65271230Y-54614950D01*
X65266140Y-54614043D01*
X65266135Y-54614042D01*
X65138814Y-54591364D01*
X65036764Y-54573186D01*
X64947637Y-54572097D01*
X64803795Y-54570339D01*
X64803793Y-54570339D01*
X64798625Y-54570276D01*
X64563209Y-54606300D01*
X64336838Y-54680289D01*
X64125590Y-54790258D01*
X64121457Y-54793361D01*
X64121454Y-54793363D01*
X63939275Y-54930147D01*
X63935140Y-54933252D01*
X63770602Y-55105431D01*
X63767693Y-55109696D01*
X63767687Y-55109704D01*
X63735186Y-55157349D01*
X63636394Y-55302172D01*
X63536122Y-55518191D01*
X63472477Y-55747685D01*
X63471928Y-55752819D01*
X63471928Y-55752821D01*
X63469113Y-55779160D01*
X63447170Y-55984494D01*
X63447467Y-55989646D01*
X63447467Y-55989650D01*
X63459053Y-56190592D01*
X63460879Y-56222255D01*
X63462016Y-56227301D01*
X63462017Y-56227307D01*
X63482830Y-56319659D01*
X63513237Y-56454585D01*
X63515179Y-56459367D01*
X63515180Y-56459371D01*
X63600893Y-56670457D01*
X63602837Y-56675244D01*
X63690979Y-56819078D01*
X63722676Y-56870802D01*
X63727274Y-56878306D01*
X63883204Y-57058317D01*
X64066442Y-57210444D01*
X64070894Y-57213046D01*
X64070899Y-57213049D01*
X64169333Y-57270569D01*
X64272065Y-57330601D01*
X64494552Y-57415560D01*
X64499618Y-57416591D01*
X64499619Y-57416591D01*
X64666430Y-57450529D01*
X64729196Y-57483711D01*
X64764058Y-57545559D01*
X64759949Y-57616436D01*
X64718172Y-57673841D01*
X64651993Y-57699546D01*
X64641310Y-57700000D01*
X60926000Y-57700000D01*
X60857879Y-57679998D01*
X60811386Y-57626342D01*
X60800000Y-57574000D01*
X60800000Y-39226000D01*
X60820002Y-39157879D01*
X60873658Y-39111386D01*
X60926000Y-39100000D01*
X64647076Y-39100000D01*
X64715197Y-39120002D01*
G37*
%TD.AperFunction*%
%TD*%
M02*
