%TF.GenerationSoftware,KiCad,Pcbnew,(6.0.7)*%
%TF.CreationDate,2023-05-25T00:24:43-04:00*%
%TF.ProjectId,Big_Keys_Keyboard,4269675f-4b65-4797-935f-4b6579626f61,rev?*%
%TF.SameCoordinates,Original*%
%TF.FileFunction,Copper,L1,Top*%
%TF.FilePolarity,Positive*%
%FSLAX46Y46*%
G04 Gerber Fmt 4.6, Leading zero omitted, Abs format (unit mm)*
G04 Created by KiCad (PCBNEW (6.0.7)) date 2023-05-25 00:24:43*
%MOMM*%
%LPD*%
G01*
G04 APERTURE LIST*
%TA.AperFunction,ComponentPad*%
%ADD10C,1.238000*%
%TD*%
%TA.AperFunction,ComponentPad*%
%ADD11R,1.238000X1.238000*%
%TD*%
%TA.AperFunction,ComponentPad*%
%ADD12C,1.879600*%
%TD*%
%TA.AperFunction,ComponentPad*%
%ADD13C,1.508000*%
%TD*%
%TA.AperFunction,ComponentPad*%
%ADD14C,2.250000*%
%TD*%
%TA.AperFunction,Conductor*%
%ADD15C,0.500000*%
%TD*%
G04 APERTURE END LIST*
D10*
%TO.P,D1,A*%
%TO.N,Net-(D1-PadA)*%
X97000000Y-98854000D03*
D11*
%TO.P,D1,C*%
%TO.N,ROW1*%
X97000000Y-107146000D03*
%TD*%
D10*
%TO.P,D3,A*%
%TO.N,Net-(D3-PadA)*%
X167000000Y-98854000D03*
D11*
%TO.P,D3,C*%
%TO.N,ROW1*%
X167000000Y-107146000D03*
%TD*%
D12*
%TO.P,B1,24,RAW*%
%TO.N,unconnected-(B1-Pad24)*%
X81900000Y-40780000D03*
%TO.P,B1,23,GND*%
%TO.N,GND*%
X84440000Y-40780000D03*
%TO.P,B1,22,RESET*%
%TO.N,unconnected-(B1-Pad22)*%
X86980000Y-40780000D03*
%TO.P,B1,21,VCC*%
%TO.N,unconnected-(B1-Pad21)*%
X89520000Y-40780000D03*
%TO.P,B1,20,A3*%
%TO.N,unconnected-(B1-Pad20)*%
X92060000Y-40780000D03*
%TO.P,B1,19,A2*%
%TO.N,unconnected-(B1-Pad19)*%
X94600000Y-40780000D03*
%TO.P,B1,18,A1*%
%TO.N,unconnected-(B1-Pad18)*%
X97140000Y-40780000D03*
%TO.P,B1,17,A0*%
%TO.N,unconnected-(B1-Pad17)*%
X99680000Y-40780000D03*
%TO.P,B1,16,13(SCK)*%
%TO.N,unconnected-(B1-Pad16)*%
X102220000Y-40780000D03*
%TO.P,B1,15,12(MISO)*%
%TO.N,unconnected-(B1-Pad15)*%
X104760000Y-40780000D03*
%TO.P,B1,14,11(MOSI)*%
%TO.N,unconnected-(B1-Pad14)*%
X107300000Y-40780000D03*
%TO.P,B1,13,\u002A10*%
%TO.N,unconnected-(B1-Pad13)*%
X109840000Y-40780000D03*
%TO.P,B1,12,\u002A9*%
%TO.N,unconnected-(B1-Pad12)*%
X109840000Y-56020000D03*
%TO.P,B1,11,8*%
%TO.N,unconnected-(B1-Pad11)*%
X107300000Y-56020000D03*
%TO.P,B1,10,7*%
%TO.N,COL2*%
X104760000Y-56020000D03*
%TO.P,B1,9,\u002A6*%
%TO.N,COL1*%
X102220000Y-56020000D03*
%TO.P,B1,8,\u002A5*%
%TO.N,ROW2*%
X99680000Y-56020000D03*
%TO.P,B1,7,4*%
%TO.N,ROW1*%
X97140000Y-56020000D03*
%TO.P,B1,6,\u002A3*%
%TO.N,unconnected-(B1-Pad6)*%
X94600000Y-56020000D03*
%TO.P,B1,5,2*%
%TO.N,unconnected-(B1-Pad5)*%
X92060000Y-56020000D03*
%TO.P,B1,4,GND*%
%TO.N,GND*%
X89520000Y-56020000D03*
%TO.P,B1,3,GND*%
X86980000Y-56020000D03*
%TO.P,B1,2,RXI*%
%TO.N,unconnected-(B1-Pad2)*%
X84440000Y-56020000D03*
%TO.P,B1,1,TXO*%
%TO.N,unconnected-(B1-Pad1)*%
X81900000Y-56020000D03*
%TD*%
D13*
%TO.P,U3,BR1*%
%TO.N,N/C*%
X157190000Y-93080000D03*
%TO.P,U3,BR2*%
X164810000Y-93080000D03*
D14*
%TO.P,U3,P$1*%
%TO.N,Net-(D3-PadA)*%
X163510000Y-82920000D03*
%TO.P,U3,P$2*%
%TO.N,COL2*%
X157190000Y-85460000D03*
%TD*%
D13*
%TO.P,U1,BR1*%
%TO.N,N/C*%
X87190000Y-93080000D03*
%TO.P,U1,BR2*%
X94810000Y-93080000D03*
D14*
%TO.P,U1,P$1*%
%TO.N,Net-(D1-PadA)*%
X93510000Y-82920000D03*
%TO.P,U1,P$2*%
%TO.N,COL1*%
X87190000Y-85460000D03*
%TD*%
D13*
%TO.P,U2,BR1*%
%TO.N,N/C*%
X87190000Y-163080000D03*
%TO.P,U2,BR2*%
X94810000Y-163080000D03*
D14*
%TO.P,U2,P$1*%
%TO.N,Net-(D2-PadA)*%
X93510000Y-152920000D03*
%TO.P,U2,P$2*%
%TO.N,COL1*%
X87190000Y-155460000D03*
%TD*%
D10*
%TO.P,D2,A*%
%TO.N,Net-(D2-PadA)*%
X97000000Y-146146000D03*
D11*
%TO.P,D2,C*%
%TO.N,ROW2*%
X97000000Y-137854000D03*
%TD*%
D13*
%TO.P,U4,BR1*%
%TO.N,N/C*%
X157190000Y-163080000D03*
%TO.P,U4,BR2*%
X164810000Y-163080000D03*
D14*
%TO.P,U4,P$1*%
%TO.N,Net-(D4-PadA)*%
X163510000Y-152920000D03*
%TO.P,U4,P$2*%
%TO.N,COL2*%
X157190000Y-155460000D03*
%TD*%
D10*
%TO.P,D4,A*%
%TO.N,Net-(D4-PadA)*%
X167000000Y-146146000D03*
D11*
%TO.P,D4,C*%
%TO.N,ROW2*%
X167000000Y-137854000D03*
%TD*%
D15*
%TO.N,ROW2*%
X103600000Y-131254000D02*
X103600000Y-59940000D01*
X97000000Y-137854000D02*
X103600000Y-131254000D01*
X103600000Y-59940000D02*
X99680000Y-56020000D01*
%TO.N,Net-(D1-PadA)*%
X98789750Y-98854000D02*
X97000000Y-98854000D01*
X100000000Y-97643750D02*
X98789750Y-98854000D01*
X100000000Y-83331250D02*
X100000000Y-97643750D01*
X99588750Y-82920000D02*
X100000000Y-83331250D01*
X93510000Y-82920000D02*
X99588750Y-82920000D01*
%TO.N,ROW1*%
X101680146Y-102465854D02*
X97000000Y-107146000D01*
X101680146Y-75739854D02*
X97140000Y-71199708D01*
X97140000Y-71199708D02*
X97140000Y-56020000D01*
X101680146Y-75739854D02*
X101680146Y-102465854D01*
%TO.N,COL1*%
X85725000Y-153995000D02*
X87190000Y-155460000D01*
X87190000Y-85460000D02*
X87782717Y-86052717D01*
X87782717Y-89917283D02*
X85725000Y-91975000D01*
X85725000Y-91975000D02*
X85725000Y-153995000D01*
X87782717Y-86052717D02*
X87782717Y-89917283D01*
%TO.N,COL2*%
X157190000Y-85460000D02*
X155075175Y-85460000D01*
X155075175Y-85460000D02*
X153760176Y-86774999D01*
X153760176Y-86774999D02*
X153760176Y-152030176D01*
X153760176Y-152030176D02*
X157190000Y-155460000D01*
%TO.N,Net-(D2-PadA)*%
X100806250Y-150812500D02*
X100806250Y-146843750D01*
X98698750Y-152920000D02*
X100806250Y-150812500D01*
X93510000Y-152920000D02*
X98698750Y-152920000D01*
X100108500Y-146146000D02*
X97000000Y-146146000D01*
X100806250Y-146843750D02*
X100108500Y-146146000D01*
%TO.N,Net-(D3-PadA)*%
X171450000Y-96837500D02*
X169433500Y-98854000D01*
X169433500Y-98854000D02*
X167000000Y-98854000D01*
X171450000Y-84137500D02*
X171450000Y-96837500D01*
X163510000Y-82920000D02*
X170232500Y-82920000D01*
X170232500Y-82920000D02*
X171450000Y-84137500D01*
%TO.N,Net-(D4-PadA)*%
X167755000Y-152920000D02*
X170656250Y-150018750D01*
X169164750Y-146146000D02*
X167000000Y-146146000D01*
X170656250Y-150018750D02*
X170656250Y-147637500D01*
X170656250Y-147637500D02*
X169164750Y-146146000D01*
X163510000Y-152920000D02*
X167755000Y-152920000D01*
%TD*%
%TA.AperFunction,Conductor*%
%TO.N,GND*%
G36*
X173970018Y-39010000D02*
G01*
X173984851Y-39012310D01*
X173984855Y-39012310D01*
X173993724Y-39013691D01*
X174008981Y-39011696D01*
X174034302Y-39010953D01*
X174203285Y-39023039D01*
X174221064Y-39025596D01*
X174411392Y-39066999D01*
X174428641Y-39072063D01*
X174611150Y-39140136D01*
X174627502Y-39147604D01*
X174798458Y-39240952D01*
X174813582Y-39250672D01*
X174969514Y-39367402D01*
X174983100Y-39379175D01*
X175120825Y-39516900D01*
X175132598Y-39530486D01*
X175249328Y-39686418D01*
X175259048Y-39701542D01*
X175352396Y-39872498D01*
X175359864Y-39888850D01*
X175427937Y-40071359D01*
X175433001Y-40088607D01*
X175474404Y-40278936D01*
X175476961Y-40296715D01*
X175488540Y-40458601D01*
X175487793Y-40476565D01*
X175487692Y-40484845D01*
X175486309Y-40493724D01*
X175489398Y-40517344D01*
X175490436Y-40525283D01*
X175491500Y-40541621D01*
X175491500Y-170950633D01*
X175490000Y-170970018D01*
X175487690Y-170984851D01*
X175487690Y-170984855D01*
X175486309Y-170993724D01*
X175488136Y-171007693D01*
X175488304Y-171008976D01*
X175489047Y-171034305D01*
X175476962Y-171203279D01*
X175474404Y-171221064D01*
X175456598Y-171302919D01*
X175433001Y-171411392D01*
X175427937Y-171428641D01*
X175359864Y-171611150D01*
X175352396Y-171627502D01*
X175259048Y-171798458D01*
X175249328Y-171813582D01*
X175132598Y-171969514D01*
X175120825Y-171983100D01*
X174983100Y-172120825D01*
X174969514Y-172132598D01*
X174813582Y-172249328D01*
X174798458Y-172259048D01*
X174627502Y-172352396D01*
X174611150Y-172359864D01*
X174428641Y-172427937D01*
X174411393Y-172433001D01*
X174221064Y-172474404D01*
X174203285Y-172476961D01*
X174041395Y-172488540D01*
X174023435Y-172487793D01*
X174015155Y-172487692D01*
X174006276Y-172486309D01*
X173974714Y-172490436D01*
X173958379Y-172491500D01*
X78049367Y-172491500D01*
X78029982Y-172490000D01*
X78015149Y-172487690D01*
X78015145Y-172487690D01*
X78006276Y-172486309D01*
X77991019Y-172488304D01*
X77965698Y-172489047D01*
X77796715Y-172476961D01*
X77778936Y-172474404D01*
X77588607Y-172433001D01*
X77571359Y-172427937D01*
X77388850Y-172359864D01*
X77372498Y-172352396D01*
X77201542Y-172259048D01*
X77186418Y-172249328D01*
X77030486Y-172132598D01*
X77016900Y-172120825D01*
X76879175Y-171983100D01*
X76867402Y-171969514D01*
X76750672Y-171813582D01*
X76740952Y-171798458D01*
X76647604Y-171627502D01*
X76640136Y-171611150D01*
X76572063Y-171428641D01*
X76566999Y-171411392D01*
X76543402Y-171302919D01*
X76525596Y-171221064D01*
X76523038Y-171203278D01*
X76511719Y-171045012D01*
X76512805Y-171022245D01*
X76512334Y-171022203D01*
X76512770Y-171017345D01*
X76513576Y-171012552D01*
X76513729Y-171000000D01*
X76509773Y-170972376D01*
X76508500Y-170954514D01*
X76508500Y-163080000D01*
X85922677Y-163080000D01*
X85941930Y-163300068D01*
X85999106Y-163513450D01*
X86092466Y-163713661D01*
X86219174Y-163894620D01*
X86375380Y-164050826D01*
X86379888Y-164053983D01*
X86379891Y-164053985D01*
X86551829Y-164174377D01*
X86556338Y-164177534D01*
X86561320Y-164179857D01*
X86561325Y-164179860D01*
X86751568Y-164268571D01*
X86756550Y-164270894D01*
X86761858Y-164272316D01*
X86761860Y-164272317D01*
X86827252Y-164289839D01*
X86969932Y-164328070D01*
X87190000Y-164347323D01*
X87410068Y-164328070D01*
X87552748Y-164289839D01*
X87618140Y-164272317D01*
X87618142Y-164272316D01*
X87623450Y-164270894D01*
X87628432Y-164268571D01*
X87818675Y-164179860D01*
X87818680Y-164179857D01*
X87823662Y-164177534D01*
X87828171Y-164174377D01*
X88000109Y-164053985D01*
X88000112Y-164053983D01*
X88004620Y-164050826D01*
X88160826Y-163894620D01*
X88287534Y-163713661D01*
X88380894Y-163513450D01*
X88438070Y-163300068D01*
X88457323Y-163080000D01*
X93542677Y-163080000D01*
X93561930Y-163300068D01*
X93619106Y-163513450D01*
X93712466Y-163713661D01*
X93839174Y-163894620D01*
X93995380Y-164050826D01*
X93999888Y-164053983D01*
X93999891Y-164053985D01*
X94171829Y-164174377D01*
X94176338Y-164177534D01*
X94181320Y-164179857D01*
X94181325Y-164179860D01*
X94371568Y-164268571D01*
X94376550Y-164270894D01*
X94381858Y-164272316D01*
X94381860Y-164272317D01*
X94447252Y-164289839D01*
X94589932Y-164328070D01*
X94810000Y-164347323D01*
X95030068Y-164328070D01*
X95172748Y-164289839D01*
X95238140Y-164272317D01*
X95238142Y-164272316D01*
X95243450Y-164270894D01*
X95248432Y-164268571D01*
X95438675Y-164179860D01*
X95438680Y-164179857D01*
X95443662Y-164177534D01*
X95448171Y-164174377D01*
X95620109Y-164053985D01*
X95620112Y-164053983D01*
X95624620Y-164050826D01*
X95780826Y-163894620D01*
X95907534Y-163713661D01*
X96000894Y-163513450D01*
X96058070Y-163300068D01*
X96077323Y-163080000D01*
X155922677Y-163080000D01*
X155941930Y-163300068D01*
X155999106Y-163513450D01*
X156092466Y-163713661D01*
X156219174Y-163894620D01*
X156375380Y-164050826D01*
X156379888Y-164053983D01*
X156379891Y-164053985D01*
X156551829Y-164174377D01*
X156556338Y-164177534D01*
X156561320Y-164179857D01*
X156561325Y-164179860D01*
X156751568Y-164268571D01*
X156756550Y-164270894D01*
X156761858Y-164272316D01*
X156761860Y-164272317D01*
X156827252Y-164289839D01*
X156969932Y-164328070D01*
X157190000Y-164347323D01*
X157410068Y-164328070D01*
X157552748Y-164289839D01*
X157618140Y-164272317D01*
X157618142Y-164272316D01*
X157623450Y-164270894D01*
X157628432Y-164268571D01*
X157818675Y-164179860D01*
X157818680Y-164179857D01*
X157823662Y-164177534D01*
X157828171Y-164174377D01*
X158000109Y-164053985D01*
X158000112Y-164053983D01*
X158004620Y-164050826D01*
X158160826Y-163894620D01*
X158287534Y-163713661D01*
X158380894Y-163513450D01*
X158438070Y-163300068D01*
X158457323Y-163080000D01*
X163542677Y-163080000D01*
X163561930Y-163300068D01*
X163619106Y-163513450D01*
X163712466Y-163713661D01*
X163839174Y-163894620D01*
X163995380Y-164050826D01*
X163999888Y-164053983D01*
X163999891Y-164053985D01*
X164171829Y-164174377D01*
X164176338Y-164177534D01*
X164181320Y-164179857D01*
X164181325Y-164179860D01*
X164371568Y-164268571D01*
X164376550Y-164270894D01*
X164381858Y-164272316D01*
X164381860Y-164272317D01*
X164447252Y-164289839D01*
X164589932Y-164328070D01*
X164810000Y-164347323D01*
X165030068Y-164328070D01*
X165172748Y-164289839D01*
X165238140Y-164272317D01*
X165238142Y-164272316D01*
X165243450Y-164270894D01*
X165248432Y-164268571D01*
X165438675Y-164179860D01*
X165438680Y-164179857D01*
X165443662Y-164177534D01*
X165448171Y-164174377D01*
X165620109Y-164053985D01*
X165620112Y-164053983D01*
X165624620Y-164050826D01*
X165780826Y-163894620D01*
X165907534Y-163713661D01*
X166000894Y-163513450D01*
X166058070Y-163300068D01*
X166077323Y-163080000D01*
X166058070Y-162859932D01*
X166000894Y-162646550D01*
X165907534Y-162446339D01*
X165780826Y-162265380D01*
X165624620Y-162109174D01*
X165620112Y-162106017D01*
X165620109Y-162106015D01*
X165448171Y-161985623D01*
X165448168Y-161985621D01*
X165443662Y-161982466D01*
X165438680Y-161980143D01*
X165438675Y-161980140D01*
X165248432Y-161891429D01*
X165248431Y-161891429D01*
X165243450Y-161889106D01*
X165238142Y-161887684D01*
X165238140Y-161887683D01*
X165172748Y-161870161D01*
X165030068Y-161831930D01*
X164810000Y-161812677D01*
X164589932Y-161831930D01*
X164447252Y-161870161D01*
X164381860Y-161887683D01*
X164381858Y-161887684D01*
X164376550Y-161889106D01*
X164371569Y-161891428D01*
X164371568Y-161891429D01*
X164181320Y-161980143D01*
X164181317Y-161980145D01*
X164176339Y-161982466D01*
X163995380Y-162109174D01*
X163839174Y-162265380D01*
X163712466Y-162446339D01*
X163619106Y-162646550D01*
X163561930Y-162859932D01*
X163542677Y-163080000D01*
X158457323Y-163080000D01*
X158438070Y-162859932D01*
X158380894Y-162646550D01*
X158287534Y-162446339D01*
X158160826Y-162265380D01*
X158004620Y-162109174D01*
X158000112Y-162106017D01*
X158000109Y-162106015D01*
X157828171Y-161985623D01*
X157828168Y-161985621D01*
X157823662Y-161982466D01*
X157818680Y-161980143D01*
X157818675Y-161980140D01*
X157628432Y-161891429D01*
X157628431Y-161891429D01*
X157623450Y-161889106D01*
X157618142Y-161887684D01*
X157618140Y-161887683D01*
X157552748Y-161870161D01*
X157410068Y-161831930D01*
X157190000Y-161812677D01*
X156969932Y-161831930D01*
X156827252Y-161870161D01*
X156761860Y-161887683D01*
X156761858Y-161887684D01*
X156756550Y-161889106D01*
X156751569Y-161891428D01*
X156751568Y-161891429D01*
X156561320Y-161980143D01*
X156561317Y-161980145D01*
X156556339Y-161982466D01*
X156375380Y-162109174D01*
X156219174Y-162265380D01*
X156092466Y-162446339D01*
X155999106Y-162646550D01*
X155941930Y-162859932D01*
X155922677Y-163080000D01*
X96077323Y-163080000D01*
X96058070Y-162859932D01*
X96000894Y-162646550D01*
X95907534Y-162446339D01*
X95780826Y-162265380D01*
X95624620Y-162109174D01*
X95620112Y-162106017D01*
X95620109Y-162106015D01*
X95448171Y-161985623D01*
X95448168Y-161985621D01*
X95443662Y-161982466D01*
X95438680Y-161980143D01*
X95438675Y-161980140D01*
X95248432Y-161891429D01*
X95248431Y-161891429D01*
X95243450Y-161889106D01*
X95238142Y-161887684D01*
X95238140Y-161887683D01*
X95172748Y-161870161D01*
X95030068Y-161831930D01*
X94810000Y-161812677D01*
X94589932Y-161831930D01*
X94447252Y-161870161D01*
X94381860Y-161887683D01*
X94381858Y-161887684D01*
X94376550Y-161889106D01*
X94371569Y-161891428D01*
X94371568Y-161891429D01*
X94181320Y-161980143D01*
X94181317Y-161980145D01*
X94176339Y-161982466D01*
X93995380Y-162109174D01*
X93839174Y-162265380D01*
X93712466Y-162446339D01*
X93619106Y-162646550D01*
X93561930Y-162859932D01*
X93542677Y-163080000D01*
X88457323Y-163080000D01*
X88438070Y-162859932D01*
X88380894Y-162646550D01*
X88287534Y-162446339D01*
X88160826Y-162265380D01*
X88004620Y-162109174D01*
X88000112Y-162106017D01*
X88000109Y-162106015D01*
X87828171Y-161985623D01*
X87828168Y-161985621D01*
X87823662Y-161982466D01*
X87818680Y-161980143D01*
X87818675Y-161980140D01*
X87628432Y-161891429D01*
X87628431Y-161891429D01*
X87623450Y-161889106D01*
X87618142Y-161887684D01*
X87618140Y-161887683D01*
X87552748Y-161870161D01*
X87410068Y-161831930D01*
X87190000Y-161812677D01*
X86969932Y-161831930D01*
X86827252Y-161870161D01*
X86761860Y-161887683D01*
X86761858Y-161887684D01*
X86756550Y-161889106D01*
X86751569Y-161891428D01*
X86751568Y-161891429D01*
X86561320Y-161980143D01*
X86561317Y-161980145D01*
X86556339Y-161982466D01*
X86375380Y-162109174D01*
X86219174Y-162265380D01*
X86092466Y-162446339D01*
X85999106Y-162646550D01*
X85941930Y-162859932D01*
X85922677Y-163080000D01*
X76508500Y-163080000D01*
X76508500Y-157935774D01*
X84638102Y-157935774D01*
X84646751Y-158166158D01*
X84694093Y-158391791D01*
X84778776Y-158606221D01*
X84898377Y-158803317D01*
X84901874Y-158807347D01*
X84988438Y-158907103D01*
X85049477Y-158977445D01*
X85053608Y-158980832D01*
X85223627Y-159120240D01*
X85223633Y-159120244D01*
X85227755Y-159123624D01*
X85232391Y-159126263D01*
X85232394Y-159126265D01*
X85341422Y-159188327D01*
X85428114Y-159237675D01*
X85644825Y-159316337D01*
X85650074Y-159317286D01*
X85650077Y-159317287D01*
X85867608Y-159356623D01*
X85867615Y-159356624D01*
X85871692Y-159357361D01*
X85889414Y-159358197D01*
X85894356Y-159358430D01*
X85894363Y-159358430D01*
X85895844Y-159358500D01*
X86057890Y-159358500D01*
X86124809Y-159352822D01*
X86224409Y-159344371D01*
X86224413Y-159344370D01*
X86229720Y-159343920D01*
X86234875Y-159342582D01*
X86234881Y-159342581D01*
X86447703Y-159287343D01*
X86447707Y-159287342D01*
X86452872Y-159286001D01*
X86457738Y-159283809D01*
X86457741Y-159283808D01*
X86658202Y-159193507D01*
X86663075Y-159191312D01*
X86854319Y-159062559D01*
X87021135Y-158903424D01*
X87158754Y-158718458D01*
X87263240Y-158512949D01*
X87299321Y-158396752D01*
X87330024Y-158297871D01*
X87331607Y-158292773D01*
X87332308Y-158287484D01*
X87349544Y-158157438D01*
X88497600Y-158157438D01*
X88537064Y-158469830D01*
X88615370Y-158774813D01*
X88731284Y-159067577D01*
X88733186Y-159071036D01*
X88733187Y-159071039D01*
X88867040Y-159314516D01*
X88882976Y-159343504D01*
X89068055Y-159598244D01*
X89283602Y-159827778D01*
X89526218Y-160028487D01*
X89792076Y-160197206D01*
X89795655Y-160198890D01*
X89795662Y-160198894D01*
X90073394Y-160329584D01*
X90073398Y-160329586D01*
X90076984Y-160331273D01*
X90376448Y-160428575D01*
X90685746Y-160487577D01*
X90779300Y-160493463D01*
X90919358Y-160502275D01*
X90919374Y-160502276D01*
X90921353Y-160502400D01*
X91078647Y-160502400D01*
X91080626Y-160502276D01*
X91080642Y-160502275D01*
X91220700Y-160493463D01*
X91314254Y-160487577D01*
X91623552Y-160428575D01*
X91923016Y-160331273D01*
X91926602Y-160329586D01*
X91926606Y-160329584D01*
X92204338Y-160198894D01*
X92204345Y-160198890D01*
X92207924Y-160197206D01*
X92473782Y-160028487D01*
X92716398Y-159827778D01*
X92931945Y-159598244D01*
X93117024Y-159343504D01*
X93132961Y-159314516D01*
X93266813Y-159071039D01*
X93266814Y-159071036D01*
X93268716Y-159067577D01*
X93384630Y-158774813D01*
X93462936Y-158469830D01*
X93502400Y-158157438D01*
X93502400Y-157935774D01*
X94638102Y-157935774D01*
X94646751Y-158166158D01*
X94694093Y-158391791D01*
X94778776Y-158606221D01*
X94898377Y-158803317D01*
X94901874Y-158807347D01*
X94988438Y-158907103D01*
X95049477Y-158977445D01*
X95053608Y-158980832D01*
X95223627Y-159120240D01*
X95223633Y-159120244D01*
X95227755Y-159123624D01*
X95232391Y-159126263D01*
X95232394Y-159126265D01*
X95341422Y-159188327D01*
X95428114Y-159237675D01*
X95644825Y-159316337D01*
X95650074Y-159317286D01*
X95650077Y-159317287D01*
X95867608Y-159356623D01*
X95867615Y-159356624D01*
X95871692Y-159357361D01*
X95889414Y-159358197D01*
X95894356Y-159358430D01*
X95894363Y-159358430D01*
X95895844Y-159358500D01*
X96057890Y-159358500D01*
X96124809Y-159352822D01*
X96224409Y-159344371D01*
X96224413Y-159344370D01*
X96229720Y-159343920D01*
X96234875Y-159342582D01*
X96234881Y-159342581D01*
X96447703Y-159287343D01*
X96447707Y-159287342D01*
X96452872Y-159286001D01*
X96457738Y-159283809D01*
X96457741Y-159283808D01*
X96658202Y-159193507D01*
X96663075Y-159191312D01*
X96854319Y-159062559D01*
X97021135Y-158903424D01*
X97158754Y-158718458D01*
X97263240Y-158512949D01*
X97299321Y-158396752D01*
X97330024Y-158297871D01*
X97331607Y-158292773D01*
X97332308Y-158287484D01*
X97361198Y-158069511D01*
X97361198Y-158069506D01*
X97361898Y-158064226D01*
X97353249Y-157833842D01*
X97305907Y-157608209D01*
X97221224Y-157393779D01*
X97101623Y-157196683D01*
X97098126Y-157192653D01*
X96954023Y-157026588D01*
X96954021Y-157026586D01*
X96950523Y-157022555D01*
X96908970Y-156988484D01*
X96776373Y-156879760D01*
X96776367Y-156879756D01*
X96772245Y-156876376D01*
X96767609Y-156873737D01*
X96767606Y-156873735D01*
X96576529Y-156764968D01*
X96571886Y-156762325D01*
X96355175Y-156683663D01*
X96349926Y-156682714D01*
X96349923Y-156682713D01*
X96132392Y-156643377D01*
X96132385Y-156643376D01*
X96128308Y-156642639D01*
X96110586Y-156641803D01*
X96105644Y-156641570D01*
X96105637Y-156641570D01*
X96104156Y-156641500D01*
X95942110Y-156641500D01*
X95875191Y-156647178D01*
X95775591Y-156655629D01*
X95775587Y-156655630D01*
X95770280Y-156656080D01*
X95765125Y-156657418D01*
X95765119Y-156657419D01*
X95552297Y-156712657D01*
X95552293Y-156712658D01*
X95547128Y-156713999D01*
X95542262Y-156716191D01*
X95542259Y-156716192D01*
X95433980Y-156764968D01*
X95336925Y-156808688D01*
X95145681Y-156937441D01*
X94978865Y-157096576D01*
X94841246Y-157281542D01*
X94736760Y-157487051D01*
X94735178Y-157492145D01*
X94735177Y-157492148D01*
X94673115Y-157692020D01*
X94668393Y-157707227D01*
X94667692Y-157712516D01*
X94652304Y-157828623D01*
X94638102Y-157935774D01*
X93502400Y-157935774D01*
X93502400Y-157842562D01*
X93462936Y-157530170D01*
X93384630Y-157225187D01*
X93268716Y-156932423D01*
X93262906Y-156921855D01*
X93118933Y-156659968D01*
X93118931Y-156659965D01*
X93117024Y-156656496D01*
X93004351Y-156501415D01*
X92934273Y-156404960D01*
X92934272Y-156404958D01*
X92931945Y-156401756D01*
X92716398Y-156172222D01*
X92473782Y-155971513D01*
X92207924Y-155802794D01*
X92204345Y-155801110D01*
X92204338Y-155801106D01*
X91926606Y-155670416D01*
X91926602Y-155670414D01*
X91923016Y-155668727D01*
X91623552Y-155571425D01*
X91314254Y-155512423D01*
X91220700Y-155506537D01*
X91080642Y-155497725D01*
X91080626Y-155497724D01*
X91078647Y-155497600D01*
X90921353Y-155497600D01*
X90919374Y-155497724D01*
X90919358Y-155497725D01*
X90779300Y-155506537D01*
X90685746Y-155512423D01*
X90376448Y-155571425D01*
X90076984Y-155668727D01*
X90073398Y-155670414D01*
X90073394Y-155670416D01*
X89795662Y-155801106D01*
X89795655Y-155801110D01*
X89792076Y-155802794D01*
X89526218Y-155971513D01*
X89283602Y-156172222D01*
X89068055Y-156401756D01*
X89065728Y-156404958D01*
X89065727Y-156404960D01*
X88995649Y-156501415D01*
X88882976Y-156656496D01*
X88881069Y-156659965D01*
X88881067Y-156659968D01*
X88737094Y-156921855D01*
X88731284Y-156932423D01*
X88615370Y-157225187D01*
X88537064Y-157530170D01*
X88497600Y-157842562D01*
X88497600Y-158157438D01*
X87349544Y-158157438D01*
X87361198Y-158069511D01*
X87361198Y-158069506D01*
X87361898Y-158064226D01*
X87353249Y-157833842D01*
X87305907Y-157608209D01*
X87221224Y-157393779D01*
X87154964Y-157284585D01*
X87136725Y-157215973D01*
X87158476Y-157148391D01*
X87213312Y-157103296D01*
X87252797Y-157093609D01*
X87316965Y-157088559D01*
X87446326Y-157078378D01*
X87451133Y-157077224D01*
X87451139Y-157077223D01*
X87609498Y-157039204D01*
X87696340Y-157018355D01*
X87700913Y-157016461D01*
X87929313Y-156921855D01*
X87929317Y-156921853D01*
X87933887Y-156919960D01*
X88153116Y-156785616D01*
X88348631Y-156618631D01*
X88515616Y-156423116D01*
X88649960Y-156203887D01*
X88661881Y-156175109D01*
X88746461Y-155970913D01*
X88746462Y-155970911D01*
X88748355Y-155966340D01*
X88808378Y-155716326D01*
X88828551Y-155460000D01*
X88808378Y-155203674D01*
X88748355Y-154953660D01*
X88746461Y-154949087D01*
X88651855Y-154720687D01*
X88651853Y-154720683D01*
X88649960Y-154716113D01*
X88515616Y-154496884D01*
X88348631Y-154301369D01*
X88153116Y-154134384D01*
X87933887Y-154000040D01*
X87929317Y-153998147D01*
X87929313Y-153998145D01*
X87700913Y-153903539D01*
X87700911Y-153903538D01*
X87696340Y-153901645D01*
X87601596Y-153878899D01*
X87451139Y-153842777D01*
X87451133Y-153842776D01*
X87446326Y-153841622D01*
X87190000Y-153821449D01*
X86933674Y-153841622D01*
X86928867Y-153842776D01*
X86928861Y-153842777D01*
X86847838Y-153862229D01*
X86768936Y-153881172D01*
X86698030Y-153877625D01*
X86650429Y-153847748D01*
X86520405Y-153717724D01*
X86486379Y-153655412D01*
X86483500Y-153628629D01*
X86483500Y-152920000D01*
X91871449Y-152920000D01*
X91891622Y-153176326D01*
X91951645Y-153426340D01*
X91953538Y-153430911D01*
X91953539Y-153430913D01*
X92046530Y-153655412D01*
X92050040Y-153663887D01*
X92184384Y-153883116D01*
X92351369Y-154078631D01*
X92546884Y-154245616D01*
X92766113Y-154379960D01*
X92770683Y-154381853D01*
X92770687Y-154381855D01*
X92989486Y-154472484D01*
X93003660Y-154478355D01*
X93051682Y-154489884D01*
X93248861Y-154537223D01*
X93248867Y-154537224D01*
X93253674Y-154538378D01*
X93510000Y-154558551D01*
X93766326Y-154538378D01*
X93771133Y-154537224D01*
X93771139Y-154537223D01*
X93968318Y-154489884D01*
X94016340Y-154478355D01*
X94030514Y-154472484D01*
X94249313Y-154381855D01*
X94249317Y-154381853D01*
X94253887Y-154379960D01*
X94473116Y-154245616D01*
X94668631Y-154078631D01*
X94835616Y-153883116D01*
X94924136Y-153738665D01*
X94976784Y-153691034D01*
X95031569Y-153678500D01*
X98631680Y-153678500D01*
X98650630Y-153679933D01*
X98664865Y-153682099D01*
X98664869Y-153682099D01*
X98672099Y-153683199D01*
X98679391Y-153682606D01*
X98679394Y-153682606D01*
X98724768Y-153678915D01*
X98734983Y-153678500D01*
X98743043Y-153678500D01*
X98756333Y-153676951D01*
X98771257Y-153675211D01*
X98775632Y-153674778D01*
X98841089Y-153669454D01*
X98841092Y-153669453D01*
X98848387Y-153668860D01*
X98855351Y-153666604D01*
X98861310Y-153665413D01*
X98867165Y-153664029D01*
X98874431Y-153663182D01*
X98943077Y-153638265D01*
X98947205Y-153636848D01*
X99009686Y-153616607D01*
X99009688Y-153616606D01*
X99016649Y-153614351D01*
X99022904Y-153610555D01*
X99028378Y-153608049D01*
X99033808Y-153605330D01*
X99040687Y-153602833D01*
X99101726Y-153562814D01*
X99105430Y-153560477D01*
X99167857Y-153522595D01*
X99176234Y-153515197D01*
X99176258Y-153515224D01*
X99179250Y-153512571D01*
X99182483Y-153509868D01*
X99188602Y-153505856D01*
X99241878Y-153449617D01*
X99244256Y-153447175D01*
X100687906Y-152003525D01*
X152996977Y-152003525D01*
X152997570Y-152010817D01*
X152997570Y-152010820D01*
X153001261Y-152056194D01*
X153001676Y-152066409D01*
X153001676Y-152074469D01*
X153002101Y-152078113D01*
X153004965Y-152102683D01*
X153005398Y-152107058D01*
X153010672Y-152171893D01*
X153011316Y-152179813D01*
X153013572Y-152186777D01*
X153014763Y-152192736D01*
X153016147Y-152198591D01*
X153016994Y-152205857D01*
X153041911Y-152274503D01*
X153043328Y-152278631D01*
X153065825Y-152348075D01*
X153069621Y-152354330D01*
X153072127Y-152359804D01*
X153074846Y-152365234D01*
X153077343Y-152372113D01*
X153081356Y-152378233D01*
X153081356Y-152378234D01*
X153117362Y-152433152D01*
X153119699Y-152436856D01*
X153157581Y-152499283D01*
X153161297Y-152503491D01*
X153161298Y-152503492D01*
X153164979Y-152507660D01*
X153164952Y-152507684D01*
X153167605Y-152510676D01*
X153170308Y-152513909D01*
X153174320Y-152520028D01*
X153179632Y-152525060D01*
X153230559Y-152573304D01*
X153233001Y-152575682D01*
X155577748Y-154920429D01*
X155611774Y-154982741D01*
X155611172Y-155038936D01*
X155571622Y-155203674D01*
X155551449Y-155460000D01*
X155571622Y-155716326D01*
X155631645Y-155966340D01*
X155633538Y-155970911D01*
X155633539Y-155970913D01*
X155718120Y-156175109D01*
X155730040Y-156203887D01*
X155864384Y-156423116D01*
X155884156Y-156446266D01*
X155913186Y-156511051D01*
X155902582Y-156581251D01*
X155855708Y-156634574D01*
X155798998Y-156653643D01*
X155775591Y-156655629D01*
X155775587Y-156655630D01*
X155770280Y-156656080D01*
X155765125Y-156657418D01*
X155765119Y-156657419D01*
X155552297Y-156712657D01*
X155552293Y-156712658D01*
X155547128Y-156713999D01*
X155542262Y-156716191D01*
X155542259Y-156716192D01*
X155433980Y-156764968D01*
X155336925Y-156808688D01*
X155145681Y-156937441D01*
X154978865Y-157096576D01*
X154841246Y-157281542D01*
X154736760Y-157487051D01*
X154735178Y-157492145D01*
X154735177Y-157492148D01*
X154673115Y-157692020D01*
X154668393Y-157707227D01*
X154667692Y-157712516D01*
X154652304Y-157828623D01*
X154638102Y-157935774D01*
X154646751Y-158166158D01*
X154694093Y-158391791D01*
X154778776Y-158606221D01*
X154898377Y-158803317D01*
X154901874Y-158807347D01*
X154988438Y-158907103D01*
X155049477Y-158977445D01*
X155053608Y-158980832D01*
X155223627Y-159120240D01*
X155223633Y-159120244D01*
X155227755Y-159123624D01*
X155232391Y-159126263D01*
X155232394Y-159126265D01*
X155341422Y-159188327D01*
X155428114Y-159237675D01*
X155644825Y-159316337D01*
X155650074Y-159317286D01*
X155650077Y-159317287D01*
X155867608Y-159356623D01*
X155867615Y-159356624D01*
X155871692Y-159357361D01*
X155889414Y-159358197D01*
X155894356Y-159358430D01*
X155894363Y-159358430D01*
X155895844Y-159358500D01*
X156057890Y-159358500D01*
X156124809Y-159352822D01*
X156224409Y-159344371D01*
X156224413Y-159344370D01*
X156229720Y-159343920D01*
X156234875Y-159342582D01*
X156234881Y-159342581D01*
X156447703Y-159287343D01*
X156447707Y-159287342D01*
X156452872Y-159286001D01*
X156457738Y-159283809D01*
X156457741Y-159283808D01*
X156658202Y-159193507D01*
X156663075Y-159191312D01*
X156854319Y-159062559D01*
X157021135Y-158903424D01*
X157158754Y-158718458D01*
X157263240Y-158512949D01*
X157299321Y-158396752D01*
X157330024Y-158297871D01*
X157331607Y-158292773D01*
X157332308Y-158287484D01*
X157349544Y-158157438D01*
X158497600Y-158157438D01*
X158537064Y-158469830D01*
X158615370Y-158774813D01*
X158731284Y-159067577D01*
X158733186Y-159071036D01*
X158733187Y-159071039D01*
X158867040Y-159314516D01*
X158882976Y-159343504D01*
X159068055Y-159598244D01*
X159283602Y-159827778D01*
X159526218Y-160028487D01*
X159792076Y-160197206D01*
X159795655Y-160198890D01*
X159795662Y-160198894D01*
X160073394Y-160329584D01*
X160073398Y-160329586D01*
X160076984Y-160331273D01*
X160376448Y-160428575D01*
X160685746Y-160487577D01*
X160779300Y-160493463D01*
X160919358Y-160502275D01*
X160919374Y-160502276D01*
X160921353Y-160502400D01*
X161078647Y-160502400D01*
X161080626Y-160502276D01*
X161080642Y-160502275D01*
X161220700Y-160493463D01*
X161314254Y-160487577D01*
X161623552Y-160428575D01*
X161923016Y-160331273D01*
X161926602Y-160329586D01*
X161926606Y-160329584D01*
X162204338Y-160198894D01*
X162204345Y-160198890D01*
X162207924Y-160197206D01*
X162473782Y-160028487D01*
X162716398Y-159827778D01*
X162931945Y-159598244D01*
X163117024Y-159343504D01*
X163132961Y-159314516D01*
X163266813Y-159071039D01*
X163266814Y-159071036D01*
X163268716Y-159067577D01*
X163384630Y-158774813D01*
X163462936Y-158469830D01*
X163502400Y-158157438D01*
X163502400Y-157935774D01*
X164638102Y-157935774D01*
X164646751Y-158166158D01*
X164694093Y-158391791D01*
X164778776Y-158606221D01*
X164898377Y-158803317D01*
X164901874Y-158807347D01*
X164988438Y-158907103D01*
X165049477Y-158977445D01*
X165053608Y-158980832D01*
X165223627Y-159120240D01*
X165223633Y-159120244D01*
X165227755Y-159123624D01*
X165232391Y-159126263D01*
X165232394Y-159126265D01*
X165341422Y-159188327D01*
X165428114Y-159237675D01*
X165644825Y-159316337D01*
X165650074Y-159317286D01*
X165650077Y-159317287D01*
X165867608Y-159356623D01*
X165867615Y-159356624D01*
X165871692Y-159357361D01*
X165889414Y-159358197D01*
X165894356Y-159358430D01*
X165894363Y-159358430D01*
X165895844Y-159358500D01*
X166057890Y-159358500D01*
X166124809Y-159352822D01*
X166224409Y-159344371D01*
X166224413Y-159344370D01*
X166229720Y-159343920D01*
X166234875Y-159342582D01*
X166234881Y-159342581D01*
X166447703Y-159287343D01*
X166447707Y-159287342D01*
X166452872Y-159286001D01*
X166457738Y-159283809D01*
X166457741Y-159283808D01*
X166658202Y-159193507D01*
X166663075Y-159191312D01*
X166854319Y-159062559D01*
X167021135Y-158903424D01*
X167158754Y-158718458D01*
X167263240Y-158512949D01*
X167299321Y-158396752D01*
X167330024Y-158297871D01*
X167331607Y-158292773D01*
X167332308Y-158287484D01*
X167361198Y-158069511D01*
X167361198Y-158069506D01*
X167361898Y-158064226D01*
X167353249Y-157833842D01*
X167305907Y-157608209D01*
X167221224Y-157393779D01*
X167101623Y-157196683D01*
X167098126Y-157192653D01*
X166954023Y-157026588D01*
X166954021Y-157026586D01*
X166950523Y-157022555D01*
X166908970Y-156988484D01*
X166776373Y-156879760D01*
X166776367Y-156879756D01*
X166772245Y-156876376D01*
X166767609Y-156873737D01*
X166767606Y-156873735D01*
X166576529Y-156764968D01*
X166571886Y-156762325D01*
X166355175Y-156683663D01*
X166349926Y-156682714D01*
X166349923Y-156682713D01*
X166132392Y-156643377D01*
X166132385Y-156643376D01*
X166128308Y-156642639D01*
X166110586Y-156641803D01*
X166105644Y-156641570D01*
X166105637Y-156641570D01*
X166104156Y-156641500D01*
X165942110Y-156641500D01*
X165875191Y-156647178D01*
X165775591Y-156655629D01*
X165775587Y-156655630D01*
X165770280Y-156656080D01*
X165765125Y-156657418D01*
X165765119Y-156657419D01*
X165552297Y-156712657D01*
X165552293Y-156712658D01*
X165547128Y-156713999D01*
X165542262Y-156716191D01*
X165542259Y-156716192D01*
X165433980Y-156764968D01*
X165336925Y-156808688D01*
X165145681Y-156937441D01*
X164978865Y-157096576D01*
X164841246Y-157281542D01*
X164736760Y-157487051D01*
X164735178Y-157492145D01*
X164735177Y-157492148D01*
X164673115Y-157692020D01*
X164668393Y-157707227D01*
X164667692Y-157712516D01*
X164652304Y-157828623D01*
X164638102Y-157935774D01*
X163502400Y-157935774D01*
X163502400Y-157842562D01*
X163462936Y-157530170D01*
X163384630Y-157225187D01*
X163268716Y-156932423D01*
X163262906Y-156921855D01*
X163118933Y-156659968D01*
X163118931Y-156659965D01*
X163117024Y-156656496D01*
X163004351Y-156501415D01*
X162934273Y-156404960D01*
X162934272Y-156404958D01*
X162931945Y-156401756D01*
X162716398Y-156172222D01*
X162473782Y-155971513D01*
X162207924Y-155802794D01*
X162204345Y-155801110D01*
X162204338Y-155801106D01*
X161926606Y-155670416D01*
X161926602Y-155670414D01*
X161923016Y-155668727D01*
X161623552Y-155571425D01*
X161314254Y-155512423D01*
X161220700Y-155506537D01*
X161080642Y-155497725D01*
X161080626Y-155497724D01*
X161078647Y-155497600D01*
X160921353Y-155497600D01*
X160919374Y-155497724D01*
X160919358Y-155497725D01*
X160779300Y-155506537D01*
X160685746Y-155512423D01*
X160376448Y-155571425D01*
X160076984Y-155668727D01*
X160073398Y-155670414D01*
X160073394Y-155670416D01*
X159795662Y-155801106D01*
X159795655Y-155801110D01*
X159792076Y-155802794D01*
X159526218Y-155971513D01*
X159283602Y-156172222D01*
X159068055Y-156401756D01*
X159065728Y-156404958D01*
X159065727Y-156404960D01*
X158995649Y-156501415D01*
X158882976Y-156656496D01*
X158881069Y-156659965D01*
X158881067Y-156659968D01*
X158737094Y-156921855D01*
X158731284Y-156932423D01*
X158615370Y-157225187D01*
X158537064Y-157530170D01*
X158497600Y-157842562D01*
X158497600Y-158157438D01*
X157349544Y-158157438D01*
X157361198Y-158069511D01*
X157361198Y-158069506D01*
X157361898Y-158064226D01*
X157353249Y-157833842D01*
X157305907Y-157608209D01*
X157221224Y-157393779D01*
X157154964Y-157284585D01*
X157136725Y-157215973D01*
X157158476Y-157148391D01*
X157213312Y-157103296D01*
X157252797Y-157093609D01*
X157316965Y-157088559D01*
X157446326Y-157078378D01*
X157451133Y-157077224D01*
X157451139Y-157077223D01*
X157609498Y-157039204D01*
X157696340Y-157018355D01*
X157700913Y-157016461D01*
X157929313Y-156921855D01*
X157929317Y-156921853D01*
X157933887Y-156919960D01*
X158153116Y-156785616D01*
X158348631Y-156618631D01*
X158515616Y-156423116D01*
X158649960Y-156203887D01*
X158661881Y-156175109D01*
X158746461Y-155970913D01*
X158746462Y-155970911D01*
X158748355Y-155966340D01*
X158808378Y-155716326D01*
X158828551Y-155460000D01*
X158808378Y-155203674D01*
X158748355Y-154953660D01*
X158746461Y-154949087D01*
X158651855Y-154720687D01*
X158651853Y-154720683D01*
X158649960Y-154716113D01*
X158515616Y-154496884D01*
X158348631Y-154301369D01*
X158153116Y-154134384D01*
X157933887Y-154000040D01*
X157929317Y-153998147D01*
X157929313Y-153998145D01*
X157700913Y-153903539D01*
X157700911Y-153903538D01*
X157696340Y-153901645D01*
X157601596Y-153878899D01*
X157451139Y-153842777D01*
X157451133Y-153842776D01*
X157446326Y-153841622D01*
X157190000Y-153821449D01*
X156933674Y-153841622D01*
X156928867Y-153842776D01*
X156928861Y-153842777D01*
X156847838Y-153862229D01*
X156768936Y-153881172D01*
X156698030Y-153877625D01*
X156650429Y-153847748D01*
X155722681Y-152920000D01*
X161871449Y-152920000D01*
X161891622Y-153176326D01*
X161951645Y-153426340D01*
X161953538Y-153430911D01*
X161953539Y-153430913D01*
X162046530Y-153655412D01*
X162050040Y-153663887D01*
X162184384Y-153883116D01*
X162351369Y-154078631D01*
X162546884Y-154245616D01*
X162766113Y-154379960D01*
X162770683Y-154381853D01*
X162770687Y-154381855D01*
X162989486Y-154472484D01*
X163003660Y-154478355D01*
X163051682Y-154489884D01*
X163248861Y-154537223D01*
X163248867Y-154537224D01*
X163253674Y-154538378D01*
X163510000Y-154558551D01*
X163766326Y-154538378D01*
X163771133Y-154537224D01*
X163771139Y-154537223D01*
X163968318Y-154489884D01*
X164016340Y-154478355D01*
X164030514Y-154472484D01*
X164249313Y-154381855D01*
X164249317Y-154381853D01*
X164253887Y-154379960D01*
X164473116Y-154245616D01*
X164668631Y-154078631D01*
X164835616Y-153883116D01*
X164924136Y-153738665D01*
X164976784Y-153691034D01*
X165031569Y-153678500D01*
X167687930Y-153678500D01*
X167706880Y-153679933D01*
X167721115Y-153682099D01*
X167721119Y-153682099D01*
X167728349Y-153683199D01*
X167735641Y-153682606D01*
X167735644Y-153682606D01*
X167781018Y-153678915D01*
X167791233Y-153678500D01*
X167799293Y-153678500D01*
X167812583Y-153676951D01*
X167827507Y-153675211D01*
X167831882Y-153674778D01*
X167897339Y-153669454D01*
X167897342Y-153669453D01*
X167904637Y-153668860D01*
X167911601Y-153666604D01*
X167917560Y-153665413D01*
X167923415Y-153664029D01*
X167930681Y-153663182D01*
X167999327Y-153638265D01*
X168003455Y-153636848D01*
X168065936Y-153616607D01*
X168065938Y-153616606D01*
X168072899Y-153614351D01*
X168079154Y-153610555D01*
X168084628Y-153608049D01*
X168090058Y-153605330D01*
X168096937Y-153602833D01*
X168157976Y-153562814D01*
X168161680Y-153560477D01*
X168224107Y-153522595D01*
X168232484Y-153515197D01*
X168232508Y-153515224D01*
X168235500Y-153512571D01*
X168238733Y-153509868D01*
X168244852Y-153505856D01*
X168298128Y-153449617D01*
X168300506Y-153447175D01*
X171145161Y-150602520D01*
X171159573Y-150590134D01*
X171171168Y-150581601D01*
X171171173Y-150581596D01*
X171177068Y-150577258D01*
X171181807Y-150571680D01*
X171181810Y-150571677D01*
X171211285Y-150536982D01*
X171218215Y-150529466D01*
X171223910Y-150523771D01*
X171241531Y-150501499D01*
X171244322Y-150498095D01*
X171286841Y-150448047D01*
X171286842Y-150448045D01*
X171291583Y-150442465D01*
X171294911Y-150435949D01*
X171298278Y-150430900D01*
X171301445Y-150425771D01*
X171305984Y-150420034D01*
X171336905Y-150353875D01*
X171338811Y-150349975D01*
X171372019Y-150284942D01*
X171373758Y-150277834D01*
X171375857Y-150272191D01*
X171377774Y-150266428D01*
X171380872Y-150259800D01*
X171395737Y-150188333D01*
X171396707Y-150184049D01*
X171412723Y-150118595D01*
X171414058Y-150113140D01*
X171414750Y-150101986D01*
X171414786Y-150101988D01*
X171415025Y-150097995D01*
X171415399Y-150093803D01*
X171416890Y-150086635D01*
X171414796Y-150009229D01*
X171414750Y-150005822D01*
X171414750Y-147704570D01*
X171416183Y-147685620D01*
X171418349Y-147671385D01*
X171418349Y-147671381D01*
X171419449Y-147664151D01*
X171415165Y-147611482D01*
X171414750Y-147601267D01*
X171414750Y-147593207D01*
X171411459Y-147564980D01*
X171411028Y-147560621D01*
X171405704Y-147495162D01*
X171405703Y-147495159D01*
X171405110Y-147487864D01*
X171402854Y-147480900D01*
X171401667Y-147474961D01*
X171400280Y-147469090D01*
X171399432Y-147461819D01*
X171396936Y-147454943D01*
X171396934Y-147454934D01*
X171374525Y-147393202D01*
X171373115Y-147389098D01*
X171350602Y-147319601D01*
X171346806Y-147313346D01*
X171344307Y-147307887D01*
X171341579Y-147302439D01*
X171339083Y-147295563D01*
X171299055Y-147234510D01*
X171296731Y-147230827D01*
X171261750Y-147173180D01*
X171261749Y-147173179D01*
X171258845Y-147168393D01*
X171251448Y-147160017D01*
X171251475Y-147159993D01*
X171248820Y-147156999D01*
X171246118Y-147153768D01*
X171242106Y-147147648D01*
X171185867Y-147094372D01*
X171183425Y-147091994D01*
X169748520Y-145657089D01*
X169736134Y-145642677D01*
X169727601Y-145631082D01*
X169727596Y-145631077D01*
X169723258Y-145625182D01*
X169717680Y-145620443D01*
X169717677Y-145620440D01*
X169682982Y-145590965D01*
X169675466Y-145584035D01*
X169669771Y-145578340D01*
X169663630Y-145573482D01*
X169647499Y-145560719D01*
X169644095Y-145557928D01*
X169594047Y-145515409D01*
X169594045Y-145515408D01*
X169588465Y-145510667D01*
X169581949Y-145507339D01*
X169576900Y-145503972D01*
X169571771Y-145500805D01*
X169566034Y-145496266D01*
X169499875Y-145465345D01*
X169495975Y-145463439D01*
X169430942Y-145430231D01*
X169423834Y-145428492D01*
X169418191Y-145426393D01*
X169412428Y-145424476D01*
X169405800Y-145421378D01*
X169334333Y-145406513D01*
X169330049Y-145405543D01*
X169259140Y-145388192D01*
X169253538Y-145387844D01*
X169253535Y-145387844D01*
X169247986Y-145387500D01*
X169247988Y-145387464D01*
X169243995Y-145387225D01*
X169239803Y-145386851D01*
X169232635Y-145385360D01*
X169166425Y-145387151D01*
X169155229Y-145387454D01*
X169151822Y-145387500D01*
X167889911Y-145387500D01*
X167821790Y-145367498D01*
X167804382Y-145354025D01*
X167693559Y-145251581D01*
X167693556Y-145251579D01*
X167689319Y-145247662D01*
X167643145Y-145218529D01*
X167518951Y-145140168D01*
X167518946Y-145140166D01*
X167514067Y-145137087D01*
X167321599Y-145060300D01*
X167118361Y-145019873D01*
X167112587Y-145019797D01*
X167112583Y-145019797D01*
X167007399Y-145018421D01*
X166911158Y-145017161D01*
X166905461Y-145018140D01*
X166905460Y-145018140D01*
X166712628Y-145051274D01*
X166712627Y-145051274D01*
X166706931Y-145052253D01*
X166512519Y-145123976D01*
X166334433Y-145229926D01*
X166178637Y-145366555D01*
X166050348Y-145529289D01*
X166047659Y-145534400D01*
X166047657Y-145534403D01*
X166002391Y-145620440D01*
X165953863Y-145712676D01*
X165892414Y-145910575D01*
X165868058Y-146116359D01*
X165881611Y-146323135D01*
X165932619Y-146523980D01*
X166019373Y-146712165D01*
X166022704Y-146716878D01*
X166022705Y-146716880D01*
X166131204Y-146870401D01*
X166138970Y-146881390D01*
X166287402Y-147025986D01*
X166292198Y-147029191D01*
X166292201Y-147029193D01*
X166361493Y-147075492D01*
X166459699Y-147141111D01*
X166465002Y-147143389D01*
X166465005Y-147143391D01*
X166620324Y-147210121D01*
X166650091Y-147222910D01*
X166852201Y-147268643D01*
X166857972Y-147268870D01*
X166857974Y-147268870D01*
X166927210Y-147271590D01*
X167059262Y-147276778D01*
X167147561Y-147263975D01*
X167258616Y-147247874D01*
X167258621Y-147247873D01*
X167264337Y-147247044D01*
X167269809Y-147245186D01*
X167269811Y-147245186D01*
X167455096Y-147182290D01*
X167455098Y-147182289D01*
X167460560Y-147180435D01*
X167641359Y-147079183D01*
X167800678Y-146946678D01*
X167804374Y-146942234D01*
X167805200Y-146941408D01*
X167867511Y-146907381D01*
X167894299Y-146904500D01*
X168798379Y-146904500D01*
X168866500Y-146924502D01*
X168887474Y-146941405D01*
X169860845Y-147914776D01*
X169894871Y-147977088D01*
X169897750Y-148003871D01*
X169897750Y-149652379D01*
X169877748Y-149720500D01*
X169860845Y-149741474D01*
X167477724Y-152124595D01*
X167415412Y-152158621D01*
X167388629Y-152161500D01*
X165031569Y-152161500D01*
X164963448Y-152141498D01*
X164924136Y-152101335D01*
X164838200Y-151961101D01*
X164835616Y-151956884D01*
X164668631Y-151761369D01*
X164473116Y-151594384D01*
X164253887Y-151460040D01*
X164249317Y-151458147D01*
X164249313Y-151458145D01*
X164020913Y-151363539D01*
X164020911Y-151363538D01*
X164016340Y-151361645D01*
X163929498Y-151340796D01*
X163771139Y-151302777D01*
X163771133Y-151302776D01*
X163766326Y-151301622D01*
X163510000Y-151281449D01*
X163253674Y-151301622D01*
X163248867Y-151302776D01*
X163248861Y-151302777D01*
X163090502Y-151340796D01*
X163003660Y-151361645D01*
X162999089Y-151363538D01*
X162999087Y-151363539D01*
X162770687Y-151458145D01*
X162770683Y-151458147D01*
X162766113Y-151460040D01*
X162546884Y-151594384D01*
X162351369Y-151761369D01*
X162184384Y-151956884D01*
X162050040Y-152176113D01*
X162048147Y-152180683D01*
X162048145Y-152180687D01*
X161981695Y-152341112D01*
X161951645Y-152413660D01*
X161946525Y-152434988D01*
X161913042Y-152574455D01*
X161891622Y-152663674D01*
X161871449Y-152920000D01*
X155722681Y-152920000D01*
X154555581Y-151752900D01*
X154521555Y-151690588D01*
X154518676Y-151663805D01*
X154518676Y-138521134D01*
X165872500Y-138521134D01*
X165879255Y-138583316D01*
X165930385Y-138719705D01*
X166017739Y-138836261D01*
X166134295Y-138923615D01*
X166270684Y-138974745D01*
X166332866Y-138981500D01*
X167667134Y-138981500D01*
X167729316Y-138974745D01*
X167865705Y-138923615D01*
X167982261Y-138836261D01*
X168069615Y-138719705D01*
X168120745Y-138583316D01*
X168127500Y-138521134D01*
X168127500Y-137186866D01*
X168120745Y-137124684D01*
X168069615Y-136988295D01*
X167982261Y-136871739D01*
X167865705Y-136784385D01*
X167729316Y-136733255D01*
X167667134Y-136726500D01*
X166332866Y-136726500D01*
X166270684Y-136733255D01*
X166134295Y-136784385D01*
X166017739Y-136871739D01*
X165930385Y-136988295D01*
X165879255Y-137124684D01*
X165872500Y-137186866D01*
X165872500Y-138521134D01*
X154518676Y-138521134D01*
X154518676Y-123000000D01*
X169486835Y-123000000D01*
X169505465Y-123236711D01*
X169506619Y-123241518D01*
X169506620Y-123241524D01*
X169536601Y-123366401D01*
X169560895Y-123467594D01*
X169651760Y-123686963D01*
X169654346Y-123691183D01*
X169773241Y-123885202D01*
X169773245Y-123885208D01*
X169775824Y-123889416D01*
X169930031Y-124069969D01*
X170110584Y-124224176D01*
X170114792Y-124226755D01*
X170114798Y-124226759D01*
X170308817Y-124345654D01*
X170313037Y-124348240D01*
X170317607Y-124350133D01*
X170317611Y-124350135D01*
X170527833Y-124437211D01*
X170532406Y-124439105D01*
X170612609Y-124458360D01*
X170758476Y-124493380D01*
X170758482Y-124493381D01*
X170763289Y-124494535D01*
X171000000Y-124513165D01*
X171236711Y-124494535D01*
X171241518Y-124493381D01*
X171241524Y-124493380D01*
X171387391Y-124458360D01*
X171467594Y-124439105D01*
X171472167Y-124437211D01*
X171682389Y-124350135D01*
X171682393Y-124350133D01*
X171686963Y-124348240D01*
X171691183Y-124345654D01*
X171885202Y-124226759D01*
X171885208Y-124226755D01*
X171889416Y-124224176D01*
X172069969Y-124069969D01*
X172224176Y-123889416D01*
X172226755Y-123885208D01*
X172226759Y-123885202D01*
X172345654Y-123691183D01*
X172348240Y-123686963D01*
X172439105Y-123467594D01*
X172463399Y-123366401D01*
X172493380Y-123241524D01*
X172493381Y-123241518D01*
X172494535Y-123236711D01*
X172513165Y-123000000D01*
X172494535Y-122763289D01*
X172486581Y-122730155D01*
X172440260Y-122537218D01*
X172439105Y-122532406D01*
X172348240Y-122313037D01*
X172345654Y-122308817D01*
X172226759Y-122114798D01*
X172226755Y-122114792D01*
X172224176Y-122110584D01*
X172069969Y-121930031D01*
X171889416Y-121775824D01*
X171885208Y-121773245D01*
X171885202Y-121773241D01*
X171691183Y-121654346D01*
X171686963Y-121651760D01*
X171682393Y-121649867D01*
X171682389Y-121649865D01*
X171472167Y-121562789D01*
X171472165Y-121562788D01*
X171467594Y-121560895D01*
X171387391Y-121541640D01*
X171241524Y-121506620D01*
X171241518Y-121506619D01*
X171236711Y-121505465D01*
X171000000Y-121486835D01*
X170763289Y-121505465D01*
X170758482Y-121506619D01*
X170758476Y-121506620D01*
X170612609Y-121541640D01*
X170532406Y-121560895D01*
X170527835Y-121562788D01*
X170527833Y-121562789D01*
X170317611Y-121649865D01*
X170317607Y-121649867D01*
X170313037Y-121651760D01*
X170308817Y-121654346D01*
X170114798Y-121773241D01*
X170114792Y-121773245D01*
X170110584Y-121775824D01*
X169930031Y-121930031D01*
X169775824Y-122110584D01*
X169773245Y-122114792D01*
X169773241Y-122114798D01*
X169654346Y-122308817D01*
X169651760Y-122313037D01*
X169560895Y-122532406D01*
X169559740Y-122537218D01*
X169513420Y-122730155D01*
X169505465Y-122763289D01*
X169487308Y-122993995D01*
X169486835Y-123000000D01*
X154518676Y-123000000D01*
X154518676Y-107813134D01*
X165872500Y-107813134D01*
X165879255Y-107875316D01*
X165930385Y-108011705D01*
X166017739Y-108128261D01*
X166134295Y-108215615D01*
X166270684Y-108266745D01*
X166332866Y-108273500D01*
X167667134Y-108273500D01*
X167729316Y-108266745D01*
X167865705Y-108215615D01*
X167982261Y-108128261D01*
X168069615Y-108011705D01*
X168120745Y-107875316D01*
X168127500Y-107813134D01*
X168127500Y-106478866D01*
X168120745Y-106416684D01*
X168069615Y-106280295D01*
X167982261Y-106163739D01*
X167865705Y-106076385D01*
X167729316Y-106025255D01*
X167667134Y-106018500D01*
X166332866Y-106018500D01*
X166270684Y-106025255D01*
X166134295Y-106076385D01*
X166017739Y-106163739D01*
X165930385Y-106280295D01*
X165879255Y-106416684D01*
X165872500Y-106478866D01*
X165872500Y-107813134D01*
X154518676Y-107813134D01*
X154518676Y-93080000D01*
X155922677Y-93080000D01*
X155941930Y-93300068D01*
X155999106Y-93513450D01*
X156092466Y-93713661D01*
X156219174Y-93894620D01*
X156375380Y-94050826D01*
X156379888Y-94053983D01*
X156379891Y-94053985D01*
X156551829Y-94174377D01*
X156556338Y-94177534D01*
X156561320Y-94179857D01*
X156561325Y-94179860D01*
X156751564Y-94268569D01*
X156756550Y-94270894D01*
X156761858Y-94272316D01*
X156761860Y-94272317D01*
X156765264Y-94273229D01*
X156969932Y-94328070D01*
X157190000Y-94347323D01*
X157410068Y-94328070D01*
X157614736Y-94273229D01*
X157618140Y-94272317D01*
X157618142Y-94272316D01*
X157623450Y-94270894D01*
X157628436Y-94268569D01*
X157818675Y-94179860D01*
X157818680Y-94179857D01*
X157823662Y-94177534D01*
X157828171Y-94174377D01*
X158000109Y-94053985D01*
X158000112Y-94053983D01*
X158004620Y-94050826D01*
X158160826Y-93894620D01*
X158287534Y-93713661D01*
X158380894Y-93513450D01*
X158438070Y-93300068D01*
X158457323Y-93080000D01*
X163542677Y-93080000D01*
X163561930Y-93300068D01*
X163619106Y-93513450D01*
X163712466Y-93713661D01*
X163839174Y-93894620D01*
X163995380Y-94050826D01*
X163999888Y-94053983D01*
X163999891Y-94053985D01*
X164171829Y-94174377D01*
X164176338Y-94177534D01*
X164181320Y-94179857D01*
X164181325Y-94179860D01*
X164371564Y-94268569D01*
X164376550Y-94270894D01*
X164381858Y-94272316D01*
X164381860Y-94272317D01*
X164385264Y-94273229D01*
X164589932Y-94328070D01*
X164810000Y-94347323D01*
X165030068Y-94328070D01*
X165234736Y-94273229D01*
X165238140Y-94272317D01*
X165238142Y-94272316D01*
X165243450Y-94270894D01*
X165248436Y-94268569D01*
X165438675Y-94179860D01*
X165438680Y-94179857D01*
X165443662Y-94177534D01*
X165448171Y-94174377D01*
X165620109Y-94053985D01*
X165620112Y-94053983D01*
X165624620Y-94050826D01*
X165780826Y-93894620D01*
X165907534Y-93713661D01*
X166000894Y-93513450D01*
X166058070Y-93300068D01*
X166077323Y-93080000D01*
X166058070Y-92859932D01*
X166000894Y-92646550D01*
X165907534Y-92446339D01*
X165780826Y-92265380D01*
X165624620Y-92109174D01*
X165620112Y-92106017D01*
X165620109Y-92106015D01*
X165448171Y-91985623D01*
X165448168Y-91985621D01*
X165443662Y-91982466D01*
X165438680Y-91980143D01*
X165438675Y-91980140D01*
X165248432Y-91891429D01*
X165248431Y-91891429D01*
X165243450Y-91889106D01*
X165238142Y-91887684D01*
X165238140Y-91887683D01*
X165172748Y-91870161D01*
X165030068Y-91831930D01*
X164810000Y-91812677D01*
X164589932Y-91831930D01*
X164447252Y-91870161D01*
X164381860Y-91887683D01*
X164381858Y-91887684D01*
X164376550Y-91889106D01*
X164371569Y-91891428D01*
X164371568Y-91891429D01*
X164181320Y-91980143D01*
X164181317Y-91980145D01*
X164176339Y-91982466D01*
X163995380Y-92109174D01*
X163839174Y-92265380D01*
X163712466Y-92446339D01*
X163619106Y-92646550D01*
X163561930Y-92859932D01*
X163542677Y-93080000D01*
X158457323Y-93080000D01*
X158438070Y-92859932D01*
X158380894Y-92646550D01*
X158287534Y-92446339D01*
X158160826Y-92265380D01*
X158004620Y-92109174D01*
X158000112Y-92106017D01*
X158000109Y-92106015D01*
X157828171Y-91985623D01*
X157828168Y-91985621D01*
X157823662Y-91982466D01*
X157818680Y-91980143D01*
X157818675Y-91980140D01*
X157628432Y-91891429D01*
X157628431Y-91891429D01*
X157623450Y-91889106D01*
X157618142Y-91887684D01*
X157618140Y-91887683D01*
X157552748Y-91870161D01*
X157410068Y-91831930D01*
X157190000Y-91812677D01*
X156969932Y-91831930D01*
X156827252Y-91870161D01*
X156761860Y-91887683D01*
X156761858Y-91887684D01*
X156756550Y-91889106D01*
X156751569Y-91891428D01*
X156751568Y-91891429D01*
X156561320Y-91980143D01*
X156561317Y-91980145D01*
X156556339Y-91982466D01*
X156375380Y-92109174D01*
X156219174Y-92265380D01*
X156092466Y-92446339D01*
X155999106Y-92646550D01*
X155941930Y-92859932D01*
X155922677Y-93080000D01*
X154518676Y-93080000D01*
X154518676Y-88609689D01*
X154538678Y-88541568D01*
X154592334Y-88495075D01*
X154662608Y-88484971D01*
X154727188Y-88514465D01*
X154761868Y-88563408D01*
X154776813Y-88601252D01*
X154776815Y-88601256D01*
X154778776Y-88606221D01*
X154898377Y-88803317D01*
X154901874Y-88807347D01*
X154988438Y-88907103D01*
X155049477Y-88977445D01*
X155053608Y-88980832D01*
X155223627Y-89120240D01*
X155223633Y-89120244D01*
X155227755Y-89123624D01*
X155232391Y-89126263D01*
X155232394Y-89126265D01*
X155335400Y-89184899D01*
X155428114Y-89237675D01*
X155644825Y-89316337D01*
X155650074Y-89317286D01*
X155650077Y-89317287D01*
X155867608Y-89356623D01*
X155867615Y-89356624D01*
X155871692Y-89357361D01*
X155889414Y-89358197D01*
X155894356Y-89358430D01*
X155894363Y-89358430D01*
X155895844Y-89358500D01*
X156057890Y-89358500D01*
X156124809Y-89352822D01*
X156224409Y-89344371D01*
X156224413Y-89344370D01*
X156229720Y-89343920D01*
X156234875Y-89342582D01*
X156234881Y-89342581D01*
X156447703Y-89287343D01*
X156447707Y-89287342D01*
X156452872Y-89286001D01*
X156457738Y-89283809D01*
X156457741Y-89283808D01*
X156658202Y-89193507D01*
X156663075Y-89191312D01*
X156854319Y-89062559D01*
X157021135Y-88903424D01*
X157158754Y-88718458D01*
X157263240Y-88512949D01*
X157271607Y-88486005D01*
X157330024Y-88297871D01*
X157331607Y-88292773D01*
X157332308Y-88287484D01*
X157349544Y-88157438D01*
X158497600Y-88157438D01*
X158537064Y-88469830D01*
X158615370Y-88774813D01*
X158731284Y-89067577D01*
X158733186Y-89071036D01*
X158733187Y-89071039D01*
X158867040Y-89314516D01*
X158882976Y-89343504D01*
X159068055Y-89598244D01*
X159283602Y-89827778D01*
X159526218Y-90028487D01*
X159792076Y-90197206D01*
X159795655Y-90198890D01*
X159795662Y-90198894D01*
X160073394Y-90329584D01*
X160073398Y-90329586D01*
X160076984Y-90331273D01*
X160376448Y-90428575D01*
X160685746Y-90487577D01*
X160779300Y-90493463D01*
X160919358Y-90502275D01*
X160919374Y-90502276D01*
X160921353Y-90502400D01*
X161078647Y-90502400D01*
X161080626Y-90502276D01*
X161080642Y-90502275D01*
X161220700Y-90493463D01*
X161314254Y-90487577D01*
X161623552Y-90428575D01*
X161923016Y-90331273D01*
X161926602Y-90329586D01*
X161926606Y-90329584D01*
X162204338Y-90198894D01*
X162204345Y-90198890D01*
X162207924Y-90197206D01*
X162473782Y-90028487D01*
X162716398Y-89827778D01*
X162931945Y-89598244D01*
X163117024Y-89343504D01*
X163132961Y-89314516D01*
X163266813Y-89071039D01*
X163266814Y-89071036D01*
X163268716Y-89067577D01*
X163384630Y-88774813D01*
X163462936Y-88469830D01*
X163502400Y-88157438D01*
X163502400Y-87935774D01*
X164638102Y-87935774D01*
X164646751Y-88166158D01*
X164694093Y-88391791D01*
X164696051Y-88396750D01*
X164696052Y-88396752D01*
X164776814Y-88601252D01*
X164778776Y-88606221D01*
X164898377Y-88803317D01*
X164901874Y-88807347D01*
X164988438Y-88907103D01*
X165049477Y-88977445D01*
X165053608Y-88980832D01*
X165223627Y-89120240D01*
X165223633Y-89120244D01*
X165227755Y-89123624D01*
X165232391Y-89126263D01*
X165232394Y-89126265D01*
X165335400Y-89184899D01*
X165428114Y-89237675D01*
X165644825Y-89316337D01*
X165650074Y-89317286D01*
X165650077Y-89317287D01*
X165867608Y-89356623D01*
X165867615Y-89356624D01*
X165871692Y-89357361D01*
X165889414Y-89358197D01*
X165894356Y-89358430D01*
X165894363Y-89358430D01*
X165895844Y-89358500D01*
X166057890Y-89358500D01*
X166124809Y-89352822D01*
X166224409Y-89344371D01*
X166224413Y-89344370D01*
X166229720Y-89343920D01*
X166234875Y-89342582D01*
X166234881Y-89342581D01*
X166447703Y-89287343D01*
X166447707Y-89287342D01*
X166452872Y-89286001D01*
X166457738Y-89283809D01*
X166457741Y-89283808D01*
X166658202Y-89193507D01*
X166663075Y-89191312D01*
X166854319Y-89062559D01*
X167021135Y-88903424D01*
X167158754Y-88718458D01*
X167263240Y-88512949D01*
X167271607Y-88486005D01*
X167330024Y-88297871D01*
X167331607Y-88292773D01*
X167332308Y-88287484D01*
X167361198Y-88069511D01*
X167361198Y-88069506D01*
X167361898Y-88064226D01*
X167353249Y-87833842D01*
X167305907Y-87608209D01*
X167273573Y-87526335D01*
X167223185Y-87398744D01*
X167223184Y-87398742D01*
X167221224Y-87393779D01*
X167101623Y-87196683D01*
X167098126Y-87192653D01*
X166954023Y-87026588D01*
X166954021Y-87026586D01*
X166950523Y-87022555D01*
X166908970Y-86988484D01*
X166776373Y-86879760D01*
X166776367Y-86879756D01*
X166772245Y-86876376D01*
X166767609Y-86873737D01*
X166767606Y-86873735D01*
X166576529Y-86764968D01*
X166571886Y-86762325D01*
X166355175Y-86683663D01*
X166349926Y-86682714D01*
X166349923Y-86682713D01*
X166132392Y-86643377D01*
X166132385Y-86643376D01*
X166128308Y-86642639D01*
X166110586Y-86641803D01*
X166105644Y-86641570D01*
X166105637Y-86641570D01*
X166104156Y-86641500D01*
X165942110Y-86641500D01*
X165875191Y-86647178D01*
X165775591Y-86655629D01*
X165775587Y-86655630D01*
X165770280Y-86656080D01*
X165765125Y-86657418D01*
X165765119Y-86657419D01*
X165552297Y-86712657D01*
X165552293Y-86712658D01*
X165547128Y-86713999D01*
X165542262Y-86716191D01*
X165542259Y-86716192D01*
X165433980Y-86764968D01*
X165336925Y-86808688D01*
X165145681Y-86937441D01*
X164978865Y-87096576D01*
X164841246Y-87281542D01*
X164736760Y-87487051D01*
X164735178Y-87492145D01*
X164735177Y-87492148D01*
X164673115Y-87692020D01*
X164668393Y-87707227D01*
X164667692Y-87712516D01*
X164652304Y-87828623D01*
X164638102Y-87935774D01*
X163502400Y-87935774D01*
X163502400Y-87842562D01*
X163462936Y-87530170D01*
X163384630Y-87225187D01*
X163268716Y-86932423D01*
X163262906Y-86921855D01*
X163118933Y-86659968D01*
X163118931Y-86659965D01*
X163117024Y-86656496D01*
X163004351Y-86501415D01*
X162934273Y-86404960D01*
X162934272Y-86404958D01*
X162931945Y-86401756D01*
X162716398Y-86172222D01*
X162473782Y-85971513D01*
X162207924Y-85802794D01*
X162204345Y-85801110D01*
X162204338Y-85801106D01*
X161926606Y-85670416D01*
X161926602Y-85670414D01*
X161923016Y-85668727D01*
X161623552Y-85571425D01*
X161314254Y-85512423D01*
X161220700Y-85506537D01*
X161080642Y-85497725D01*
X161080626Y-85497724D01*
X161078647Y-85497600D01*
X160921353Y-85497600D01*
X160919374Y-85497724D01*
X160919358Y-85497725D01*
X160779300Y-85506537D01*
X160685746Y-85512423D01*
X160376448Y-85571425D01*
X160076984Y-85668727D01*
X160073398Y-85670414D01*
X160073394Y-85670416D01*
X159795662Y-85801106D01*
X159795655Y-85801110D01*
X159792076Y-85802794D01*
X159526218Y-85971513D01*
X159283602Y-86172222D01*
X159068055Y-86401756D01*
X159065728Y-86404958D01*
X159065727Y-86404960D01*
X158995649Y-86501415D01*
X158882976Y-86656496D01*
X158881069Y-86659965D01*
X158881067Y-86659968D01*
X158737094Y-86921855D01*
X158731284Y-86932423D01*
X158615370Y-87225187D01*
X158537064Y-87530170D01*
X158497600Y-87842562D01*
X158497600Y-88157438D01*
X157349544Y-88157438D01*
X157361198Y-88069511D01*
X157361198Y-88069506D01*
X157361898Y-88064226D01*
X157353249Y-87833842D01*
X157305907Y-87608209D01*
X157273573Y-87526335D01*
X157223185Y-87398744D01*
X157223184Y-87398742D01*
X157221224Y-87393779D01*
X157154964Y-87284585D01*
X157136725Y-87215973D01*
X157158476Y-87148391D01*
X157213312Y-87103296D01*
X157252797Y-87093609D01*
X157316965Y-87088559D01*
X157446326Y-87078378D01*
X157451133Y-87077224D01*
X157451139Y-87077223D01*
X157609498Y-87039204D01*
X157696340Y-87018355D01*
X157700913Y-87016461D01*
X157929313Y-86921855D01*
X157929317Y-86921853D01*
X157933887Y-86919960D01*
X158153116Y-86785616D01*
X158348631Y-86618631D01*
X158515616Y-86423116D01*
X158649960Y-86203887D01*
X158661881Y-86175109D01*
X158746461Y-85970913D01*
X158746462Y-85970911D01*
X158748355Y-85966340D01*
X158808378Y-85716326D01*
X158828551Y-85460000D01*
X158808378Y-85203674D01*
X158748355Y-84953660D01*
X158739217Y-84931598D01*
X158651855Y-84720687D01*
X158651853Y-84720683D01*
X158649960Y-84716113D01*
X158515616Y-84496884D01*
X158348631Y-84301369D01*
X158153116Y-84134384D01*
X157933887Y-84000040D01*
X157929317Y-83998147D01*
X157929313Y-83998145D01*
X157700913Y-83903539D01*
X157700911Y-83903538D01*
X157696340Y-83901645D01*
X157601596Y-83878899D01*
X157451139Y-83842777D01*
X157451133Y-83842776D01*
X157446326Y-83841622D01*
X157190000Y-83821449D01*
X156933674Y-83841622D01*
X156928867Y-83842776D01*
X156928861Y-83842777D01*
X156778404Y-83878899D01*
X156683660Y-83901645D01*
X156679089Y-83903538D01*
X156679087Y-83903539D01*
X156450687Y-83998145D01*
X156450683Y-83998147D01*
X156446113Y-84000040D01*
X156226884Y-84134384D01*
X156031369Y-84301369D01*
X155864384Y-84496884D01*
X155839664Y-84537223D01*
X155775864Y-84641335D01*
X155723216Y-84688966D01*
X155668431Y-84701500D01*
X155142238Y-84701500D01*
X155123289Y-84700067D01*
X155123082Y-84700036D01*
X155101826Y-84696802D01*
X155094534Y-84697395D01*
X155094531Y-84697395D01*
X155049166Y-84701085D01*
X155038952Y-84701500D01*
X155030882Y-84701500D01*
X155027262Y-84701922D01*
X155027244Y-84701923D01*
X155002636Y-84704792D01*
X154998275Y-84705224D01*
X154973156Y-84707267D01*
X154932836Y-84710546D01*
X154932833Y-84710547D01*
X154925538Y-84711140D01*
X154918574Y-84713396D01*
X154912615Y-84714587D01*
X154906760Y-84715971D01*
X154899494Y-84716818D01*
X154830848Y-84741735D01*
X154826720Y-84743152D01*
X154764239Y-84763393D01*
X154764237Y-84763394D01*
X154757276Y-84765649D01*
X154751021Y-84769445D01*
X154745547Y-84771951D01*
X154740117Y-84774670D01*
X154733238Y-84777167D01*
X154672191Y-84817191D01*
X154668502Y-84819518D01*
X154648310Y-84831771D01*
X154610868Y-84854491D01*
X154610863Y-84854495D01*
X154606067Y-84857405D01*
X154597691Y-84864803D01*
X154597668Y-84864777D01*
X154594678Y-84867426D01*
X154591439Y-84870134D01*
X154585323Y-84874144D01*
X154580296Y-84879451D01*
X154580292Y-84879454D01*
X154532047Y-84930383D01*
X154529669Y-84932825D01*
X153271265Y-86191229D01*
X153256853Y-86203615D01*
X153245258Y-86212148D01*
X153245253Y-86212153D01*
X153239358Y-86216491D01*
X153234619Y-86222069D01*
X153234616Y-86222072D01*
X153205141Y-86256767D01*
X153198211Y-86264283D01*
X153192516Y-86269978D01*
X153190236Y-86272860D01*
X153174895Y-86292250D01*
X153172104Y-86295654D01*
X153129585Y-86345702D01*
X153124843Y-86351284D01*
X153121515Y-86357800D01*
X153118148Y-86362849D01*
X153114981Y-86367978D01*
X153110442Y-86373715D01*
X153079521Y-86439874D01*
X153077618Y-86443768D01*
X153044407Y-86508807D01*
X153042668Y-86515915D01*
X153040569Y-86521558D01*
X153038652Y-86527321D01*
X153035554Y-86533949D01*
X153034064Y-86541111D01*
X153034064Y-86541112D01*
X153020690Y-86605411D01*
X153019720Y-86609695D01*
X153002368Y-86680609D01*
X153001676Y-86691763D01*
X153001640Y-86691761D01*
X153001401Y-86695754D01*
X153001027Y-86699946D01*
X152999536Y-86707114D01*
X152999734Y-86714431D01*
X153001630Y-86784520D01*
X153001676Y-86787927D01*
X153001676Y-151963106D01*
X153000243Y-151982056D01*
X152996977Y-152003525D01*
X100687906Y-152003525D01*
X101295161Y-151396270D01*
X101309573Y-151383884D01*
X101321168Y-151375351D01*
X101321173Y-151375346D01*
X101327068Y-151371008D01*
X101331807Y-151365430D01*
X101331810Y-151365427D01*
X101361285Y-151330732D01*
X101368215Y-151323216D01*
X101373910Y-151317521D01*
X101386489Y-151301622D01*
X101391531Y-151295249D01*
X101394322Y-151291845D01*
X101436841Y-151241797D01*
X101436842Y-151241795D01*
X101441583Y-151236215D01*
X101444911Y-151229699D01*
X101448278Y-151224650D01*
X101451445Y-151219521D01*
X101455984Y-151213784D01*
X101486905Y-151147625D01*
X101488811Y-151143725D01*
X101522019Y-151078692D01*
X101523758Y-151071584D01*
X101525857Y-151065941D01*
X101527774Y-151060178D01*
X101530872Y-151053550D01*
X101545737Y-150982083D01*
X101546707Y-150977799D01*
X101562723Y-150912345D01*
X101564058Y-150906890D01*
X101564750Y-150895736D01*
X101564786Y-150895738D01*
X101565025Y-150891745D01*
X101565399Y-150887553D01*
X101566890Y-150880385D01*
X101564796Y-150802979D01*
X101564750Y-150799572D01*
X101564750Y-146910820D01*
X101566183Y-146891870D01*
X101568349Y-146877635D01*
X101568349Y-146877631D01*
X101569449Y-146870401D01*
X101565165Y-146817732D01*
X101564750Y-146807517D01*
X101564750Y-146799457D01*
X101561459Y-146771230D01*
X101561028Y-146766871D01*
X101555704Y-146701412D01*
X101555703Y-146701409D01*
X101555110Y-146694114D01*
X101552854Y-146687150D01*
X101551667Y-146681211D01*
X101550280Y-146675340D01*
X101549432Y-146668069D01*
X101546936Y-146661193D01*
X101546934Y-146661184D01*
X101524525Y-146599452D01*
X101523115Y-146595348D01*
X101500602Y-146525851D01*
X101496806Y-146519596D01*
X101494307Y-146514137D01*
X101491579Y-146508689D01*
X101489083Y-146501813D01*
X101449055Y-146440760D01*
X101446731Y-146437077D01*
X101411750Y-146379430D01*
X101411749Y-146379429D01*
X101408845Y-146374643D01*
X101401448Y-146366267D01*
X101401475Y-146366243D01*
X101398820Y-146363249D01*
X101396118Y-146360018D01*
X101392106Y-146353898D01*
X101335867Y-146300622D01*
X101333425Y-146298244D01*
X100692270Y-145657089D01*
X100679884Y-145642677D01*
X100671351Y-145631082D01*
X100671346Y-145631077D01*
X100667008Y-145625182D01*
X100661430Y-145620443D01*
X100661427Y-145620440D01*
X100626732Y-145590965D01*
X100619216Y-145584035D01*
X100613521Y-145578340D01*
X100607380Y-145573482D01*
X100591249Y-145560719D01*
X100587845Y-145557928D01*
X100537797Y-145515409D01*
X100537795Y-145515408D01*
X100532215Y-145510667D01*
X100525699Y-145507339D01*
X100520650Y-145503972D01*
X100515521Y-145500805D01*
X100509784Y-145496266D01*
X100443625Y-145465345D01*
X100439725Y-145463439D01*
X100374692Y-145430231D01*
X100367584Y-145428492D01*
X100361941Y-145426393D01*
X100356178Y-145424476D01*
X100349550Y-145421378D01*
X100278083Y-145406513D01*
X100273799Y-145405543D01*
X100202890Y-145388192D01*
X100197288Y-145387844D01*
X100197285Y-145387844D01*
X100191736Y-145387500D01*
X100191738Y-145387464D01*
X100187745Y-145387225D01*
X100183553Y-145386851D01*
X100176385Y-145385360D01*
X100110175Y-145387151D01*
X100098979Y-145387454D01*
X100095572Y-145387500D01*
X97889911Y-145387500D01*
X97821790Y-145367498D01*
X97804382Y-145354025D01*
X97693559Y-145251581D01*
X97693556Y-145251579D01*
X97689319Y-145247662D01*
X97643145Y-145218529D01*
X97518951Y-145140168D01*
X97518946Y-145140166D01*
X97514067Y-145137087D01*
X97321599Y-145060300D01*
X97118361Y-145019873D01*
X97112587Y-145019797D01*
X97112583Y-145019797D01*
X97007399Y-145018421D01*
X96911158Y-145017161D01*
X96905461Y-145018140D01*
X96905460Y-145018140D01*
X96712628Y-145051274D01*
X96712627Y-145051274D01*
X96706931Y-145052253D01*
X96512519Y-145123976D01*
X96334433Y-145229926D01*
X96178637Y-145366555D01*
X96050348Y-145529289D01*
X96047659Y-145534400D01*
X96047657Y-145534403D01*
X96002391Y-145620440D01*
X95953863Y-145712676D01*
X95892414Y-145910575D01*
X95868058Y-146116359D01*
X95881611Y-146323135D01*
X95932619Y-146523980D01*
X96019373Y-146712165D01*
X96022704Y-146716878D01*
X96022705Y-146716880D01*
X96131204Y-146870401D01*
X96138970Y-146881390D01*
X96287402Y-147025986D01*
X96292198Y-147029191D01*
X96292201Y-147029193D01*
X96361493Y-147075492D01*
X96459699Y-147141111D01*
X96465002Y-147143389D01*
X96465005Y-147143391D01*
X96620324Y-147210121D01*
X96650091Y-147222910D01*
X96852201Y-147268643D01*
X96857972Y-147268870D01*
X96857974Y-147268870D01*
X96927210Y-147271590D01*
X97059262Y-147276778D01*
X97147561Y-147263975D01*
X97258616Y-147247874D01*
X97258621Y-147247873D01*
X97264337Y-147247044D01*
X97269809Y-147245186D01*
X97269811Y-147245186D01*
X97455096Y-147182290D01*
X97455098Y-147182289D01*
X97460560Y-147180435D01*
X97641359Y-147079183D01*
X97800678Y-146946678D01*
X97804374Y-146942234D01*
X97805200Y-146941408D01*
X97867511Y-146907381D01*
X97894299Y-146904500D01*
X99742129Y-146904500D01*
X99810250Y-146924502D01*
X99831224Y-146941405D01*
X100010845Y-147121026D01*
X100044871Y-147183338D01*
X100047750Y-147210121D01*
X100047750Y-150446129D01*
X100027748Y-150514250D01*
X100010845Y-150535224D01*
X98421474Y-152124595D01*
X98359162Y-152158621D01*
X98332379Y-152161500D01*
X95031569Y-152161500D01*
X94963448Y-152141498D01*
X94924136Y-152101335D01*
X94838200Y-151961101D01*
X94835616Y-151956884D01*
X94668631Y-151761369D01*
X94473116Y-151594384D01*
X94253887Y-151460040D01*
X94249317Y-151458147D01*
X94249313Y-151458145D01*
X94020913Y-151363539D01*
X94020911Y-151363538D01*
X94016340Y-151361645D01*
X93929498Y-151340796D01*
X93771139Y-151302777D01*
X93771133Y-151302776D01*
X93766326Y-151301622D01*
X93510000Y-151281449D01*
X93253674Y-151301622D01*
X93248867Y-151302776D01*
X93248861Y-151302777D01*
X93090502Y-151340796D01*
X93003660Y-151361645D01*
X92999089Y-151363538D01*
X92999087Y-151363539D01*
X92770687Y-151458145D01*
X92770683Y-151458147D01*
X92766113Y-151460040D01*
X92546884Y-151594384D01*
X92351369Y-151761369D01*
X92184384Y-151956884D01*
X92050040Y-152176113D01*
X92048147Y-152180683D01*
X92048145Y-152180687D01*
X91981695Y-152341112D01*
X91951645Y-152413660D01*
X91946525Y-152434988D01*
X91913042Y-152574455D01*
X91891622Y-152663674D01*
X91871449Y-152920000D01*
X86483500Y-152920000D01*
X86483500Y-94341350D01*
X86503502Y-94273229D01*
X86557158Y-94226736D01*
X86627432Y-94216632D01*
X86662749Y-94227155D01*
X86751563Y-94268569D01*
X86751568Y-94268571D01*
X86756550Y-94270894D01*
X86761858Y-94272316D01*
X86761860Y-94272317D01*
X86765264Y-94273229D01*
X86969932Y-94328070D01*
X87190000Y-94347323D01*
X87410068Y-94328070D01*
X87614736Y-94273229D01*
X87618140Y-94272317D01*
X87618142Y-94272316D01*
X87623450Y-94270894D01*
X87628436Y-94268569D01*
X87818675Y-94179860D01*
X87818680Y-94179857D01*
X87823662Y-94177534D01*
X87828171Y-94174377D01*
X88000109Y-94053985D01*
X88000112Y-94053983D01*
X88004620Y-94050826D01*
X88160826Y-93894620D01*
X88287534Y-93713661D01*
X88380894Y-93513450D01*
X88438070Y-93300068D01*
X88457323Y-93080000D01*
X93542677Y-93080000D01*
X93561930Y-93300068D01*
X93619106Y-93513450D01*
X93712466Y-93713661D01*
X93839174Y-93894620D01*
X93995380Y-94050826D01*
X93999888Y-94053983D01*
X93999891Y-94053985D01*
X94171829Y-94174377D01*
X94176338Y-94177534D01*
X94181320Y-94179857D01*
X94181325Y-94179860D01*
X94371564Y-94268569D01*
X94376550Y-94270894D01*
X94381858Y-94272316D01*
X94381860Y-94272317D01*
X94385264Y-94273229D01*
X94589932Y-94328070D01*
X94810000Y-94347323D01*
X95030068Y-94328070D01*
X95234736Y-94273229D01*
X95238140Y-94272317D01*
X95238142Y-94272316D01*
X95243450Y-94270894D01*
X95248436Y-94268569D01*
X95438675Y-94179860D01*
X95438680Y-94179857D01*
X95443662Y-94177534D01*
X95448171Y-94174377D01*
X95620109Y-94053985D01*
X95620112Y-94053983D01*
X95624620Y-94050826D01*
X95780826Y-93894620D01*
X95907534Y-93713661D01*
X96000894Y-93513450D01*
X96058070Y-93300068D01*
X96077323Y-93080000D01*
X96058070Y-92859932D01*
X96000894Y-92646550D01*
X95907534Y-92446339D01*
X95780826Y-92265380D01*
X95624620Y-92109174D01*
X95620112Y-92106017D01*
X95620109Y-92106015D01*
X95448171Y-91985623D01*
X95448168Y-91985621D01*
X95443662Y-91982466D01*
X95438680Y-91980143D01*
X95438675Y-91980140D01*
X95248432Y-91891429D01*
X95248431Y-91891429D01*
X95243450Y-91889106D01*
X95238142Y-91887684D01*
X95238140Y-91887683D01*
X95172748Y-91870161D01*
X95030068Y-91831930D01*
X94810000Y-91812677D01*
X94589932Y-91831930D01*
X94447252Y-91870161D01*
X94381860Y-91887683D01*
X94381858Y-91887684D01*
X94376550Y-91889106D01*
X94371569Y-91891428D01*
X94371568Y-91891429D01*
X94181320Y-91980143D01*
X94181317Y-91980145D01*
X94176339Y-91982466D01*
X93995380Y-92109174D01*
X93839174Y-92265380D01*
X93712466Y-92446339D01*
X93619106Y-92646550D01*
X93561930Y-92859932D01*
X93542677Y-93080000D01*
X88457323Y-93080000D01*
X88438070Y-92859932D01*
X88380894Y-92646550D01*
X88287534Y-92446339D01*
X88160826Y-92265380D01*
X88004620Y-92109174D01*
X88000112Y-92106017D01*
X88000109Y-92106015D01*
X87828171Y-91985623D01*
X87828168Y-91985621D01*
X87823662Y-91982466D01*
X87818680Y-91980143D01*
X87818675Y-91980140D01*
X87628432Y-91891429D01*
X87628431Y-91891429D01*
X87623450Y-91889106D01*
X87618142Y-91887684D01*
X87618140Y-91887683D01*
X87552748Y-91870161D01*
X87410068Y-91831930D01*
X87247686Y-91817724D01*
X87181568Y-91791861D01*
X87139929Y-91734357D01*
X87135988Y-91663470D01*
X87169573Y-91603108D01*
X88271628Y-90501053D01*
X88286040Y-90488667D01*
X88297635Y-90480134D01*
X88297640Y-90480129D01*
X88303535Y-90475791D01*
X88308274Y-90470213D01*
X88308277Y-90470210D01*
X88337752Y-90435515D01*
X88344682Y-90427999D01*
X88350377Y-90422304D01*
X88367998Y-90400032D01*
X88370789Y-90396628D01*
X88413308Y-90346580D01*
X88413309Y-90346578D01*
X88418050Y-90340998D01*
X88421378Y-90334482D01*
X88424745Y-90329433D01*
X88427912Y-90324304D01*
X88432451Y-90318567D01*
X88463372Y-90252408D01*
X88465278Y-90248508D01*
X88498486Y-90183475D01*
X88500225Y-90176367D01*
X88502324Y-90170724D01*
X88504241Y-90164961D01*
X88507339Y-90158333D01*
X88522204Y-90086866D01*
X88523174Y-90082582D01*
X88540525Y-90011673D01*
X88541217Y-90000519D01*
X88541253Y-90000521D01*
X88541492Y-89996528D01*
X88541866Y-89992336D01*
X88543357Y-89985168D01*
X88541263Y-89907762D01*
X88541217Y-89904355D01*
X88541217Y-89212585D01*
X88561219Y-89144464D01*
X88614875Y-89097971D01*
X88685149Y-89087867D01*
X88749729Y-89117361D01*
X88777632Y-89151884D01*
X88867040Y-89314516D01*
X88882976Y-89343504D01*
X89068055Y-89598244D01*
X89283602Y-89827778D01*
X89526218Y-90028487D01*
X89792076Y-90197206D01*
X89795655Y-90198890D01*
X89795662Y-90198894D01*
X90073394Y-90329584D01*
X90073398Y-90329586D01*
X90076984Y-90331273D01*
X90376448Y-90428575D01*
X90685746Y-90487577D01*
X90779300Y-90493463D01*
X90919358Y-90502275D01*
X90919374Y-90502276D01*
X90921353Y-90502400D01*
X91078647Y-90502400D01*
X91080626Y-90502276D01*
X91080642Y-90502275D01*
X91220700Y-90493463D01*
X91314254Y-90487577D01*
X91623552Y-90428575D01*
X91923016Y-90331273D01*
X91926602Y-90329586D01*
X91926606Y-90329584D01*
X92204338Y-90198894D01*
X92204345Y-90198890D01*
X92207924Y-90197206D01*
X92473782Y-90028487D01*
X92716398Y-89827778D01*
X92931945Y-89598244D01*
X93117024Y-89343504D01*
X93132961Y-89314516D01*
X93266813Y-89071039D01*
X93266814Y-89071036D01*
X93268716Y-89067577D01*
X93384630Y-88774813D01*
X93462936Y-88469830D01*
X93502400Y-88157438D01*
X93502400Y-87935774D01*
X94638102Y-87935774D01*
X94646751Y-88166158D01*
X94694093Y-88391791D01*
X94696051Y-88396750D01*
X94696052Y-88396752D01*
X94776814Y-88601252D01*
X94778776Y-88606221D01*
X94898377Y-88803317D01*
X94901874Y-88807347D01*
X94988438Y-88907103D01*
X95049477Y-88977445D01*
X95053608Y-88980832D01*
X95223627Y-89120240D01*
X95223633Y-89120244D01*
X95227755Y-89123624D01*
X95232391Y-89126263D01*
X95232394Y-89126265D01*
X95335400Y-89184899D01*
X95428114Y-89237675D01*
X95644825Y-89316337D01*
X95650074Y-89317286D01*
X95650077Y-89317287D01*
X95867608Y-89356623D01*
X95867615Y-89356624D01*
X95871692Y-89357361D01*
X95889414Y-89358197D01*
X95894356Y-89358430D01*
X95894363Y-89358430D01*
X95895844Y-89358500D01*
X96057890Y-89358500D01*
X96124809Y-89352822D01*
X96224409Y-89344371D01*
X96224413Y-89344370D01*
X96229720Y-89343920D01*
X96234875Y-89342582D01*
X96234881Y-89342581D01*
X96447703Y-89287343D01*
X96447707Y-89287342D01*
X96452872Y-89286001D01*
X96457738Y-89283809D01*
X96457741Y-89283808D01*
X96658202Y-89193507D01*
X96663075Y-89191312D01*
X96854319Y-89062559D01*
X97021135Y-88903424D01*
X97158754Y-88718458D01*
X97263240Y-88512949D01*
X97271607Y-88486005D01*
X97330024Y-88297871D01*
X97331607Y-88292773D01*
X97332308Y-88287484D01*
X97361198Y-88069511D01*
X97361198Y-88069506D01*
X97361898Y-88064226D01*
X97353249Y-87833842D01*
X97305907Y-87608209D01*
X97273573Y-87526335D01*
X97223185Y-87398744D01*
X97223184Y-87398742D01*
X97221224Y-87393779D01*
X97101623Y-87196683D01*
X97098126Y-87192653D01*
X96954023Y-87026588D01*
X96954021Y-87026586D01*
X96950523Y-87022555D01*
X96908970Y-86988484D01*
X96776373Y-86879760D01*
X96776367Y-86879756D01*
X96772245Y-86876376D01*
X96767609Y-86873737D01*
X96767606Y-86873735D01*
X96576529Y-86764968D01*
X96571886Y-86762325D01*
X96355175Y-86683663D01*
X96349926Y-86682714D01*
X96349923Y-86682713D01*
X96132392Y-86643377D01*
X96132385Y-86643376D01*
X96128308Y-86642639D01*
X96110586Y-86641803D01*
X96105644Y-86641570D01*
X96105637Y-86641570D01*
X96104156Y-86641500D01*
X95942110Y-86641500D01*
X95875191Y-86647178D01*
X95775591Y-86655629D01*
X95775587Y-86655630D01*
X95770280Y-86656080D01*
X95765125Y-86657418D01*
X95765119Y-86657419D01*
X95552297Y-86712657D01*
X95552293Y-86712658D01*
X95547128Y-86713999D01*
X95542262Y-86716191D01*
X95542259Y-86716192D01*
X95433980Y-86764968D01*
X95336925Y-86808688D01*
X95145681Y-86937441D01*
X94978865Y-87096576D01*
X94841246Y-87281542D01*
X94736760Y-87487051D01*
X94735178Y-87492145D01*
X94735177Y-87492148D01*
X94673115Y-87692020D01*
X94668393Y-87707227D01*
X94667692Y-87712516D01*
X94652304Y-87828623D01*
X94638102Y-87935774D01*
X93502400Y-87935774D01*
X93502400Y-87842562D01*
X93462936Y-87530170D01*
X93384630Y-87225187D01*
X93268716Y-86932423D01*
X93262906Y-86921855D01*
X93118933Y-86659968D01*
X93118931Y-86659965D01*
X93117024Y-86656496D01*
X93004351Y-86501415D01*
X92934273Y-86404960D01*
X92934272Y-86404958D01*
X92931945Y-86401756D01*
X92716398Y-86172222D01*
X92473782Y-85971513D01*
X92207924Y-85802794D01*
X92204345Y-85801110D01*
X92204338Y-85801106D01*
X91926606Y-85670416D01*
X91926602Y-85670414D01*
X91923016Y-85668727D01*
X91623552Y-85571425D01*
X91314254Y-85512423D01*
X91220700Y-85506537D01*
X91080642Y-85497725D01*
X91080626Y-85497724D01*
X91078647Y-85497600D01*
X90921353Y-85497600D01*
X90919374Y-85497724D01*
X90919358Y-85497725D01*
X90779300Y-85506537D01*
X90685746Y-85512423D01*
X90376448Y-85571425D01*
X90076984Y-85668727D01*
X90073398Y-85670414D01*
X90073394Y-85670416D01*
X89795662Y-85801106D01*
X89795655Y-85801110D01*
X89792076Y-85802794D01*
X89526218Y-85971513D01*
X89283602Y-86172222D01*
X89068055Y-86401756D01*
X89065728Y-86404958D01*
X89065727Y-86404960D01*
X88995649Y-86501415D01*
X88882976Y-86656496D01*
X88881069Y-86659965D01*
X88881067Y-86659968D01*
X88777632Y-86848116D01*
X88727286Y-86898175D01*
X88657869Y-86913068D01*
X88591420Y-86888067D01*
X88549036Y-86831110D01*
X88541217Y-86787415D01*
X88541217Y-86416875D01*
X88559785Y-86351040D01*
X88647369Y-86208117D01*
X88647375Y-86208106D01*
X88649960Y-86203887D01*
X88661881Y-86175109D01*
X88746461Y-85970913D01*
X88746462Y-85970911D01*
X88748355Y-85966340D01*
X88808378Y-85716326D01*
X88828551Y-85460000D01*
X88808378Y-85203674D01*
X88748355Y-84953660D01*
X88739217Y-84931598D01*
X88651855Y-84720687D01*
X88651853Y-84720683D01*
X88649960Y-84716113D01*
X88515616Y-84496884D01*
X88348631Y-84301369D01*
X88153116Y-84134384D01*
X87933887Y-84000040D01*
X87929317Y-83998147D01*
X87929313Y-83998145D01*
X87700913Y-83903539D01*
X87700911Y-83903538D01*
X87696340Y-83901645D01*
X87601596Y-83878899D01*
X87451139Y-83842777D01*
X87451133Y-83842776D01*
X87446326Y-83841622D01*
X87190000Y-83821449D01*
X86933674Y-83841622D01*
X86928867Y-83842776D01*
X86928861Y-83842777D01*
X86778404Y-83878899D01*
X86683660Y-83901645D01*
X86679089Y-83903538D01*
X86679087Y-83903539D01*
X86450687Y-83998145D01*
X86450683Y-83998147D01*
X86446113Y-84000040D01*
X86226884Y-84134384D01*
X86031369Y-84301369D01*
X85864384Y-84496884D01*
X85730040Y-84716113D01*
X85728147Y-84720683D01*
X85728145Y-84720687D01*
X85640783Y-84931598D01*
X85631645Y-84953660D01*
X85571622Y-85203674D01*
X85551449Y-85460000D01*
X85571622Y-85716326D01*
X85631645Y-85966340D01*
X85633538Y-85970911D01*
X85633539Y-85970913D01*
X85718120Y-86175109D01*
X85730040Y-86203887D01*
X85864384Y-86423116D01*
X85884156Y-86446266D01*
X85913186Y-86511051D01*
X85902582Y-86581251D01*
X85855708Y-86634574D01*
X85798998Y-86653643D01*
X85775591Y-86655629D01*
X85775587Y-86655630D01*
X85770280Y-86656080D01*
X85765125Y-86657418D01*
X85765119Y-86657419D01*
X85552297Y-86712657D01*
X85552293Y-86712658D01*
X85547128Y-86713999D01*
X85542262Y-86716191D01*
X85542259Y-86716192D01*
X85433980Y-86764968D01*
X85336925Y-86808688D01*
X85145681Y-86937441D01*
X84978865Y-87096576D01*
X84841246Y-87281542D01*
X84736760Y-87487051D01*
X84735178Y-87492145D01*
X84735177Y-87492148D01*
X84673115Y-87692020D01*
X84668393Y-87707227D01*
X84667692Y-87712516D01*
X84652304Y-87828623D01*
X84638102Y-87935774D01*
X84646751Y-88166158D01*
X84694093Y-88391791D01*
X84696051Y-88396750D01*
X84696052Y-88396752D01*
X84776814Y-88601252D01*
X84778776Y-88606221D01*
X84898377Y-88803317D01*
X84901874Y-88807347D01*
X84988438Y-88907103D01*
X85049477Y-88977445D01*
X85053608Y-88980832D01*
X85223627Y-89120240D01*
X85223633Y-89120244D01*
X85227755Y-89123624D01*
X85232391Y-89126263D01*
X85232394Y-89126265D01*
X85335400Y-89184899D01*
X85428114Y-89237675D01*
X85644825Y-89316337D01*
X85650074Y-89317286D01*
X85650077Y-89317287D01*
X85867608Y-89356623D01*
X85867615Y-89356624D01*
X85871692Y-89357361D01*
X85889414Y-89358197D01*
X85894356Y-89358430D01*
X85894363Y-89358430D01*
X85895844Y-89358500D01*
X86057890Y-89358500D01*
X86124809Y-89352822D01*
X86224409Y-89344371D01*
X86224413Y-89344370D01*
X86229720Y-89343920D01*
X86234875Y-89342582D01*
X86234881Y-89342581D01*
X86447703Y-89287343D01*
X86447707Y-89287342D01*
X86452872Y-89286001D01*
X86457738Y-89283809D01*
X86457741Y-89283808D01*
X86658202Y-89193507D01*
X86663075Y-89191312D01*
X86827850Y-89080379D01*
X86895528Y-89058928D01*
X86964060Y-89077472D01*
X87011688Y-89130123D01*
X87024217Y-89184899D01*
X87024217Y-89550912D01*
X87004215Y-89619033D01*
X86987312Y-89640007D01*
X85236089Y-91391230D01*
X85221677Y-91403616D01*
X85210082Y-91412149D01*
X85210077Y-91412154D01*
X85204182Y-91416492D01*
X85199443Y-91422070D01*
X85199440Y-91422073D01*
X85169965Y-91456768D01*
X85163035Y-91464284D01*
X85157340Y-91469979D01*
X85155060Y-91472861D01*
X85139719Y-91492251D01*
X85136928Y-91495655D01*
X85094409Y-91545703D01*
X85089667Y-91551285D01*
X85086339Y-91557801D01*
X85082972Y-91562850D01*
X85079805Y-91567979D01*
X85075266Y-91573716D01*
X85044345Y-91639875D01*
X85042442Y-91643769D01*
X85009231Y-91708808D01*
X85007492Y-91715916D01*
X85005393Y-91721559D01*
X85003476Y-91727322D01*
X85000378Y-91733950D01*
X84998888Y-91741112D01*
X84998888Y-91741113D01*
X84985514Y-91805412D01*
X84984544Y-91809696D01*
X84967192Y-91880610D01*
X84966500Y-91891764D01*
X84966464Y-91891762D01*
X84966225Y-91895755D01*
X84965851Y-91899947D01*
X84964360Y-91907115D01*
X84964558Y-91914432D01*
X84966454Y-91984521D01*
X84966500Y-91987928D01*
X84966500Y-153927930D01*
X84965067Y-153946880D01*
X84961801Y-153968349D01*
X84962394Y-153975641D01*
X84962394Y-153975644D01*
X84966085Y-154021018D01*
X84966500Y-154031233D01*
X84966500Y-154039293D01*
X84966925Y-154042937D01*
X84969789Y-154067507D01*
X84970222Y-154071882D01*
X84975096Y-154131800D01*
X84976140Y-154144637D01*
X84978396Y-154151601D01*
X84979587Y-154157560D01*
X84980971Y-154163415D01*
X84981818Y-154170681D01*
X85006735Y-154239327D01*
X85008152Y-154243455D01*
X85026914Y-154301369D01*
X85030649Y-154312899D01*
X85034445Y-154319154D01*
X85036951Y-154324628D01*
X85039670Y-154330058D01*
X85042167Y-154336937D01*
X85046180Y-154343057D01*
X85046180Y-154343058D01*
X85082186Y-154397976D01*
X85084523Y-154401680D01*
X85122405Y-154464107D01*
X85126121Y-154468315D01*
X85126122Y-154468316D01*
X85129803Y-154472484D01*
X85129776Y-154472508D01*
X85132429Y-154475500D01*
X85135132Y-154478733D01*
X85139144Y-154484852D01*
X85144456Y-154489884D01*
X85195383Y-154538128D01*
X85197825Y-154540506D01*
X85577748Y-154920429D01*
X85611774Y-154982741D01*
X85611172Y-155038936D01*
X85571622Y-155203674D01*
X85551449Y-155460000D01*
X85571622Y-155716326D01*
X85631645Y-155966340D01*
X85633538Y-155970911D01*
X85633539Y-155970913D01*
X85718120Y-156175109D01*
X85730040Y-156203887D01*
X85864384Y-156423116D01*
X85884156Y-156446266D01*
X85913186Y-156511051D01*
X85902582Y-156581251D01*
X85855708Y-156634574D01*
X85798998Y-156653643D01*
X85775591Y-156655629D01*
X85775587Y-156655630D01*
X85770280Y-156656080D01*
X85765125Y-156657418D01*
X85765119Y-156657419D01*
X85552297Y-156712657D01*
X85552293Y-156712658D01*
X85547128Y-156713999D01*
X85542262Y-156716191D01*
X85542259Y-156716192D01*
X85433980Y-156764968D01*
X85336925Y-156808688D01*
X85145681Y-156937441D01*
X84978865Y-157096576D01*
X84841246Y-157281542D01*
X84736760Y-157487051D01*
X84735178Y-157492145D01*
X84735177Y-157492148D01*
X84673115Y-157692020D01*
X84668393Y-157707227D01*
X84667692Y-157712516D01*
X84652304Y-157828623D01*
X84638102Y-157935774D01*
X76508500Y-157935774D01*
X76508500Y-123000000D01*
X79486835Y-123000000D01*
X79505465Y-123236711D01*
X79506619Y-123241518D01*
X79506620Y-123241524D01*
X79536601Y-123366401D01*
X79560895Y-123467594D01*
X79651760Y-123686963D01*
X79654346Y-123691183D01*
X79773241Y-123885202D01*
X79773245Y-123885208D01*
X79775824Y-123889416D01*
X79930031Y-124069969D01*
X80110584Y-124224176D01*
X80114792Y-124226755D01*
X80114798Y-124226759D01*
X80308817Y-124345654D01*
X80313037Y-124348240D01*
X80317607Y-124350133D01*
X80317611Y-124350135D01*
X80527833Y-124437211D01*
X80532406Y-124439105D01*
X80612609Y-124458360D01*
X80758476Y-124493380D01*
X80758482Y-124493381D01*
X80763289Y-124494535D01*
X81000000Y-124513165D01*
X81236711Y-124494535D01*
X81241518Y-124493381D01*
X81241524Y-124493380D01*
X81387391Y-124458360D01*
X81467594Y-124439105D01*
X81472167Y-124437211D01*
X81682389Y-124350135D01*
X81682393Y-124350133D01*
X81686963Y-124348240D01*
X81691183Y-124345654D01*
X81885202Y-124226759D01*
X81885208Y-124226755D01*
X81889416Y-124224176D01*
X82069969Y-124069969D01*
X82224176Y-123889416D01*
X82226755Y-123885208D01*
X82226759Y-123885202D01*
X82345654Y-123691183D01*
X82348240Y-123686963D01*
X82439105Y-123467594D01*
X82463399Y-123366401D01*
X82493380Y-123241524D01*
X82493381Y-123241518D01*
X82494535Y-123236711D01*
X82513165Y-123000000D01*
X82494535Y-122763289D01*
X82486581Y-122730155D01*
X82440260Y-122537218D01*
X82439105Y-122532406D01*
X82348240Y-122313037D01*
X82345654Y-122308817D01*
X82226759Y-122114798D01*
X82226755Y-122114792D01*
X82224176Y-122110584D01*
X82069969Y-121930031D01*
X81889416Y-121775824D01*
X81885208Y-121773245D01*
X81885202Y-121773241D01*
X81691183Y-121654346D01*
X81686963Y-121651760D01*
X81682393Y-121649867D01*
X81682389Y-121649865D01*
X81472167Y-121562789D01*
X81472165Y-121562788D01*
X81467594Y-121560895D01*
X81387391Y-121541640D01*
X81241524Y-121506620D01*
X81241518Y-121506619D01*
X81236711Y-121505465D01*
X81000000Y-121486835D01*
X80763289Y-121505465D01*
X80758482Y-121506619D01*
X80758476Y-121506620D01*
X80612609Y-121541640D01*
X80532406Y-121560895D01*
X80527835Y-121562788D01*
X80527833Y-121562789D01*
X80317611Y-121649865D01*
X80317607Y-121649867D01*
X80313037Y-121651760D01*
X80308817Y-121654346D01*
X80114798Y-121773241D01*
X80114792Y-121773245D01*
X80110584Y-121775824D01*
X79930031Y-121930031D01*
X79775824Y-122110584D01*
X79773245Y-122114792D01*
X79773241Y-122114798D01*
X79654346Y-122308817D01*
X79651760Y-122313037D01*
X79560895Y-122532406D01*
X79559740Y-122537218D01*
X79513420Y-122730155D01*
X79505465Y-122763289D01*
X79487308Y-122993995D01*
X79486835Y-123000000D01*
X76508500Y-123000000D01*
X76508500Y-55984494D01*
X80447170Y-55984494D01*
X80447467Y-55989646D01*
X80447467Y-55989650D01*
X80453502Y-56094313D01*
X80460879Y-56222255D01*
X80462016Y-56227301D01*
X80462017Y-56227307D01*
X80495111Y-56374156D01*
X80513237Y-56454585D01*
X80515179Y-56459367D01*
X80515180Y-56459371D01*
X80600893Y-56670457D01*
X80602837Y-56675244D01*
X80690979Y-56819078D01*
X80722676Y-56870802D01*
X80727274Y-56878306D01*
X80883204Y-57058317D01*
X81036022Y-57185189D01*
X81062464Y-57207141D01*
X81066442Y-57210444D01*
X81070894Y-57213046D01*
X81070899Y-57213049D01*
X81265237Y-57326611D01*
X81272065Y-57330601D01*
X81494552Y-57415560D01*
X81499618Y-57416591D01*
X81499619Y-57416591D01*
X81553956Y-57427646D01*
X81727928Y-57463041D01*
X81862121Y-57467962D01*
X81960760Y-57471579D01*
X81960764Y-57471579D01*
X81965924Y-57471768D01*
X81971044Y-57471112D01*
X81971046Y-57471112D01*
X82197023Y-57442164D01*
X82197024Y-57442164D01*
X82202151Y-57441507D01*
X82286803Y-57416110D01*
X82425316Y-57374554D01*
X82425317Y-57374553D01*
X82430262Y-57373070D01*
X82644133Y-57268295D01*
X82648336Y-57265297D01*
X82648341Y-57265294D01*
X82833816Y-57132996D01*
X82833818Y-57132994D01*
X82838020Y-57129997D01*
X83006716Y-56961889D01*
X83064979Y-56880807D01*
X83120972Y-56837160D01*
X83191676Y-56830714D01*
X83254640Y-56863516D01*
X83266582Y-56877176D01*
X83267274Y-56878306D01*
X83423204Y-57058317D01*
X83576022Y-57185189D01*
X83602464Y-57207141D01*
X83606442Y-57210444D01*
X83610894Y-57213046D01*
X83610899Y-57213049D01*
X83805237Y-57326611D01*
X83812065Y-57330601D01*
X84034552Y-57415560D01*
X84039618Y-57416591D01*
X84039619Y-57416591D01*
X84093956Y-57427646D01*
X84267928Y-57463041D01*
X84402121Y-57467962D01*
X84500760Y-57471579D01*
X84500764Y-57471579D01*
X84505924Y-57471768D01*
X84511044Y-57471112D01*
X84511046Y-57471112D01*
X84737023Y-57442164D01*
X84737024Y-57442164D01*
X84742151Y-57441507D01*
X84826803Y-57416110D01*
X84965316Y-57374554D01*
X84965317Y-57374553D01*
X84970262Y-57373070D01*
X85184133Y-57268295D01*
X85188336Y-57265297D01*
X85188341Y-57265294D01*
X85265155Y-57210503D01*
X86154326Y-57210503D01*
X86159607Y-57217558D01*
X86347821Y-57327541D01*
X86357108Y-57331991D01*
X86569861Y-57413233D01*
X86579763Y-57416110D01*
X86802911Y-57461510D01*
X86813163Y-57462733D01*
X87040738Y-57471077D01*
X87051024Y-57470610D01*
X87276915Y-57441673D01*
X87287001Y-57439530D01*
X87505128Y-57374088D01*
X87514723Y-57370328D01*
X87719237Y-57270137D01*
X87728083Y-57264863D01*
X87793631Y-57218108D01*
X87799602Y-57210503D01*
X88694326Y-57210503D01*
X88699607Y-57217558D01*
X88887821Y-57327541D01*
X88897108Y-57331991D01*
X89109861Y-57413233D01*
X89119763Y-57416110D01*
X89342911Y-57461510D01*
X89353163Y-57462733D01*
X89580738Y-57471077D01*
X89591024Y-57470610D01*
X89816915Y-57441673D01*
X89827001Y-57439530D01*
X90045128Y-57374088D01*
X90054723Y-57370328D01*
X90259237Y-57270137D01*
X90268083Y-57264863D01*
X90333631Y-57218108D01*
X90342032Y-57207408D01*
X90335045Y-57194256D01*
X89532811Y-56392021D01*
X89518868Y-56384408D01*
X89517034Y-56384539D01*
X89510420Y-56388790D01*
X88701083Y-57198128D01*
X88694326Y-57210503D01*
X87799602Y-57210503D01*
X87802032Y-57207408D01*
X87795045Y-57194256D01*
X86992811Y-56392021D01*
X86978868Y-56384408D01*
X86977034Y-56384539D01*
X86970420Y-56388790D01*
X86161083Y-57198128D01*
X86154326Y-57210503D01*
X85265155Y-57210503D01*
X85373816Y-57132996D01*
X85373818Y-57132994D01*
X85378020Y-57129997D01*
X85546716Y-56961889D01*
X85549732Y-56957692D01*
X85549739Y-56957684D01*
X85612170Y-56870802D01*
X85668164Y-56827154D01*
X85738868Y-56820708D01*
X85785626Y-56844169D01*
X85789976Y-56844890D01*
X85800387Y-56840402D01*
X86607979Y-56032811D01*
X86614356Y-56021132D01*
X87344408Y-56021132D01*
X87344539Y-56022966D01*
X87348790Y-56029580D01*
X88154826Y-56835615D01*
X88166832Y-56842171D01*
X88171671Y-56838474D01*
X88237946Y-56813015D01*
X88307464Y-56827428D01*
X88331418Y-56844268D01*
X88340387Y-56840402D01*
X89147979Y-56032811D01*
X89154356Y-56021132D01*
X89884408Y-56021132D01*
X89884539Y-56022966D01*
X89888790Y-56029580D01*
X90694826Y-56835615D01*
X90708096Y-56842861D01*
X90770005Y-56819078D01*
X90839523Y-56833490D01*
X90881899Y-56870245D01*
X90884574Y-56873899D01*
X90887274Y-56878306D01*
X91043204Y-57058317D01*
X91196022Y-57185189D01*
X91222464Y-57207141D01*
X91226442Y-57210444D01*
X91230894Y-57213046D01*
X91230899Y-57213049D01*
X91425237Y-57326611D01*
X91432065Y-57330601D01*
X91654552Y-57415560D01*
X91659618Y-57416591D01*
X91659619Y-57416591D01*
X91713956Y-57427646D01*
X91887928Y-57463041D01*
X92022121Y-57467962D01*
X92120760Y-57471579D01*
X92120764Y-57471579D01*
X92125924Y-57471768D01*
X92131044Y-57471112D01*
X92131046Y-57471112D01*
X92357023Y-57442164D01*
X92357024Y-57442164D01*
X92362151Y-57441507D01*
X92446803Y-57416110D01*
X92585316Y-57374554D01*
X92585317Y-57374553D01*
X92590262Y-57373070D01*
X92804133Y-57268295D01*
X92808336Y-57265297D01*
X92808341Y-57265294D01*
X92993816Y-57132996D01*
X92993818Y-57132994D01*
X92998020Y-57129997D01*
X93166716Y-56961889D01*
X93224979Y-56880807D01*
X93280972Y-56837160D01*
X93351676Y-56830714D01*
X93414640Y-56863516D01*
X93426582Y-56877176D01*
X93427274Y-56878306D01*
X93583204Y-57058317D01*
X93736022Y-57185189D01*
X93762464Y-57207141D01*
X93766442Y-57210444D01*
X93770894Y-57213046D01*
X93770899Y-57213049D01*
X93965237Y-57326611D01*
X93972065Y-57330601D01*
X94194552Y-57415560D01*
X94199618Y-57416591D01*
X94199619Y-57416591D01*
X94253956Y-57427646D01*
X94427928Y-57463041D01*
X94562121Y-57467962D01*
X94660760Y-57471579D01*
X94660764Y-57471579D01*
X94665924Y-57471768D01*
X94671044Y-57471112D01*
X94671046Y-57471112D01*
X94897023Y-57442164D01*
X94897024Y-57442164D01*
X94902151Y-57441507D01*
X94986803Y-57416110D01*
X95125316Y-57374554D01*
X95125317Y-57374553D01*
X95130262Y-57373070D01*
X95344133Y-57268295D01*
X95348336Y-57265297D01*
X95348341Y-57265294D01*
X95533816Y-57132996D01*
X95533818Y-57132994D01*
X95538020Y-57129997D01*
X95706716Y-56961889D01*
X95764979Y-56880807D01*
X95820972Y-56837160D01*
X95891676Y-56830714D01*
X95954640Y-56863516D01*
X95966582Y-56877176D01*
X95967274Y-56878306D01*
X96123204Y-57058317D01*
X96306442Y-57210444D01*
X96319073Y-57217825D01*
X96367795Y-57269463D01*
X96381500Y-57326611D01*
X96381500Y-71132638D01*
X96380067Y-71151588D01*
X96376801Y-71173057D01*
X96377394Y-71180349D01*
X96377394Y-71180352D01*
X96381085Y-71225726D01*
X96381500Y-71235941D01*
X96381500Y-71244001D01*
X96381925Y-71247645D01*
X96384789Y-71272215D01*
X96385222Y-71276590D01*
X96391140Y-71349345D01*
X96393396Y-71356309D01*
X96394587Y-71362268D01*
X96395971Y-71368123D01*
X96396818Y-71375389D01*
X96421735Y-71444035D01*
X96423152Y-71448163D01*
X96445649Y-71517607D01*
X96449445Y-71523862D01*
X96451951Y-71529336D01*
X96454670Y-71534766D01*
X96457167Y-71541645D01*
X96461180Y-71547765D01*
X96461180Y-71547766D01*
X96497186Y-71602684D01*
X96499523Y-71606388D01*
X96537405Y-71668815D01*
X96541121Y-71673023D01*
X96541122Y-71673024D01*
X96544803Y-71677192D01*
X96544776Y-71677216D01*
X96547429Y-71680208D01*
X96550132Y-71683441D01*
X96554144Y-71689560D01*
X96559456Y-71694592D01*
X96610383Y-71742836D01*
X96612825Y-71745214D01*
X100884741Y-76017130D01*
X100918767Y-76079442D01*
X100921646Y-76106225D01*
X100921646Y-82935088D01*
X100901644Y-83003209D01*
X100847988Y-83049702D01*
X100777714Y-83059806D01*
X100713134Y-83030312D01*
X100684195Y-82993065D01*
X100682833Y-82989313D01*
X100642809Y-82928266D01*
X100640472Y-82924562D01*
X100605509Y-82866943D01*
X100605505Y-82866938D01*
X100602595Y-82862142D01*
X100595197Y-82853766D01*
X100595223Y-82853743D01*
X100592574Y-82850753D01*
X100589866Y-82847514D01*
X100585856Y-82841398D01*
X100580549Y-82836371D01*
X100580546Y-82836367D01*
X100529617Y-82788122D01*
X100527175Y-82785744D01*
X100172520Y-82431089D01*
X100160134Y-82416677D01*
X100151601Y-82405082D01*
X100151596Y-82405077D01*
X100147258Y-82399182D01*
X100141680Y-82394443D01*
X100141677Y-82394440D01*
X100106982Y-82364965D01*
X100099466Y-82358035D01*
X100093771Y-82352340D01*
X100087630Y-82347482D01*
X100071499Y-82334719D01*
X100068095Y-82331928D01*
X100018047Y-82289409D01*
X100018045Y-82289408D01*
X100012465Y-82284667D01*
X100005949Y-82281339D01*
X100000900Y-82277972D01*
X99995771Y-82274805D01*
X99990034Y-82270266D01*
X99923875Y-82239345D01*
X99919975Y-82237439D01*
X99854942Y-82204231D01*
X99847834Y-82202492D01*
X99842191Y-82200393D01*
X99836428Y-82198476D01*
X99829800Y-82195378D01*
X99758333Y-82180513D01*
X99754049Y-82179543D01*
X99683140Y-82162192D01*
X99677538Y-82161844D01*
X99677535Y-82161844D01*
X99671986Y-82161500D01*
X99671988Y-82161464D01*
X99667995Y-82161225D01*
X99663803Y-82160851D01*
X99656635Y-82159360D01*
X99590425Y-82161151D01*
X99579229Y-82161454D01*
X99575822Y-82161500D01*
X95031569Y-82161500D01*
X94963448Y-82141498D01*
X94924136Y-82101335D01*
X94838200Y-81961101D01*
X94835616Y-81956884D01*
X94668631Y-81761369D01*
X94473116Y-81594384D01*
X94253887Y-81460040D01*
X94249317Y-81458147D01*
X94249313Y-81458145D01*
X94020913Y-81363539D01*
X94020911Y-81363538D01*
X94016340Y-81361645D01*
X93929498Y-81340796D01*
X93771139Y-81302777D01*
X93771133Y-81302776D01*
X93766326Y-81301622D01*
X93510000Y-81281449D01*
X93253674Y-81301622D01*
X93248867Y-81302776D01*
X93248861Y-81302777D01*
X93090502Y-81340796D01*
X93003660Y-81361645D01*
X92999089Y-81363538D01*
X92999087Y-81363539D01*
X92770687Y-81458145D01*
X92770683Y-81458147D01*
X92766113Y-81460040D01*
X92546884Y-81594384D01*
X92351369Y-81761369D01*
X92184384Y-81956884D01*
X92050040Y-82176113D01*
X92048147Y-82180683D01*
X92048145Y-82180687D01*
X91971815Y-82364965D01*
X91951645Y-82413660D01*
X91891622Y-82663674D01*
X91871449Y-82920000D01*
X91891622Y-83176326D01*
X91951645Y-83426340D01*
X91953538Y-83430911D01*
X91953539Y-83430913D01*
X92046955Y-83656438D01*
X92050040Y-83663887D01*
X92184384Y-83883116D01*
X92351369Y-84078631D01*
X92546884Y-84245616D01*
X92766113Y-84379960D01*
X92770683Y-84381853D01*
X92770687Y-84381855D01*
X92850166Y-84414776D01*
X93003660Y-84478355D01*
X93065157Y-84493119D01*
X93248861Y-84537223D01*
X93248867Y-84537224D01*
X93253674Y-84538378D01*
X93510000Y-84558551D01*
X93766326Y-84538378D01*
X93771133Y-84537224D01*
X93771139Y-84537223D01*
X93954843Y-84493119D01*
X94016340Y-84478355D01*
X94169834Y-84414776D01*
X94249313Y-84381855D01*
X94249317Y-84381853D01*
X94253887Y-84379960D01*
X94473116Y-84245616D01*
X94668631Y-84078631D01*
X94835616Y-83883116D01*
X94924136Y-83738665D01*
X94976784Y-83691034D01*
X95031569Y-83678500D01*
X99115500Y-83678500D01*
X99183621Y-83698502D01*
X99230114Y-83752158D01*
X99241500Y-83804500D01*
X99241500Y-97277379D01*
X99221498Y-97345500D01*
X99204595Y-97366474D01*
X98512474Y-98058595D01*
X98450162Y-98092621D01*
X98423379Y-98095500D01*
X97889911Y-98095500D01*
X97821790Y-98075498D01*
X97804382Y-98062025D01*
X97693559Y-97959581D01*
X97693556Y-97959579D01*
X97689319Y-97955662D01*
X97643145Y-97926529D01*
X97518951Y-97848168D01*
X97518946Y-97848166D01*
X97514067Y-97845087D01*
X97321599Y-97768300D01*
X97118361Y-97727873D01*
X97112587Y-97727797D01*
X97112583Y-97727797D01*
X97007399Y-97726421D01*
X96911158Y-97725161D01*
X96905461Y-97726140D01*
X96905460Y-97726140D01*
X96712628Y-97759274D01*
X96712627Y-97759274D01*
X96706931Y-97760253D01*
X96512519Y-97831976D01*
X96507558Y-97834928D01*
X96507557Y-97834928D01*
X96351699Y-97927654D01*
X96334433Y-97937926D01*
X96178637Y-98074555D01*
X96050348Y-98237289D01*
X95953863Y-98420676D01*
X95892414Y-98618575D01*
X95868058Y-98824359D01*
X95881611Y-99031135D01*
X95932619Y-99231980D01*
X96019373Y-99420165D01*
X96022704Y-99424878D01*
X96022705Y-99424880D01*
X96126345Y-99571526D01*
X96138970Y-99589390D01*
X96287402Y-99733986D01*
X96292198Y-99737191D01*
X96292201Y-99737193D01*
X96361493Y-99783492D01*
X96459699Y-99849111D01*
X96465002Y-99851389D01*
X96465005Y-99851391D01*
X96644784Y-99928630D01*
X96650091Y-99930910D01*
X96852201Y-99976643D01*
X96857972Y-99976870D01*
X96857974Y-99976870D01*
X96927210Y-99979590D01*
X97059262Y-99984778D01*
X97147561Y-99971975D01*
X97258616Y-99955874D01*
X97258621Y-99955873D01*
X97264337Y-99955044D01*
X97269809Y-99953186D01*
X97269811Y-99953186D01*
X97455096Y-99890290D01*
X97455098Y-99890289D01*
X97460560Y-99888435D01*
X97641359Y-99787183D01*
X97800678Y-99654678D01*
X97804374Y-99650234D01*
X97805200Y-99649408D01*
X97867511Y-99615381D01*
X97894299Y-99612500D01*
X98722680Y-99612500D01*
X98741630Y-99613933D01*
X98755865Y-99616099D01*
X98755869Y-99616099D01*
X98763099Y-99617199D01*
X98770391Y-99616606D01*
X98770394Y-99616606D01*
X98815768Y-99612915D01*
X98825983Y-99612500D01*
X98834043Y-99612500D01*
X98847333Y-99610951D01*
X98862257Y-99609211D01*
X98866632Y-99608778D01*
X98932089Y-99603454D01*
X98932092Y-99603453D01*
X98939387Y-99602860D01*
X98946351Y-99600604D01*
X98952310Y-99599413D01*
X98958165Y-99598029D01*
X98965431Y-99597182D01*
X99034077Y-99572265D01*
X99038205Y-99570848D01*
X99100686Y-99550607D01*
X99100688Y-99550606D01*
X99107649Y-99548351D01*
X99113904Y-99544555D01*
X99119378Y-99542049D01*
X99124808Y-99539330D01*
X99131687Y-99536833D01*
X99192726Y-99496814D01*
X99196430Y-99494477D01*
X99258857Y-99456595D01*
X99267234Y-99449197D01*
X99267258Y-99449224D01*
X99270250Y-99446571D01*
X99273483Y-99443868D01*
X99279602Y-99439856D01*
X99332878Y-99383617D01*
X99335256Y-99381175D01*
X100488911Y-98227520D01*
X100503323Y-98215134D01*
X100514918Y-98206601D01*
X100514923Y-98206596D01*
X100520818Y-98202258D01*
X100525557Y-98196680D01*
X100525560Y-98196677D01*
X100555035Y-98161982D01*
X100561965Y-98154466D01*
X100567660Y-98148771D01*
X100585281Y-98126499D01*
X100588072Y-98123095D01*
X100630591Y-98073047D01*
X100630592Y-98073045D01*
X100635333Y-98067465D01*
X100638661Y-98060949D01*
X100642028Y-98055900D01*
X100645195Y-98050771D01*
X100649734Y-98045034D01*
X100680655Y-97978875D01*
X100682559Y-97974979D01*
X100683427Y-97973279D01*
X100732219Y-97921704D01*
X100801148Y-97904696D01*
X100868331Y-97927654D01*
X100912436Y-97983289D01*
X100921646Y-98030576D01*
X100921646Y-102099483D01*
X100901644Y-102167604D01*
X100884741Y-102188578D01*
X97091724Y-105981595D01*
X97029412Y-106015621D01*
X97002629Y-106018500D01*
X96332866Y-106018500D01*
X96270684Y-106025255D01*
X96134295Y-106076385D01*
X96017739Y-106163739D01*
X95930385Y-106280295D01*
X95879255Y-106416684D01*
X95872500Y-106478866D01*
X95872500Y-107813134D01*
X95879255Y-107875316D01*
X95930385Y-108011705D01*
X96017739Y-108128261D01*
X96134295Y-108215615D01*
X96270684Y-108266745D01*
X96332866Y-108273500D01*
X97667134Y-108273500D01*
X97729316Y-108266745D01*
X97865705Y-108215615D01*
X97982261Y-108128261D01*
X98069615Y-108011705D01*
X98120745Y-107875316D01*
X98127500Y-107813134D01*
X98127500Y-107143371D01*
X98147502Y-107075250D01*
X98164405Y-107054276D01*
X102169057Y-103049624D01*
X102183469Y-103037238D01*
X102195064Y-103028705D01*
X102195069Y-103028700D01*
X102200964Y-103024362D01*
X102205703Y-103018784D01*
X102205706Y-103018781D01*
X102235181Y-102984086D01*
X102242111Y-102976570D01*
X102247806Y-102970875D01*
X102265427Y-102948603D01*
X102268218Y-102945199D01*
X102310737Y-102895151D01*
X102310738Y-102895149D01*
X102315479Y-102889569D01*
X102318807Y-102883053D01*
X102322174Y-102878004D01*
X102325341Y-102872875D01*
X102329880Y-102867138D01*
X102360801Y-102800979D01*
X102362707Y-102797079D01*
X102395915Y-102732046D01*
X102397654Y-102724938D01*
X102399753Y-102719295D01*
X102401670Y-102713532D01*
X102404768Y-102706904D01*
X102419633Y-102635437D01*
X102420603Y-102631153D01*
X102436619Y-102565699D01*
X102437954Y-102560244D01*
X102438646Y-102549090D01*
X102438682Y-102549092D01*
X102438921Y-102545099D01*
X102439295Y-102540907D01*
X102440786Y-102533739D01*
X102438692Y-102456333D01*
X102438646Y-102452926D01*
X102438646Y-75806924D01*
X102440079Y-75787974D01*
X102442245Y-75773739D01*
X102442245Y-75773735D01*
X102443345Y-75766505D01*
X102439061Y-75713836D01*
X102438646Y-75703621D01*
X102438646Y-75695561D01*
X102435357Y-75667347D01*
X102434924Y-75662972D01*
X102429600Y-75597515D01*
X102429599Y-75597512D01*
X102429006Y-75590217D01*
X102426750Y-75583253D01*
X102425559Y-75577294D01*
X102424175Y-75571439D01*
X102423328Y-75564173D01*
X102398411Y-75495527D01*
X102396994Y-75491399D01*
X102376753Y-75428918D01*
X102376752Y-75428916D01*
X102374497Y-75421955D01*
X102370701Y-75415700D01*
X102368195Y-75410226D01*
X102365476Y-75404796D01*
X102362979Y-75397917D01*
X102322960Y-75336878D01*
X102320613Y-75333159D01*
X102282741Y-75270747D01*
X102275343Y-75262370D01*
X102275370Y-75262346D01*
X102272717Y-75259354D01*
X102270014Y-75256121D01*
X102266002Y-75250002D01*
X102209763Y-75196726D01*
X102207321Y-75194348D01*
X97935405Y-70922432D01*
X97901379Y-70860120D01*
X97898500Y-70833337D01*
X97898500Y-57322941D01*
X97918502Y-57254820D01*
X97951331Y-57220363D01*
X98078020Y-57129997D01*
X98246716Y-56961889D01*
X98304979Y-56880807D01*
X98360972Y-56837160D01*
X98431676Y-56830714D01*
X98494640Y-56863516D01*
X98506582Y-56877176D01*
X98507274Y-56878306D01*
X98663204Y-57058317D01*
X98816022Y-57185189D01*
X98842464Y-57207141D01*
X98846442Y-57210444D01*
X98850894Y-57213046D01*
X98850899Y-57213049D01*
X99045237Y-57326611D01*
X99052065Y-57330601D01*
X99274552Y-57415560D01*
X99279618Y-57416591D01*
X99279619Y-57416591D01*
X99333956Y-57427646D01*
X99507928Y-57463041D01*
X99642121Y-57467962D01*
X99740760Y-57471579D01*
X99740764Y-57471579D01*
X99745924Y-57471768D01*
X99751044Y-57471112D01*
X99751046Y-57471112D01*
X99874853Y-57455252D01*
X99962166Y-57444067D01*
X100032275Y-57455252D01*
X100067270Y-57479951D01*
X102804595Y-60217276D01*
X102838621Y-60279588D01*
X102841500Y-60306371D01*
X102841500Y-130887629D01*
X102821498Y-130955750D01*
X102804595Y-130976724D01*
X97091724Y-136689595D01*
X97029412Y-136723621D01*
X97002629Y-136726500D01*
X96332866Y-136726500D01*
X96270684Y-136733255D01*
X96134295Y-136784385D01*
X96017739Y-136871739D01*
X95930385Y-136988295D01*
X95879255Y-137124684D01*
X95872500Y-137186866D01*
X95872500Y-138521134D01*
X95879255Y-138583316D01*
X95930385Y-138719705D01*
X96017739Y-138836261D01*
X96134295Y-138923615D01*
X96270684Y-138974745D01*
X96332866Y-138981500D01*
X97667134Y-138981500D01*
X97729316Y-138974745D01*
X97865705Y-138923615D01*
X97982261Y-138836261D01*
X98069615Y-138719705D01*
X98120745Y-138583316D01*
X98127500Y-138521134D01*
X98127500Y-137851371D01*
X98147502Y-137783250D01*
X98164405Y-137762276D01*
X104088911Y-131837770D01*
X104103323Y-131825384D01*
X104114918Y-131816851D01*
X104114923Y-131816846D01*
X104120818Y-131812508D01*
X104125557Y-131806930D01*
X104125560Y-131806927D01*
X104155035Y-131772232D01*
X104161965Y-131764716D01*
X104167661Y-131759020D01*
X104169924Y-131756159D01*
X104169929Y-131756154D01*
X104185293Y-131736734D01*
X104188082Y-131733333D01*
X104230592Y-131683296D01*
X104230594Y-131683294D01*
X104235333Y-131677715D01*
X104238662Y-131671195D01*
X104242028Y-131666148D01*
X104245193Y-131661024D01*
X104249735Y-131655283D01*
X104280637Y-131589164D01*
X104282565Y-131585218D01*
X104312442Y-131526708D01*
X104312443Y-131526706D01*
X104315769Y-131520192D01*
X104317508Y-131513086D01*
X104319609Y-131507436D01*
X104321524Y-131501679D01*
X104324622Y-131495050D01*
X104339491Y-131423565D01*
X104340461Y-131419282D01*
X104356473Y-131353844D01*
X104357808Y-131348390D01*
X104358500Y-131337236D01*
X104358535Y-131337238D01*
X104358775Y-131333266D01*
X104359152Y-131329045D01*
X104360641Y-131321885D01*
X104358546Y-131244458D01*
X104358500Y-131241050D01*
X104358500Y-82920000D01*
X161871449Y-82920000D01*
X161891622Y-83176326D01*
X161951645Y-83426340D01*
X161953538Y-83430911D01*
X161953539Y-83430913D01*
X162046955Y-83656438D01*
X162050040Y-83663887D01*
X162184384Y-83883116D01*
X162351369Y-84078631D01*
X162546884Y-84245616D01*
X162766113Y-84379960D01*
X162770683Y-84381853D01*
X162770687Y-84381855D01*
X162850166Y-84414776D01*
X163003660Y-84478355D01*
X163065157Y-84493119D01*
X163248861Y-84537223D01*
X163248867Y-84537224D01*
X163253674Y-84538378D01*
X163510000Y-84558551D01*
X163766326Y-84538378D01*
X163771133Y-84537224D01*
X163771139Y-84537223D01*
X163954843Y-84493119D01*
X164016340Y-84478355D01*
X164169834Y-84414776D01*
X164249313Y-84381855D01*
X164249317Y-84381853D01*
X164253887Y-84379960D01*
X164473116Y-84245616D01*
X164668631Y-84078631D01*
X164835616Y-83883116D01*
X164924136Y-83738665D01*
X164976784Y-83691034D01*
X165031569Y-83678500D01*
X169866129Y-83678500D01*
X169934250Y-83698502D01*
X169955224Y-83715405D01*
X170654595Y-84414776D01*
X170688621Y-84477088D01*
X170691500Y-84503871D01*
X170691500Y-96471129D01*
X170671498Y-96539250D01*
X170654595Y-96560224D01*
X169156224Y-98058595D01*
X169093912Y-98092621D01*
X169067129Y-98095500D01*
X167889911Y-98095500D01*
X167821790Y-98075498D01*
X167804382Y-98062025D01*
X167693559Y-97959581D01*
X167693556Y-97959579D01*
X167689319Y-97955662D01*
X167643145Y-97926529D01*
X167518951Y-97848168D01*
X167518946Y-97848166D01*
X167514067Y-97845087D01*
X167321599Y-97768300D01*
X167118361Y-97727873D01*
X167112587Y-97727797D01*
X167112583Y-97727797D01*
X167007399Y-97726421D01*
X166911158Y-97725161D01*
X166905461Y-97726140D01*
X166905460Y-97726140D01*
X166712628Y-97759274D01*
X166712627Y-97759274D01*
X166706931Y-97760253D01*
X166512519Y-97831976D01*
X166507558Y-97834928D01*
X166507557Y-97834928D01*
X166351699Y-97927654D01*
X166334433Y-97937926D01*
X166178637Y-98074555D01*
X166050348Y-98237289D01*
X165953863Y-98420676D01*
X165892414Y-98618575D01*
X165868058Y-98824359D01*
X165881611Y-99031135D01*
X165932619Y-99231980D01*
X166019373Y-99420165D01*
X166022704Y-99424878D01*
X166022705Y-99424880D01*
X166126345Y-99571526D01*
X166138970Y-99589390D01*
X166287402Y-99733986D01*
X166292198Y-99737191D01*
X166292201Y-99737193D01*
X166361493Y-99783492D01*
X166459699Y-99849111D01*
X166465002Y-99851389D01*
X166465005Y-99851391D01*
X166644784Y-99928630D01*
X166650091Y-99930910D01*
X166852201Y-99976643D01*
X166857972Y-99976870D01*
X166857974Y-99976870D01*
X166927210Y-99979590D01*
X167059262Y-99984778D01*
X167147561Y-99971975D01*
X167258616Y-99955874D01*
X167258621Y-99955873D01*
X167264337Y-99955044D01*
X167269809Y-99953186D01*
X167269811Y-99953186D01*
X167455096Y-99890290D01*
X167455098Y-99890289D01*
X167460560Y-99888435D01*
X167641359Y-99787183D01*
X167800678Y-99654678D01*
X167804374Y-99650234D01*
X167805200Y-99649408D01*
X167867511Y-99615381D01*
X167894299Y-99612500D01*
X169366430Y-99612500D01*
X169385380Y-99613933D01*
X169399615Y-99616099D01*
X169399619Y-99616099D01*
X169406849Y-99617199D01*
X169414141Y-99616606D01*
X169414144Y-99616606D01*
X169459518Y-99612915D01*
X169469733Y-99612500D01*
X169477793Y-99612500D01*
X169491083Y-99610951D01*
X169506007Y-99609211D01*
X169510382Y-99608778D01*
X169575839Y-99603454D01*
X169575842Y-99603453D01*
X169583137Y-99602860D01*
X169590101Y-99600604D01*
X169596060Y-99599413D01*
X169601915Y-99598029D01*
X169609181Y-99597182D01*
X169677827Y-99572265D01*
X169681955Y-99570848D01*
X169744436Y-99550607D01*
X169744438Y-99550606D01*
X169751399Y-99548351D01*
X169757654Y-99544555D01*
X169763128Y-99542049D01*
X169768558Y-99539330D01*
X169775437Y-99536833D01*
X169836476Y-99496814D01*
X169840180Y-99494477D01*
X169902607Y-99456595D01*
X169910984Y-99449197D01*
X169911008Y-99449224D01*
X169914000Y-99446571D01*
X169917233Y-99443868D01*
X169923352Y-99439856D01*
X169976628Y-99383617D01*
X169979006Y-99381175D01*
X171938911Y-97421270D01*
X171953323Y-97408884D01*
X171964918Y-97400351D01*
X171964923Y-97400346D01*
X171970818Y-97396008D01*
X171975557Y-97390430D01*
X171975560Y-97390427D01*
X172005035Y-97355732D01*
X172011965Y-97348216D01*
X172017661Y-97342520D01*
X172019924Y-97339659D01*
X172019929Y-97339654D01*
X172035285Y-97320244D01*
X172038074Y-97316842D01*
X172080596Y-97266791D01*
X172080597Y-97266790D01*
X172085333Y-97261215D01*
X172088661Y-97254698D01*
X172092027Y-97249650D01*
X172095190Y-97244528D01*
X172099735Y-97238784D01*
X172130664Y-97172605D01*
X172132563Y-97168721D01*
X172165769Y-97103692D01*
X172167510Y-97096577D01*
X172169613Y-97090922D01*
X172171522Y-97085183D01*
X172174622Y-97078550D01*
X172189491Y-97007065D01*
X172190461Y-97002782D01*
X172206473Y-96937344D01*
X172207808Y-96931890D01*
X172208500Y-96920736D01*
X172208535Y-96920738D01*
X172208775Y-96916766D01*
X172209152Y-96912545D01*
X172210641Y-96905385D01*
X172208546Y-96827958D01*
X172208500Y-96824550D01*
X172208500Y-84204570D01*
X172209933Y-84185620D01*
X172212099Y-84171385D01*
X172212099Y-84171381D01*
X172213199Y-84164151D01*
X172211040Y-84137600D01*
X172208915Y-84111482D01*
X172208500Y-84101267D01*
X172208500Y-84093207D01*
X172205211Y-84064993D01*
X172204778Y-84060618D01*
X172199454Y-83995161D01*
X172199453Y-83995158D01*
X172198860Y-83987863D01*
X172196604Y-83980899D01*
X172195413Y-83974940D01*
X172194029Y-83969085D01*
X172193182Y-83961819D01*
X172168265Y-83893173D01*
X172166848Y-83889045D01*
X172146607Y-83826564D01*
X172146606Y-83826562D01*
X172144351Y-83819601D01*
X172140555Y-83813346D01*
X172138049Y-83807872D01*
X172135330Y-83802442D01*
X172132833Y-83795563D01*
X172092814Y-83734524D01*
X172090467Y-83730805D01*
X172081122Y-83715405D01*
X172052595Y-83668393D01*
X172045197Y-83660016D01*
X172045224Y-83659992D01*
X172042571Y-83657000D01*
X172039868Y-83653767D01*
X172035856Y-83647648D01*
X171979617Y-83594372D01*
X171977175Y-83591994D01*
X170816270Y-82431089D01*
X170803884Y-82416677D01*
X170795351Y-82405082D01*
X170795346Y-82405077D01*
X170791008Y-82399182D01*
X170785430Y-82394443D01*
X170785427Y-82394440D01*
X170750732Y-82364965D01*
X170743216Y-82358035D01*
X170737521Y-82352340D01*
X170731380Y-82347482D01*
X170715249Y-82334719D01*
X170711845Y-82331928D01*
X170661797Y-82289409D01*
X170661795Y-82289408D01*
X170656215Y-82284667D01*
X170649699Y-82281339D01*
X170644650Y-82277972D01*
X170639521Y-82274805D01*
X170633784Y-82270266D01*
X170567625Y-82239345D01*
X170563725Y-82237439D01*
X170498692Y-82204231D01*
X170491584Y-82202492D01*
X170485941Y-82200393D01*
X170480178Y-82198476D01*
X170473550Y-82195378D01*
X170402083Y-82180513D01*
X170397799Y-82179543D01*
X170326890Y-82162192D01*
X170321288Y-82161844D01*
X170321285Y-82161844D01*
X170315736Y-82161500D01*
X170315738Y-82161464D01*
X170311745Y-82161225D01*
X170307553Y-82160851D01*
X170300385Y-82159360D01*
X170234175Y-82161151D01*
X170222979Y-82161454D01*
X170219572Y-82161500D01*
X165031569Y-82161500D01*
X164963448Y-82141498D01*
X164924136Y-82101335D01*
X164838200Y-81961101D01*
X164835616Y-81956884D01*
X164668631Y-81761369D01*
X164473116Y-81594384D01*
X164253887Y-81460040D01*
X164249317Y-81458147D01*
X164249313Y-81458145D01*
X164020913Y-81363539D01*
X164020911Y-81363538D01*
X164016340Y-81361645D01*
X163929498Y-81340796D01*
X163771139Y-81302777D01*
X163771133Y-81302776D01*
X163766326Y-81301622D01*
X163510000Y-81281449D01*
X163253674Y-81301622D01*
X163248867Y-81302776D01*
X163248861Y-81302777D01*
X163090502Y-81340796D01*
X163003660Y-81361645D01*
X162999089Y-81363538D01*
X162999087Y-81363539D01*
X162770687Y-81458145D01*
X162770683Y-81458147D01*
X162766113Y-81460040D01*
X162546884Y-81594384D01*
X162351369Y-81761369D01*
X162184384Y-81956884D01*
X162050040Y-82176113D01*
X162048147Y-82180683D01*
X162048145Y-82180687D01*
X161971815Y-82364965D01*
X161951645Y-82413660D01*
X161891622Y-82663674D01*
X161871449Y-82920000D01*
X104358500Y-82920000D01*
X104358500Y-60007069D01*
X104359933Y-59988118D01*
X104362099Y-59973883D01*
X104362099Y-59973881D01*
X104363199Y-59966651D01*
X104358915Y-59913982D01*
X104358500Y-59903767D01*
X104358500Y-59895707D01*
X104355211Y-59867493D01*
X104354778Y-59863118D01*
X104349454Y-59797661D01*
X104349453Y-59797658D01*
X104348860Y-59790363D01*
X104346604Y-59783399D01*
X104345413Y-59777440D01*
X104344029Y-59771585D01*
X104343182Y-59764319D01*
X104318265Y-59695673D01*
X104316848Y-59691545D01*
X104296607Y-59629064D01*
X104296606Y-59629062D01*
X104294351Y-59622101D01*
X104290555Y-59615846D01*
X104288049Y-59610372D01*
X104285330Y-59604942D01*
X104282833Y-59598063D01*
X104242814Y-59537024D01*
X104240467Y-59533305D01*
X104202595Y-59470893D01*
X104195197Y-59462516D01*
X104195224Y-59462492D01*
X104192571Y-59459500D01*
X104189868Y-59456267D01*
X104185856Y-59450148D01*
X104129617Y-59396872D01*
X104127175Y-59394494D01*
X102395167Y-57662486D01*
X102361141Y-57600174D01*
X102366206Y-57529359D01*
X102408753Y-57472523D01*
X102468251Y-57448412D01*
X102517024Y-57442164D01*
X102517027Y-57442163D01*
X102522151Y-57441507D01*
X102606803Y-57416110D01*
X102745316Y-57374554D01*
X102745317Y-57374553D01*
X102750262Y-57373070D01*
X102964133Y-57268295D01*
X102968336Y-57265297D01*
X102968341Y-57265294D01*
X103153816Y-57132996D01*
X103153818Y-57132994D01*
X103158020Y-57129997D01*
X103326716Y-56961889D01*
X103384979Y-56880807D01*
X103440972Y-56837160D01*
X103511676Y-56830714D01*
X103574640Y-56863516D01*
X103586582Y-56877176D01*
X103587274Y-56878306D01*
X103743204Y-57058317D01*
X103896022Y-57185189D01*
X103922464Y-57207141D01*
X103926442Y-57210444D01*
X103930894Y-57213046D01*
X103930899Y-57213049D01*
X104125237Y-57326611D01*
X104132065Y-57330601D01*
X104354552Y-57415560D01*
X104359618Y-57416591D01*
X104359619Y-57416591D01*
X104413956Y-57427646D01*
X104587928Y-57463041D01*
X104722121Y-57467962D01*
X104820760Y-57471579D01*
X104820764Y-57471579D01*
X104825924Y-57471768D01*
X104831044Y-57471112D01*
X104831046Y-57471112D01*
X105057023Y-57442164D01*
X105057024Y-57442164D01*
X105062151Y-57441507D01*
X105146803Y-57416110D01*
X105285316Y-57374554D01*
X105285317Y-57374553D01*
X105290262Y-57373070D01*
X105504133Y-57268295D01*
X105508336Y-57265297D01*
X105508341Y-57265294D01*
X105693816Y-57132996D01*
X105693818Y-57132994D01*
X105698020Y-57129997D01*
X105866716Y-56961889D01*
X105924979Y-56880807D01*
X105980972Y-56837160D01*
X106051676Y-56830714D01*
X106114640Y-56863516D01*
X106126582Y-56877176D01*
X106127274Y-56878306D01*
X106283204Y-57058317D01*
X106436022Y-57185189D01*
X106462464Y-57207141D01*
X106466442Y-57210444D01*
X106470894Y-57213046D01*
X106470899Y-57213049D01*
X106665237Y-57326611D01*
X106672065Y-57330601D01*
X106894552Y-57415560D01*
X106899618Y-57416591D01*
X106899619Y-57416591D01*
X106953956Y-57427646D01*
X107127928Y-57463041D01*
X107262121Y-57467962D01*
X107360760Y-57471579D01*
X107360764Y-57471579D01*
X107365924Y-57471768D01*
X107371044Y-57471112D01*
X107371046Y-57471112D01*
X107597023Y-57442164D01*
X107597024Y-57442164D01*
X107602151Y-57441507D01*
X107686803Y-57416110D01*
X107825316Y-57374554D01*
X107825317Y-57374553D01*
X107830262Y-57373070D01*
X108044133Y-57268295D01*
X108048336Y-57265297D01*
X108048341Y-57265294D01*
X108233816Y-57132996D01*
X108233818Y-57132994D01*
X108238020Y-57129997D01*
X108406716Y-56961889D01*
X108464979Y-56880807D01*
X108520972Y-56837160D01*
X108591676Y-56830714D01*
X108654640Y-56863516D01*
X108666582Y-56877176D01*
X108667274Y-56878306D01*
X108823204Y-57058317D01*
X108976022Y-57185189D01*
X109002464Y-57207141D01*
X109006442Y-57210444D01*
X109010894Y-57213046D01*
X109010899Y-57213049D01*
X109205237Y-57326611D01*
X109212065Y-57330601D01*
X109434552Y-57415560D01*
X109439618Y-57416591D01*
X109439619Y-57416591D01*
X109493956Y-57427646D01*
X109667928Y-57463041D01*
X109802121Y-57467962D01*
X109900760Y-57471579D01*
X109900764Y-57471579D01*
X109905924Y-57471768D01*
X109911044Y-57471112D01*
X109911046Y-57471112D01*
X110137023Y-57442164D01*
X110137024Y-57442164D01*
X110142151Y-57441507D01*
X110226803Y-57416110D01*
X110365316Y-57374554D01*
X110365317Y-57374553D01*
X110370262Y-57373070D01*
X110584133Y-57268295D01*
X110588336Y-57265297D01*
X110588341Y-57265294D01*
X110773816Y-57132996D01*
X110773818Y-57132994D01*
X110778020Y-57129997D01*
X110946716Y-56961889D01*
X111085690Y-56768486D01*
X111131774Y-56675244D01*
X111188917Y-56559624D01*
X111188918Y-56559622D01*
X111191211Y-56554982D01*
X111260443Y-56327111D01*
X111291529Y-56090992D01*
X111293264Y-56020000D01*
X111273750Y-55782644D01*
X111215731Y-55551663D01*
X111120767Y-55333259D01*
X111103694Y-55306867D01*
X111037424Y-55204431D01*
X110991406Y-55133298D01*
X110831124Y-54957150D01*
X110827073Y-54953951D01*
X110827069Y-54953947D01*
X110648278Y-54812747D01*
X110648273Y-54812744D01*
X110644224Y-54809546D01*
X110639708Y-54807053D01*
X110639705Y-54807051D01*
X110440250Y-54696946D01*
X110440246Y-54696944D01*
X110435726Y-54694449D01*
X110430857Y-54692725D01*
X110430853Y-54692723D01*
X110216105Y-54616676D01*
X110216101Y-54616675D01*
X110211230Y-54614950D01*
X110206140Y-54614043D01*
X110206135Y-54614042D01*
X110078814Y-54591364D01*
X109976764Y-54573186D01*
X109887637Y-54572097D01*
X109743795Y-54570339D01*
X109743793Y-54570339D01*
X109738625Y-54570276D01*
X109503209Y-54606300D01*
X109276838Y-54680289D01*
X109065590Y-54790258D01*
X109061457Y-54793361D01*
X109061454Y-54793363D01*
X108879275Y-54930147D01*
X108875140Y-54933252D01*
X108710602Y-55105431D01*
X108688629Y-55137642D01*
X108675186Y-55157349D01*
X108620274Y-55202351D01*
X108549749Y-55210522D01*
X108486002Y-55179267D01*
X108465306Y-55154784D01*
X108454217Y-55137642D01*
X108454212Y-55137636D01*
X108451406Y-55133298D01*
X108291124Y-54957150D01*
X108287073Y-54953951D01*
X108287069Y-54953947D01*
X108108278Y-54812747D01*
X108108273Y-54812744D01*
X108104224Y-54809546D01*
X108099708Y-54807053D01*
X108099705Y-54807051D01*
X107900250Y-54696946D01*
X107900246Y-54696944D01*
X107895726Y-54694449D01*
X107890857Y-54692725D01*
X107890853Y-54692723D01*
X107676105Y-54616676D01*
X107676101Y-54616675D01*
X107671230Y-54614950D01*
X107666140Y-54614043D01*
X107666135Y-54614042D01*
X107538814Y-54591364D01*
X107436764Y-54573186D01*
X107347637Y-54572097D01*
X107203795Y-54570339D01*
X107203793Y-54570339D01*
X107198625Y-54570276D01*
X106963209Y-54606300D01*
X106736838Y-54680289D01*
X106525590Y-54790258D01*
X106521457Y-54793361D01*
X106521454Y-54793363D01*
X106339275Y-54930147D01*
X106335140Y-54933252D01*
X106170602Y-55105431D01*
X106148629Y-55137642D01*
X106135186Y-55157349D01*
X106080274Y-55202351D01*
X106009749Y-55210522D01*
X105946002Y-55179267D01*
X105925306Y-55154784D01*
X105914217Y-55137642D01*
X105914212Y-55137636D01*
X105911406Y-55133298D01*
X105751124Y-54957150D01*
X105747073Y-54953951D01*
X105747069Y-54953947D01*
X105568278Y-54812747D01*
X105568273Y-54812744D01*
X105564224Y-54809546D01*
X105559708Y-54807053D01*
X105559705Y-54807051D01*
X105360250Y-54696946D01*
X105360246Y-54696944D01*
X105355726Y-54694449D01*
X105350857Y-54692725D01*
X105350853Y-54692723D01*
X105136105Y-54616676D01*
X105136101Y-54616675D01*
X105131230Y-54614950D01*
X105126140Y-54614043D01*
X105126135Y-54614042D01*
X104998814Y-54591364D01*
X104896764Y-54573186D01*
X104807637Y-54572097D01*
X104663795Y-54570339D01*
X104663793Y-54570339D01*
X104658625Y-54570276D01*
X104423209Y-54606300D01*
X104196838Y-54680289D01*
X103985590Y-54790258D01*
X103981457Y-54793361D01*
X103981454Y-54793363D01*
X103799275Y-54930147D01*
X103795140Y-54933252D01*
X103630602Y-55105431D01*
X103608629Y-55137642D01*
X103595186Y-55157349D01*
X103540274Y-55202351D01*
X103469749Y-55210522D01*
X103406002Y-55179267D01*
X103385306Y-55154784D01*
X103374217Y-55137642D01*
X103374212Y-55137636D01*
X103371406Y-55133298D01*
X103211124Y-54957150D01*
X103207073Y-54953951D01*
X103207069Y-54953947D01*
X103028278Y-54812747D01*
X103028273Y-54812744D01*
X103024224Y-54809546D01*
X103019708Y-54807053D01*
X103019705Y-54807051D01*
X102820250Y-54696946D01*
X102820246Y-54696944D01*
X102815726Y-54694449D01*
X102810857Y-54692725D01*
X102810853Y-54692723D01*
X102596105Y-54616676D01*
X102596101Y-54616675D01*
X102591230Y-54614950D01*
X102586140Y-54614043D01*
X102586135Y-54614042D01*
X102458814Y-54591364D01*
X102356764Y-54573186D01*
X102267637Y-54572097D01*
X102123795Y-54570339D01*
X102123793Y-54570339D01*
X102118625Y-54570276D01*
X101883209Y-54606300D01*
X101656838Y-54680289D01*
X101445590Y-54790258D01*
X101441457Y-54793361D01*
X101441454Y-54793363D01*
X101259275Y-54930147D01*
X101255140Y-54933252D01*
X101090602Y-55105431D01*
X101068629Y-55137642D01*
X101055186Y-55157349D01*
X101000274Y-55202351D01*
X100929749Y-55210522D01*
X100866002Y-55179267D01*
X100845306Y-55154784D01*
X100834217Y-55137642D01*
X100834212Y-55137636D01*
X100831406Y-55133298D01*
X100671124Y-54957150D01*
X100667073Y-54953951D01*
X100667069Y-54953947D01*
X100488278Y-54812747D01*
X100488273Y-54812744D01*
X100484224Y-54809546D01*
X100479708Y-54807053D01*
X100479705Y-54807051D01*
X100280250Y-54696946D01*
X100280246Y-54696944D01*
X100275726Y-54694449D01*
X100270857Y-54692725D01*
X100270853Y-54692723D01*
X100056105Y-54616676D01*
X100056101Y-54616675D01*
X100051230Y-54614950D01*
X100046140Y-54614043D01*
X100046135Y-54614042D01*
X99918814Y-54591364D01*
X99816764Y-54573186D01*
X99727637Y-54572097D01*
X99583795Y-54570339D01*
X99583793Y-54570339D01*
X99578625Y-54570276D01*
X99343209Y-54606300D01*
X99116838Y-54680289D01*
X98905590Y-54790258D01*
X98901457Y-54793361D01*
X98901454Y-54793363D01*
X98719275Y-54930147D01*
X98715140Y-54933252D01*
X98550602Y-55105431D01*
X98528629Y-55137642D01*
X98515186Y-55157349D01*
X98460274Y-55202351D01*
X98389749Y-55210522D01*
X98326002Y-55179267D01*
X98305306Y-55154784D01*
X98294217Y-55137642D01*
X98294212Y-55137636D01*
X98291406Y-55133298D01*
X98131124Y-54957150D01*
X98127073Y-54953951D01*
X98127069Y-54953947D01*
X97948278Y-54812747D01*
X97948273Y-54812744D01*
X97944224Y-54809546D01*
X97939708Y-54807053D01*
X97939705Y-54807051D01*
X97740250Y-54696946D01*
X97740246Y-54696944D01*
X97735726Y-54694449D01*
X97730857Y-54692725D01*
X97730853Y-54692723D01*
X97516105Y-54616676D01*
X97516101Y-54616675D01*
X97511230Y-54614950D01*
X97506140Y-54614043D01*
X97506135Y-54614042D01*
X97378814Y-54591364D01*
X97276764Y-54573186D01*
X97187637Y-54572097D01*
X97043795Y-54570339D01*
X97043793Y-54570339D01*
X97038625Y-54570276D01*
X96803209Y-54606300D01*
X96576838Y-54680289D01*
X96365590Y-54790258D01*
X96361457Y-54793361D01*
X96361454Y-54793363D01*
X96179275Y-54930147D01*
X96175140Y-54933252D01*
X96010602Y-55105431D01*
X95988629Y-55137642D01*
X95975186Y-55157349D01*
X95920274Y-55202351D01*
X95849749Y-55210522D01*
X95786002Y-55179267D01*
X95765306Y-55154784D01*
X95754217Y-55137642D01*
X95754212Y-55137636D01*
X95751406Y-55133298D01*
X95591124Y-54957150D01*
X95587073Y-54953951D01*
X95587069Y-54953947D01*
X95408278Y-54812747D01*
X95408273Y-54812744D01*
X95404224Y-54809546D01*
X95399708Y-54807053D01*
X95399705Y-54807051D01*
X95200250Y-54696946D01*
X95200246Y-54696944D01*
X95195726Y-54694449D01*
X95190857Y-54692725D01*
X95190853Y-54692723D01*
X94976105Y-54616676D01*
X94976101Y-54616675D01*
X94971230Y-54614950D01*
X94966140Y-54614043D01*
X94966135Y-54614042D01*
X94838814Y-54591364D01*
X94736764Y-54573186D01*
X94647637Y-54572097D01*
X94503795Y-54570339D01*
X94503793Y-54570339D01*
X94498625Y-54570276D01*
X94263209Y-54606300D01*
X94036838Y-54680289D01*
X93825590Y-54790258D01*
X93821457Y-54793361D01*
X93821454Y-54793363D01*
X93639275Y-54930147D01*
X93635140Y-54933252D01*
X93470602Y-55105431D01*
X93448629Y-55137642D01*
X93435186Y-55157349D01*
X93380274Y-55202351D01*
X93309749Y-55210522D01*
X93246002Y-55179267D01*
X93225306Y-55154784D01*
X93214217Y-55137642D01*
X93214212Y-55137636D01*
X93211406Y-55133298D01*
X93051124Y-54957150D01*
X93047073Y-54953951D01*
X93047069Y-54953947D01*
X92868278Y-54812747D01*
X92868273Y-54812744D01*
X92864224Y-54809546D01*
X92859708Y-54807053D01*
X92859705Y-54807051D01*
X92660250Y-54696946D01*
X92660246Y-54696944D01*
X92655726Y-54694449D01*
X92650857Y-54692725D01*
X92650853Y-54692723D01*
X92436105Y-54616676D01*
X92436101Y-54616675D01*
X92431230Y-54614950D01*
X92426140Y-54614043D01*
X92426135Y-54614042D01*
X92298814Y-54591364D01*
X92196764Y-54573186D01*
X92107637Y-54572097D01*
X91963795Y-54570339D01*
X91963793Y-54570339D01*
X91958625Y-54570276D01*
X91723209Y-54606300D01*
X91496838Y-54680289D01*
X91285590Y-54790258D01*
X91281457Y-54793361D01*
X91281454Y-54793363D01*
X91099275Y-54930147D01*
X91095140Y-54933252D01*
X90930602Y-55105431D01*
X90888064Y-55167790D01*
X90833155Y-55212790D01*
X90762631Y-55220961D01*
X90710940Y-55196588D01*
X90708940Y-55196307D01*
X90697755Y-55201456D01*
X89892021Y-56007189D01*
X89884408Y-56021132D01*
X89154356Y-56021132D01*
X89155592Y-56018868D01*
X89155461Y-56017034D01*
X89151210Y-56010420D01*
X88345220Y-55204431D01*
X88333688Y-55198134D01*
X88328721Y-55202026D01*
X88262762Y-55228293D01*
X88193073Y-55214730D01*
X88168788Y-55198315D01*
X88167321Y-55197052D01*
X88157756Y-55201455D01*
X87352021Y-56007189D01*
X87344408Y-56021132D01*
X86614356Y-56021132D01*
X86615592Y-56018868D01*
X86615461Y-56017034D01*
X86611210Y-56010420D01*
X85805220Y-55204431D01*
X85792803Y-55197651D01*
X85729899Y-55222699D01*
X85660210Y-55209135D01*
X85612360Y-55165688D01*
X85594216Y-55137642D01*
X85591406Y-55133298D01*
X85431124Y-54957150D01*
X85427073Y-54953951D01*
X85427069Y-54953947D01*
X85273018Y-54832285D01*
X86157081Y-54832285D01*
X86163825Y-54844614D01*
X86967189Y-55647979D01*
X86981132Y-55655592D01*
X86982966Y-55655461D01*
X86989580Y-55651210D01*
X87797331Y-54843458D01*
X87803432Y-54832285D01*
X88697081Y-54832285D01*
X88703825Y-54844614D01*
X89507189Y-55647979D01*
X89521132Y-55655592D01*
X89522966Y-55655461D01*
X89529580Y-55651210D01*
X90337331Y-54843458D01*
X90344348Y-54830607D01*
X90336574Y-54819937D01*
X90328004Y-54813169D01*
X90319417Y-54807464D01*
X90120055Y-54697410D01*
X90110643Y-54693180D01*
X89895971Y-54617160D01*
X89886014Y-54614530D01*
X89661805Y-54574591D01*
X89651554Y-54573622D01*
X89423830Y-54570840D01*
X89413546Y-54571560D01*
X89188437Y-54606006D01*
X89178410Y-54608395D01*
X88961951Y-54679144D01*
X88952442Y-54683141D01*
X88750451Y-54788292D01*
X88741716Y-54793793D01*
X88705535Y-54820958D01*
X88697081Y-54832285D01*
X87803432Y-54832285D01*
X87804348Y-54830607D01*
X87796574Y-54819937D01*
X87788004Y-54813169D01*
X87779417Y-54807464D01*
X87580055Y-54697410D01*
X87570643Y-54693180D01*
X87355971Y-54617160D01*
X87346014Y-54614530D01*
X87121805Y-54574591D01*
X87111554Y-54573622D01*
X86883830Y-54570840D01*
X86873546Y-54571560D01*
X86648437Y-54606006D01*
X86638410Y-54608395D01*
X86421951Y-54679144D01*
X86412442Y-54683141D01*
X86210451Y-54788292D01*
X86201716Y-54793793D01*
X86165535Y-54820958D01*
X86157081Y-54832285D01*
X85273018Y-54832285D01*
X85248278Y-54812747D01*
X85248273Y-54812744D01*
X85244224Y-54809546D01*
X85239708Y-54807053D01*
X85239705Y-54807051D01*
X85040250Y-54696946D01*
X85040246Y-54696944D01*
X85035726Y-54694449D01*
X85030857Y-54692725D01*
X85030853Y-54692723D01*
X84816105Y-54616676D01*
X84816101Y-54616675D01*
X84811230Y-54614950D01*
X84806140Y-54614043D01*
X84806135Y-54614042D01*
X84678814Y-54591364D01*
X84576764Y-54573186D01*
X84487637Y-54572097D01*
X84343795Y-54570339D01*
X84343793Y-54570339D01*
X84338625Y-54570276D01*
X84103209Y-54606300D01*
X83876838Y-54680289D01*
X83665590Y-54790258D01*
X83661457Y-54793361D01*
X83661454Y-54793363D01*
X83479275Y-54930147D01*
X83475140Y-54933252D01*
X83310602Y-55105431D01*
X83288629Y-55137642D01*
X83275186Y-55157349D01*
X83220274Y-55202351D01*
X83149749Y-55210522D01*
X83086002Y-55179267D01*
X83065306Y-55154784D01*
X83054217Y-55137642D01*
X83054212Y-55137636D01*
X83051406Y-55133298D01*
X82891124Y-54957150D01*
X82887073Y-54953951D01*
X82887069Y-54953947D01*
X82708278Y-54812747D01*
X82708273Y-54812744D01*
X82704224Y-54809546D01*
X82699708Y-54807053D01*
X82699705Y-54807051D01*
X82500250Y-54696946D01*
X82500246Y-54696944D01*
X82495726Y-54694449D01*
X82490857Y-54692725D01*
X82490853Y-54692723D01*
X82276105Y-54616676D01*
X82276101Y-54616675D01*
X82271230Y-54614950D01*
X82266140Y-54614043D01*
X82266135Y-54614042D01*
X82138814Y-54591364D01*
X82036764Y-54573186D01*
X81947637Y-54572097D01*
X81803795Y-54570339D01*
X81803793Y-54570339D01*
X81798625Y-54570276D01*
X81563209Y-54606300D01*
X81336838Y-54680289D01*
X81125590Y-54790258D01*
X81121457Y-54793361D01*
X81121454Y-54793363D01*
X80939275Y-54930147D01*
X80935140Y-54933252D01*
X80770602Y-55105431D01*
X80767693Y-55109696D01*
X80767687Y-55109704D01*
X80735186Y-55157349D01*
X80636394Y-55302172D01*
X80536122Y-55518191D01*
X80472477Y-55747685D01*
X80471928Y-55752819D01*
X80471928Y-55752821D01*
X80466449Y-55804089D01*
X80447170Y-55984494D01*
X76508500Y-55984494D01*
X76508500Y-40744494D01*
X80447170Y-40744494D01*
X80447467Y-40749646D01*
X80447467Y-40749650D01*
X80453502Y-40854313D01*
X80460879Y-40982255D01*
X80462016Y-40987301D01*
X80462017Y-40987307D01*
X80495111Y-41134156D01*
X80513237Y-41214585D01*
X80515179Y-41219367D01*
X80515180Y-41219371D01*
X80600893Y-41430457D01*
X80602837Y-41435244D01*
X80605536Y-41439648D01*
X80722676Y-41630802D01*
X80727274Y-41638306D01*
X80883204Y-41818317D01*
X81066442Y-41970444D01*
X81070894Y-41973046D01*
X81070899Y-41973049D01*
X81169333Y-42030569D01*
X81272065Y-42090601D01*
X81494552Y-42175560D01*
X81499618Y-42176591D01*
X81499619Y-42176591D01*
X81553956Y-42187646D01*
X81727928Y-42223041D01*
X81862121Y-42227962D01*
X81960760Y-42231579D01*
X81960764Y-42231579D01*
X81965924Y-42231768D01*
X81971044Y-42231112D01*
X81971046Y-42231112D01*
X82197023Y-42202164D01*
X82197024Y-42202164D01*
X82202151Y-42201507D01*
X82286803Y-42176110D01*
X82425316Y-42134554D01*
X82425317Y-42134553D01*
X82430262Y-42133070D01*
X82644133Y-42028295D01*
X82648336Y-42025297D01*
X82648341Y-42025294D01*
X82725155Y-41970503D01*
X83614326Y-41970503D01*
X83619607Y-41977558D01*
X83807821Y-42087541D01*
X83817108Y-42091991D01*
X84029861Y-42173233D01*
X84039763Y-42176110D01*
X84262911Y-42221510D01*
X84273163Y-42222733D01*
X84500738Y-42231077D01*
X84511024Y-42230610D01*
X84736915Y-42201673D01*
X84747001Y-42199530D01*
X84965128Y-42134088D01*
X84974723Y-42130328D01*
X85179237Y-42030137D01*
X85188083Y-42024863D01*
X85253631Y-41978108D01*
X85262032Y-41967408D01*
X85255045Y-41954256D01*
X84452811Y-41152021D01*
X84438868Y-41144408D01*
X84437034Y-41144539D01*
X84430420Y-41148790D01*
X83621083Y-41958128D01*
X83614326Y-41970503D01*
X82725155Y-41970503D01*
X82833816Y-41892996D01*
X82833818Y-41892994D01*
X82838020Y-41889997D01*
X83006716Y-41721889D01*
X83009732Y-41717692D01*
X83009739Y-41717684D01*
X83072170Y-41630802D01*
X83128164Y-41587154D01*
X83198868Y-41580708D01*
X83245626Y-41604169D01*
X83249976Y-41604890D01*
X83260387Y-41600402D01*
X84067979Y-40792811D01*
X84074356Y-40781132D01*
X84804408Y-40781132D01*
X84804539Y-40782966D01*
X84808790Y-40789580D01*
X85614826Y-41595615D01*
X85628096Y-41602861D01*
X85690005Y-41579078D01*
X85759523Y-41593490D01*
X85801899Y-41630245D01*
X85804574Y-41633899D01*
X85807274Y-41638306D01*
X85963204Y-41818317D01*
X86146442Y-41970444D01*
X86150894Y-41973046D01*
X86150899Y-41973049D01*
X86249333Y-42030569D01*
X86352065Y-42090601D01*
X86574552Y-42175560D01*
X86579618Y-42176591D01*
X86579619Y-42176591D01*
X86633956Y-42187646D01*
X86807928Y-42223041D01*
X86942121Y-42227962D01*
X87040760Y-42231579D01*
X87040764Y-42231579D01*
X87045924Y-42231768D01*
X87051044Y-42231112D01*
X87051046Y-42231112D01*
X87277023Y-42202164D01*
X87277024Y-42202164D01*
X87282151Y-42201507D01*
X87366803Y-42176110D01*
X87505316Y-42134554D01*
X87505317Y-42134553D01*
X87510262Y-42133070D01*
X87724133Y-42028295D01*
X87728336Y-42025297D01*
X87728341Y-42025294D01*
X87913816Y-41892996D01*
X87913818Y-41892994D01*
X87918020Y-41889997D01*
X88086716Y-41721889D01*
X88144979Y-41640807D01*
X88200972Y-41597160D01*
X88271676Y-41590714D01*
X88334640Y-41623516D01*
X88346582Y-41637176D01*
X88347274Y-41638306D01*
X88503204Y-41818317D01*
X88686442Y-41970444D01*
X88690894Y-41973046D01*
X88690899Y-41973049D01*
X88789333Y-42030569D01*
X88892065Y-42090601D01*
X89114552Y-42175560D01*
X89119618Y-42176591D01*
X89119619Y-42176591D01*
X89173956Y-42187646D01*
X89347928Y-42223041D01*
X89482121Y-42227962D01*
X89580760Y-42231579D01*
X89580764Y-42231579D01*
X89585924Y-42231768D01*
X89591044Y-42231112D01*
X89591046Y-42231112D01*
X89817023Y-42202164D01*
X89817024Y-42202164D01*
X89822151Y-42201507D01*
X89906803Y-42176110D01*
X90045316Y-42134554D01*
X90045317Y-42134553D01*
X90050262Y-42133070D01*
X90264133Y-42028295D01*
X90268336Y-42025297D01*
X90268341Y-42025294D01*
X90453816Y-41892996D01*
X90453818Y-41892994D01*
X90458020Y-41889997D01*
X90626716Y-41721889D01*
X90684979Y-41640807D01*
X90740972Y-41597160D01*
X90811676Y-41590714D01*
X90874640Y-41623516D01*
X90886582Y-41637176D01*
X90887274Y-41638306D01*
X91043204Y-41818317D01*
X91226442Y-41970444D01*
X91230894Y-41973046D01*
X91230899Y-41973049D01*
X91329333Y-42030569D01*
X91432065Y-42090601D01*
X91654552Y-42175560D01*
X91659618Y-42176591D01*
X91659619Y-42176591D01*
X91713956Y-42187646D01*
X91887928Y-42223041D01*
X92022121Y-42227962D01*
X92120760Y-42231579D01*
X92120764Y-42231579D01*
X92125924Y-42231768D01*
X92131044Y-42231112D01*
X92131046Y-42231112D01*
X92357023Y-42202164D01*
X92357024Y-42202164D01*
X92362151Y-42201507D01*
X92446803Y-42176110D01*
X92585316Y-42134554D01*
X92585317Y-42134553D01*
X92590262Y-42133070D01*
X92804133Y-42028295D01*
X92808336Y-42025297D01*
X92808341Y-42025294D01*
X92993816Y-41892996D01*
X92993818Y-41892994D01*
X92998020Y-41889997D01*
X93166716Y-41721889D01*
X93224979Y-41640807D01*
X93280972Y-41597160D01*
X93351676Y-41590714D01*
X93414640Y-41623516D01*
X93426582Y-41637176D01*
X93427274Y-41638306D01*
X93583204Y-41818317D01*
X93766442Y-41970444D01*
X93770894Y-41973046D01*
X93770899Y-41973049D01*
X93869333Y-42030569D01*
X93972065Y-42090601D01*
X94194552Y-42175560D01*
X94199618Y-42176591D01*
X94199619Y-42176591D01*
X94253956Y-42187646D01*
X94427928Y-42223041D01*
X94562121Y-42227962D01*
X94660760Y-42231579D01*
X94660764Y-42231579D01*
X94665924Y-42231768D01*
X94671044Y-42231112D01*
X94671046Y-42231112D01*
X94897023Y-42202164D01*
X94897024Y-42202164D01*
X94902151Y-42201507D01*
X94986803Y-42176110D01*
X95125316Y-42134554D01*
X95125317Y-42134553D01*
X95130262Y-42133070D01*
X95344133Y-42028295D01*
X95348336Y-42025297D01*
X95348341Y-42025294D01*
X95533816Y-41892996D01*
X95533818Y-41892994D01*
X95538020Y-41889997D01*
X95706716Y-41721889D01*
X95764979Y-41640807D01*
X95820972Y-41597160D01*
X95891676Y-41590714D01*
X95954640Y-41623516D01*
X95966582Y-41637176D01*
X95967274Y-41638306D01*
X96123204Y-41818317D01*
X96306442Y-41970444D01*
X96310894Y-41973046D01*
X96310899Y-41973049D01*
X96409333Y-42030569D01*
X96512065Y-42090601D01*
X96734552Y-42175560D01*
X96739618Y-42176591D01*
X96739619Y-42176591D01*
X96793956Y-42187646D01*
X96967928Y-42223041D01*
X97102121Y-42227962D01*
X97200760Y-42231579D01*
X97200764Y-42231579D01*
X97205924Y-42231768D01*
X97211044Y-42231112D01*
X97211046Y-42231112D01*
X97437023Y-42202164D01*
X97437024Y-42202164D01*
X97442151Y-42201507D01*
X97526803Y-42176110D01*
X97665316Y-42134554D01*
X97665317Y-42134553D01*
X97670262Y-42133070D01*
X97884133Y-42028295D01*
X97888336Y-42025297D01*
X97888341Y-42025294D01*
X98073816Y-41892996D01*
X98073818Y-41892994D01*
X98078020Y-41889997D01*
X98246716Y-41721889D01*
X98304979Y-41640807D01*
X98360972Y-41597160D01*
X98431676Y-41590714D01*
X98494640Y-41623516D01*
X98506582Y-41637176D01*
X98507274Y-41638306D01*
X98663204Y-41818317D01*
X98846442Y-41970444D01*
X98850894Y-41973046D01*
X98850899Y-41973049D01*
X98949333Y-42030569D01*
X99052065Y-42090601D01*
X99274552Y-42175560D01*
X99279618Y-42176591D01*
X99279619Y-42176591D01*
X99333956Y-42187646D01*
X99507928Y-42223041D01*
X99642121Y-42227962D01*
X99740760Y-42231579D01*
X99740764Y-42231579D01*
X99745924Y-42231768D01*
X99751044Y-42231112D01*
X99751046Y-42231112D01*
X99977023Y-42202164D01*
X99977024Y-42202164D01*
X99982151Y-42201507D01*
X100066803Y-42176110D01*
X100205316Y-42134554D01*
X100205317Y-42134553D01*
X100210262Y-42133070D01*
X100424133Y-42028295D01*
X100428336Y-42025297D01*
X100428341Y-42025294D01*
X100613816Y-41892996D01*
X100613818Y-41892994D01*
X100618020Y-41889997D01*
X100786716Y-41721889D01*
X100844979Y-41640807D01*
X100900972Y-41597160D01*
X100971676Y-41590714D01*
X101034640Y-41623516D01*
X101046582Y-41637176D01*
X101047274Y-41638306D01*
X101203204Y-41818317D01*
X101386442Y-41970444D01*
X101390894Y-41973046D01*
X101390899Y-41973049D01*
X101489333Y-42030569D01*
X101592065Y-42090601D01*
X101814552Y-42175560D01*
X101819618Y-42176591D01*
X101819619Y-42176591D01*
X101873956Y-42187646D01*
X102047928Y-42223041D01*
X102182121Y-42227962D01*
X102280760Y-42231579D01*
X102280764Y-42231579D01*
X102285924Y-42231768D01*
X102291044Y-42231112D01*
X102291046Y-42231112D01*
X102517023Y-42202164D01*
X102517024Y-42202164D01*
X102522151Y-42201507D01*
X102606803Y-42176110D01*
X102745316Y-42134554D01*
X102745317Y-42134553D01*
X102750262Y-42133070D01*
X102964133Y-42028295D01*
X102968336Y-42025297D01*
X102968341Y-42025294D01*
X103153816Y-41892996D01*
X103153818Y-41892994D01*
X103158020Y-41889997D01*
X103326716Y-41721889D01*
X103384979Y-41640807D01*
X103440972Y-41597160D01*
X103511676Y-41590714D01*
X103574640Y-41623516D01*
X103586582Y-41637176D01*
X103587274Y-41638306D01*
X103743204Y-41818317D01*
X103926442Y-41970444D01*
X103930894Y-41973046D01*
X103930899Y-41973049D01*
X104029333Y-42030569D01*
X104132065Y-42090601D01*
X104354552Y-42175560D01*
X104359618Y-42176591D01*
X104359619Y-42176591D01*
X104413956Y-42187646D01*
X104587928Y-42223041D01*
X104722121Y-42227962D01*
X104820760Y-42231579D01*
X104820764Y-42231579D01*
X104825924Y-42231768D01*
X104831044Y-42231112D01*
X104831046Y-42231112D01*
X105057023Y-42202164D01*
X105057024Y-42202164D01*
X105062151Y-42201507D01*
X105146803Y-42176110D01*
X105285316Y-42134554D01*
X105285317Y-42134553D01*
X105290262Y-42133070D01*
X105504133Y-42028295D01*
X105508336Y-42025297D01*
X105508341Y-42025294D01*
X105693816Y-41892996D01*
X105693818Y-41892994D01*
X105698020Y-41889997D01*
X105866716Y-41721889D01*
X105924979Y-41640807D01*
X105980972Y-41597160D01*
X106051676Y-41590714D01*
X106114640Y-41623516D01*
X106126582Y-41637176D01*
X106127274Y-41638306D01*
X106283204Y-41818317D01*
X106466442Y-41970444D01*
X106470894Y-41973046D01*
X106470899Y-41973049D01*
X106569333Y-42030569D01*
X106672065Y-42090601D01*
X106894552Y-42175560D01*
X106899618Y-42176591D01*
X106899619Y-42176591D01*
X106953956Y-42187646D01*
X107127928Y-42223041D01*
X107262121Y-42227962D01*
X107360760Y-42231579D01*
X107360764Y-42231579D01*
X107365924Y-42231768D01*
X107371044Y-42231112D01*
X107371046Y-42231112D01*
X107597023Y-42202164D01*
X107597024Y-42202164D01*
X107602151Y-42201507D01*
X107686803Y-42176110D01*
X107825316Y-42134554D01*
X107825317Y-42134553D01*
X107830262Y-42133070D01*
X108044133Y-42028295D01*
X108048336Y-42025297D01*
X108048341Y-42025294D01*
X108233816Y-41892996D01*
X108233818Y-41892994D01*
X108238020Y-41889997D01*
X108406716Y-41721889D01*
X108464979Y-41640807D01*
X108520972Y-41597160D01*
X108591676Y-41590714D01*
X108654640Y-41623516D01*
X108666582Y-41637176D01*
X108667274Y-41638306D01*
X108823204Y-41818317D01*
X109006442Y-41970444D01*
X109010894Y-41973046D01*
X109010899Y-41973049D01*
X109109333Y-42030569D01*
X109212065Y-42090601D01*
X109434552Y-42175560D01*
X109439618Y-42176591D01*
X109439619Y-42176591D01*
X109493956Y-42187646D01*
X109667928Y-42223041D01*
X109802121Y-42227962D01*
X109900760Y-42231579D01*
X109900764Y-42231579D01*
X109905924Y-42231768D01*
X109911044Y-42231112D01*
X109911046Y-42231112D01*
X110137023Y-42202164D01*
X110137024Y-42202164D01*
X110142151Y-42201507D01*
X110226803Y-42176110D01*
X110365316Y-42134554D01*
X110365317Y-42134553D01*
X110370262Y-42133070D01*
X110584133Y-42028295D01*
X110588336Y-42025297D01*
X110588341Y-42025294D01*
X110773816Y-41892996D01*
X110773818Y-41892994D01*
X110778020Y-41889997D01*
X110946716Y-41721889D01*
X111085690Y-41528486D01*
X111131774Y-41435244D01*
X111188917Y-41319624D01*
X111188918Y-41319622D01*
X111191211Y-41314982D01*
X111260443Y-41087111D01*
X111291529Y-40850992D01*
X111293264Y-40780000D01*
X111273750Y-40542644D01*
X111215731Y-40311663D01*
X111120767Y-40093259D01*
X111117759Y-40088608D01*
X111037424Y-39964431D01*
X110991406Y-39893298D01*
X110972480Y-39872498D01*
X110940358Y-39837197D01*
X110831124Y-39717150D01*
X110827073Y-39713951D01*
X110827069Y-39713947D01*
X110648278Y-39572747D01*
X110648273Y-39572744D01*
X110644224Y-39569546D01*
X110639708Y-39567053D01*
X110639705Y-39567051D01*
X110440250Y-39456946D01*
X110440246Y-39456944D01*
X110435726Y-39454449D01*
X110430857Y-39452725D01*
X110430853Y-39452723D01*
X110216105Y-39376676D01*
X110216101Y-39376675D01*
X110211230Y-39374950D01*
X110206140Y-39374043D01*
X110206135Y-39374042D01*
X110078814Y-39351364D01*
X109976764Y-39333186D01*
X109887637Y-39332097D01*
X109743795Y-39330339D01*
X109743793Y-39330339D01*
X109738625Y-39330276D01*
X109503209Y-39366300D01*
X109276838Y-39440289D01*
X109252953Y-39452723D01*
X109103572Y-39530486D01*
X109065590Y-39550258D01*
X109061457Y-39553361D01*
X109061454Y-39553363D01*
X108987555Y-39608848D01*
X108875140Y-39693252D01*
X108710602Y-39865431D01*
X108688629Y-39897642D01*
X108675186Y-39917349D01*
X108620274Y-39962351D01*
X108549749Y-39970522D01*
X108486002Y-39939267D01*
X108465306Y-39914784D01*
X108454217Y-39897642D01*
X108454212Y-39897636D01*
X108451406Y-39893298D01*
X108432480Y-39872498D01*
X108400358Y-39837197D01*
X108291124Y-39717150D01*
X108287073Y-39713951D01*
X108287069Y-39713947D01*
X108108278Y-39572747D01*
X108108273Y-39572744D01*
X108104224Y-39569546D01*
X108099708Y-39567053D01*
X108099705Y-39567051D01*
X107900250Y-39456946D01*
X107900246Y-39456944D01*
X107895726Y-39454449D01*
X107890857Y-39452725D01*
X107890853Y-39452723D01*
X107676105Y-39376676D01*
X107676101Y-39376675D01*
X107671230Y-39374950D01*
X107666140Y-39374043D01*
X107666135Y-39374042D01*
X107538814Y-39351364D01*
X107436764Y-39333186D01*
X107347637Y-39332097D01*
X107203795Y-39330339D01*
X107203793Y-39330339D01*
X107198625Y-39330276D01*
X106963209Y-39366300D01*
X106736838Y-39440289D01*
X106712953Y-39452723D01*
X106563572Y-39530486D01*
X106525590Y-39550258D01*
X106521457Y-39553361D01*
X106521454Y-39553363D01*
X106447555Y-39608848D01*
X106335140Y-39693252D01*
X106170602Y-39865431D01*
X106148629Y-39897642D01*
X106135186Y-39917349D01*
X106080274Y-39962351D01*
X106009749Y-39970522D01*
X105946002Y-39939267D01*
X105925306Y-39914784D01*
X105914217Y-39897642D01*
X105914212Y-39897636D01*
X105911406Y-39893298D01*
X105892480Y-39872498D01*
X105860358Y-39837197D01*
X105751124Y-39717150D01*
X105747073Y-39713951D01*
X105747069Y-39713947D01*
X105568278Y-39572747D01*
X105568273Y-39572744D01*
X105564224Y-39569546D01*
X105559708Y-39567053D01*
X105559705Y-39567051D01*
X105360250Y-39456946D01*
X105360246Y-39456944D01*
X105355726Y-39454449D01*
X105350857Y-39452725D01*
X105350853Y-39452723D01*
X105136105Y-39376676D01*
X105136101Y-39376675D01*
X105131230Y-39374950D01*
X105126140Y-39374043D01*
X105126135Y-39374042D01*
X104998814Y-39351364D01*
X104896764Y-39333186D01*
X104807637Y-39332097D01*
X104663795Y-39330339D01*
X104663793Y-39330339D01*
X104658625Y-39330276D01*
X104423209Y-39366300D01*
X104196838Y-39440289D01*
X104172953Y-39452723D01*
X104023572Y-39530486D01*
X103985590Y-39550258D01*
X103981457Y-39553361D01*
X103981454Y-39553363D01*
X103907555Y-39608848D01*
X103795140Y-39693252D01*
X103630602Y-39865431D01*
X103608629Y-39897642D01*
X103595186Y-39917349D01*
X103540274Y-39962351D01*
X103469749Y-39970522D01*
X103406002Y-39939267D01*
X103385306Y-39914784D01*
X103374217Y-39897642D01*
X103374212Y-39897636D01*
X103371406Y-39893298D01*
X103352480Y-39872498D01*
X103320358Y-39837197D01*
X103211124Y-39717150D01*
X103207073Y-39713951D01*
X103207069Y-39713947D01*
X103028278Y-39572747D01*
X103028273Y-39572744D01*
X103024224Y-39569546D01*
X103019708Y-39567053D01*
X103019705Y-39567051D01*
X102820250Y-39456946D01*
X102820246Y-39456944D01*
X102815726Y-39454449D01*
X102810857Y-39452725D01*
X102810853Y-39452723D01*
X102596105Y-39376676D01*
X102596101Y-39376675D01*
X102591230Y-39374950D01*
X102586140Y-39374043D01*
X102586135Y-39374042D01*
X102458814Y-39351364D01*
X102356764Y-39333186D01*
X102267637Y-39332097D01*
X102123795Y-39330339D01*
X102123793Y-39330339D01*
X102118625Y-39330276D01*
X101883209Y-39366300D01*
X101656838Y-39440289D01*
X101632953Y-39452723D01*
X101483572Y-39530486D01*
X101445590Y-39550258D01*
X101441457Y-39553361D01*
X101441454Y-39553363D01*
X101367555Y-39608848D01*
X101255140Y-39693252D01*
X101090602Y-39865431D01*
X101068629Y-39897642D01*
X101055186Y-39917349D01*
X101000274Y-39962351D01*
X100929749Y-39970522D01*
X100866002Y-39939267D01*
X100845306Y-39914784D01*
X100834217Y-39897642D01*
X100834212Y-39897636D01*
X100831406Y-39893298D01*
X100812480Y-39872498D01*
X100780358Y-39837197D01*
X100671124Y-39717150D01*
X100667073Y-39713951D01*
X100667069Y-39713947D01*
X100488278Y-39572747D01*
X100488273Y-39572744D01*
X100484224Y-39569546D01*
X100479708Y-39567053D01*
X100479705Y-39567051D01*
X100280250Y-39456946D01*
X100280246Y-39456944D01*
X100275726Y-39454449D01*
X100270857Y-39452725D01*
X100270853Y-39452723D01*
X100056105Y-39376676D01*
X100056101Y-39376675D01*
X100051230Y-39374950D01*
X100046140Y-39374043D01*
X100046135Y-39374042D01*
X99918814Y-39351364D01*
X99816764Y-39333186D01*
X99727637Y-39332097D01*
X99583795Y-39330339D01*
X99583793Y-39330339D01*
X99578625Y-39330276D01*
X99343209Y-39366300D01*
X99116838Y-39440289D01*
X99092953Y-39452723D01*
X98943572Y-39530486D01*
X98905590Y-39550258D01*
X98901457Y-39553361D01*
X98901454Y-39553363D01*
X98827555Y-39608848D01*
X98715140Y-39693252D01*
X98550602Y-39865431D01*
X98528629Y-39897642D01*
X98515186Y-39917349D01*
X98460274Y-39962351D01*
X98389749Y-39970522D01*
X98326002Y-39939267D01*
X98305306Y-39914784D01*
X98294217Y-39897642D01*
X98294212Y-39897636D01*
X98291406Y-39893298D01*
X98272480Y-39872498D01*
X98240358Y-39837197D01*
X98131124Y-39717150D01*
X98127073Y-39713951D01*
X98127069Y-39713947D01*
X97948278Y-39572747D01*
X97948273Y-39572744D01*
X97944224Y-39569546D01*
X97939708Y-39567053D01*
X97939705Y-39567051D01*
X97740250Y-39456946D01*
X97740246Y-39456944D01*
X97735726Y-39454449D01*
X97730857Y-39452725D01*
X97730853Y-39452723D01*
X97516105Y-39376676D01*
X97516101Y-39376675D01*
X97511230Y-39374950D01*
X97506140Y-39374043D01*
X97506135Y-39374042D01*
X97378814Y-39351364D01*
X97276764Y-39333186D01*
X97187637Y-39332097D01*
X97043795Y-39330339D01*
X97043793Y-39330339D01*
X97038625Y-39330276D01*
X96803209Y-39366300D01*
X96576838Y-39440289D01*
X96552953Y-39452723D01*
X96403572Y-39530486D01*
X96365590Y-39550258D01*
X96361457Y-39553361D01*
X96361454Y-39553363D01*
X96287555Y-39608848D01*
X96175140Y-39693252D01*
X96010602Y-39865431D01*
X95988629Y-39897642D01*
X95975186Y-39917349D01*
X95920274Y-39962351D01*
X95849749Y-39970522D01*
X95786002Y-39939267D01*
X95765306Y-39914784D01*
X95754217Y-39897642D01*
X95754212Y-39897636D01*
X95751406Y-39893298D01*
X95732480Y-39872498D01*
X95700358Y-39837197D01*
X95591124Y-39717150D01*
X95587073Y-39713951D01*
X95587069Y-39713947D01*
X95408278Y-39572747D01*
X95408273Y-39572744D01*
X95404224Y-39569546D01*
X95399708Y-39567053D01*
X95399705Y-39567051D01*
X95200250Y-39456946D01*
X95200246Y-39456944D01*
X95195726Y-39454449D01*
X95190857Y-39452725D01*
X95190853Y-39452723D01*
X94976105Y-39376676D01*
X94976101Y-39376675D01*
X94971230Y-39374950D01*
X94966140Y-39374043D01*
X94966135Y-39374042D01*
X94838814Y-39351364D01*
X94736764Y-39333186D01*
X94647637Y-39332097D01*
X94503795Y-39330339D01*
X94503793Y-39330339D01*
X94498625Y-39330276D01*
X94263209Y-39366300D01*
X94036838Y-39440289D01*
X94012953Y-39452723D01*
X93863572Y-39530486D01*
X93825590Y-39550258D01*
X93821457Y-39553361D01*
X93821454Y-39553363D01*
X93747555Y-39608848D01*
X93635140Y-39693252D01*
X93470602Y-39865431D01*
X93448629Y-39897642D01*
X93435186Y-39917349D01*
X93380274Y-39962351D01*
X93309749Y-39970522D01*
X93246002Y-39939267D01*
X93225306Y-39914784D01*
X93214217Y-39897642D01*
X93214212Y-39897636D01*
X93211406Y-39893298D01*
X93192480Y-39872498D01*
X93160358Y-39837197D01*
X93051124Y-39717150D01*
X93047073Y-39713951D01*
X93047069Y-39713947D01*
X92868278Y-39572747D01*
X92868273Y-39572744D01*
X92864224Y-39569546D01*
X92859708Y-39567053D01*
X92859705Y-39567051D01*
X92660250Y-39456946D01*
X92660246Y-39456944D01*
X92655726Y-39454449D01*
X92650857Y-39452725D01*
X92650853Y-39452723D01*
X92436105Y-39376676D01*
X92436101Y-39376675D01*
X92431230Y-39374950D01*
X92426140Y-39374043D01*
X92426135Y-39374042D01*
X92298814Y-39351364D01*
X92196764Y-39333186D01*
X92107637Y-39332097D01*
X91963795Y-39330339D01*
X91963793Y-39330339D01*
X91958625Y-39330276D01*
X91723209Y-39366300D01*
X91496838Y-39440289D01*
X91472953Y-39452723D01*
X91323572Y-39530486D01*
X91285590Y-39550258D01*
X91281457Y-39553361D01*
X91281454Y-39553363D01*
X91207555Y-39608848D01*
X91095140Y-39693252D01*
X90930602Y-39865431D01*
X90908629Y-39897642D01*
X90895186Y-39917349D01*
X90840274Y-39962351D01*
X90769749Y-39970522D01*
X90706002Y-39939267D01*
X90685306Y-39914784D01*
X90674217Y-39897642D01*
X90674212Y-39897636D01*
X90671406Y-39893298D01*
X90652480Y-39872498D01*
X90620358Y-39837197D01*
X90511124Y-39717150D01*
X90507073Y-39713951D01*
X90507069Y-39713947D01*
X90328278Y-39572747D01*
X90328273Y-39572744D01*
X90324224Y-39569546D01*
X90319708Y-39567053D01*
X90319705Y-39567051D01*
X90120250Y-39456946D01*
X90120246Y-39456944D01*
X90115726Y-39454449D01*
X90110857Y-39452725D01*
X90110853Y-39452723D01*
X89896105Y-39376676D01*
X89896101Y-39376675D01*
X89891230Y-39374950D01*
X89886140Y-39374043D01*
X89886135Y-39374042D01*
X89758814Y-39351364D01*
X89656764Y-39333186D01*
X89567637Y-39332097D01*
X89423795Y-39330339D01*
X89423793Y-39330339D01*
X89418625Y-39330276D01*
X89183209Y-39366300D01*
X88956838Y-39440289D01*
X88932953Y-39452723D01*
X88783572Y-39530486D01*
X88745590Y-39550258D01*
X88741457Y-39553361D01*
X88741454Y-39553363D01*
X88667555Y-39608848D01*
X88555140Y-39693252D01*
X88390602Y-39865431D01*
X88368629Y-39897642D01*
X88355186Y-39917349D01*
X88300274Y-39962351D01*
X88229749Y-39970522D01*
X88166002Y-39939267D01*
X88145306Y-39914784D01*
X88134217Y-39897642D01*
X88134212Y-39897636D01*
X88131406Y-39893298D01*
X88112480Y-39872498D01*
X88080358Y-39837197D01*
X87971124Y-39717150D01*
X87967073Y-39713951D01*
X87967069Y-39713947D01*
X87788278Y-39572747D01*
X87788273Y-39572744D01*
X87784224Y-39569546D01*
X87779708Y-39567053D01*
X87779705Y-39567051D01*
X87580250Y-39456946D01*
X87580246Y-39456944D01*
X87575726Y-39454449D01*
X87570857Y-39452725D01*
X87570853Y-39452723D01*
X87356105Y-39376676D01*
X87356101Y-39376675D01*
X87351230Y-39374950D01*
X87346140Y-39374043D01*
X87346135Y-39374042D01*
X87218814Y-39351364D01*
X87116764Y-39333186D01*
X87027637Y-39332097D01*
X86883795Y-39330339D01*
X86883793Y-39330339D01*
X86878625Y-39330276D01*
X86643209Y-39366300D01*
X86416838Y-39440289D01*
X86392953Y-39452723D01*
X86243572Y-39530486D01*
X86205590Y-39550258D01*
X86201457Y-39553361D01*
X86201454Y-39553363D01*
X86127555Y-39608848D01*
X86015140Y-39693252D01*
X85850602Y-39865431D01*
X85808064Y-39927790D01*
X85753155Y-39972790D01*
X85682631Y-39980961D01*
X85630940Y-39956588D01*
X85628940Y-39956307D01*
X85617755Y-39961456D01*
X84812021Y-40767189D01*
X84804408Y-40781132D01*
X84074356Y-40781132D01*
X84075592Y-40778868D01*
X84075461Y-40777034D01*
X84071210Y-40770420D01*
X83265220Y-39964431D01*
X83252803Y-39957651D01*
X83189899Y-39982699D01*
X83120210Y-39969135D01*
X83072360Y-39925688D01*
X83054216Y-39897642D01*
X83051406Y-39893298D01*
X83032480Y-39872498D01*
X83000358Y-39837197D01*
X82891124Y-39717150D01*
X82887073Y-39713951D01*
X82887069Y-39713947D01*
X82733018Y-39592285D01*
X83617081Y-39592285D01*
X83623825Y-39604614D01*
X84427189Y-40407979D01*
X84441132Y-40415592D01*
X84442966Y-40415461D01*
X84449580Y-40411210D01*
X85257331Y-39603458D01*
X85264348Y-39590607D01*
X85256574Y-39579937D01*
X85248004Y-39573169D01*
X85239417Y-39567464D01*
X85040055Y-39457410D01*
X85030643Y-39453180D01*
X84815971Y-39377160D01*
X84806014Y-39374530D01*
X84581805Y-39334591D01*
X84571554Y-39333622D01*
X84343830Y-39330840D01*
X84333546Y-39331560D01*
X84108437Y-39366006D01*
X84098410Y-39368395D01*
X83881951Y-39439144D01*
X83872442Y-39443141D01*
X83670451Y-39548292D01*
X83661716Y-39553793D01*
X83625535Y-39580958D01*
X83617081Y-39592285D01*
X82733018Y-39592285D01*
X82708278Y-39572747D01*
X82708273Y-39572744D01*
X82704224Y-39569546D01*
X82699708Y-39567053D01*
X82699705Y-39567051D01*
X82500250Y-39456946D01*
X82500246Y-39456944D01*
X82495726Y-39454449D01*
X82490857Y-39452725D01*
X82490853Y-39452723D01*
X82276105Y-39376676D01*
X82276101Y-39376675D01*
X82271230Y-39374950D01*
X82266140Y-39374043D01*
X82266135Y-39374042D01*
X82138814Y-39351364D01*
X82036764Y-39333186D01*
X81947637Y-39332097D01*
X81803795Y-39330339D01*
X81803793Y-39330339D01*
X81798625Y-39330276D01*
X81563209Y-39366300D01*
X81336838Y-39440289D01*
X81312953Y-39452723D01*
X81163572Y-39530486D01*
X81125590Y-39550258D01*
X81121457Y-39553361D01*
X81121454Y-39553363D01*
X81047555Y-39608848D01*
X80935140Y-39693252D01*
X80770602Y-39865431D01*
X80767693Y-39869696D01*
X80767687Y-39869704D01*
X80735186Y-39917349D01*
X80636394Y-40062172D01*
X80536122Y-40278191D01*
X80472477Y-40507685D01*
X80471928Y-40512819D01*
X80471928Y-40512821D01*
X80467608Y-40553250D01*
X80447170Y-40744494D01*
X76508500Y-40744494D01*
X76508500Y-40553250D01*
X76510246Y-40532345D01*
X76512770Y-40517344D01*
X76512770Y-40517341D01*
X76513576Y-40512552D01*
X76513729Y-40500000D01*
X76513040Y-40495186D01*
X76513039Y-40495176D01*
X76512157Y-40489017D01*
X76511206Y-40462172D01*
X76521970Y-40311663D01*
X76523039Y-40296718D01*
X76525596Y-40278934D01*
X76566999Y-40088607D01*
X76572063Y-40071359D01*
X76640136Y-39888850D01*
X76647604Y-39872498D01*
X76740952Y-39701542D01*
X76750672Y-39686418D01*
X76867402Y-39530486D01*
X76879175Y-39516900D01*
X77016900Y-39379175D01*
X77030486Y-39367402D01*
X77186418Y-39250672D01*
X77201542Y-39240952D01*
X77372498Y-39147604D01*
X77388850Y-39140136D01*
X77571359Y-39072063D01*
X77588608Y-39066999D01*
X77778936Y-39025596D01*
X77796715Y-39023039D01*
X77958605Y-39011460D01*
X77976565Y-39012207D01*
X77984845Y-39012308D01*
X77993724Y-39013691D01*
X78025286Y-39009564D01*
X78041621Y-39008500D01*
X173950633Y-39008500D01*
X173970018Y-39010000D01*
G37*
%TD.AperFunction*%
%TD*%
M02*
