%TF.GenerationSoftware,KiCad,Pcbnew,(6.0.7)*%
%TF.CreationDate,2023-05-31T01:42:51-04:00*%
%TF.ProjectId,Big_Keys_Keyboard,4269675f-4b65-4797-935f-4b6579626f61,rev?*%
%TF.SameCoordinates,Original*%
%TF.FileFunction,Soldermask,Top*%
%TF.FilePolarity,Negative*%
%FSLAX46Y46*%
G04 Gerber Fmt 4.6, Leading zero omitted, Abs format (unit mm)*
G04 Created by KiCad (PCBNEW (6.0.7)) date 2023-05-31 01:42:51*
%MOMM*%
%LPD*%
G01*
G04 APERTURE LIST*
%ADD10C,1.238000*%
%ADD11R,1.238000X1.238000*%
%ADD12C,2.082800*%
%ADD13C,3.987800*%
%ADD14C,1.700000*%
%ADD15C,1.508000*%
%ADD16C,2.250000*%
%ADD17C,1.600000*%
%ADD18O,1.600000X1.600000*%
%ADD19R,1.550000X0.600000*%
%ADD20R,1.800000X1.200000*%
G04 APERTURE END LIST*
D10*
%TO.C,D1*%
X97000000Y-98854000D03*
D11*
X97000000Y-107146000D03*
%TD*%
D10*
%TO.C,D3*%
X167000000Y-98854000D03*
D11*
X167000000Y-107146000D03*
%TD*%
D12*
%TO.C,B1*%
X64900000Y-56020000D03*
X67440000Y-56020000D03*
X69980000Y-56020000D03*
X72520000Y-56020000D03*
X75060000Y-56020000D03*
X77600000Y-56020000D03*
X80140000Y-56020000D03*
X82680000Y-56020000D03*
X85220000Y-56020000D03*
X87760000Y-56020000D03*
X90300000Y-56020000D03*
X92840000Y-56020000D03*
X92840000Y-40780000D03*
X90300000Y-40780000D03*
X87760000Y-40780000D03*
X85220000Y-40780000D03*
X82680000Y-40780000D03*
X80140000Y-40780000D03*
X77600000Y-40780000D03*
X75060000Y-40780000D03*
X72520000Y-40780000D03*
X69980000Y-40780000D03*
X67440000Y-40780000D03*
X64900000Y-40780000D03*
%TD*%
D13*
%TO.C,U3*%
X161000000Y-88000000D03*
D14*
X156000000Y-88000000D03*
X166000000Y-88000000D03*
D15*
X157190000Y-93080000D03*
X164810000Y-93080000D03*
D16*
X163510000Y-82920000D03*
X157190000Y-85460000D03*
%TD*%
D14*
%TO.C,U1*%
X96000000Y-88000000D03*
D13*
X91000000Y-88000000D03*
D14*
X86000000Y-88000000D03*
D15*
X87190000Y-93080000D03*
X94810000Y-93080000D03*
D16*
X93510000Y-82920000D03*
X87190000Y-85460000D03*
%TD*%
D17*
%TO.C,R1*%
X123020000Y-67700000D03*
D18*
X133180000Y-67700000D03*
%TD*%
D14*
%TO.C,U2*%
X86000000Y-158000000D03*
D13*
X91000000Y-158000000D03*
D14*
X96000000Y-158000000D03*
D15*
X87190000Y-163080000D03*
X94810000Y-163080000D03*
D16*
X93510000Y-152920000D03*
X87190000Y-155460000D03*
%TD*%
D19*
%TO.C,J2*%
X186400000Y-112500000D03*
X186400000Y-111500000D03*
X186400000Y-110500000D03*
X186400000Y-109500000D03*
D20*
X190275000Y-113800000D03*
X190275000Y-108200000D03*
%TD*%
D10*
%TO.C,D2*%
X97000000Y-146146000D03*
D11*
X97000000Y-137854000D03*
%TD*%
D19*
%TO.C,J1*%
X65600000Y-109500000D03*
X65600000Y-110500000D03*
X65600000Y-111500000D03*
X65600000Y-112500000D03*
D20*
X61725000Y-108200000D03*
X61725000Y-113800000D03*
%TD*%
D17*
%TO.C,R2*%
X123040000Y-72300000D03*
D18*
X133200000Y-72300000D03*
%TD*%
D14*
%TO.C,U4*%
X166000000Y-158000000D03*
X156000000Y-158000000D03*
D13*
X161000000Y-158000000D03*
D15*
X157190000Y-163080000D03*
X164810000Y-163080000D03*
D16*
X163510000Y-152920000D03*
X157190000Y-155460000D03*
%TD*%
D10*
%TO.C,D4*%
X167000000Y-146146000D03*
D11*
X167000000Y-137854000D03*
%TD*%
M02*
