%TF.GenerationSoftware,KiCad,Pcbnew,(6.0.7)*%
%TF.CreationDate,2023-05-31T01:42:51-04:00*%
%TF.ProjectId,Big_Keys_Keyboard,4269675f-4b65-4797-935f-4b6579626f61,rev?*%
%TF.SameCoordinates,Original*%
%TF.FileFunction,Legend,Top*%
%TF.FilePolarity,Positive*%
%FSLAX46Y46*%
G04 Gerber Fmt 4.6, Leading zero omitted, Abs format (unit mm)*
G04 Created by KiCad (PCBNEW (6.0.7)) date 2023-05-31 01:42:51*
%MOMM*%
%LPD*%
G01*
G04 APERTURE LIST*
%ADD10C,0.300000*%
%ADD11C,0.150000*%
%ADD12C,0.127000*%
%ADD13C,0.200000*%
%ADD14C,0.120000*%
G04 APERTURE END LIST*
D10*
X118857142Y-153892857D02*
X119071428Y-153964285D01*
X119142857Y-154035714D01*
X119214285Y-154178571D01*
X119214285Y-154392857D01*
X119142857Y-154535714D01*
X119071428Y-154607142D01*
X118928571Y-154678571D01*
X118357142Y-154678571D01*
X118357142Y-153178571D01*
X118857142Y-153178571D01*
X119000000Y-153250000D01*
X119071428Y-153321428D01*
X119142857Y-153464285D01*
X119142857Y-153607142D01*
X119071428Y-153750000D01*
X119000000Y-153821428D01*
X118857142Y-153892857D01*
X118357142Y-153892857D01*
X119857142Y-154678571D02*
X119857142Y-153678571D01*
X119857142Y-153178571D02*
X119785714Y-153250000D01*
X119857142Y-153321428D01*
X119928571Y-153250000D01*
X119857142Y-153178571D01*
X119857142Y-153321428D01*
X121214285Y-153678571D02*
X121214285Y-154892857D01*
X121142857Y-155035714D01*
X121071428Y-155107142D01*
X120928571Y-155178571D01*
X120714285Y-155178571D01*
X120571428Y-155107142D01*
X121214285Y-154607142D02*
X121071428Y-154678571D01*
X120785714Y-154678571D01*
X120642857Y-154607142D01*
X120571428Y-154535714D01*
X120500000Y-154392857D01*
X120500000Y-153964285D01*
X120571428Y-153821428D01*
X120642857Y-153750000D01*
X120785714Y-153678571D01*
X121071428Y-153678571D01*
X121214285Y-153750000D01*
X121928571Y-154107142D02*
X123071428Y-154107142D01*
X123785714Y-154678571D02*
X123785714Y-153178571D01*
X124642857Y-154678571D02*
X124000000Y-153821428D01*
X124642857Y-153178571D02*
X123785714Y-154035714D01*
X125857142Y-154607142D02*
X125714285Y-154678571D01*
X125428571Y-154678571D01*
X125285714Y-154607142D01*
X125214285Y-154464285D01*
X125214285Y-153892857D01*
X125285714Y-153750000D01*
X125428571Y-153678571D01*
X125714285Y-153678571D01*
X125857142Y-153750000D01*
X125928571Y-153892857D01*
X125928571Y-154035714D01*
X125214285Y-154178571D01*
X126428571Y-153678571D02*
X126785714Y-154678571D01*
X127142857Y-153678571D02*
X126785714Y-154678571D01*
X126642857Y-155035714D01*
X126571428Y-155107142D01*
X126428571Y-155178571D01*
X127642857Y-154607142D02*
X127785714Y-154678571D01*
X128071428Y-154678571D01*
X128214285Y-154607142D01*
X128285714Y-154464285D01*
X128285714Y-154392857D01*
X128214285Y-154250000D01*
X128071428Y-154178571D01*
X127857142Y-154178571D01*
X127714285Y-154107142D01*
X127642857Y-153964285D01*
X127642857Y-153892857D01*
X127714285Y-153750000D01*
X127857142Y-153678571D01*
X128071428Y-153678571D01*
X128214285Y-153750000D01*
X128928571Y-154107142D02*
X130071428Y-154107142D01*
X131571428Y-154678571D02*
X130714285Y-154678571D01*
X131142857Y-154678571D02*
X131142857Y-153178571D01*
X131000000Y-153392857D01*
X130857142Y-153535714D01*
X130714285Y-153607142D01*
X132214285Y-154535714D02*
X132285714Y-154607142D01*
X132214285Y-154678571D01*
X132142857Y-154607142D01*
X132214285Y-154535714D01*
X132214285Y-154678571D01*
X133214285Y-153178571D02*
X133357142Y-153178571D01*
X133500000Y-153250000D01*
X133571428Y-153321428D01*
X133642857Y-153464285D01*
X133714285Y-153750000D01*
X133714285Y-154107142D01*
X133642857Y-154392857D01*
X133571428Y-154535714D01*
X133500000Y-154607142D01*
X133357142Y-154678571D01*
X133214285Y-154678571D01*
X133071428Y-154607142D01*
X133000000Y-154535714D01*
X132928571Y-154392857D01*
X132857142Y-154107142D01*
X132857142Y-153750000D01*
X132928571Y-153464285D01*
X133000000Y-153321428D01*
X133071428Y-153250000D01*
X133214285Y-153178571D01*
D11*
%TO.C,D1*%
X94609222Y-103126025D02*
X93609120Y-103126025D01*
X93609120Y-102887906D01*
X93656744Y-102745034D01*
X93751991Y-102649786D01*
X93847239Y-102602162D01*
X94037735Y-102554538D01*
X94180606Y-102554538D01*
X94371102Y-102602162D01*
X94466350Y-102649786D01*
X94561598Y-102745034D01*
X94609222Y-102887906D01*
X94609222Y-103126025D01*
X94609222Y-101602060D02*
X94609222Y-102173547D01*
X94609222Y-101887804D02*
X93609120Y-101887804D01*
X93751991Y-101983051D01*
X93847239Y-102078299D01*
X93894863Y-102173547D01*
%TO.C,D3*%
X164834677Y-104214670D02*
X163834575Y-104214670D01*
X163834575Y-103976551D01*
X163882199Y-103833679D01*
X163977446Y-103738431D01*
X164072694Y-103690807D01*
X164263190Y-103643183D01*
X164406061Y-103643183D01*
X164596557Y-103690807D01*
X164691805Y-103738431D01*
X164787053Y-103833679D01*
X164834677Y-103976551D01*
X164834677Y-104214670D01*
X163834575Y-103309816D02*
X163834575Y-102690705D01*
X164215566Y-103024072D01*
X164215566Y-102881201D01*
X164263190Y-102785953D01*
X164310814Y-102738329D01*
X164406061Y-102690705D01*
X164644181Y-102690705D01*
X164739429Y-102738329D01*
X164787053Y-102785953D01*
X164834677Y-102881201D01*
X164834677Y-103166944D01*
X164787053Y-103262192D01*
X164739429Y-103309816D01*
D12*
%TO.C,B1*%
X62316457Y-48646742D02*
X62345485Y-48559657D01*
X62374514Y-48530628D01*
X62432571Y-48501600D01*
X62519657Y-48501600D01*
X62577714Y-48530628D01*
X62606742Y-48559657D01*
X62635771Y-48617714D01*
X62635771Y-48849942D01*
X62026171Y-48849942D01*
X62026171Y-48646742D01*
X62055200Y-48588685D01*
X62084228Y-48559657D01*
X62142285Y-48530628D01*
X62200342Y-48530628D01*
X62258400Y-48559657D01*
X62287428Y-48588685D01*
X62316457Y-48646742D01*
X62316457Y-48849942D01*
X62635771Y-47921028D02*
X62635771Y-48269371D01*
X62635771Y-48095200D02*
X62026171Y-48095200D01*
X62113257Y-48153257D01*
X62171314Y-48211314D01*
X62200342Y-48269371D01*
X93086742Y-53465485D02*
X93115771Y-53378400D01*
X93115771Y-53233257D01*
X93086742Y-53175200D01*
X93057714Y-53146171D01*
X92999657Y-53117142D01*
X92941600Y-53117142D01*
X92883542Y-53146171D01*
X92854514Y-53175200D01*
X92825485Y-53233257D01*
X92796457Y-53349371D01*
X92767428Y-53407428D01*
X92738400Y-53436457D01*
X92680342Y-53465485D01*
X92622285Y-53465485D01*
X92564228Y-53436457D01*
X92535200Y-53407428D01*
X92506171Y-53349371D01*
X92506171Y-53204228D01*
X92535200Y-53117142D01*
X93115771Y-52855885D02*
X92506171Y-52855885D01*
X92506171Y-52623657D01*
X92535200Y-52565600D01*
X92564228Y-52536571D01*
X92622285Y-52507542D01*
X92709371Y-52507542D01*
X92767428Y-52536571D01*
X92796457Y-52565600D01*
X92825485Y-52623657D01*
X92825485Y-52855885D01*
X92941600Y-52275314D02*
X92941600Y-51985028D01*
X93115771Y-52333371D02*
X92506171Y-52130171D01*
X93115771Y-51926971D01*
X93115771Y-51375428D02*
X92825485Y-51578628D01*
X93115771Y-51723771D02*
X92506171Y-51723771D01*
X92506171Y-51491542D01*
X92535200Y-51433485D01*
X92564228Y-51404457D01*
X92622285Y-51375428D01*
X92709371Y-51375428D01*
X92767428Y-51404457D01*
X92796457Y-51433485D01*
X92825485Y-51491542D01*
X92825485Y-51723771D01*
X93115771Y-51114171D02*
X92506171Y-51114171D01*
X93115771Y-50765828D02*
X92767428Y-51027085D01*
X92506171Y-50765828D02*
X92854514Y-51114171D01*
X92796457Y-50301371D02*
X92796457Y-50504571D01*
X93115771Y-50504571D02*
X92506171Y-50504571D01*
X92506171Y-50214285D01*
X92506171Y-49982057D02*
X92999657Y-49982057D01*
X93057714Y-49953028D01*
X93086742Y-49924000D01*
X93115771Y-49865942D01*
X93115771Y-49749828D01*
X93086742Y-49691771D01*
X93057714Y-49662742D01*
X92999657Y-49633714D01*
X92506171Y-49633714D01*
X93115771Y-49343428D02*
X92506171Y-49343428D01*
X93115771Y-48995085D01*
X92506171Y-48995085D01*
X93173828Y-48849942D02*
X93173828Y-48385485D01*
X93115771Y-48240342D02*
X92506171Y-48240342D01*
X92506171Y-48008114D01*
X92535200Y-47950057D01*
X92564228Y-47921028D01*
X92622285Y-47892000D01*
X92709371Y-47892000D01*
X92767428Y-47921028D01*
X92796457Y-47950057D01*
X92825485Y-48008114D01*
X92825485Y-48240342D01*
X93115771Y-47282400D02*
X92825485Y-47485600D01*
X93115771Y-47630742D02*
X92506171Y-47630742D01*
X92506171Y-47398514D01*
X92535200Y-47340457D01*
X92564228Y-47311428D01*
X92622285Y-47282400D01*
X92709371Y-47282400D01*
X92767428Y-47311428D01*
X92796457Y-47340457D01*
X92825485Y-47398514D01*
X92825485Y-47630742D01*
X92506171Y-46905028D02*
X92506171Y-46788914D01*
X92535200Y-46730857D01*
X92593257Y-46672800D01*
X92709371Y-46643771D01*
X92912571Y-46643771D01*
X93028685Y-46672800D01*
X93086742Y-46730857D01*
X93115771Y-46788914D01*
X93115771Y-46905028D01*
X93086742Y-46963085D01*
X93028685Y-47021142D01*
X92912571Y-47050171D01*
X92709371Y-47050171D01*
X92593257Y-47021142D01*
X92535200Y-46963085D01*
X92506171Y-46905028D01*
X93173828Y-46527657D02*
X93173828Y-46063200D01*
X93115771Y-45918057D02*
X92506171Y-45918057D01*
X92941600Y-45714857D01*
X92506171Y-45511657D01*
X93115771Y-45511657D01*
X93115771Y-45221371D02*
X92506171Y-45221371D01*
X93057714Y-44582742D02*
X93086742Y-44611771D01*
X93115771Y-44698857D01*
X93115771Y-44756914D01*
X93086742Y-44844000D01*
X93028685Y-44902057D01*
X92970628Y-44931085D01*
X92854514Y-44960114D01*
X92767428Y-44960114D01*
X92651314Y-44931085D01*
X92593257Y-44902057D01*
X92535200Y-44844000D01*
X92506171Y-44756914D01*
X92506171Y-44698857D01*
X92535200Y-44611771D01*
X92564228Y-44582742D01*
X93115771Y-43973142D02*
X92825485Y-44176342D01*
X93115771Y-44321485D02*
X92506171Y-44321485D01*
X92506171Y-44089257D01*
X92535200Y-44031200D01*
X92564228Y-44002171D01*
X92622285Y-43973142D01*
X92709371Y-43973142D01*
X92767428Y-44002171D01*
X92796457Y-44031200D01*
X92825485Y-44089257D01*
X92825485Y-44321485D01*
X92506171Y-43595771D02*
X92506171Y-43479657D01*
X92535200Y-43421600D01*
X92593257Y-43363542D01*
X92709371Y-43334514D01*
X92912571Y-43334514D01*
X93028685Y-43363542D01*
X93086742Y-43421600D01*
X93115771Y-43479657D01*
X93115771Y-43595771D01*
X93086742Y-43653828D01*
X93028685Y-43711885D01*
X92912571Y-43740914D01*
X92709371Y-43740914D01*
X92593257Y-43711885D01*
X92535200Y-43653828D01*
X92506171Y-43595771D01*
D11*
%TO.C,U3*%
X157063095Y-81737380D02*
X157063095Y-82546904D01*
X157110714Y-82642142D01*
X157158333Y-82689761D01*
X157253571Y-82737380D01*
X157444047Y-82737380D01*
X157539285Y-82689761D01*
X157586904Y-82642142D01*
X157634523Y-82546904D01*
X157634523Y-81737380D01*
X158015476Y-81737380D02*
X158634523Y-81737380D01*
X158301190Y-82118333D01*
X158444047Y-82118333D01*
X158539285Y-82165952D01*
X158586904Y-82213571D01*
X158634523Y-82308809D01*
X158634523Y-82546904D01*
X158586904Y-82642142D01*
X158539285Y-82689761D01*
X158444047Y-82737380D01*
X158158333Y-82737380D01*
X158063095Y-82689761D01*
X158015476Y-82642142D01*
%TO.C,U1*%
X87063095Y-81737380D02*
X87063095Y-82546904D01*
X87110714Y-82642142D01*
X87158333Y-82689761D01*
X87253571Y-82737380D01*
X87444047Y-82737380D01*
X87539285Y-82689761D01*
X87586904Y-82642142D01*
X87634523Y-82546904D01*
X87634523Y-81737380D01*
X88634523Y-82737380D02*
X88063095Y-82737380D01*
X88348809Y-82737380D02*
X88348809Y-81737380D01*
X88253571Y-81880238D01*
X88158333Y-81975476D01*
X88063095Y-82023095D01*
%TO.C,R1*%
X127933333Y-65782380D02*
X127600000Y-65306190D01*
X127361904Y-65782380D02*
X127361904Y-64782380D01*
X127742857Y-64782380D01*
X127838095Y-64830000D01*
X127885714Y-64877619D01*
X127933333Y-64972857D01*
X127933333Y-65115714D01*
X127885714Y-65210952D01*
X127838095Y-65258571D01*
X127742857Y-65306190D01*
X127361904Y-65306190D01*
X128885714Y-65782380D02*
X128314285Y-65782380D01*
X128600000Y-65782380D02*
X128600000Y-64782380D01*
X128504761Y-64925238D01*
X128409523Y-65020476D01*
X128314285Y-65068095D01*
%TO.C,U2*%
X87063095Y-151737380D02*
X87063095Y-152546904D01*
X87110714Y-152642142D01*
X87158333Y-152689761D01*
X87253571Y-152737380D01*
X87444047Y-152737380D01*
X87539285Y-152689761D01*
X87586904Y-152642142D01*
X87634523Y-152546904D01*
X87634523Y-151737380D01*
X88063095Y-151832619D02*
X88110714Y-151785000D01*
X88205952Y-151737380D01*
X88444047Y-151737380D01*
X88539285Y-151785000D01*
X88586904Y-151832619D01*
X88634523Y-151927857D01*
X88634523Y-152023095D01*
X88586904Y-152165952D01*
X88015476Y-152737380D01*
X88634523Y-152737380D01*
%TO.C,J2*%
X184084053Y-111878819D02*
X184799177Y-111878819D01*
X184942201Y-111926494D01*
X185037551Y-112021844D01*
X185085226Y-112164868D01*
X185085226Y-112260218D01*
X184179403Y-111449745D02*
X184131728Y-111402070D01*
X184084053Y-111306720D01*
X184084053Y-111068345D01*
X184131728Y-110972996D01*
X184179403Y-110925321D01*
X184274753Y-110877646D01*
X184370103Y-110877646D01*
X184513127Y-110925321D01*
X185085226Y-111497420D01*
X185085226Y-110877646D01*
%TO.C,D2*%
X100295632Y-143350315D02*
X99295530Y-143350315D01*
X99295530Y-143112196D01*
X99343154Y-142969324D01*
X99438401Y-142874076D01*
X99533649Y-142826452D01*
X99724145Y-142778828D01*
X99867016Y-142778828D01*
X100057512Y-142826452D01*
X100152760Y-142874076D01*
X100248008Y-142969324D01*
X100295632Y-143112196D01*
X100295632Y-143350315D01*
X99390777Y-142397837D02*
X99343154Y-142350213D01*
X99295530Y-142254965D01*
X99295530Y-142016846D01*
X99343154Y-141921598D01*
X99390777Y-141873974D01*
X99486025Y-141826350D01*
X99581273Y-141826350D01*
X99724145Y-141873974D01*
X100295632Y-142445461D01*
X100295632Y-141826350D01*
%TO.C,J1*%
X66819423Y-110788629D02*
X67534547Y-110788629D01*
X67677571Y-110836304D01*
X67772921Y-110931654D01*
X67820596Y-111074678D01*
X67820596Y-111170028D01*
X67820596Y-109787456D02*
X67820596Y-110359555D01*
X67820596Y-110073505D02*
X66819423Y-110073505D01*
X66962448Y-110168855D01*
X67057798Y-110264205D01*
X67105473Y-110359555D01*
%TO.C,R2*%
X127953333Y-70382380D02*
X127620000Y-69906190D01*
X127381904Y-70382380D02*
X127381904Y-69382380D01*
X127762857Y-69382380D01*
X127858095Y-69430000D01*
X127905714Y-69477619D01*
X127953333Y-69572857D01*
X127953333Y-69715714D01*
X127905714Y-69810952D01*
X127858095Y-69858571D01*
X127762857Y-69906190D01*
X127381904Y-69906190D01*
X128334285Y-69477619D02*
X128381904Y-69430000D01*
X128477142Y-69382380D01*
X128715238Y-69382380D01*
X128810476Y-69430000D01*
X128858095Y-69477619D01*
X128905714Y-69572857D01*
X128905714Y-69668095D01*
X128858095Y-69810952D01*
X128286666Y-70382380D01*
X128905714Y-70382380D01*
%TO.C,U4*%
X157063095Y-151737380D02*
X157063095Y-152546904D01*
X157110714Y-152642142D01*
X157158333Y-152689761D01*
X157253571Y-152737380D01*
X157444047Y-152737380D01*
X157539285Y-152689761D01*
X157586904Y-152642142D01*
X157634523Y-152546904D01*
X157634523Y-151737380D01*
X158539285Y-152070714D02*
X158539285Y-152737380D01*
X158301190Y-151689761D02*
X158063095Y-152404047D01*
X158682142Y-152404047D01*
%TO.C,D4*%
X169833677Y-144325670D02*
X168833575Y-144325670D01*
X168833575Y-144087551D01*
X168881199Y-143944679D01*
X168976446Y-143849431D01*
X169071694Y-143801807D01*
X169262190Y-143754183D01*
X169405061Y-143754183D01*
X169595557Y-143801807D01*
X169690805Y-143849431D01*
X169786053Y-143944679D01*
X169833677Y-144087551D01*
X169833677Y-144325670D01*
X169166942Y-142896953D02*
X169833677Y-142896953D01*
X168785951Y-143135072D02*
X169500309Y-143373192D01*
X169500309Y-142754081D01*
D12*
%TO.C,D1*%
X97960000Y-101480000D02*
X97960000Y-100720000D01*
X97000000Y-105280000D02*
X97950000Y-105280000D01*
X96040000Y-101480000D02*
X96040000Y-100720000D01*
X97000000Y-105280000D02*
X97000000Y-106200000D01*
X97960000Y-105280000D02*
X97960000Y-104520000D01*
X96040000Y-105280000D02*
X97000000Y-105280000D01*
X97000000Y-100720000D02*
X97960000Y-100720000D01*
X97000000Y-99800000D02*
X97000000Y-100720000D01*
X96050000Y-100720000D02*
X97000000Y-100720000D01*
X96040000Y-105280000D02*
X96040000Y-104520000D01*
D13*
X97100000Y-108300000D02*
G75*
G03*
X97100000Y-108300000I-100000J0D01*
G01*
D12*
%TO.C,D3*%
X166040000Y-105280000D02*
X166040000Y-104520000D01*
X167960000Y-105280000D02*
X167960000Y-104520000D01*
X167960000Y-101480000D02*
X167960000Y-100720000D01*
X166040000Y-105280000D02*
X167000000Y-105280000D01*
X166040000Y-101480000D02*
X166040000Y-100720000D01*
X167000000Y-100720000D02*
X167960000Y-100720000D01*
X167000000Y-105280000D02*
X167950000Y-105280000D01*
X166050000Y-100720000D02*
X167000000Y-100720000D01*
X167000000Y-99800000D02*
X167000000Y-100720000D01*
X167000000Y-105280000D02*
X167000000Y-106200000D01*
D13*
X167100000Y-108300000D02*
G75*
G03*
X167100000Y-108300000I-100000J0D01*
G01*
D12*
%TO.C,U3*%
X153380000Y-95620000D02*
X153380000Y-80380000D01*
X168620000Y-95620000D02*
X153380000Y-95620000D01*
X153380000Y-80380000D02*
X168620000Y-80380000D01*
X168620000Y-80380000D02*
X168620000Y-95620000D01*
%TO.C,U1*%
X83380000Y-95620000D02*
X83380000Y-80380000D01*
X83380000Y-80380000D02*
X98620000Y-80380000D01*
X98620000Y-80380000D02*
X98620000Y-95620000D01*
X98620000Y-95620000D02*
X83380000Y-95620000D01*
D14*
%TO.C,R1*%
X124830000Y-66330000D02*
X124830000Y-69070000D01*
X131370000Y-66330000D02*
X124830000Y-66330000D01*
X132140000Y-67700000D02*
X131370000Y-67700000D01*
X131370000Y-69070000D02*
X131370000Y-66330000D01*
X124060000Y-67700000D02*
X124830000Y-67700000D01*
X124830000Y-69070000D02*
X131370000Y-69070000D01*
D12*
%TO.C,U2*%
X98620000Y-150380000D02*
X98620000Y-165620000D01*
X83380000Y-150380000D02*
X98620000Y-150380000D01*
X98620000Y-165620000D02*
X83380000Y-165620000D01*
X83380000Y-165620000D02*
X83380000Y-150380000D01*
%TO.C,J2*%
X186725000Y-113200000D02*
X186725000Y-114000000D01*
X186725000Y-108000000D02*
X189000000Y-108000000D01*
X186725000Y-114000000D02*
X189000000Y-114000000D01*
X190975000Y-112800000D02*
X190975000Y-109200000D01*
X186725000Y-108800000D02*
X186725000Y-108000000D01*
D10*
X186115000Y-113450000D02*
G75*
G03*
X186115000Y-113450000I-100000J0D01*
G01*
D12*
%TO.C,D2*%
X96040000Y-143520000D02*
X96040000Y-144280000D01*
X97000000Y-144280000D02*
X96040000Y-144280000D01*
X97000000Y-139720000D02*
X96050000Y-139720000D01*
X97000000Y-145200000D02*
X97000000Y-144280000D01*
X97950000Y-144280000D02*
X97000000Y-144280000D01*
X97960000Y-139720000D02*
X97960000Y-140480000D01*
X97960000Y-139720000D02*
X97000000Y-139720000D01*
X96040000Y-139720000D02*
X96040000Y-140480000D01*
X97000000Y-139720000D02*
X97000000Y-138800000D01*
X97960000Y-143520000D02*
X97960000Y-144280000D01*
D13*
X97100000Y-136700000D02*
G75*
G03*
X97100000Y-136700000I-100000J0D01*
G01*
D12*
%TO.C,J1*%
X65275000Y-114000000D02*
X63000000Y-114000000D01*
X65275000Y-108000000D02*
X63000000Y-108000000D01*
X61025000Y-109200000D02*
X61025000Y-112800000D01*
X65275000Y-108800000D02*
X65275000Y-108000000D01*
X65275000Y-113200000D02*
X65275000Y-114000000D01*
D10*
X66085000Y-108550000D02*
G75*
G03*
X66085000Y-108550000I-100000J0D01*
G01*
D14*
%TO.C,R2*%
X124850000Y-73670000D02*
X131390000Y-73670000D01*
X124080000Y-72300000D02*
X124850000Y-72300000D01*
X124850000Y-70930000D02*
X124850000Y-73670000D01*
X132160000Y-72300000D02*
X131390000Y-72300000D01*
X131390000Y-70930000D02*
X124850000Y-70930000D01*
X131390000Y-73670000D02*
X131390000Y-70930000D01*
D12*
%TO.C,U4*%
X153380000Y-150380000D02*
X168620000Y-150380000D01*
X168620000Y-150380000D02*
X168620000Y-165620000D01*
X153380000Y-165620000D02*
X153380000Y-150380000D01*
X168620000Y-165620000D02*
X153380000Y-165620000D01*
%TO.C,D4*%
X167000000Y-139720000D02*
X167000000Y-138800000D01*
X167000000Y-145200000D02*
X167000000Y-144280000D01*
X166040000Y-143520000D02*
X166040000Y-144280000D01*
X167960000Y-139720000D02*
X167960000Y-140480000D01*
X167960000Y-143520000D02*
X167960000Y-144280000D01*
X166040000Y-139720000D02*
X166040000Y-140480000D01*
X167000000Y-144280000D02*
X166040000Y-144280000D01*
X167950000Y-144280000D02*
X167000000Y-144280000D01*
X167960000Y-139720000D02*
X167000000Y-139720000D01*
X167000000Y-139720000D02*
X166050000Y-139720000D01*
D13*
X167100000Y-136700000D02*
G75*
G03*
X167100000Y-136700000I-100000J0D01*
G01*
%TD*%
M02*
