%TF.GenerationSoftware,KiCad,Pcbnew,(6.0.7)*%
%TF.CreationDate,2023-05-23T17:19:56-04:00*%
%TF.ProjectId,Big_Keys_Keyboard,4269675f-4b65-4797-935f-4b6579626f61,rev?*%
%TF.SameCoordinates,Original*%
%TF.FileFunction,Copper,L1,Top*%
%TF.FilePolarity,Positive*%
%FSLAX46Y46*%
G04 Gerber Fmt 4.6, Leading zero omitted, Abs format (unit mm)*
G04 Created by KiCad (PCBNEW (6.0.7)) date 2023-05-23 17:19:56*
%MOMM*%
%LPD*%
G01*
G04 APERTURE LIST*
%TA.AperFunction,ComponentPad*%
%ADD10C,1.238000*%
%TD*%
%TA.AperFunction,ComponentPad*%
%ADD11R,1.238000X1.238000*%
%TD*%
%TA.AperFunction,ComponentPad*%
%ADD12C,1.879600*%
%TD*%
%TA.AperFunction,ComponentPad*%
%ADD13C,1.508000*%
%TD*%
%TA.AperFunction,ComponentPad*%
%ADD14C,2.250000*%
%TD*%
%TA.AperFunction,Conductor*%
%ADD15C,0.381000*%
%TD*%
G04 APERTURE END LIST*
D10*
%TO.P,D1,A*%
%TO.N,Net-(D1-PadA)*%
X97000000Y-98854000D03*
D11*
%TO.P,D1,C*%
%TO.N,ROW1*%
X97000000Y-107146000D03*
%TD*%
D10*
%TO.P,D3,A*%
%TO.N,Net-(D3-PadA)*%
X167000000Y-98854000D03*
D11*
%TO.P,D3,C*%
%TO.N,ROW1*%
X167000000Y-107146000D03*
%TD*%
D12*
%TO.P,B1,1,TXO*%
%TO.N,unconnected-(B1-Pad1)*%
X81900000Y-56020000D03*
%TO.P,B1,2,RXI*%
%TO.N,unconnected-(B1-Pad2)*%
X84440000Y-56020000D03*
%TO.P,B1,3,GND*%
%TO.N,unconnected-(B1-Pad3)*%
X86980000Y-56020000D03*
%TO.P,B1,4,GND*%
%TO.N,unconnected-(B1-Pad4)*%
X89520000Y-56020000D03*
%TO.P,B1,5,2*%
%TO.N,unconnected-(B1-Pad5)*%
X92060000Y-56020000D03*
%TO.P,B1,6,\u002A3*%
%TO.N,unconnected-(B1-Pad6)*%
X94600000Y-56020000D03*
%TO.P,B1,7,4*%
%TO.N,ROW1*%
X97140000Y-56020000D03*
%TO.P,B1,8,\u002A5*%
%TO.N,ROW2*%
X99680000Y-56020000D03*
%TO.P,B1,9,\u002A6*%
%TO.N,COL1*%
X102220000Y-56020000D03*
%TO.P,B1,10,7*%
%TO.N,COL2*%
X104760000Y-56020000D03*
%TO.P,B1,11,8*%
%TO.N,unconnected-(B1-Pad11)*%
X107300000Y-56020000D03*
%TO.P,B1,12,\u002A9*%
%TO.N,unconnected-(B1-Pad12)*%
X109840000Y-56020000D03*
%TO.P,B1,13,\u002A10*%
%TO.N,unconnected-(B1-Pad13)*%
X109840000Y-40780000D03*
%TO.P,B1,14,11(MOSI)*%
%TO.N,unconnected-(B1-Pad14)*%
X107300000Y-40780000D03*
%TO.P,B1,15,12(MISO)*%
%TO.N,unconnected-(B1-Pad15)*%
X104760000Y-40780000D03*
%TO.P,B1,16,13(SCK)*%
%TO.N,unconnected-(B1-Pad16)*%
X102220000Y-40780000D03*
%TO.P,B1,17,A0*%
%TO.N,unconnected-(B1-Pad17)*%
X99680000Y-40780000D03*
%TO.P,B1,18,A1*%
%TO.N,unconnected-(B1-Pad18)*%
X97140000Y-40780000D03*
%TO.P,B1,19,A2*%
%TO.N,unconnected-(B1-Pad19)*%
X94600000Y-40780000D03*
%TO.P,B1,20,A3*%
%TO.N,unconnected-(B1-Pad20)*%
X92060000Y-40780000D03*
%TO.P,B1,21,VCC*%
%TO.N,unconnected-(B1-Pad21)*%
X89520000Y-40780000D03*
%TO.P,B1,22,RESET*%
%TO.N,unconnected-(B1-Pad22)*%
X86980000Y-40780000D03*
%TO.P,B1,23,GND*%
%TO.N,unconnected-(B1-Pad23)*%
X84440000Y-40780000D03*
%TO.P,B1,24,RAW*%
%TO.N,unconnected-(B1-Pad24)*%
X81900000Y-40780000D03*
%TD*%
D13*
%TO.P,U3,BR1*%
%TO.N,N/C*%
X157190000Y-93080000D03*
%TO.P,U3,BR2*%
X164810000Y-93080000D03*
D14*
%TO.P,U3,P$1*%
%TO.N,Net-(D3-PadA)*%
X163510000Y-82920000D03*
%TO.P,U3,P$2*%
%TO.N,COL2*%
X157190000Y-85460000D03*
%TD*%
D13*
%TO.P,U1,BR1*%
%TO.N,N/C*%
X87190000Y-93080000D03*
%TO.P,U1,BR2*%
X94810000Y-93080000D03*
D14*
%TO.P,U1,P$1*%
%TO.N,Net-(D1-PadA)*%
X93510000Y-82920000D03*
%TO.P,U1,P$2*%
%TO.N,COL1*%
X87190000Y-85460000D03*
%TD*%
D13*
%TO.P,U2,BR1*%
%TO.N,N/C*%
X87190000Y-163080000D03*
%TO.P,U2,BR2*%
X94810000Y-163080000D03*
D14*
%TO.P,U2,P$1*%
%TO.N,Net-(D2-PadA)*%
X93510000Y-152920000D03*
%TO.P,U2,P$2*%
%TO.N,COL1*%
X87190000Y-155460000D03*
%TD*%
D10*
%TO.P,D2,A*%
%TO.N,Net-(D2-PadA)*%
X97000000Y-146146000D03*
D11*
%TO.P,D2,C*%
%TO.N,ROW2*%
X97000000Y-137854000D03*
%TD*%
D13*
%TO.P,U4,BR1*%
%TO.N,N/C*%
X157190000Y-163080000D03*
%TO.P,U4,BR2*%
X164810000Y-163080000D03*
D14*
%TO.P,U4,P$1*%
%TO.N,Net-(D4-PadA)*%
X163510000Y-152920000D03*
%TO.P,U4,P$2*%
%TO.N,COL2*%
X157190000Y-155460000D03*
%TD*%
D10*
%TO.P,D4,A*%
%TO.N,Net-(D4-PadA)*%
X167000000Y-146146000D03*
D11*
%TO.P,D4,C*%
%TO.N,ROW2*%
X167000000Y-137854000D03*
%TD*%
D15*
%TO.N,ROW1*%
X101680146Y-102465854D02*
X97000000Y-107146000D01*
X101680146Y-75739854D02*
X97140000Y-71199708D01*
X97140000Y-71199708D02*
X97140000Y-56020000D01*
X101680146Y-75739854D02*
X101680146Y-102465854D01*
%TO.N,ROW2*%
X102600000Y-58940000D02*
X99680000Y-56020000D01*
X97000000Y-137854000D02*
X102600000Y-132254000D01*
X102600000Y-132254000D02*
X102600000Y-58940000D01*
%TO.N,COL1*%
X85725000Y-153995000D02*
X87190000Y-155460000D01*
X87190000Y-85460000D02*
X87782717Y-86052717D01*
X87782717Y-89917283D02*
X85725000Y-91975000D01*
X85725000Y-91975000D02*
X85725000Y-153995000D01*
X87782717Y-86052717D02*
X87782717Y-89917283D01*
%TO.N,COL2*%
X157190000Y-85460000D02*
X155075175Y-85460000D01*
X155075175Y-85460000D02*
X153760176Y-86774999D01*
X153760176Y-86774999D02*
X153760176Y-152030176D01*
X153760176Y-152030176D02*
X157190000Y-155460000D01*
%TO.N,Net-(D1-PadA)*%
X99588750Y-82920000D02*
X100806250Y-84137500D01*
X100806250Y-84137500D02*
X100806250Y-96837500D01*
X93510000Y-82920000D02*
X99588750Y-82920000D01*
X100806250Y-96837500D02*
X98789750Y-98854000D01*
X98789750Y-98854000D02*
X97000000Y-98854000D01*
%TO.N,Net-(D2-PadA)*%
X100806250Y-150812500D02*
X100806250Y-146843750D01*
X98698750Y-152920000D02*
X100806250Y-150812500D01*
X93510000Y-152920000D02*
X98698750Y-152920000D01*
X100108500Y-146146000D02*
X97000000Y-146146000D01*
X100806250Y-146843750D02*
X100108500Y-146146000D01*
%TO.N,Net-(D3-PadA)*%
X171450000Y-96837500D02*
X169433500Y-98854000D01*
X169433500Y-98854000D02*
X167000000Y-98854000D01*
X171450000Y-84137500D02*
X171450000Y-96837500D01*
X163510000Y-82920000D02*
X170232500Y-82920000D01*
X170232500Y-82920000D02*
X171450000Y-84137500D01*
%TO.N,Net-(D4-PadA)*%
X167755000Y-152920000D02*
X170656250Y-150018750D01*
X169164750Y-146146000D02*
X167000000Y-146146000D01*
X170656250Y-150018750D02*
X170656250Y-147637500D01*
X170656250Y-147637500D02*
X169164750Y-146146000D01*
X163510000Y-152920000D02*
X167755000Y-152920000D01*
%TD*%
M02*
