%TF.GenerationSoftware,KiCad,Pcbnew,(6.0.7)*%
%TF.CreationDate,2023-05-26T14:00:38-04:00*%
%TF.ProjectId,Big_Keys_Keyboard,4269675f-4b65-4797-935f-4b6579626f61,rev?*%
%TF.SameCoordinates,Original*%
%TF.FileFunction,Copper,L2,Bot*%
%TF.FilePolarity,Positive*%
%FSLAX46Y46*%
G04 Gerber Fmt 4.6, Leading zero omitted, Abs format (unit mm)*
G04 Created by KiCad (PCBNEW (6.0.7)) date 2023-05-26 14:00:38*
%MOMM*%
%LPD*%
G01*
G04 APERTURE LIST*
%TA.AperFunction,ComponentPad*%
%ADD10C,2.250000*%
%TD*%
%TA.AperFunction,ComponentPad*%
%ADD11C,1.508000*%
%TD*%
%TA.AperFunction,ComponentPad*%
%ADD12C,1.238000*%
%TD*%
%TA.AperFunction,ComponentPad*%
%ADD13R,1.238000X1.238000*%
%TD*%
%TA.AperFunction,ComponentPad*%
%ADD14C,1.879600*%
%TD*%
%TA.AperFunction,Conductor*%
%ADD15C,0.500000*%
%TD*%
G04 APERTURE END LIST*
D10*
%TO.P,U1,P$2*%
%TO.N,COL1*%
X87190000Y-85460000D03*
%TO.P,U1,P$1*%
%TO.N,Net-(D1-PadA)*%
X93510000Y-82920000D03*
D11*
%TO.P,U1,BR2*%
%TO.N,N/C*%
X94810000Y-93080000D03*
%TO.P,U1,BR1*%
X87190000Y-93080000D03*
%TD*%
D12*
%TO.P,D1,A*%
%TO.N,Net-(D1-PadA)*%
X97000000Y-98854000D03*
D13*
%TO.P,D1,C*%
%TO.N,ROW1*%
X97000000Y-107146000D03*
%TD*%
D12*
%TO.P,D3,A*%
%TO.N,Net-(D3-PadA)*%
X167000000Y-98854000D03*
D13*
%TO.P,D3,C*%
%TO.N,ROW1*%
X167000000Y-107146000D03*
%TD*%
D14*
%TO.P,B1,1,TXO*%
%TO.N,unconnected-(B1-Pad1)*%
X81900000Y-56020000D03*
%TO.P,B1,2,RXI*%
%TO.N,unconnected-(B1-Pad2)*%
X84440000Y-56020000D03*
%TO.P,B1,3,GND*%
%TO.N,GND*%
X86980000Y-56020000D03*
%TO.P,B1,4,GND*%
X89520000Y-56020000D03*
%TO.P,B1,5,2*%
%TO.N,unconnected-(B1-Pad5)*%
X92060000Y-56020000D03*
%TO.P,B1,6,\u002A3*%
%TO.N,unconnected-(B1-Pad6)*%
X94600000Y-56020000D03*
%TO.P,B1,7,4*%
%TO.N,ROW1*%
X97140000Y-56020000D03*
%TO.P,B1,8,\u002A5*%
%TO.N,ROW2*%
X99680000Y-56020000D03*
%TO.P,B1,9,\u002A6*%
%TO.N,COL1*%
X102220000Y-56020000D03*
%TO.P,B1,10,7*%
%TO.N,COL2*%
X104760000Y-56020000D03*
%TO.P,B1,11,8*%
%TO.N,unconnected-(B1-Pad11)*%
X107300000Y-56020000D03*
%TO.P,B1,12,\u002A9*%
%TO.N,unconnected-(B1-Pad12)*%
X109840000Y-56020000D03*
%TO.P,B1,13,\u002A10*%
%TO.N,unconnected-(B1-Pad13)*%
X109840000Y-40780000D03*
%TO.P,B1,14,11(MOSI)*%
%TO.N,unconnected-(B1-Pad14)*%
X107300000Y-40780000D03*
%TO.P,B1,15,12(MISO)*%
%TO.N,unconnected-(B1-Pad15)*%
X104760000Y-40780000D03*
%TO.P,B1,16,13(SCK)*%
%TO.N,unconnected-(B1-Pad16)*%
X102220000Y-40780000D03*
%TO.P,B1,17,A0*%
%TO.N,unconnected-(B1-Pad17)*%
X99680000Y-40780000D03*
%TO.P,B1,18,A1*%
%TO.N,unconnected-(B1-Pad18)*%
X97140000Y-40780000D03*
%TO.P,B1,19,A2*%
%TO.N,unconnected-(B1-Pad19)*%
X94600000Y-40780000D03*
%TO.P,B1,20,A3*%
%TO.N,unconnected-(B1-Pad20)*%
X92060000Y-40780000D03*
%TO.P,B1,21,VCC*%
%TO.N,unconnected-(B1-Pad21)*%
X89520000Y-40780000D03*
%TO.P,B1,22,RESET*%
%TO.N,unconnected-(B1-Pad22)*%
X86980000Y-40780000D03*
%TO.P,B1,23,GND*%
%TO.N,GND*%
X84440000Y-40780000D03*
%TO.P,B1,24,RAW*%
%TO.N,unconnected-(B1-Pad24)*%
X81900000Y-40780000D03*
%TD*%
D11*
%TO.P,U3,BR1*%
%TO.N,N/C*%
X157190000Y-93080000D03*
%TO.P,U3,BR2*%
X164810000Y-93080000D03*
D10*
%TO.P,U3,P$1*%
%TO.N,Net-(D3-PadA)*%
X163510000Y-82920000D03*
%TO.P,U3,P$2*%
%TO.N,COL2*%
X157190000Y-85460000D03*
%TD*%
D11*
%TO.P,U2,BR1*%
%TO.N,N/C*%
X87190000Y-163080000D03*
%TO.P,U2,BR2*%
X94810000Y-163080000D03*
D10*
%TO.P,U2,P$1*%
%TO.N,Net-(D2-PadA)*%
X93510000Y-152920000D03*
%TO.P,U2,P$2*%
%TO.N,COL1*%
X87190000Y-155460000D03*
%TD*%
D12*
%TO.P,D2,A*%
%TO.N,Net-(D2-PadA)*%
X97000000Y-146146000D03*
D13*
%TO.P,D2,C*%
%TO.N,ROW2*%
X97000000Y-137854000D03*
%TD*%
D11*
%TO.P,U4,BR1*%
%TO.N,N/C*%
X157190000Y-163080000D03*
%TO.P,U4,BR2*%
X164810000Y-163080000D03*
D10*
%TO.P,U4,P$1*%
%TO.N,Net-(D4-PadA)*%
X163510000Y-152920000D03*
%TO.P,U4,P$2*%
%TO.N,COL2*%
X157190000Y-155460000D03*
%TD*%
D12*
%TO.P,D4,A*%
%TO.N,Net-(D4-PadA)*%
X167000000Y-146146000D03*
D13*
%TO.P,D4,C*%
%TO.N,ROW2*%
X167000000Y-137854000D03*
%TD*%
D15*
%TO.N,ROW1*%
X97000000Y-107146000D02*
X167000000Y-107146000D01*
%TO.N,ROW2*%
X97000000Y-137854000D02*
X167000000Y-137854000D01*
%TO.N,COL1*%
X87190000Y-67010000D02*
X87190000Y-85460000D01*
X90080000Y-64120000D02*
X87190000Y-67010000D01*
X102220000Y-56020000D02*
X94120000Y-64120000D01*
X94120000Y-64120000D02*
X90080000Y-64120000D01*
%TO.N,COL2*%
X157190000Y-85460000D02*
X120260000Y-85460000D01*
X104760000Y-69960000D02*
X104760000Y-56020000D01*
X120260000Y-85460000D02*
X104760000Y-69960000D01*
%TD*%
%TA.AperFunction,Conductor*%
%TO.N,GND*%
G36*
X173970018Y-39010000D02*
G01*
X173984851Y-39012310D01*
X173984855Y-39012310D01*
X173993724Y-39013691D01*
X174008981Y-39011696D01*
X174034302Y-39010953D01*
X174203285Y-39023039D01*
X174221064Y-39025596D01*
X174411392Y-39066999D01*
X174428641Y-39072063D01*
X174611150Y-39140136D01*
X174627502Y-39147604D01*
X174798458Y-39240952D01*
X174813582Y-39250672D01*
X174969514Y-39367402D01*
X174983100Y-39379175D01*
X175120825Y-39516900D01*
X175132598Y-39530486D01*
X175249328Y-39686418D01*
X175259048Y-39701542D01*
X175352396Y-39872498D01*
X175359864Y-39888850D01*
X175427937Y-40071359D01*
X175433001Y-40088607D01*
X175474404Y-40278936D01*
X175476961Y-40296715D01*
X175488540Y-40458601D01*
X175487793Y-40476565D01*
X175487692Y-40484845D01*
X175486309Y-40493724D01*
X175489398Y-40517344D01*
X175490436Y-40525283D01*
X175491500Y-40541621D01*
X175491500Y-170950633D01*
X175490000Y-170970018D01*
X175487690Y-170984851D01*
X175487690Y-170984855D01*
X175486309Y-170993724D01*
X175488136Y-171007693D01*
X175488304Y-171008976D01*
X175489047Y-171034305D01*
X175476962Y-171203279D01*
X175474404Y-171221064D01*
X175456598Y-171302919D01*
X175433001Y-171411392D01*
X175427937Y-171428641D01*
X175359864Y-171611150D01*
X175352396Y-171627502D01*
X175259048Y-171798458D01*
X175249328Y-171813582D01*
X175132598Y-171969514D01*
X175120825Y-171983100D01*
X174983100Y-172120825D01*
X174969514Y-172132598D01*
X174813582Y-172249328D01*
X174798458Y-172259048D01*
X174627502Y-172352396D01*
X174611150Y-172359864D01*
X174428641Y-172427937D01*
X174411393Y-172433001D01*
X174221064Y-172474404D01*
X174203285Y-172476961D01*
X174041395Y-172488540D01*
X174023435Y-172487793D01*
X174015155Y-172487692D01*
X174006276Y-172486309D01*
X173974714Y-172490436D01*
X173958379Y-172491500D01*
X78049367Y-172491500D01*
X78029982Y-172490000D01*
X78015149Y-172487690D01*
X78015145Y-172487690D01*
X78006276Y-172486309D01*
X77991019Y-172488304D01*
X77965698Y-172489047D01*
X77796715Y-172476961D01*
X77778936Y-172474404D01*
X77588607Y-172433001D01*
X77571359Y-172427937D01*
X77388850Y-172359864D01*
X77372498Y-172352396D01*
X77201542Y-172259048D01*
X77186418Y-172249328D01*
X77030486Y-172132598D01*
X77016900Y-172120825D01*
X76879175Y-171983100D01*
X76867402Y-171969514D01*
X76750672Y-171813582D01*
X76740952Y-171798458D01*
X76647604Y-171627502D01*
X76640136Y-171611150D01*
X76572063Y-171428641D01*
X76566999Y-171411392D01*
X76543402Y-171302919D01*
X76525596Y-171221064D01*
X76523038Y-171203278D01*
X76511719Y-171045012D01*
X76512805Y-171022245D01*
X76512334Y-171022203D01*
X76512770Y-171017345D01*
X76513576Y-171012552D01*
X76513729Y-171000000D01*
X76509773Y-170972376D01*
X76508500Y-170954514D01*
X76508500Y-163080000D01*
X85922677Y-163080000D01*
X85941930Y-163300068D01*
X85999106Y-163513450D01*
X86092466Y-163713661D01*
X86219174Y-163894620D01*
X86375380Y-164050826D01*
X86379888Y-164053983D01*
X86379891Y-164053985D01*
X86551829Y-164174377D01*
X86556338Y-164177534D01*
X86561320Y-164179857D01*
X86561325Y-164179860D01*
X86751568Y-164268571D01*
X86756550Y-164270894D01*
X86761858Y-164272316D01*
X86761860Y-164272317D01*
X86827252Y-164289839D01*
X86969932Y-164328070D01*
X87190000Y-164347323D01*
X87410068Y-164328070D01*
X87552748Y-164289839D01*
X87618140Y-164272317D01*
X87618142Y-164272316D01*
X87623450Y-164270894D01*
X87628432Y-164268571D01*
X87818675Y-164179860D01*
X87818680Y-164179857D01*
X87823662Y-164177534D01*
X87828171Y-164174377D01*
X88000109Y-164053985D01*
X88000112Y-164053983D01*
X88004620Y-164050826D01*
X88160826Y-163894620D01*
X88287534Y-163713661D01*
X88380894Y-163513450D01*
X88438070Y-163300068D01*
X88457323Y-163080000D01*
X93542677Y-163080000D01*
X93561930Y-163300068D01*
X93619106Y-163513450D01*
X93712466Y-163713661D01*
X93839174Y-163894620D01*
X93995380Y-164050826D01*
X93999888Y-164053983D01*
X93999891Y-164053985D01*
X94171829Y-164174377D01*
X94176338Y-164177534D01*
X94181320Y-164179857D01*
X94181325Y-164179860D01*
X94371568Y-164268571D01*
X94376550Y-164270894D01*
X94381858Y-164272316D01*
X94381860Y-164272317D01*
X94447252Y-164289839D01*
X94589932Y-164328070D01*
X94810000Y-164347323D01*
X95030068Y-164328070D01*
X95172748Y-164289839D01*
X95238140Y-164272317D01*
X95238142Y-164272316D01*
X95243450Y-164270894D01*
X95248432Y-164268571D01*
X95438675Y-164179860D01*
X95438680Y-164179857D01*
X95443662Y-164177534D01*
X95448171Y-164174377D01*
X95620109Y-164053985D01*
X95620112Y-164053983D01*
X95624620Y-164050826D01*
X95780826Y-163894620D01*
X95907534Y-163713661D01*
X96000894Y-163513450D01*
X96058070Y-163300068D01*
X96077323Y-163080000D01*
X155922677Y-163080000D01*
X155941930Y-163300068D01*
X155999106Y-163513450D01*
X156092466Y-163713661D01*
X156219174Y-163894620D01*
X156375380Y-164050826D01*
X156379888Y-164053983D01*
X156379891Y-164053985D01*
X156551829Y-164174377D01*
X156556338Y-164177534D01*
X156561320Y-164179857D01*
X156561325Y-164179860D01*
X156751568Y-164268571D01*
X156756550Y-164270894D01*
X156761858Y-164272316D01*
X156761860Y-164272317D01*
X156827252Y-164289839D01*
X156969932Y-164328070D01*
X157190000Y-164347323D01*
X157410068Y-164328070D01*
X157552748Y-164289839D01*
X157618140Y-164272317D01*
X157618142Y-164272316D01*
X157623450Y-164270894D01*
X157628432Y-164268571D01*
X157818675Y-164179860D01*
X157818680Y-164179857D01*
X157823662Y-164177534D01*
X157828171Y-164174377D01*
X158000109Y-164053985D01*
X158000112Y-164053983D01*
X158004620Y-164050826D01*
X158160826Y-163894620D01*
X158287534Y-163713661D01*
X158380894Y-163513450D01*
X158438070Y-163300068D01*
X158457323Y-163080000D01*
X163542677Y-163080000D01*
X163561930Y-163300068D01*
X163619106Y-163513450D01*
X163712466Y-163713661D01*
X163839174Y-163894620D01*
X163995380Y-164050826D01*
X163999888Y-164053983D01*
X163999891Y-164053985D01*
X164171829Y-164174377D01*
X164176338Y-164177534D01*
X164181320Y-164179857D01*
X164181325Y-164179860D01*
X164371568Y-164268571D01*
X164376550Y-164270894D01*
X164381858Y-164272316D01*
X164381860Y-164272317D01*
X164447252Y-164289839D01*
X164589932Y-164328070D01*
X164810000Y-164347323D01*
X165030068Y-164328070D01*
X165172748Y-164289839D01*
X165238140Y-164272317D01*
X165238142Y-164272316D01*
X165243450Y-164270894D01*
X165248432Y-164268571D01*
X165438675Y-164179860D01*
X165438680Y-164179857D01*
X165443662Y-164177534D01*
X165448171Y-164174377D01*
X165620109Y-164053985D01*
X165620112Y-164053983D01*
X165624620Y-164050826D01*
X165780826Y-163894620D01*
X165907534Y-163713661D01*
X166000894Y-163513450D01*
X166058070Y-163300068D01*
X166077323Y-163080000D01*
X166058070Y-162859932D01*
X166000894Y-162646550D01*
X165907534Y-162446339D01*
X165780826Y-162265380D01*
X165624620Y-162109174D01*
X165620112Y-162106017D01*
X165620109Y-162106015D01*
X165448171Y-161985623D01*
X165448168Y-161985621D01*
X165443662Y-161982466D01*
X165438680Y-161980143D01*
X165438675Y-161980140D01*
X165248432Y-161891429D01*
X165248431Y-161891429D01*
X165243450Y-161889106D01*
X165238142Y-161887684D01*
X165238140Y-161887683D01*
X165172748Y-161870161D01*
X165030068Y-161831930D01*
X164810000Y-161812677D01*
X164589932Y-161831930D01*
X164447252Y-161870161D01*
X164381860Y-161887683D01*
X164381858Y-161887684D01*
X164376550Y-161889106D01*
X164371569Y-161891428D01*
X164371568Y-161891429D01*
X164181320Y-161980143D01*
X164181317Y-161980145D01*
X164176339Y-161982466D01*
X163995380Y-162109174D01*
X163839174Y-162265380D01*
X163712466Y-162446339D01*
X163619106Y-162646550D01*
X163561930Y-162859932D01*
X163542677Y-163080000D01*
X158457323Y-163080000D01*
X158438070Y-162859932D01*
X158380894Y-162646550D01*
X158287534Y-162446339D01*
X158160826Y-162265380D01*
X158004620Y-162109174D01*
X158000112Y-162106017D01*
X158000109Y-162106015D01*
X157828171Y-161985623D01*
X157828168Y-161985621D01*
X157823662Y-161982466D01*
X157818680Y-161980143D01*
X157818675Y-161980140D01*
X157628432Y-161891429D01*
X157628431Y-161891429D01*
X157623450Y-161889106D01*
X157618142Y-161887684D01*
X157618140Y-161887683D01*
X157552748Y-161870161D01*
X157410068Y-161831930D01*
X157190000Y-161812677D01*
X156969932Y-161831930D01*
X156827252Y-161870161D01*
X156761860Y-161887683D01*
X156761858Y-161887684D01*
X156756550Y-161889106D01*
X156751569Y-161891428D01*
X156751568Y-161891429D01*
X156561320Y-161980143D01*
X156561317Y-161980145D01*
X156556339Y-161982466D01*
X156375380Y-162109174D01*
X156219174Y-162265380D01*
X156092466Y-162446339D01*
X155999106Y-162646550D01*
X155941930Y-162859932D01*
X155922677Y-163080000D01*
X96077323Y-163080000D01*
X96058070Y-162859932D01*
X96000894Y-162646550D01*
X95907534Y-162446339D01*
X95780826Y-162265380D01*
X95624620Y-162109174D01*
X95620112Y-162106017D01*
X95620109Y-162106015D01*
X95448171Y-161985623D01*
X95448168Y-161985621D01*
X95443662Y-161982466D01*
X95438680Y-161980143D01*
X95438675Y-161980140D01*
X95248432Y-161891429D01*
X95248431Y-161891429D01*
X95243450Y-161889106D01*
X95238142Y-161887684D01*
X95238140Y-161887683D01*
X95172748Y-161870161D01*
X95030068Y-161831930D01*
X94810000Y-161812677D01*
X94589932Y-161831930D01*
X94447252Y-161870161D01*
X94381860Y-161887683D01*
X94381858Y-161887684D01*
X94376550Y-161889106D01*
X94371569Y-161891428D01*
X94371568Y-161891429D01*
X94181320Y-161980143D01*
X94181317Y-161980145D01*
X94176339Y-161982466D01*
X93995380Y-162109174D01*
X93839174Y-162265380D01*
X93712466Y-162446339D01*
X93619106Y-162646550D01*
X93561930Y-162859932D01*
X93542677Y-163080000D01*
X88457323Y-163080000D01*
X88438070Y-162859932D01*
X88380894Y-162646550D01*
X88287534Y-162446339D01*
X88160826Y-162265380D01*
X88004620Y-162109174D01*
X88000112Y-162106017D01*
X88000109Y-162106015D01*
X87828171Y-161985623D01*
X87828168Y-161985621D01*
X87823662Y-161982466D01*
X87818680Y-161980143D01*
X87818675Y-161980140D01*
X87628432Y-161891429D01*
X87628431Y-161891429D01*
X87623450Y-161889106D01*
X87618142Y-161887684D01*
X87618140Y-161887683D01*
X87552748Y-161870161D01*
X87410068Y-161831930D01*
X87190000Y-161812677D01*
X86969932Y-161831930D01*
X86827252Y-161870161D01*
X86761860Y-161887683D01*
X86761858Y-161887684D01*
X86756550Y-161889106D01*
X86751569Y-161891428D01*
X86751568Y-161891429D01*
X86561320Y-161980143D01*
X86561317Y-161980145D01*
X86556339Y-161982466D01*
X86375380Y-162109174D01*
X86219174Y-162265380D01*
X86092466Y-162446339D01*
X85999106Y-162646550D01*
X85941930Y-162859932D01*
X85922677Y-163080000D01*
X76508500Y-163080000D01*
X76508500Y-157935774D01*
X84638102Y-157935774D01*
X84646751Y-158166158D01*
X84694093Y-158391791D01*
X84778776Y-158606221D01*
X84898377Y-158803317D01*
X84901874Y-158807347D01*
X84988438Y-158907103D01*
X85049477Y-158977445D01*
X85053608Y-158980832D01*
X85223627Y-159120240D01*
X85223633Y-159120244D01*
X85227755Y-159123624D01*
X85232391Y-159126263D01*
X85232394Y-159126265D01*
X85341422Y-159188327D01*
X85428114Y-159237675D01*
X85644825Y-159316337D01*
X85650074Y-159317286D01*
X85650077Y-159317287D01*
X85867608Y-159356623D01*
X85867615Y-159356624D01*
X85871692Y-159357361D01*
X85889414Y-159358197D01*
X85894356Y-159358430D01*
X85894363Y-159358430D01*
X85895844Y-159358500D01*
X86057890Y-159358500D01*
X86124809Y-159352822D01*
X86224409Y-159344371D01*
X86224413Y-159344370D01*
X86229720Y-159343920D01*
X86234875Y-159342582D01*
X86234881Y-159342581D01*
X86447703Y-159287343D01*
X86447707Y-159287342D01*
X86452872Y-159286001D01*
X86457738Y-159283809D01*
X86457741Y-159283808D01*
X86658202Y-159193507D01*
X86663075Y-159191312D01*
X86854319Y-159062559D01*
X87021135Y-158903424D01*
X87158754Y-158718458D01*
X87263240Y-158512949D01*
X87276274Y-158470975D01*
X87330024Y-158297871D01*
X87331607Y-158292773D01*
X87332308Y-158287484D01*
X87349493Y-158157821D01*
X88491500Y-158157821D01*
X88531060Y-158470975D01*
X88609557Y-158776702D01*
X88611010Y-158780371D01*
X88611010Y-158780372D01*
X88721279Y-159058878D01*
X88725753Y-159070179D01*
X88727659Y-159073647D01*
X88727660Y-159073648D01*
X88861603Y-159317287D01*
X88877816Y-159346779D01*
X89063346Y-159602140D01*
X89279418Y-159832233D01*
X89522625Y-160033432D01*
X89789131Y-160202562D01*
X89792710Y-160204246D01*
X89792717Y-160204250D01*
X90071144Y-160335267D01*
X90071148Y-160335269D01*
X90074734Y-160336956D01*
X90374928Y-160434495D01*
X90684980Y-160493641D01*
X90921162Y-160508500D01*
X91078838Y-160508500D01*
X91315020Y-160493641D01*
X91625072Y-160434495D01*
X91925266Y-160336956D01*
X91928852Y-160335269D01*
X91928856Y-160335267D01*
X92207283Y-160204250D01*
X92207290Y-160204246D01*
X92210869Y-160202562D01*
X92477375Y-160033432D01*
X92720582Y-159832233D01*
X92936654Y-159602140D01*
X93122184Y-159346779D01*
X93138398Y-159317287D01*
X93272340Y-159073648D01*
X93272341Y-159073647D01*
X93274247Y-159070179D01*
X93278722Y-159058878D01*
X93388990Y-158780372D01*
X93388990Y-158780371D01*
X93390443Y-158776702D01*
X93468940Y-158470975D01*
X93508500Y-158157821D01*
X93508500Y-157935774D01*
X94638102Y-157935774D01*
X94646751Y-158166158D01*
X94694093Y-158391791D01*
X94778776Y-158606221D01*
X94898377Y-158803317D01*
X94901874Y-158807347D01*
X94988438Y-158907103D01*
X95049477Y-158977445D01*
X95053608Y-158980832D01*
X95223627Y-159120240D01*
X95223633Y-159120244D01*
X95227755Y-159123624D01*
X95232391Y-159126263D01*
X95232394Y-159126265D01*
X95341422Y-159188327D01*
X95428114Y-159237675D01*
X95644825Y-159316337D01*
X95650074Y-159317286D01*
X95650077Y-159317287D01*
X95867608Y-159356623D01*
X95867615Y-159356624D01*
X95871692Y-159357361D01*
X95889414Y-159358197D01*
X95894356Y-159358430D01*
X95894363Y-159358430D01*
X95895844Y-159358500D01*
X96057890Y-159358500D01*
X96124809Y-159352822D01*
X96224409Y-159344371D01*
X96224413Y-159344370D01*
X96229720Y-159343920D01*
X96234875Y-159342582D01*
X96234881Y-159342581D01*
X96447703Y-159287343D01*
X96447707Y-159287342D01*
X96452872Y-159286001D01*
X96457738Y-159283809D01*
X96457741Y-159283808D01*
X96658202Y-159193507D01*
X96663075Y-159191312D01*
X96854319Y-159062559D01*
X97021135Y-158903424D01*
X97158754Y-158718458D01*
X97263240Y-158512949D01*
X97276274Y-158470975D01*
X97330024Y-158297871D01*
X97331607Y-158292773D01*
X97332308Y-158287484D01*
X97361198Y-158069511D01*
X97361198Y-158069506D01*
X97361898Y-158064226D01*
X97357076Y-157935774D01*
X154638102Y-157935774D01*
X154646751Y-158166158D01*
X154694093Y-158391791D01*
X154778776Y-158606221D01*
X154898377Y-158803317D01*
X154901874Y-158807347D01*
X154988438Y-158907103D01*
X155049477Y-158977445D01*
X155053608Y-158980832D01*
X155223627Y-159120240D01*
X155223633Y-159120244D01*
X155227755Y-159123624D01*
X155232391Y-159126263D01*
X155232394Y-159126265D01*
X155341422Y-159188327D01*
X155428114Y-159237675D01*
X155644825Y-159316337D01*
X155650074Y-159317286D01*
X155650077Y-159317287D01*
X155867608Y-159356623D01*
X155867615Y-159356624D01*
X155871692Y-159357361D01*
X155889414Y-159358197D01*
X155894356Y-159358430D01*
X155894363Y-159358430D01*
X155895844Y-159358500D01*
X156057890Y-159358500D01*
X156124809Y-159352822D01*
X156224409Y-159344371D01*
X156224413Y-159344370D01*
X156229720Y-159343920D01*
X156234875Y-159342582D01*
X156234881Y-159342581D01*
X156447703Y-159287343D01*
X156447707Y-159287342D01*
X156452872Y-159286001D01*
X156457738Y-159283809D01*
X156457741Y-159283808D01*
X156658202Y-159193507D01*
X156663075Y-159191312D01*
X156854319Y-159062559D01*
X157021135Y-158903424D01*
X157158754Y-158718458D01*
X157263240Y-158512949D01*
X157276274Y-158470975D01*
X157330024Y-158297871D01*
X157331607Y-158292773D01*
X157332308Y-158287484D01*
X157349493Y-158157821D01*
X158491500Y-158157821D01*
X158531060Y-158470975D01*
X158609557Y-158776702D01*
X158611010Y-158780371D01*
X158611010Y-158780372D01*
X158721279Y-159058878D01*
X158725753Y-159070179D01*
X158727659Y-159073647D01*
X158727660Y-159073648D01*
X158861603Y-159317287D01*
X158877816Y-159346779D01*
X159063346Y-159602140D01*
X159279418Y-159832233D01*
X159522625Y-160033432D01*
X159789131Y-160202562D01*
X159792710Y-160204246D01*
X159792717Y-160204250D01*
X160071144Y-160335267D01*
X160071148Y-160335269D01*
X160074734Y-160336956D01*
X160374928Y-160434495D01*
X160684980Y-160493641D01*
X160921162Y-160508500D01*
X161078838Y-160508500D01*
X161315020Y-160493641D01*
X161625072Y-160434495D01*
X161925266Y-160336956D01*
X161928852Y-160335269D01*
X161928856Y-160335267D01*
X162207283Y-160204250D01*
X162207290Y-160204246D01*
X162210869Y-160202562D01*
X162477375Y-160033432D01*
X162720582Y-159832233D01*
X162936654Y-159602140D01*
X163122184Y-159346779D01*
X163138398Y-159317287D01*
X163272340Y-159073648D01*
X163272341Y-159073647D01*
X163274247Y-159070179D01*
X163278722Y-159058878D01*
X163388990Y-158780372D01*
X163388990Y-158780371D01*
X163390443Y-158776702D01*
X163468940Y-158470975D01*
X163508500Y-158157821D01*
X163508500Y-157935774D01*
X164638102Y-157935774D01*
X164646751Y-158166158D01*
X164694093Y-158391791D01*
X164778776Y-158606221D01*
X164898377Y-158803317D01*
X164901874Y-158807347D01*
X164988438Y-158907103D01*
X165049477Y-158977445D01*
X165053608Y-158980832D01*
X165223627Y-159120240D01*
X165223633Y-159120244D01*
X165227755Y-159123624D01*
X165232391Y-159126263D01*
X165232394Y-159126265D01*
X165341422Y-159188327D01*
X165428114Y-159237675D01*
X165644825Y-159316337D01*
X165650074Y-159317286D01*
X165650077Y-159317287D01*
X165867608Y-159356623D01*
X165867615Y-159356624D01*
X165871692Y-159357361D01*
X165889414Y-159358197D01*
X165894356Y-159358430D01*
X165894363Y-159358430D01*
X165895844Y-159358500D01*
X166057890Y-159358500D01*
X166124809Y-159352822D01*
X166224409Y-159344371D01*
X166224413Y-159344370D01*
X166229720Y-159343920D01*
X166234875Y-159342582D01*
X166234881Y-159342581D01*
X166447703Y-159287343D01*
X166447707Y-159287342D01*
X166452872Y-159286001D01*
X166457738Y-159283809D01*
X166457741Y-159283808D01*
X166658202Y-159193507D01*
X166663075Y-159191312D01*
X166854319Y-159062559D01*
X167021135Y-158903424D01*
X167158754Y-158718458D01*
X167263240Y-158512949D01*
X167276274Y-158470975D01*
X167330024Y-158297871D01*
X167331607Y-158292773D01*
X167332308Y-158287484D01*
X167361198Y-158069511D01*
X167361198Y-158069506D01*
X167361898Y-158064226D01*
X167353249Y-157833842D01*
X167305907Y-157608209D01*
X167221224Y-157393779D01*
X167101623Y-157196683D01*
X167098126Y-157192653D01*
X166954023Y-157026588D01*
X166954021Y-157026586D01*
X166950523Y-157022555D01*
X166908970Y-156988484D01*
X166776373Y-156879760D01*
X166776367Y-156879756D01*
X166772245Y-156876376D01*
X166767609Y-156873737D01*
X166767606Y-156873735D01*
X166576529Y-156764968D01*
X166571886Y-156762325D01*
X166355175Y-156683663D01*
X166349926Y-156682714D01*
X166349923Y-156682713D01*
X166132392Y-156643377D01*
X166132385Y-156643376D01*
X166128308Y-156642639D01*
X166110586Y-156641803D01*
X166105644Y-156641570D01*
X166105637Y-156641570D01*
X166104156Y-156641500D01*
X165942110Y-156641500D01*
X165875191Y-156647178D01*
X165775591Y-156655629D01*
X165775587Y-156655630D01*
X165770280Y-156656080D01*
X165765125Y-156657418D01*
X165765119Y-156657419D01*
X165552297Y-156712657D01*
X165552293Y-156712658D01*
X165547128Y-156713999D01*
X165542262Y-156716191D01*
X165542259Y-156716192D01*
X165433980Y-156764968D01*
X165336925Y-156808688D01*
X165145681Y-156937441D01*
X164978865Y-157096576D01*
X164841246Y-157281542D01*
X164736760Y-157487051D01*
X164735178Y-157492145D01*
X164735177Y-157492148D01*
X164673115Y-157692020D01*
X164668393Y-157707227D01*
X164667692Y-157712516D01*
X164652304Y-157828623D01*
X164638102Y-157935774D01*
X163508500Y-157935774D01*
X163508500Y-157842179D01*
X163468940Y-157529025D01*
X163390443Y-157223298D01*
X163340270Y-157096576D01*
X163275702Y-156933495D01*
X163275700Y-156933490D01*
X163274247Y-156929821D01*
X163207653Y-156808688D01*
X163124093Y-156656693D01*
X163124091Y-156656690D01*
X163122184Y-156653221D01*
X162957734Y-156426874D01*
X162938982Y-156401064D01*
X162938981Y-156401062D01*
X162936654Y-156397860D01*
X162720582Y-156167767D01*
X162477375Y-155966568D01*
X162210869Y-155797438D01*
X162207290Y-155795754D01*
X162207283Y-155795750D01*
X161928856Y-155664733D01*
X161928852Y-155664731D01*
X161925266Y-155663044D01*
X161625072Y-155565505D01*
X161315020Y-155506359D01*
X161078838Y-155491500D01*
X160921162Y-155491500D01*
X160684980Y-155506359D01*
X160374928Y-155565505D01*
X160074734Y-155663044D01*
X160071148Y-155664731D01*
X160071144Y-155664733D01*
X159792717Y-155795750D01*
X159792710Y-155795754D01*
X159789131Y-155797438D01*
X159522625Y-155966568D01*
X159279418Y-156167767D01*
X159063346Y-156397860D01*
X159061019Y-156401062D01*
X159061018Y-156401064D01*
X159042266Y-156426874D01*
X158877816Y-156653221D01*
X158875909Y-156656690D01*
X158875907Y-156656693D01*
X158792347Y-156808688D01*
X158725753Y-156929821D01*
X158724300Y-156933490D01*
X158724298Y-156933495D01*
X158659730Y-157096576D01*
X158609557Y-157223298D01*
X158531060Y-157529025D01*
X158491500Y-157842179D01*
X158491500Y-158157821D01*
X157349493Y-158157821D01*
X157361198Y-158069511D01*
X157361198Y-158069506D01*
X157361898Y-158064226D01*
X157353249Y-157833842D01*
X157305907Y-157608209D01*
X157221224Y-157393779D01*
X157154964Y-157284585D01*
X157136725Y-157215973D01*
X157158476Y-157148391D01*
X157213312Y-157103296D01*
X157252797Y-157093609D01*
X157316965Y-157088559D01*
X157446326Y-157078378D01*
X157451133Y-157077224D01*
X157451139Y-157077223D01*
X157609498Y-157039204D01*
X157696340Y-157018355D01*
X157700913Y-157016461D01*
X157929313Y-156921855D01*
X157929317Y-156921853D01*
X157933887Y-156919960D01*
X158153116Y-156785616D01*
X158348631Y-156618631D01*
X158515616Y-156423116D01*
X158649960Y-156203887D01*
X158664922Y-156167767D01*
X158746461Y-155970913D01*
X158746462Y-155970911D01*
X158748355Y-155966340D01*
X158808378Y-155716326D01*
X158828551Y-155460000D01*
X158808378Y-155203674D01*
X158748355Y-154953660D01*
X158649960Y-154716113D01*
X158515616Y-154496884D01*
X158348631Y-154301369D01*
X158153116Y-154134384D01*
X157933887Y-154000040D01*
X157929317Y-153998147D01*
X157929313Y-153998145D01*
X157700913Y-153903539D01*
X157700911Y-153903538D01*
X157696340Y-153901645D01*
X157601596Y-153878899D01*
X157451139Y-153842777D01*
X157451133Y-153842776D01*
X157446326Y-153841622D01*
X157190000Y-153821449D01*
X156933674Y-153841622D01*
X156928867Y-153842776D01*
X156928861Y-153842777D01*
X156778404Y-153878899D01*
X156683660Y-153901645D01*
X156679089Y-153903538D01*
X156679087Y-153903539D01*
X156450687Y-153998145D01*
X156450683Y-153998147D01*
X156446113Y-154000040D01*
X156226884Y-154134384D01*
X156031369Y-154301369D01*
X155864384Y-154496884D01*
X155730040Y-154716113D01*
X155631645Y-154953660D01*
X155571622Y-155203674D01*
X155551449Y-155460000D01*
X155571622Y-155716326D01*
X155631645Y-155966340D01*
X155633538Y-155970911D01*
X155633539Y-155970913D01*
X155715079Y-156167767D01*
X155730040Y-156203887D01*
X155864384Y-156423116D01*
X155884156Y-156446266D01*
X155913186Y-156511051D01*
X155902582Y-156581251D01*
X155855708Y-156634574D01*
X155798998Y-156653643D01*
X155775591Y-156655629D01*
X155775587Y-156655630D01*
X155770280Y-156656080D01*
X155765125Y-156657418D01*
X155765119Y-156657419D01*
X155552297Y-156712657D01*
X155552293Y-156712658D01*
X155547128Y-156713999D01*
X155542262Y-156716191D01*
X155542259Y-156716192D01*
X155433980Y-156764968D01*
X155336925Y-156808688D01*
X155145681Y-156937441D01*
X154978865Y-157096576D01*
X154841246Y-157281542D01*
X154736760Y-157487051D01*
X154735178Y-157492145D01*
X154735177Y-157492148D01*
X154673115Y-157692020D01*
X154668393Y-157707227D01*
X154667692Y-157712516D01*
X154652304Y-157828623D01*
X154638102Y-157935774D01*
X97357076Y-157935774D01*
X97353249Y-157833842D01*
X97305907Y-157608209D01*
X97221224Y-157393779D01*
X97101623Y-157196683D01*
X97098126Y-157192653D01*
X96954023Y-157026588D01*
X96954021Y-157026586D01*
X96950523Y-157022555D01*
X96908970Y-156988484D01*
X96776373Y-156879760D01*
X96776367Y-156879756D01*
X96772245Y-156876376D01*
X96767609Y-156873737D01*
X96767606Y-156873735D01*
X96576529Y-156764968D01*
X96571886Y-156762325D01*
X96355175Y-156683663D01*
X96349926Y-156682714D01*
X96349923Y-156682713D01*
X96132392Y-156643377D01*
X96132385Y-156643376D01*
X96128308Y-156642639D01*
X96110586Y-156641803D01*
X96105644Y-156641570D01*
X96105637Y-156641570D01*
X96104156Y-156641500D01*
X95942110Y-156641500D01*
X95875191Y-156647178D01*
X95775591Y-156655629D01*
X95775587Y-156655630D01*
X95770280Y-156656080D01*
X95765125Y-156657418D01*
X95765119Y-156657419D01*
X95552297Y-156712657D01*
X95552293Y-156712658D01*
X95547128Y-156713999D01*
X95542262Y-156716191D01*
X95542259Y-156716192D01*
X95433980Y-156764968D01*
X95336925Y-156808688D01*
X95145681Y-156937441D01*
X94978865Y-157096576D01*
X94841246Y-157281542D01*
X94736760Y-157487051D01*
X94735178Y-157492145D01*
X94735177Y-157492148D01*
X94673115Y-157692020D01*
X94668393Y-157707227D01*
X94667692Y-157712516D01*
X94652304Y-157828623D01*
X94638102Y-157935774D01*
X93508500Y-157935774D01*
X93508500Y-157842179D01*
X93468940Y-157529025D01*
X93390443Y-157223298D01*
X93340270Y-157096576D01*
X93275702Y-156933495D01*
X93275700Y-156933490D01*
X93274247Y-156929821D01*
X93207653Y-156808688D01*
X93124093Y-156656693D01*
X93124091Y-156656690D01*
X93122184Y-156653221D01*
X92957734Y-156426874D01*
X92938982Y-156401064D01*
X92938981Y-156401062D01*
X92936654Y-156397860D01*
X92720582Y-156167767D01*
X92477375Y-155966568D01*
X92210869Y-155797438D01*
X92207290Y-155795754D01*
X92207283Y-155795750D01*
X91928856Y-155664733D01*
X91928852Y-155664731D01*
X91925266Y-155663044D01*
X91625072Y-155565505D01*
X91315020Y-155506359D01*
X91078838Y-155491500D01*
X90921162Y-155491500D01*
X90684980Y-155506359D01*
X90374928Y-155565505D01*
X90074734Y-155663044D01*
X90071148Y-155664731D01*
X90071144Y-155664733D01*
X89792717Y-155795750D01*
X89792710Y-155795754D01*
X89789131Y-155797438D01*
X89522625Y-155966568D01*
X89279418Y-156167767D01*
X89063346Y-156397860D01*
X89061019Y-156401062D01*
X89061018Y-156401064D01*
X89042266Y-156426874D01*
X88877816Y-156653221D01*
X88875909Y-156656690D01*
X88875907Y-156656693D01*
X88792347Y-156808688D01*
X88725753Y-156929821D01*
X88724300Y-156933490D01*
X88724298Y-156933495D01*
X88659730Y-157096576D01*
X88609557Y-157223298D01*
X88531060Y-157529025D01*
X88491500Y-157842179D01*
X88491500Y-158157821D01*
X87349493Y-158157821D01*
X87361198Y-158069511D01*
X87361198Y-158069506D01*
X87361898Y-158064226D01*
X87353249Y-157833842D01*
X87305907Y-157608209D01*
X87221224Y-157393779D01*
X87154964Y-157284585D01*
X87136725Y-157215973D01*
X87158476Y-157148391D01*
X87213312Y-157103296D01*
X87252797Y-157093609D01*
X87316965Y-157088559D01*
X87446326Y-157078378D01*
X87451133Y-157077224D01*
X87451139Y-157077223D01*
X87609498Y-157039204D01*
X87696340Y-157018355D01*
X87700913Y-157016461D01*
X87929313Y-156921855D01*
X87929317Y-156921853D01*
X87933887Y-156919960D01*
X88153116Y-156785616D01*
X88348631Y-156618631D01*
X88515616Y-156423116D01*
X88649960Y-156203887D01*
X88664922Y-156167767D01*
X88746461Y-155970913D01*
X88746462Y-155970911D01*
X88748355Y-155966340D01*
X88808378Y-155716326D01*
X88828551Y-155460000D01*
X88808378Y-155203674D01*
X88748355Y-154953660D01*
X88649960Y-154716113D01*
X88515616Y-154496884D01*
X88348631Y-154301369D01*
X88153116Y-154134384D01*
X87933887Y-154000040D01*
X87929317Y-153998147D01*
X87929313Y-153998145D01*
X87700913Y-153903539D01*
X87700911Y-153903538D01*
X87696340Y-153901645D01*
X87601596Y-153878899D01*
X87451139Y-153842777D01*
X87451133Y-153842776D01*
X87446326Y-153841622D01*
X87190000Y-153821449D01*
X86933674Y-153841622D01*
X86928867Y-153842776D01*
X86928861Y-153842777D01*
X86778404Y-153878899D01*
X86683660Y-153901645D01*
X86679089Y-153903538D01*
X86679087Y-153903539D01*
X86450687Y-153998145D01*
X86450683Y-153998147D01*
X86446113Y-154000040D01*
X86226884Y-154134384D01*
X86031369Y-154301369D01*
X85864384Y-154496884D01*
X85730040Y-154716113D01*
X85631645Y-154953660D01*
X85571622Y-155203674D01*
X85551449Y-155460000D01*
X85571622Y-155716326D01*
X85631645Y-155966340D01*
X85633538Y-155970911D01*
X85633539Y-155970913D01*
X85715079Y-156167767D01*
X85730040Y-156203887D01*
X85864384Y-156423116D01*
X85884156Y-156446266D01*
X85913186Y-156511051D01*
X85902582Y-156581251D01*
X85855708Y-156634574D01*
X85798998Y-156653643D01*
X85775591Y-156655629D01*
X85775587Y-156655630D01*
X85770280Y-156656080D01*
X85765125Y-156657418D01*
X85765119Y-156657419D01*
X85552297Y-156712657D01*
X85552293Y-156712658D01*
X85547128Y-156713999D01*
X85542262Y-156716191D01*
X85542259Y-156716192D01*
X85433980Y-156764968D01*
X85336925Y-156808688D01*
X85145681Y-156937441D01*
X84978865Y-157096576D01*
X84841246Y-157281542D01*
X84736760Y-157487051D01*
X84735178Y-157492145D01*
X84735177Y-157492148D01*
X84673115Y-157692020D01*
X84668393Y-157707227D01*
X84667692Y-157712516D01*
X84652304Y-157828623D01*
X84638102Y-157935774D01*
X76508500Y-157935774D01*
X76508500Y-152920000D01*
X91871449Y-152920000D01*
X91891622Y-153176326D01*
X91951645Y-153426340D01*
X92050040Y-153663887D01*
X92184384Y-153883116D01*
X92351369Y-154078631D01*
X92546884Y-154245616D01*
X92766113Y-154379960D01*
X92770683Y-154381853D01*
X92770687Y-154381855D01*
X92999087Y-154476461D01*
X93003660Y-154478355D01*
X93065157Y-154493119D01*
X93248861Y-154537223D01*
X93248867Y-154537224D01*
X93253674Y-154538378D01*
X93510000Y-154558551D01*
X93766326Y-154538378D01*
X93771133Y-154537224D01*
X93771139Y-154537223D01*
X93954843Y-154493119D01*
X94016340Y-154478355D01*
X94020913Y-154476461D01*
X94249313Y-154381855D01*
X94249317Y-154381853D01*
X94253887Y-154379960D01*
X94473116Y-154245616D01*
X94668631Y-154078631D01*
X94835616Y-153883116D01*
X94969960Y-153663887D01*
X95068355Y-153426340D01*
X95128378Y-153176326D01*
X95148551Y-152920000D01*
X161871449Y-152920000D01*
X161891622Y-153176326D01*
X161951645Y-153426340D01*
X162050040Y-153663887D01*
X162184384Y-153883116D01*
X162351369Y-154078631D01*
X162546884Y-154245616D01*
X162766113Y-154379960D01*
X162770683Y-154381853D01*
X162770687Y-154381855D01*
X162999087Y-154476461D01*
X163003660Y-154478355D01*
X163065157Y-154493119D01*
X163248861Y-154537223D01*
X163248867Y-154537224D01*
X163253674Y-154538378D01*
X163510000Y-154558551D01*
X163766326Y-154538378D01*
X163771133Y-154537224D01*
X163771139Y-154537223D01*
X163954843Y-154493119D01*
X164016340Y-154478355D01*
X164020913Y-154476461D01*
X164249313Y-154381855D01*
X164249317Y-154381853D01*
X164253887Y-154379960D01*
X164473116Y-154245616D01*
X164668631Y-154078631D01*
X164835616Y-153883116D01*
X164969960Y-153663887D01*
X165068355Y-153426340D01*
X165128378Y-153176326D01*
X165148551Y-152920000D01*
X165128378Y-152663674D01*
X165068355Y-152413660D01*
X164969960Y-152176113D01*
X164835616Y-151956884D01*
X164668631Y-151761369D01*
X164473116Y-151594384D01*
X164253887Y-151460040D01*
X164249317Y-151458147D01*
X164249313Y-151458145D01*
X164020913Y-151363539D01*
X164020911Y-151363538D01*
X164016340Y-151361645D01*
X163929498Y-151340796D01*
X163771139Y-151302777D01*
X163771133Y-151302776D01*
X163766326Y-151301622D01*
X163510000Y-151281449D01*
X163253674Y-151301622D01*
X163248867Y-151302776D01*
X163248861Y-151302777D01*
X163090502Y-151340796D01*
X163003660Y-151361645D01*
X162999089Y-151363538D01*
X162999087Y-151363539D01*
X162770687Y-151458145D01*
X162770683Y-151458147D01*
X162766113Y-151460040D01*
X162546884Y-151594384D01*
X162351369Y-151761369D01*
X162184384Y-151956884D01*
X162050040Y-152176113D01*
X161951645Y-152413660D01*
X161891622Y-152663674D01*
X161871449Y-152920000D01*
X95148551Y-152920000D01*
X95128378Y-152663674D01*
X95068355Y-152413660D01*
X94969960Y-152176113D01*
X94835616Y-151956884D01*
X94668631Y-151761369D01*
X94473116Y-151594384D01*
X94253887Y-151460040D01*
X94249317Y-151458147D01*
X94249313Y-151458145D01*
X94020913Y-151363539D01*
X94020911Y-151363538D01*
X94016340Y-151361645D01*
X93929498Y-151340796D01*
X93771139Y-151302777D01*
X93771133Y-151302776D01*
X93766326Y-151301622D01*
X93510000Y-151281449D01*
X93253674Y-151301622D01*
X93248867Y-151302776D01*
X93248861Y-151302777D01*
X93090502Y-151340796D01*
X93003660Y-151361645D01*
X92999089Y-151363538D01*
X92999087Y-151363539D01*
X92770687Y-151458145D01*
X92770683Y-151458147D01*
X92766113Y-151460040D01*
X92546884Y-151594384D01*
X92351369Y-151761369D01*
X92184384Y-151956884D01*
X92050040Y-152176113D01*
X91951645Y-152413660D01*
X91891622Y-152663674D01*
X91871449Y-152920000D01*
X76508500Y-152920000D01*
X76508500Y-146116359D01*
X95868058Y-146116359D01*
X95881611Y-146323135D01*
X95932619Y-146523980D01*
X96019373Y-146712165D01*
X96022704Y-146716878D01*
X96022705Y-146716880D01*
X96075652Y-146791797D01*
X96138970Y-146881390D01*
X96287402Y-147025986D01*
X96292198Y-147029191D01*
X96292201Y-147029193D01*
X96361493Y-147075492D01*
X96459699Y-147141111D01*
X96465002Y-147143389D01*
X96465005Y-147143391D01*
X96644784Y-147220630D01*
X96650091Y-147222910D01*
X96852201Y-147268643D01*
X96857972Y-147268870D01*
X96857974Y-147268870D01*
X96927210Y-147271590D01*
X97059262Y-147276778D01*
X97147561Y-147263975D01*
X97258616Y-147247874D01*
X97258621Y-147247873D01*
X97264337Y-147247044D01*
X97269809Y-147245186D01*
X97269811Y-147245186D01*
X97455096Y-147182290D01*
X97455098Y-147182289D01*
X97460560Y-147180435D01*
X97641359Y-147079183D01*
X97800678Y-146946678D01*
X97933183Y-146787359D01*
X98034435Y-146606560D01*
X98101044Y-146410337D01*
X98101873Y-146404621D01*
X98101874Y-146404616D01*
X98130245Y-146208936D01*
X98130778Y-146205262D01*
X98132330Y-146146000D01*
X98129606Y-146116359D01*
X165868058Y-146116359D01*
X165881611Y-146323135D01*
X165932619Y-146523980D01*
X166019373Y-146712165D01*
X166022704Y-146716878D01*
X166022705Y-146716880D01*
X166075652Y-146791797D01*
X166138970Y-146881390D01*
X166287402Y-147025986D01*
X166292198Y-147029191D01*
X166292201Y-147029193D01*
X166361493Y-147075492D01*
X166459699Y-147141111D01*
X166465002Y-147143389D01*
X166465005Y-147143391D01*
X166644784Y-147220630D01*
X166650091Y-147222910D01*
X166852201Y-147268643D01*
X166857972Y-147268870D01*
X166857974Y-147268870D01*
X166927210Y-147271590D01*
X167059262Y-147276778D01*
X167147561Y-147263975D01*
X167258616Y-147247874D01*
X167258621Y-147247873D01*
X167264337Y-147247044D01*
X167269809Y-147245186D01*
X167269811Y-147245186D01*
X167455096Y-147182290D01*
X167455098Y-147182289D01*
X167460560Y-147180435D01*
X167641359Y-147079183D01*
X167800678Y-146946678D01*
X167933183Y-146787359D01*
X168034435Y-146606560D01*
X168101044Y-146410337D01*
X168101873Y-146404621D01*
X168101874Y-146404616D01*
X168130245Y-146208936D01*
X168130778Y-146205262D01*
X168132330Y-146146000D01*
X168113369Y-145939649D01*
X168106788Y-145916312D01*
X168058689Y-145745768D01*
X168058688Y-145745766D01*
X168057121Y-145740209D01*
X168046265Y-145718194D01*
X167968025Y-145559540D01*
X167965470Y-145554359D01*
X167943362Y-145524752D01*
X167844938Y-145392947D01*
X167844937Y-145392946D01*
X167841485Y-145388323D01*
X167689319Y-145247662D01*
X167643145Y-145218529D01*
X167518951Y-145140168D01*
X167518946Y-145140166D01*
X167514067Y-145137087D01*
X167321599Y-145060300D01*
X167118361Y-145019873D01*
X167112587Y-145019797D01*
X167112583Y-145019797D01*
X167007399Y-145018421D01*
X166911158Y-145017161D01*
X166905461Y-145018140D01*
X166905460Y-145018140D01*
X166712628Y-145051274D01*
X166712627Y-145051274D01*
X166706931Y-145052253D01*
X166512519Y-145123976D01*
X166334433Y-145229926D01*
X166178637Y-145366555D01*
X166050348Y-145529289D01*
X165953863Y-145712676D01*
X165892414Y-145910575D01*
X165868058Y-146116359D01*
X98129606Y-146116359D01*
X98113369Y-145939649D01*
X98106788Y-145916312D01*
X98058689Y-145745768D01*
X98058688Y-145745766D01*
X98057121Y-145740209D01*
X98046265Y-145718194D01*
X97968025Y-145559540D01*
X97965470Y-145554359D01*
X97943362Y-145524752D01*
X97844938Y-145392947D01*
X97844937Y-145392946D01*
X97841485Y-145388323D01*
X97689319Y-145247662D01*
X97643145Y-145218529D01*
X97518951Y-145140168D01*
X97518946Y-145140166D01*
X97514067Y-145137087D01*
X97321599Y-145060300D01*
X97118361Y-145019873D01*
X97112587Y-145019797D01*
X97112583Y-145019797D01*
X97007399Y-145018421D01*
X96911158Y-145017161D01*
X96905461Y-145018140D01*
X96905460Y-145018140D01*
X96712628Y-145051274D01*
X96712627Y-145051274D01*
X96706931Y-145052253D01*
X96512519Y-145123976D01*
X96334433Y-145229926D01*
X96178637Y-145366555D01*
X96050348Y-145529289D01*
X95953863Y-145712676D01*
X95892414Y-145910575D01*
X95868058Y-146116359D01*
X76508500Y-146116359D01*
X76508500Y-138521134D01*
X95872500Y-138521134D01*
X95879255Y-138583316D01*
X95930385Y-138719705D01*
X96017739Y-138836261D01*
X96134295Y-138923615D01*
X96270684Y-138974745D01*
X96332866Y-138981500D01*
X97667134Y-138981500D01*
X97729316Y-138974745D01*
X97865705Y-138923615D01*
X97982261Y-138836261D01*
X98000019Y-138812567D01*
X98064233Y-138726887D01*
X98064235Y-138726884D01*
X98069615Y-138719705D01*
X98079150Y-138694270D01*
X98121792Y-138637505D01*
X98188354Y-138612806D01*
X98197132Y-138612500D01*
X165802868Y-138612500D01*
X165870989Y-138632502D01*
X165917482Y-138686158D01*
X165920849Y-138694268D01*
X165930385Y-138719705D01*
X165935765Y-138726884D01*
X165935767Y-138726887D01*
X165999981Y-138812567D01*
X166017739Y-138836261D01*
X166134295Y-138923615D01*
X166270684Y-138974745D01*
X166332866Y-138981500D01*
X167667134Y-138981500D01*
X167729316Y-138974745D01*
X167865705Y-138923615D01*
X167982261Y-138836261D01*
X168069615Y-138719705D01*
X168120745Y-138583316D01*
X168127500Y-138521134D01*
X168127500Y-137186866D01*
X168120745Y-137124684D01*
X168069615Y-136988295D01*
X167982261Y-136871739D01*
X167865705Y-136784385D01*
X167729316Y-136733255D01*
X167667134Y-136726500D01*
X166332866Y-136726500D01*
X166270684Y-136733255D01*
X166134295Y-136784385D01*
X166017739Y-136871739D01*
X166012358Y-136878919D01*
X165935767Y-136981113D01*
X165935765Y-136981116D01*
X165930385Y-136988295D01*
X165920850Y-137013730D01*
X165878208Y-137070495D01*
X165811646Y-137095194D01*
X165802868Y-137095500D01*
X98197132Y-137095500D01*
X98129011Y-137075498D01*
X98082518Y-137021842D01*
X98079150Y-137013730D01*
X98069615Y-136988295D01*
X98064235Y-136981116D01*
X98064233Y-136981113D01*
X97987642Y-136878919D01*
X97982261Y-136871739D01*
X97865705Y-136784385D01*
X97729316Y-136733255D01*
X97667134Y-136726500D01*
X96332866Y-136726500D01*
X96270684Y-136733255D01*
X96134295Y-136784385D01*
X96017739Y-136871739D01*
X95930385Y-136988295D01*
X95879255Y-137124684D01*
X95872500Y-137186866D01*
X95872500Y-138521134D01*
X76508500Y-138521134D01*
X76508500Y-123000000D01*
X79486835Y-123000000D01*
X79505465Y-123236711D01*
X79506619Y-123241518D01*
X79506620Y-123241524D01*
X79536601Y-123366401D01*
X79560895Y-123467594D01*
X79651760Y-123686963D01*
X79654346Y-123691183D01*
X79773241Y-123885202D01*
X79773245Y-123885208D01*
X79775824Y-123889416D01*
X79930031Y-124069969D01*
X80110584Y-124224176D01*
X80114792Y-124226755D01*
X80114798Y-124226759D01*
X80308817Y-124345654D01*
X80313037Y-124348240D01*
X80317607Y-124350133D01*
X80317611Y-124350135D01*
X80527833Y-124437211D01*
X80532406Y-124439105D01*
X80612609Y-124458360D01*
X80758476Y-124493380D01*
X80758482Y-124493381D01*
X80763289Y-124494535D01*
X81000000Y-124513165D01*
X81236711Y-124494535D01*
X81241518Y-124493381D01*
X81241524Y-124493380D01*
X81387391Y-124458360D01*
X81467594Y-124439105D01*
X81472167Y-124437211D01*
X81682389Y-124350135D01*
X81682393Y-124350133D01*
X81686963Y-124348240D01*
X81691183Y-124345654D01*
X81885202Y-124226759D01*
X81885208Y-124226755D01*
X81889416Y-124224176D01*
X82069969Y-124069969D01*
X82224176Y-123889416D01*
X82226755Y-123885208D01*
X82226759Y-123885202D01*
X82345654Y-123691183D01*
X82348240Y-123686963D01*
X82439105Y-123467594D01*
X82463399Y-123366401D01*
X82493380Y-123241524D01*
X82493381Y-123241518D01*
X82494535Y-123236711D01*
X82513165Y-123000000D01*
X169486835Y-123000000D01*
X169505465Y-123236711D01*
X169506619Y-123241518D01*
X169506620Y-123241524D01*
X169536601Y-123366401D01*
X169560895Y-123467594D01*
X169651760Y-123686963D01*
X169654346Y-123691183D01*
X169773241Y-123885202D01*
X169773245Y-123885208D01*
X169775824Y-123889416D01*
X169930031Y-124069969D01*
X170110584Y-124224176D01*
X170114792Y-124226755D01*
X170114798Y-124226759D01*
X170308817Y-124345654D01*
X170313037Y-124348240D01*
X170317607Y-124350133D01*
X170317611Y-124350135D01*
X170527833Y-124437211D01*
X170532406Y-124439105D01*
X170612609Y-124458360D01*
X170758476Y-124493380D01*
X170758482Y-124493381D01*
X170763289Y-124494535D01*
X171000000Y-124513165D01*
X171236711Y-124494535D01*
X171241518Y-124493381D01*
X171241524Y-124493380D01*
X171387391Y-124458360D01*
X171467594Y-124439105D01*
X171472167Y-124437211D01*
X171682389Y-124350135D01*
X171682393Y-124350133D01*
X171686963Y-124348240D01*
X171691183Y-124345654D01*
X171885202Y-124226759D01*
X171885208Y-124226755D01*
X171889416Y-124224176D01*
X172069969Y-124069969D01*
X172224176Y-123889416D01*
X172226755Y-123885208D01*
X172226759Y-123885202D01*
X172345654Y-123691183D01*
X172348240Y-123686963D01*
X172439105Y-123467594D01*
X172463399Y-123366401D01*
X172493380Y-123241524D01*
X172493381Y-123241518D01*
X172494535Y-123236711D01*
X172513165Y-123000000D01*
X172494535Y-122763289D01*
X172486581Y-122730155D01*
X172440260Y-122537218D01*
X172439105Y-122532406D01*
X172348240Y-122313037D01*
X172345654Y-122308817D01*
X172226759Y-122114798D01*
X172226755Y-122114792D01*
X172224176Y-122110584D01*
X172069969Y-121930031D01*
X171889416Y-121775824D01*
X171885208Y-121773245D01*
X171885202Y-121773241D01*
X171691183Y-121654346D01*
X171686963Y-121651760D01*
X171682393Y-121649867D01*
X171682389Y-121649865D01*
X171472167Y-121562789D01*
X171472165Y-121562788D01*
X171467594Y-121560895D01*
X171387391Y-121541640D01*
X171241524Y-121506620D01*
X171241518Y-121506619D01*
X171236711Y-121505465D01*
X171000000Y-121486835D01*
X170763289Y-121505465D01*
X170758482Y-121506619D01*
X170758476Y-121506620D01*
X170612609Y-121541640D01*
X170532406Y-121560895D01*
X170527835Y-121562788D01*
X170527833Y-121562789D01*
X170317611Y-121649865D01*
X170317607Y-121649867D01*
X170313037Y-121651760D01*
X170308817Y-121654346D01*
X170114798Y-121773241D01*
X170114792Y-121773245D01*
X170110584Y-121775824D01*
X169930031Y-121930031D01*
X169775824Y-122110584D01*
X169773245Y-122114792D01*
X169773241Y-122114798D01*
X169654346Y-122308817D01*
X169651760Y-122313037D01*
X169560895Y-122532406D01*
X169559740Y-122537218D01*
X169513420Y-122730155D01*
X169505465Y-122763289D01*
X169487308Y-122993995D01*
X169486835Y-123000000D01*
X82513165Y-123000000D01*
X82494535Y-122763289D01*
X82486581Y-122730155D01*
X82440260Y-122537218D01*
X82439105Y-122532406D01*
X82348240Y-122313037D01*
X82345654Y-122308817D01*
X82226759Y-122114798D01*
X82226755Y-122114792D01*
X82224176Y-122110584D01*
X82069969Y-121930031D01*
X81889416Y-121775824D01*
X81885208Y-121773245D01*
X81885202Y-121773241D01*
X81691183Y-121654346D01*
X81686963Y-121651760D01*
X81682393Y-121649867D01*
X81682389Y-121649865D01*
X81472167Y-121562789D01*
X81472165Y-121562788D01*
X81467594Y-121560895D01*
X81387391Y-121541640D01*
X81241524Y-121506620D01*
X81241518Y-121506619D01*
X81236711Y-121505465D01*
X81000000Y-121486835D01*
X80763289Y-121505465D01*
X80758482Y-121506619D01*
X80758476Y-121506620D01*
X80612609Y-121541640D01*
X80532406Y-121560895D01*
X80527835Y-121562788D01*
X80527833Y-121562789D01*
X80317611Y-121649865D01*
X80317607Y-121649867D01*
X80313037Y-121651760D01*
X80308817Y-121654346D01*
X80114798Y-121773241D01*
X80114792Y-121773245D01*
X80110584Y-121775824D01*
X79930031Y-121930031D01*
X79775824Y-122110584D01*
X79773245Y-122114792D01*
X79773241Y-122114798D01*
X79654346Y-122308817D01*
X79651760Y-122313037D01*
X79560895Y-122532406D01*
X79559740Y-122537218D01*
X79513420Y-122730155D01*
X79505465Y-122763289D01*
X79487308Y-122993995D01*
X79486835Y-123000000D01*
X76508500Y-123000000D01*
X76508500Y-107813134D01*
X95872500Y-107813134D01*
X95879255Y-107875316D01*
X95930385Y-108011705D01*
X96017739Y-108128261D01*
X96134295Y-108215615D01*
X96270684Y-108266745D01*
X96332866Y-108273500D01*
X97667134Y-108273500D01*
X97729316Y-108266745D01*
X97865705Y-108215615D01*
X97982261Y-108128261D01*
X98000019Y-108104567D01*
X98064233Y-108018887D01*
X98064235Y-108018884D01*
X98069615Y-108011705D01*
X98079150Y-107986270D01*
X98121792Y-107929505D01*
X98188354Y-107904806D01*
X98197132Y-107904500D01*
X165802868Y-107904500D01*
X165870989Y-107924502D01*
X165917482Y-107978158D01*
X165920849Y-107986268D01*
X165930385Y-108011705D01*
X165935765Y-108018884D01*
X165935767Y-108018887D01*
X165999981Y-108104567D01*
X166017739Y-108128261D01*
X166134295Y-108215615D01*
X166270684Y-108266745D01*
X166332866Y-108273500D01*
X167667134Y-108273500D01*
X167729316Y-108266745D01*
X167865705Y-108215615D01*
X167982261Y-108128261D01*
X168069615Y-108011705D01*
X168120745Y-107875316D01*
X168127500Y-107813134D01*
X168127500Y-106478866D01*
X168120745Y-106416684D01*
X168069615Y-106280295D01*
X167982261Y-106163739D01*
X167865705Y-106076385D01*
X167729316Y-106025255D01*
X167667134Y-106018500D01*
X166332866Y-106018500D01*
X166270684Y-106025255D01*
X166134295Y-106076385D01*
X166017739Y-106163739D01*
X166012358Y-106170919D01*
X165935767Y-106273113D01*
X165935765Y-106273116D01*
X165930385Y-106280295D01*
X165920850Y-106305730D01*
X165878208Y-106362495D01*
X165811646Y-106387194D01*
X165802868Y-106387500D01*
X98197132Y-106387500D01*
X98129011Y-106367498D01*
X98082518Y-106313842D01*
X98079150Y-106305730D01*
X98069615Y-106280295D01*
X98064235Y-106273116D01*
X98064233Y-106273113D01*
X97987642Y-106170919D01*
X97982261Y-106163739D01*
X97865705Y-106076385D01*
X97729316Y-106025255D01*
X97667134Y-106018500D01*
X96332866Y-106018500D01*
X96270684Y-106025255D01*
X96134295Y-106076385D01*
X96017739Y-106163739D01*
X95930385Y-106280295D01*
X95879255Y-106416684D01*
X95872500Y-106478866D01*
X95872500Y-107813134D01*
X76508500Y-107813134D01*
X76508500Y-98824359D01*
X95868058Y-98824359D01*
X95881611Y-99031135D01*
X95932619Y-99231980D01*
X96019373Y-99420165D01*
X96022704Y-99424878D01*
X96022705Y-99424880D01*
X96075652Y-99499797D01*
X96138970Y-99589390D01*
X96287402Y-99733986D01*
X96292198Y-99737191D01*
X96292201Y-99737193D01*
X96361493Y-99783492D01*
X96459699Y-99849111D01*
X96465002Y-99851389D01*
X96465005Y-99851391D01*
X96644784Y-99928630D01*
X96650091Y-99930910D01*
X96852201Y-99976643D01*
X96857972Y-99976870D01*
X96857974Y-99976870D01*
X96927210Y-99979590D01*
X97059262Y-99984778D01*
X97147561Y-99971975D01*
X97258616Y-99955874D01*
X97258621Y-99955873D01*
X97264337Y-99955044D01*
X97269809Y-99953186D01*
X97269811Y-99953186D01*
X97455096Y-99890290D01*
X97455098Y-99890289D01*
X97460560Y-99888435D01*
X97641359Y-99787183D01*
X97800678Y-99654678D01*
X97933183Y-99495359D01*
X98034435Y-99314560D01*
X98101044Y-99118337D01*
X98101873Y-99112621D01*
X98101874Y-99112616D01*
X98130245Y-98916936D01*
X98130778Y-98913262D01*
X98132330Y-98854000D01*
X98129606Y-98824359D01*
X165868058Y-98824359D01*
X165881611Y-99031135D01*
X165932619Y-99231980D01*
X166019373Y-99420165D01*
X166022704Y-99424878D01*
X166022705Y-99424880D01*
X166075652Y-99499797D01*
X166138970Y-99589390D01*
X166287402Y-99733986D01*
X166292198Y-99737191D01*
X166292201Y-99737193D01*
X166361493Y-99783492D01*
X166459699Y-99849111D01*
X166465002Y-99851389D01*
X166465005Y-99851391D01*
X166644784Y-99928630D01*
X166650091Y-99930910D01*
X166852201Y-99976643D01*
X166857972Y-99976870D01*
X166857974Y-99976870D01*
X166927210Y-99979590D01*
X167059262Y-99984778D01*
X167147561Y-99971975D01*
X167258616Y-99955874D01*
X167258621Y-99955873D01*
X167264337Y-99955044D01*
X167269809Y-99953186D01*
X167269811Y-99953186D01*
X167455096Y-99890290D01*
X167455098Y-99890289D01*
X167460560Y-99888435D01*
X167641359Y-99787183D01*
X167800678Y-99654678D01*
X167933183Y-99495359D01*
X168034435Y-99314560D01*
X168101044Y-99118337D01*
X168101873Y-99112621D01*
X168101874Y-99112616D01*
X168130245Y-98916936D01*
X168130778Y-98913262D01*
X168132330Y-98854000D01*
X168113369Y-98647649D01*
X168106788Y-98624312D01*
X168058689Y-98453768D01*
X168058688Y-98453766D01*
X168057121Y-98448209D01*
X168046265Y-98426194D01*
X167968025Y-98267540D01*
X167965470Y-98262359D01*
X167943362Y-98232752D01*
X167844938Y-98100947D01*
X167844937Y-98100946D01*
X167841485Y-98096323D01*
X167689319Y-97955662D01*
X167643145Y-97926529D01*
X167518951Y-97848168D01*
X167518946Y-97848166D01*
X167514067Y-97845087D01*
X167321599Y-97768300D01*
X167118361Y-97727873D01*
X167112587Y-97727797D01*
X167112583Y-97727797D01*
X167007399Y-97726421D01*
X166911158Y-97725161D01*
X166905461Y-97726140D01*
X166905460Y-97726140D01*
X166712628Y-97759274D01*
X166712627Y-97759274D01*
X166706931Y-97760253D01*
X166512519Y-97831976D01*
X166334433Y-97937926D01*
X166178637Y-98074555D01*
X166050348Y-98237289D01*
X165953863Y-98420676D01*
X165892414Y-98618575D01*
X165868058Y-98824359D01*
X98129606Y-98824359D01*
X98113369Y-98647649D01*
X98106788Y-98624312D01*
X98058689Y-98453768D01*
X98058688Y-98453766D01*
X98057121Y-98448209D01*
X98046265Y-98426194D01*
X97968025Y-98267540D01*
X97965470Y-98262359D01*
X97943362Y-98232752D01*
X97844938Y-98100947D01*
X97844937Y-98100946D01*
X97841485Y-98096323D01*
X97689319Y-97955662D01*
X97643145Y-97926529D01*
X97518951Y-97848168D01*
X97518946Y-97848166D01*
X97514067Y-97845087D01*
X97321599Y-97768300D01*
X97118361Y-97727873D01*
X97112587Y-97727797D01*
X97112583Y-97727797D01*
X97007399Y-97726421D01*
X96911158Y-97725161D01*
X96905461Y-97726140D01*
X96905460Y-97726140D01*
X96712628Y-97759274D01*
X96712627Y-97759274D01*
X96706931Y-97760253D01*
X96512519Y-97831976D01*
X96334433Y-97937926D01*
X96178637Y-98074555D01*
X96050348Y-98237289D01*
X95953863Y-98420676D01*
X95892414Y-98618575D01*
X95868058Y-98824359D01*
X76508500Y-98824359D01*
X76508500Y-93080000D01*
X85922677Y-93080000D01*
X85941930Y-93300068D01*
X85999106Y-93513450D01*
X86092466Y-93713661D01*
X86219174Y-93894620D01*
X86375380Y-94050826D01*
X86379888Y-94053983D01*
X86379891Y-94053985D01*
X86551829Y-94174377D01*
X86556338Y-94177534D01*
X86561320Y-94179857D01*
X86561325Y-94179860D01*
X86751568Y-94268571D01*
X86756550Y-94270894D01*
X86761858Y-94272316D01*
X86761860Y-94272317D01*
X86827252Y-94289839D01*
X86969932Y-94328070D01*
X87190000Y-94347323D01*
X87410068Y-94328070D01*
X87552748Y-94289839D01*
X87618140Y-94272317D01*
X87618142Y-94272316D01*
X87623450Y-94270894D01*
X87628432Y-94268571D01*
X87818675Y-94179860D01*
X87818680Y-94179857D01*
X87823662Y-94177534D01*
X87828171Y-94174377D01*
X88000109Y-94053985D01*
X88000112Y-94053983D01*
X88004620Y-94050826D01*
X88160826Y-93894620D01*
X88287534Y-93713661D01*
X88380894Y-93513450D01*
X88438070Y-93300068D01*
X88457323Y-93080000D01*
X93542677Y-93080000D01*
X93561930Y-93300068D01*
X93619106Y-93513450D01*
X93712466Y-93713661D01*
X93839174Y-93894620D01*
X93995380Y-94050826D01*
X93999888Y-94053983D01*
X93999891Y-94053985D01*
X94171829Y-94174377D01*
X94176338Y-94177534D01*
X94181320Y-94179857D01*
X94181325Y-94179860D01*
X94371568Y-94268571D01*
X94376550Y-94270894D01*
X94381858Y-94272316D01*
X94381860Y-94272317D01*
X94447252Y-94289839D01*
X94589932Y-94328070D01*
X94810000Y-94347323D01*
X95030068Y-94328070D01*
X95172748Y-94289839D01*
X95238140Y-94272317D01*
X95238142Y-94272316D01*
X95243450Y-94270894D01*
X95248432Y-94268571D01*
X95438675Y-94179860D01*
X95438680Y-94179857D01*
X95443662Y-94177534D01*
X95448171Y-94174377D01*
X95620109Y-94053985D01*
X95620112Y-94053983D01*
X95624620Y-94050826D01*
X95780826Y-93894620D01*
X95907534Y-93713661D01*
X96000894Y-93513450D01*
X96058070Y-93300068D01*
X96077323Y-93080000D01*
X155922677Y-93080000D01*
X155941930Y-93300068D01*
X155999106Y-93513450D01*
X156092466Y-93713661D01*
X156219174Y-93894620D01*
X156375380Y-94050826D01*
X156379888Y-94053983D01*
X156379891Y-94053985D01*
X156551829Y-94174377D01*
X156556338Y-94177534D01*
X156561320Y-94179857D01*
X156561325Y-94179860D01*
X156751568Y-94268571D01*
X156756550Y-94270894D01*
X156761858Y-94272316D01*
X156761860Y-94272317D01*
X156827252Y-94289839D01*
X156969932Y-94328070D01*
X157190000Y-94347323D01*
X157410068Y-94328070D01*
X157552748Y-94289839D01*
X157618140Y-94272317D01*
X157618142Y-94272316D01*
X157623450Y-94270894D01*
X157628432Y-94268571D01*
X157818675Y-94179860D01*
X157818680Y-94179857D01*
X157823662Y-94177534D01*
X157828171Y-94174377D01*
X158000109Y-94053985D01*
X158000112Y-94053983D01*
X158004620Y-94050826D01*
X158160826Y-93894620D01*
X158287534Y-93713661D01*
X158380894Y-93513450D01*
X158438070Y-93300068D01*
X158457323Y-93080000D01*
X163542677Y-93080000D01*
X163561930Y-93300068D01*
X163619106Y-93513450D01*
X163712466Y-93713661D01*
X163839174Y-93894620D01*
X163995380Y-94050826D01*
X163999888Y-94053983D01*
X163999891Y-94053985D01*
X164171829Y-94174377D01*
X164176338Y-94177534D01*
X164181320Y-94179857D01*
X164181325Y-94179860D01*
X164371568Y-94268571D01*
X164376550Y-94270894D01*
X164381858Y-94272316D01*
X164381860Y-94272317D01*
X164447252Y-94289839D01*
X164589932Y-94328070D01*
X164810000Y-94347323D01*
X165030068Y-94328070D01*
X165172748Y-94289839D01*
X165238140Y-94272317D01*
X165238142Y-94272316D01*
X165243450Y-94270894D01*
X165248432Y-94268571D01*
X165438675Y-94179860D01*
X165438680Y-94179857D01*
X165443662Y-94177534D01*
X165448171Y-94174377D01*
X165620109Y-94053985D01*
X165620112Y-94053983D01*
X165624620Y-94050826D01*
X165780826Y-93894620D01*
X165907534Y-93713661D01*
X166000894Y-93513450D01*
X166058070Y-93300068D01*
X166077323Y-93080000D01*
X166058070Y-92859932D01*
X166000894Y-92646550D01*
X165907534Y-92446339D01*
X165780826Y-92265380D01*
X165624620Y-92109174D01*
X165620112Y-92106017D01*
X165620109Y-92106015D01*
X165448171Y-91985623D01*
X165448168Y-91985621D01*
X165443662Y-91982466D01*
X165438680Y-91980143D01*
X165438675Y-91980140D01*
X165248432Y-91891429D01*
X165248431Y-91891429D01*
X165243450Y-91889106D01*
X165238142Y-91887684D01*
X165238140Y-91887683D01*
X165172748Y-91870161D01*
X165030068Y-91831930D01*
X164810000Y-91812677D01*
X164589932Y-91831930D01*
X164447252Y-91870161D01*
X164381860Y-91887683D01*
X164381858Y-91887684D01*
X164376550Y-91889106D01*
X164371569Y-91891428D01*
X164371568Y-91891429D01*
X164181320Y-91980143D01*
X164181317Y-91980145D01*
X164176339Y-91982466D01*
X163995380Y-92109174D01*
X163839174Y-92265380D01*
X163712466Y-92446339D01*
X163619106Y-92646550D01*
X163561930Y-92859932D01*
X163542677Y-93080000D01*
X158457323Y-93080000D01*
X158438070Y-92859932D01*
X158380894Y-92646550D01*
X158287534Y-92446339D01*
X158160826Y-92265380D01*
X158004620Y-92109174D01*
X158000112Y-92106017D01*
X158000109Y-92106015D01*
X157828171Y-91985623D01*
X157828168Y-91985621D01*
X157823662Y-91982466D01*
X157818680Y-91980143D01*
X157818675Y-91980140D01*
X157628432Y-91891429D01*
X157628431Y-91891429D01*
X157623450Y-91889106D01*
X157618142Y-91887684D01*
X157618140Y-91887683D01*
X157552748Y-91870161D01*
X157410068Y-91831930D01*
X157190000Y-91812677D01*
X156969932Y-91831930D01*
X156827252Y-91870161D01*
X156761860Y-91887683D01*
X156761858Y-91887684D01*
X156756550Y-91889106D01*
X156751569Y-91891428D01*
X156751568Y-91891429D01*
X156561320Y-91980143D01*
X156561317Y-91980145D01*
X156556339Y-91982466D01*
X156375380Y-92109174D01*
X156219174Y-92265380D01*
X156092466Y-92446339D01*
X155999106Y-92646550D01*
X155941930Y-92859932D01*
X155922677Y-93080000D01*
X96077323Y-93080000D01*
X96058070Y-92859932D01*
X96000894Y-92646550D01*
X95907534Y-92446339D01*
X95780826Y-92265380D01*
X95624620Y-92109174D01*
X95620112Y-92106017D01*
X95620109Y-92106015D01*
X95448171Y-91985623D01*
X95448168Y-91985621D01*
X95443662Y-91982466D01*
X95438680Y-91980143D01*
X95438675Y-91980140D01*
X95248432Y-91891429D01*
X95248431Y-91891429D01*
X95243450Y-91889106D01*
X95238142Y-91887684D01*
X95238140Y-91887683D01*
X95172748Y-91870161D01*
X95030068Y-91831930D01*
X94810000Y-91812677D01*
X94589932Y-91831930D01*
X94447252Y-91870161D01*
X94381860Y-91887683D01*
X94381858Y-91887684D01*
X94376550Y-91889106D01*
X94371569Y-91891428D01*
X94371568Y-91891429D01*
X94181320Y-91980143D01*
X94181317Y-91980145D01*
X94176339Y-91982466D01*
X93995380Y-92109174D01*
X93839174Y-92265380D01*
X93712466Y-92446339D01*
X93619106Y-92646550D01*
X93561930Y-92859932D01*
X93542677Y-93080000D01*
X88457323Y-93080000D01*
X88438070Y-92859932D01*
X88380894Y-92646550D01*
X88287534Y-92446339D01*
X88160826Y-92265380D01*
X88004620Y-92109174D01*
X88000112Y-92106017D01*
X88000109Y-92106015D01*
X87828171Y-91985623D01*
X87828168Y-91985621D01*
X87823662Y-91982466D01*
X87818680Y-91980143D01*
X87818675Y-91980140D01*
X87628432Y-91891429D01*
X87628431Y-91891429D01*
X87623450Y-91889106D01*
X87618142Y-91887684D01*
X87618140Y-91887683D01*
X87552748Y-91870161D01*
X87410068Y-91831930D01*
X87190000Y-91812677D01*
X86969932Y-91831930D01*
X86827252Y-91870161D01*
X86761860Y-91887683D01*
X86761858Y-91887684D01*
X86756550Y-91889106D01*
X86751569Y-91891428D01*
X86751568Y-91891429D01*
X86561320Y-91980143D01*
X86561317Y-91980145D01*
X86556339Y-91982466D01*
X86375380Y-92109174D01*
X86219174Y-92265380D01*
X86092466Y-92446339D01*
X85999106Y-92646550D01*
X85941930Y-92859932D01*
X85922677Y-93080000D01*
X76508500Y-93080000D01*
X76508500Y-87935774D01*
X84638102Y-87935774D01*
X84646751Y-88166158D01*
X84694093Y-88391791D01*
X84778776Y-88606221D01*
X84898377Y-88803317D01*
X84901874Y-88807347D01*
X84988438Y-88907103D01*
X85049477Y-88977445D01*
X85053608Y-88980832D01*
X85223627Y-89120240D01*
X85223633Y-89120244D01*
X85227755Y-89123624D01*
X85232391Y-89126263D01*
X85232394Y-89126265D01*
X85341422Y-89188327D01*
X85428114Y-89237675D01*
X85644825Y-89316337D01*
X85650074Y-89317286D01*
X85650077Y-89317287D01*
X85867608Y-89356623D01*
X85867615Y-89356624D01*
X85871692Y-89357361D01*
X85889414Y-89358197D01*
X85894356Y-89358430D01*
X85894363Y-89358430D01*
X85895844Y-89358500D01*
X86057890Y-89358500D01*
X86124809Y-89352822D01*
X86224409Y-89344371D01*
X86224413Y-89344370D01*
X86229720Y-89343920D01*
X86234875Y-89342582D01*
X86234881Y-89342581D01*
X86447703Y-89287343D01*
X86447707Y-89287342D01*
X86452872Y-89286001D01*
X86457738Y-89283809D01*
X86457741Y-89283808D01*
X86658202Y-89193507D01*
X86663075Y-89191312D01*
X86854319Y-89062559D01*
X87021135Y-88903424D01*
X87158754Y-88718458D01*
X87263240Y-88512949D01*
X87276274Y-88470975D01*
X87330024Y-88297871D01*
X87331607Y-88292773D01*
X87332308Y-88287484D01*
X87349493Y-88157821D01*
X88491500Y-88157821D01*
X88531060Y-88470975D01*
X88609557Y-88776702D01*
X88611010Y-88780371D01*
X88611010Y-88780372D01*
X88721279Y-89058878D01*
X88725753Y-89070179D01*
X88727659Y-89073647D01*
X88727660Y-89073648D01*
X88861603Y-89317287D01*
X88877816Y-89346779D01*
X89063346Y-89602140D01*
X89279418Y-89832233D01*
X89522625Y-90033432D01*
X89789131Y-90202562D01*
X89792710Y-90204246D01*
X89792717Y-90204250D01*
X90071144Y-90335267D01*
X90071148Y-90335269D01*
X90074734Y-90336956D01*
X90374928Y-90434495D01*
X90684980Y-90493641D01*
X90921162Y-90508500D01*
X91078838Y-90508500D01*
X91315020Y-90493641D01*
X91625072Y-90434495D01*
X91925266Y-90336956D01*
X91928852Y-90335269D01*
X91928856Y-90335267D01*
X92207283Y-90204250D01*
X92207290Y-90204246D01*
X92210869Y-90202562D01*
X92477375Y-90033432D01*
X92720582Y-89832233D01*
X92936654Y-89602140D01*
X93122184Y-89346779D01*
X93138398Y-89317287D01*
X93272340Y-89073648D01*
X93272341Y-89073647D01*
X93274247Y-89070179D01*
X93278722Y-89058878D01*
X93388990Y-88780372D01*
X93388990Y-88780371D01*
X93390443Y-88776702D01*
X93468940Y-88470975D01*
X93508500Y-88157821D01*
X93508500Y-87935774D01*
X94638102Y-87935774D01*
X94646751Y-88166158D01*
X94694093Y-88391791D01*
X94778776Y-88606221D01*
X94898377Y-88803317D01*
X94901874Y-88807347D01*
X94988438Y-88907103D01*
X95049477Y-88977445D01*
X95053608Y-88980832D01*
X95223627Y-89120240D01*
X95223633Y-89120244D01*
X95227755Y-89123624D01*
X95232391Y-89126263D01*
X95232394Y-89126265D01*
X95341422Y-89188327D01*
X95428114Y-89237675D01*
X95644825Y-89316337D01*
X95650074Y-89317286D01*
X95650077Y-89317287D01*
X95867608Y-89356623D01*
X95867615Y-89356624D01*
X95871692Y-89357361D01*
X95889414Y-89358197D01*
X95894356Y-89358430D01*
X95894363Y-89358430D01*
X95895844Y-89358500D01*
X96057890Y-89358500D01*
X96124809Y-89352822D01*
X96224409Y-89344371D01*
X96224413Y-89344370D01*
X96229720Y-89343920D01*
X96234875Y-89342582D01*
X96234881Y-89342581D01*
X96447703Y-89287343D01*
X96447707Y-89287342D01*
X96452872Y-89286001D01*
X96457738Y-89283809D01*
X96457741Y-89283808D01*
X96658202Y-89193507D01*
X96663075Y-89191312D01*
X96854319Y-89062559D01*
X97021135Y-88903424D01*
X97158754Y-88718458D01*
X97263240Y-88512949D01*
X97276274Y-88470975D01*
X97330024Y-88297871D01*
X97331607Y-88292773D01*
X97332308Y-88287484D01*
X97361198Y-88069511D01*
X97361198Y-88069506D01*
X97361898Y-88064226D01*
X97353249Y-87833842D01*
X97305907Y-87608209D01*
X97221224Y-87393779D01*
X97101623Y-87196683D01*
X97098126Y-87192653D01*
X96954023Y-87026588D01*
X96954021Y-87026586D01*
X96950523Y-87022555D01*
X96908970Y-86988484D01*
X96776373Y-86879760D01*
X96776367Y-86879756D01*
X96772245Y-86876376D01*
X96767609Y-86873737D01*
X96767606Y-86873735D01*
X96576529Y-86764968D01*
X96571886Y-86762325D01*
X96355175Y-86683663D01*
X96349926Y-86682714D01*
X96349923Y-86682713D01*
X96132392Y-86643377D01*
X96132385Y-86643376D01*
X96128308Y-86642639D01*
X96110586Y-86641803D01*
X96105644Y-86641570D01*
X96105637Y-86641570D01*
X96104156Y-86641500D01*
X95942110Y-86641500D01*
X95875191Y-86647178D01*
X95775591Y-86655629D01*
X95775587Y-86655630D01*
X95770280Y-86656080D01*
X95765125Y-86657418D01*
X95765119Y-86657419D01*
X95552297Y-86712657D01*
X95552293Y-86712658D01*
X95547128Y-86713999D01*
X95542262Y-86716191D01*
X95542259Y-86716192D01*
X95433980Y-86764968D01*
X95336925Y-86808688D01*
X95145681Y-86937441D01*
X94978865Y-87096576D01*
X94841246Y-87281542D01*
X94736760Y-87487051D01*
X94735178Y-87492145D01*
X94735177Y-87492148D01*
X94673115Y-87692020D01*
X94668393Y-87707227D01*
X94667692Y-87712516D01*
X94652304Y-87828623D01*
X94638102Y-87935774D01*
X93508500Y-87935774D01*
X93508500Y-87842179D01*
X93468940Y-87529025D01*
X93390443Y-87223298D01*
X93340270Y-87096576D01*
X93275702Y-86933495D01*
X93275700Y-86933490D01*
X93274247Y-86929821D01*
X93207653Y-86808688D01*
X93124093Y-86656693D01*
X93124091Y-86656690D01*
X93122184Y-86653221D01*
X92957734Y-86426874D01*
X92938982Y-86401064D01*
X92938981Y-86401062D01*
X92936654Y-86397860D01*
X92731086Y-86178953D01*
X92723297Y-86170658D01*
X92723296Y-86170657D01*
X92720582Y-86167767D01*
X92688916Y-86141570D01*
X92480427Y-85969093D01*
X92477375Y-85966568D01*
X92210869Y-85797438D01*
X92207290Y-85795754D01*
X92207283Y-85795750D01*
X91928856Y-85664733D01*
X91928852Y-85664731D01*
X91925266Y-85663044D01*
X91625072Y-85565505D01*
X91315020Y-85506359D01*
X91078838Y-85491500D01*
X90921162Y-85491500D01*
X90684980Y-85506359D01*
X90374928Y-85565505D01*
X90074734Y-85663044D01*
X90071148Y-85664731D01*
X90071144Y-85664733D01*
X89792717Y-85795750D01*
X89792710Y-85795754D01*
X89789131Y-85797438D01*
X89522625Y-85966568D01*
X89519573Y-85969093D01*
X89311085Y-86141570D01*
X89279418Y-86167767D01*
X89276704Y-86170657D01*
X89276703Y-86170658D01*
X89268914Y-86178953D01*
X89063346Y-86397860D01*
X89061019Y-86401062D01*
X89061018Y-86401064D01*
X89042266Y-86426874D01*
X88877816Y-86653221D01*
X88875909Y-86656690D01*
X88875907Y-86656693D01*
X88792347Y-86808688D01*
X88725753Y-86929821D01*
X88724300Y-86933490D01*
X88724298Y-86933495D01*
X88659730Y-87096576D01*
X88609557Y-87223298D01*
X88531060Y-87529025D01*
X88491500Y-87842179D01*
X88491500Y-88157821D01*
X87349493Y-88157821D01*
X87361198Y-88069511D01*
X87361198Y-88069506D01*
X87361898Y-88064226D01*
X87353249Y-87833842D01*
X87305907Y-87608209D01*
X87221224Y-87393779D01*
X87154964Y-87284585D01*
X87136725Y-87215973D01*
X87158476Y-87148391D01*
X87213312Y-87103296D01*
X87252797Y-87093609D01*
X87316965Y-87088559D01*
X87446326Y-87078378D01*
X87451133Y-87077224D01*
X87451139Y-87077223D01*
X87609498Y-87039204D01*
X87696340Y-87018355D01*
X87700913Y-87016461D01*
X87929313Y-86921855D01*
X87929317Y-86921853D01*
X87933887Y-86919960D01*
X88153116Y-86785616D01*
X88348631Y-86618631D01*
X88515616Y-86423116D01*
X88649960Y-86203887D01*
X88664922Y-86167767D01*
X88746461Y-85970913D01*
X88746462Y-85970911D01*
X88748355Y-85966340D01*
X88808378Y-85716326D01*
X88828551Y-85460000D01*
X88808378Y-85203674D01*
X88748355Y-84953660D01*
X88649960Y-84716113D01*
X88515616Y-84496884D01*
X88348631Y-84301369D01*
X88153116Y-84134384D01*
X88067379Y-84081844D01*
X88008665Y-84045864D01*
X87961034Y-83993216D01*
X87948500Y-83938431D01*
X87948500Y-82920000D01*
X91871449Y-82920000D01*
X91891622Y-83176326D01*
X91951645Y-83426340D01*
X92050040Y-83663887D01*
X92184384Y-83883116D01*
X92351369Y-84078631D01*
X92546884Y-84245616D01*
X92766113Y-84379960D01*
X92770683Y-84381853D01*
X92770687Y-84381855D01*
X92999087Y-84476461D01*
X93003660Y-84478355D01*
X93065157Y-84493119D01*
X93248861Y-84537223D01*
X93248867Y-84537224D01*
X93253674Y-84538378D01*
X93510000Y-84558551D01*
X93766326Y-84538378D01*
X93771133Y-84537224D01*
X93771139Y-84537223D01*
X93954843Y-84493119D01*
X94016340Y-84478355D01*
X94020913Y-84476461D01*
X94249313Y-84381855D01*
X94249317Y-84381853D01*
X94253887Y-84379960D01*
X94473116Y-84245616D01*
X94668631Y-84078631D01*
X94835616Y-83883116D01*
X94969960Y-83663887D01*
X95068355Y-83426340D01*
X95128378Y-83176326D01*
X95148551Y-82920000D01*
X95128378Y-82663674D01*
X95068355Y-82413660D01*
X94969960Y-82176113D01*
X94835616Y-81956884D01*
X94668631Y-81761369D01*
X94473116Y-81594384D01*
X94253887Y-81460040D01*
X94249317Y-81458147D01*
X94249313Y-81458145D01*
X94020913Y-81363539D01*
X94020911Y-81363538D01*
X94016340Y-81361645D01*
X93929498Y-81340796D01*
X93771139Y-81302777D01*
X93771133Y-81302776D01*
X93766326Y-81301622D01*
X93510000Y-81281449D01*
X93253674Y-81301622D01*
X93248867Y-81302776D01*
X93248861Y-81302777D01*
X93090502Y-81340796D01*
X93003660Y-81361645D01*
X92999089Y-81363538D01*
X92999087Y-81363539D01*
X92770687Y-81458145D01*
X92770683Y-81458147D01*
X92766113Y-81460040D01*
X92546884Y-81594384D01*
X92351369Y-81761369D01*
X92184384Y-81956884D01*
X92050040Y-82176113D01*
X91951645Y-82413660D01*
X91891622Y-82663674D01*
X91871449Y-82920000D01*
X87948500Y-82920000D01*
X87948500Y-67376371D01*
X87968502Y-67308250D01*
X87985405Y-67287276D01*
X90357276Y-64915405D01*
X90419588Y-64881379D01*
X90446371Y-64878500D01*
X94052930Y-64878500D01*
X94071880Y-64879933D01*
X94086115Y-64882099D01*
X94086119Y-64882099D01*
X94093349Y-64883199D01*
X94100641Y-64882606D01*
X94100644Y-64882606D01*
X94146018Y-64878915D01*
X94156233Y-64878500D01*
X94164293Y-64878500D01*
X94177583Y-64876951D01*
X94192507Y-64875211D01*
X94196882Y-64874778D01*
X94262339Y-64869454D01*
X94262342Y-64869453D01*
X94269637Y-64868860D01*
X94276601Y-64866604D01*
X94282560Y-64865413D01*
X94288415Y-64864029D01*
X94295681Y-64863182D01*
X94364327Y-64838265D01*
X94368455Y-64836848D01*
X94430936Y-64816607D01*
X94430938Y-64816606D01*
X94437899Y-64814351D01*
X94444154Y-64810555D01*
X94449628Y-64808049D01*
X94455058Y-64805330D01*
X94461937Y-64802833D01*
X94522976Y-64762814D01*
X94526680Y-64760477D01*
X94589107Y-64722595D01*
X94597484Y-64715197D01*
X94597508Y-64715224D01*
X94600500Y-64712571D01*
X94603733Y-64709868D01*
X94609852Y-64705856D01*
X94663128Y-64649617D01*
X94665506Y-64647175D01*
X101835289Y-57477392D01*
X101897601Y-57443366D01*
X101949505Y-57443017D01*
X102042857Y-57462010D01*
X102042865Y-57462011D01*
X102047928Y-57463041D01*
X102182121Y-57467962D01*
X102280760Y-57471579D01*
X102280764Y-57471579D01*
X102285924Y-57471768D01*
X102291044Y-57471112D01*
X102291046Y-57471112D01*
X102517023Y-57442164D01*
X102517024Y-57442164D01*
X102522151Y-57441507D01*
X102606803Y-57416110D01*
X102745316Y-57374554D01*
X102745317Y-57374553D01*
X102750262Y-57373070D01*
X102964133Y-57268295D01*
X102968336Y-57265297D01*
X102968341Y-57265294D01*
X103153816Y-57132996D01*
X103153818Y-57132994D01*
X103158020Y-57129997D01*
X103326716Y-56961889D01*
X103384979Y-56880807D01*
X103440972Y-56837160D01*
X103511676Y-56830714D01*
X103574640Y-56863516D01*
X103586582Y-56877176D01*
X103587274Y-56878306D01*
X103743204Y-57058317D01*
X103926442Y-57210444D01*
X103939073Y-57217825D01*
X103987795Y-57269463D01*
X104001500Y-57326611D01*
X104001500Y-69892930D01*
X104000067Y-69911880D01*
X103996801Y-69933349D01*
X103997394Y-69940641D01*
X103997394Y-69940644D01*
X104001085Y-69986018D01*
X104001500Y-69996233D01*
X104001500Y-70004293D01*
X104001925Y-70007937D01*
X104004789Y-70032507D01*
X104005222Y-70036882D01*
X104011140Y-70109637D01*
X104013396Y-70116601D01*
X104014587Y-70122560D01*
X104015971Y-70128415D01*
X104016818Y-70135681D01*
X104041735Y-70204327D01*
X104043152Y-70208455D01*
X104065649Y-70277899D01*
X104069445Y-70284154D01*
X104071951Y-70289628D01*
X104074670Y-70295058D01*
X104077167Y-70301937D01*
X104081180Y-70308057D01*
X104081180Y-70308058D01*
X104117186Y-70362976D01*
X104119523Y-70366680D01*
X104157405Y-70429107D01*
X104161121Y-70433315D01*
X104161122Y-70433316D01*
X104164803Y-70437484D01*
X104164776Y-70437508D01*
X104167429Y-70440500D01*
X104170132Y-70443733D01*
X104174144Y-70449852D01*
X104179456Y-70454884D01*
X104230383Y-70503128D01*
X104232825Y-70505506D01*
X119676230Y-85948911D01*
X119688616Y-85963323D01*
X119697149Y-85974918D01*
X119697154Y-85974923D01*
X119701492Y-85980818D01*
X119707070Y-85985557D01*
X119707073Y-85985560D01*
X119741768Y-86015035D01*
X119749284Y-86021965D01*
X119754979Y-86027660D01*
X119757861Y-86029940D01*
X119777251Y-86045281D01*
X119780655Y-86048072D01*
X119830703Y-86090591D01*
X119836285Y-86095333D01*
X119842801Y-86098661D01*
X119847850Y-86102028D01*
X119852979Y-86105195D01*
X119858716Y-86109734D01*
X119924875Y-86140655D01*
X119928769Y-86142558D01*
X119993808Y-86175769D01*
X120000916Y-86177508D01*
X120006559Y-86179607D01*
X120012322Y-86181524D01*
X120018950Y-86184622D01*
X120026112Y-86186112D01*
X120026113Y-86186112D01*
X120090412Y-86199486D01*
X120094696Y-86200456D01*
X120165610Y-86217808D01*
X120171212Y-86218156D01*
X120171215Y-86218156D01*
X120176764Y-86218500D01*
X120176762Y-86218536D01*
X120180755Y-86218775D01*
X120184947Y-86219149D01*
X120192115Y-86220640D01*
X120269520Y-86218546D01*
X120272928Y-86218500D01*
X155668431Y-86218500D01*
X155736552Y-86238502D01*
X155775864Y-86278665D01*
X155864384Y-86423116D01*
X155884156Y-86446266D01*
X155913186Y-86511051D01*
X155902582Y-86581251D01*
X155855708Y-86634574D01*
X155798998Y-86653643D01*
X155775591Y-86655629D01*
X155775587Y-86655630D01*
X155770280Y-86656080D01*
X155765125Y-86657418D01*
X155765119Y-86657419D01*
X155552297Y-86712657D01*
X155552293Y-86712658D01*
X155547128Y-86713999D01*
X155542262Y-86716191D01*
X155542259Y-86716192D01*
X155433980Y-86764968D01*
X155336925Y-86808688D01*
X155145681Y-86937441D01*
X154978865Y-87096576D01*
X154841246Y-87281542D01*
X154736760Y-87487051D01*
X154735178Y-87492145D01*
X154735177Y-87492148D01*
X154673115Y-87692020D01*
X154668393Y-87707227D01*
X154667692Y-87712516D01*
X154652304Y-87828623D01*
X154638102Y-87935774D01*
X154646751Y-88166158D01*
X154694093Y-88391791D01*
X154778776Y-88606221D01*
X154898377Y-88803317D01*
X154901874Y-88807347D01*
X154988438Y-88907103D01*
X155049477Y-88977445D01*
X155053608Y-88980832D01*
X155223627Y-89120240D01*
X155223633Y-89120244D01*
X155227755Y-89123624D01*
X155232391Y-89126263D01*
X155232394Y-89126265D01*
X155341422Y-89188327D01*
X155428114Y-89237675D01*
X155644825Y-89316337D01*
X155650074Y-89317286D01*
X155650077Y-89317287D01*
X155867608Y-89356623D01*
X155867615Y-89356624D01*
X155871692Y-89357361D01*
X155889414Y-89358197D01*
X155894356Y-89358430D01*
X155894363Y-89358430D01*
X155895844Y-89358500D01*
X156057890Y-89358500D01*
X156124809Y-89352822D01*
X156224409Y-89344371D01*
X156224413Y-89344370D01*
X156229720Y-89343920D01*
X156234875Y-89342582D01*
X156234881Y-89342581D01*
X156447703Y-89287343D01*
X156447707Y-89287342D01*
X156452872Y-89286001D01*
X156457738Y-89283809D01*
X156457741Y-89283808D01*
X156658202Y-89193507D01*
X156663075Y-89191312D01*
X156854319Y-89062559D01*
X157021135Y-88903424D01*
X157158754Y-88718458D01*
X157263240Y-88512949D01*
X157276274Y-88470975D01*
X157330024Y-88297871D01*
X157331607Y-88292773D01*
X157332308Y-88287484D01*
X157349493Y-88157821D01*
X158491500Y-88157821D01*
X158531060Y-88470975D01*
X158609557Y-88776702D01*
X158611010Y-88780371D01*
X158611010Y-88780372D01*
X158721279Y-89058878D01*
X158725753Y-89070179D01*
X158727659Y-89073647D01*
X158727660Y-89073648D01*
X158861603Y-89317287D01*
X158877816Y-89346779D01*
X159063346Y-89602140D01*
X159279418Y-89832233D01*
X159522625Y-90033432D01*
X159789131Y-90202562D01*
X159792710Y-90204246D01*
X159792717Y-90204250D01*
X160071144Y-90335267D01*
X160071148Y-90335269D01*
X160074734Y-90336956D01*
X160374928Y-90434495D01*
X160684980Y-90493641D01*
X160921162Y-90508500D01*
X161078838Y-90508500D01*
X161315020Y-90493641D01*
X161625072Y-90434495D01*
X161925266Y-90336956D01*
X161928852Y-90335269D01*
X161928856Y-90335267D01*
X162207283Y-90204250D01*
X162207290Y-90204246D01*
X162210869Y-90202562D01*
X162477375Y-90033432D01*
X162720582Y-89832233D01*
X162936654Y-89602140D01*
X163122184Y-89346779D01*
X163138398Y-89317287D01*
X163272340Y-89073648D01*
X163272341Y-89073647D01*
X163274247Y-89070179D01*
X163278722Y-89058878D01*
X163388990Y-88780372D01*
X163388990Y-88780371D01*
X163390443Y-88776702D01*
X163468940Y-88470975D01*
X163508500Y-88157821D01*
X163508500Y-87935774D01*
X164638102Y-87935774D01*
X164646751Y-88166158D01*
X164694093Y-88391791D01*
X164778776Y-88606221D01*
X164898377Y-88803317D01*
X164901874Y-88807347D01*
X164988438Y-88907103D01*
X165049477Y-88977445D01*
X165053608Y-88980832D01*
X165223627Y-89120240D01*
X165223633Y-89120244D01*
X165227755Y-89123624D01*
X165232391Y-89126263D01*
X165232394Y-89126265D01*
X165341422Y-89188327D01*
X165428114Y-89237675D01*
X165644825Y-89316337D01*
X165650074Y-89317286D01*
X165650077Y-89317287D01*
X165867608Y-89356623D01*
X165867615Y-89356624D01*
X165871692Y-89357361D01*
X165889414Y-89358197D01*
X165894356Y-89358430D01*
X165894363Y-89358430D01*
X165895844Y-89358500D01*
X166057890Y-89358500D01*
X166124809Y-89352822D01*
X166224409Y-89344371D01*
X166224413Y-89344370D01*
X166229720Y-89343920D01*
X166234875Y-89342582D01*
X166234881Y-89342581D01*
X166447703Y-89287343D01*
X166447707Y-89287342D01*
X166452872Y-89286001D01*
X166457738Y-89283809D01*
X166457741Y-89283808D01*
X166658202Y-89193507D01*
X166663075Y-89191312D01*
X166854319Y-89062559D01*
X167021135Y-88903424D01*
X167158754Y-88718458D01*
X167263240Y-88512949D01*
X167276274Y-88470975D01*
X167330024Y-88297871D01*
X167331607Y-88292773D01*
X167332308Y-88287484D01*
X167361198Y-88069511D01*
X167361198Y-88069506D01*
X167361898Y-88064226D01*
X167353249Y-87833842D01*
X167305907Y-87608209D01*
X167221224Y-87393779D01*
X167101623Y-87196683D01*
X167098126Y-87192653D01*
X166954023Y-87026588D01*
X166954021Y-87026586D01*
X166950523Y-87022555D01*
X166908970Y-86988484D01*
X166776373Y-86879760D01*
X166776367Y-86879756D01*
X166772245Y-86876376D01*
X166767609Y-86873737D01*
X166767606Y-86873735D01*
X166576529Y-86764968D01*
X166571886Y-86762325D01*
X166355175Y-86683663D01*
X166349926Y-86682714D01*
X166349923Y-86682713D01*
X166132392Y-86643377D01*
X166132385Y-86643376D01*
X166128308Y-86642639D01*
X166110586Y-86641803D01*
X166105644Y-86641570D01*
X166105637Y-86641570D01*
X166104156Y-86641500D01*
X165942110Y-86641500D01*
X165875191Y-86647178D01*
X165775591Y-86655629D01*
X165775587Y-86655630D01*
X165770280Y-86656080D01*
X165765125Y-86657418D01*
X165765119Y-86657419D01*
X165552297Y-86712657D01*
X165552293Y-86712658D01*
X165547128Y-86713999D01*
X165542262Y-86716191D01*
X165542259Y-86716192D01*
X165433980Y-86764968D01*
X165336925Y-86808688D01*
X165145681Y-86937441D01*
X164978865Y-87096576D01*
X164841246Y-87281542D01*
X164736760Y-87487051D01*
X164735178Y-87492145D01*
X164735177Y-87492148D01*
X164673115Y-87692020D01*
X164668393Y-87707227D01*
X164667692Y-87712516D01*
X164652304Y-87828623D01*
X164638102Y-87935774D01*
X163508500Y-87935774D01*
X163508500Y-87842179D01*
X163468940Y-87529025D01*
X163390443Y-87223298D01*
X163340270Y-87096576D01*
X163275702Y-86933495D01*
X163275700Y-86933490D01*
X163274247Y-86929821D01*
X163207653Y-86808688D01*
X163124093Y-86656693D01*
X163124091Y-86656690D01*
X163122184Y-86653221D01*
X162957734Y-86426874D01*
X162938982Y-86401064D01*
X162938981Y-86401062D01*
X162936654Y-86397860D01*
X162731086Y-86178953D01*
X162723297Y-86170658D01*
X162723296Y-86170657D01*
X162720582Y-86167767D01*
X162688916Y-86141570D01*
X162480427Y-85969093D01*
X162477375Y-85966568D01*
X162210869Y-85797438D01*
X162207290Y-85795754D01*
X162207283Y-85795750D01*
X161928856Y-85664733D01*
X161928852Y-85664731D01*
X161925266Y-85663044D01*
X161625072Y-85565505D01*
X161315020Y-85506359D01*
X161078838Y-85491500D01*
X160921162Y-85491500D01*
X160684980Y-85506359D01*
X160374928Y-85565505D01*
X160074734Y-85663044D01*
X160071148Y-85664731D01*
X160071144Y-85664733D01*
X159792717Y-85795750D01*
X159792710Y-85795754D01*
X159789131Y-85797438D01*
X159522625Y-85966568D01*
X159519573Y-85969093D01*
X159311085Y-86141570D01*
X159279418Y-86167767D01*
X159276704Y-86170657D01*
X159276703Y-86170658D01*
X159268914Y-86178953D01*
X159063346Y-86397860D01*
X159061019Y-86401062D01*
X159061018Y-86401064D01*
X159042266Y-86426874D01*
X158877816Y-86653221D01*
X158875909Y-86656690D01*
X158875907Y-86656693D01*
X158792347Y-86808688D01*
X158725753Y-86929821D01*
X158724300Y-86933490D01*
X158724298Y-86933495D01*
X158659730Y-87096576D01*
X158609557Y-87223298D01*
X158531060Y-87529025D01*
X158491500Y-87842179D01*
X158491500Y-88157821D01*
X157349493Y-88157821D01*
X157361198Y-88069511D01*
X157361198Y-88069506D01*
X157361898Y-88064226D01*
X157353249Y-87833842D01*
X157305907Y-87608209D01*
X157221224Y-87393779D01*
X157154964Y-87284585D01*
X157136725Y-87215973D01*
X157158476Y-87148391D01*
X157213312Y-87103296D01*
X157252797Y-87093609D01*
X157316965Y-87088559D01*
X157446326Y-87078378D01*
X157451133Y-87077224D01*
X157451139Y-87077223D01*
X157609498Y-87039204D01*
X157696340Y-87018355D01*
X157700913Y-87016461D01*
X157929313Y-86921855D01*
X157929317Y-86921853D01*
X157933887Y-86919960D01*
X158153116Y-86785616D01*
X158348631Y-86618631D01*
X158515616Y-86423116D01*
X158649960Y-86203887D01*
X158664922Y-86167767D01*
X158746461Y-85970913D01*
X158746462Y-85970911D01*
X158748355Y-85966340D01*
X158808378Y-85716326D01*
X158828551Y-85460000D01*
X158808378Y-85203674D01*
X158748355Y-84953660D01*
X158649960Y-84716113D01*
X158515616Y-84496884D01*
X158348631Y-84301369D01*
X158153116Y-84134384D01*
X157933887Y-84000040D01*
X157929317Y-83998147D01*
X157929313Y-83998145D01*
X157700913Y-83903539D01*
X157700911Y-83903538D01*
X157696340Y-83901645D01*
X157601596Y-83878899D01*
X157451139Y-83842777D01*
X157451133Y-83842776D01*
X157446326Y-83841622D01*
X157190000Y-83821449D01*
X156933674Y-83841622D01*
X156928867Y-83842776D01*
X156928861Y-83842777D01*
X156778404Y-83878899D01*
X156683660Y-83901645D01*
X156679089Y-83903538D01*
X156679087Y-83903539D01*
X156450687Y-83998145D01*
X156450683Y-83998147D01*
X156446113Y-84000040D01*
X156226884Y-84134384D01*
X156031369Y-84301369D01*
X155864384Y-84496884D01*
X155861800Y-84501101D01*
X155775864Y-84641335D01*
X155723216Y-84688966D01*
X155668431Y-84701500D01*
X120626371Y-84701500D01*
X120558250Y-84681498D01*
X120537276Y-84664595D01*
X118792681Y-82920000D01*
X161871449Y-82920000D01*
X161891622Y-83176326D01*
X161951645Y-83426340D01*
X162050040Y-83663887D01*
X162184384Y-83883116D01*
X162351369Y-84078631D01*
X162546884Y-84245616D01*
X162766113Y-84379960D01*
X162770683Y-84381853D01*
X162770687Y-84381855D01*
X162999087Y-84476461D01*
X163003660Y-84478355D01*
X163065157Y-84493119D01*
X163248861Y-84537223D01*
X163248867Y-84537224D01*
X163253674Y-84538378D01*
X163510000Y-84558551D01*
X163766326Y-84538378D01*
X163771133Y-84537224D01*
X163771139Y-84537223D01*
X163954843Y-84493119D01*
X164016340Y-84478355D01*
X164020913Y-84476461D01*
X164249313Y-84381855D01*
X164249317Y-84381853D01*
X164253887Y-84379960D01*
X164473116Y-84245616D01*
X164668631Y-84078631D01*
X164835616Y-83883116D01*
X164969960Y-83663887D01*
X165068355Y-83426340D01*
X165128378Y-83176326D01*
X165148551Y-82920000D01*
X165128378Y-82663674D01*
X165068355Y-82413660D01*
X164969960Y-82176113D01*
X164835616Y-81956884D01*
X164668631Y-81761369D01*
X164473116Y-81594384D01*
X164253887Y-81460040D01*
X164249317Y-81458147D01*
X164249313Y-81458145D01*
X164020913Y-81363539D01*
X164020911Y-81363538D01*
X164016340Y-81361645D01*
X163929498Y-81340796D01*
X163771139Y-81302777D01*
X163771133Y-81302776D01*
X163766326Y-81301622D01*
X163510000Y-81281449D01*
X163253674Y-81301622D01*
X163248867Y-81302776D01*
X163248861Y-81302777D01*
X163090502Y-81340796D01*
X163003660Y-81361645D01*
X162999089Y-81363538D01*
X162999087Y-81363539D01*
X162770687Y-81458145D01*
X162770683Y-81458147D01*
X162766113Y-81460040D01*
X162546884Y-81594384D01*
X162351369Y-81761369D01*
X162184384Y-81956884D01*
X162050040Y-82176113D01*
X161951645Y-82413660D01*
X161891622Y-82663674D01*
X161871449Y-82920000D01*
X118792681Y-82920000D01*
X105555405Y-69682724D01*
X105521379Y-69620412D01*
X105518500Y-69593629D01*
X105518500Y-57322941D01*
X105538502Y-57254820D01*
X105571331Y-57220363D01*
X105698020Y-57129997D01*
X105866716Y-56961889D01*
X105924979Y-56880807D01*
X105980972Y-56837160D01*
X106051676Y-56830714D01*
X106114640Y-56863516D01*
X106126582Y-56877176D01*
X106127274Y-56878306D01*
X106283204Y-57058317D01*
X106436022Y-57185189D01*
X106462464Y-57207141D01*
X106466442Y-57210444D01*
X106470894Y-57213046D01*
X106470899Y-57213049D01*
X106665237Y-57326611D01*
X106672065Y-57330601D01*
X106894552Y-57415560D01*
X106899618Y-57416591D01*
X106899619Y-57416591D01*
X106953956Y-57427646D01*
X107127928Y-57463041D01*
X107262121Y-57467962D01*
X107360760Y-57471579D01*
X107360764Y-57471579D01*
X107365924Y-57471768D01*
X107371044Y-57471112D01*
X107371046Y-57471112D01*
X107597023Y-57442164D01*
X107597024Y-57442164D01*
X107602151Y-57441507D01*
X107686803Y-57416110D01*
X107825316Y-57374554D01*
X107825317Y-57374553D01*
X107830262Y-57373070D01*
X108044133Y-57268295D01*
X108048336Y-57265297D01*
X108048341Y-57265294D01*
X108233816Y-57132996D01*
X108233818Y-57132994D01*
X108238020Y-57129997D01*
X108406716Y-56961889D01*
X108464979Y-56880807D01*
X108520972Y-56837160D01*
X108591676Y-56830714D01*
X108654640Y-56863516D01*
X108666582Y-56877176D01*
X108667274Y-56878306D01*
X108823204Y-57058317D01*
X108976022Y-57185189D01*
X109002464Y-57207141D01*
X109006442Y-57210444D01*
X109010894Y-57213046D01*
X109010899Y-57213049D01*
X109205237Y-57326611D01*
X109212065Y-57330601D01*
X109434552Y-57415560D01*
X109439618Y-57416591D01*
X109439619Y-57416591D01*
X109493956Y-57427646D01*
X109667928Y-57463041D01*
X109802121Y-57467962D01*
X109900760Y-57471579D01*
X109900764Y-57471579D01*
X109905924Y-57471768D01*
X109911044Y-57471112D01*
X109911046Y-57471112D01*
X110137023Y-57442164D01*
X110137024Y-57442164D01*
X110142151Y-57441507D01*
X110226803Y-57416110D01*
X110365316Y-57374554D01*
X110365317Y-57374553D01*
X110370262Y-57373070D01*
X110584133Y-57268295D01*
X110588336Y-57265297D01*
X110588341Y-57265294D01*
X110773816Y-57132996D01*
X110773818Y-57132994D01*
X110778020Y-57129997D01*
X110946716Y-56961889D01*
X111085690Y-56768486D01*
X111131774Y-56675244D01*
X111188917Y-56559624D01*
X111188918Y-56559622D01*
X111191211Y-56554982D01*
X111260443Y-56327111D01*
X111291529Y-56090992D01*
X111293264Y-56020000D01*
X111273750Y-55782644D01*
X111215731Y-55551663D01*
X111120767Y-55333259D01*
X111103694Y-55306867D01*
X111037424Y-55204431D01*
X110991406Y-55133298D01*
X110831124Y-54957150D01*
X110827073Y-54953951D01*
X110827069Y-54953947D01*
X110648278Y-54812747D01*
X110648273Y-54812744D01*
X110644224Y-54809546D01*
X110639708Y-54807053D01*
X110639705Y-54807051D01*
X110440250Y-54696946D01*
X110440246Y-54696944D01*
X110435726Y-54694449D01*
X110430857Y-54692725D01*
X110430853Y-54692723D01*
X110216105Y-54616676D01*
X110216101Y-54616675D01*
X110211230Y-54614950D01*
X110206140Y-54614043D01*
X110206135Y-54614042D01*
X110078814Y-54591364D01*
X109976764Y-54573186D01*
X109887637Y-54572097D01*
X109743795Y-54570339D01*
X109743793Y-54570339D01*
X109738625Y-54570276D01*
X109503209Y-54606300D01*
X109276838Y-54680289D01*
X109065590Y-54790258D01*
X109061457Y-54793361D01*
X109061454Y-54793363D01*
X108879275Y-54930147D01*
X108875140Y-54933252D01*
X108710602Y-55105431D01*
X108688629Y-55137642D01*
X108675186Y-55157349D01*
X108620274Y-55202351D01*
X108549749Y-55210522D01*
X108486002Y-55179267D01*
X108465306Y-55154784D01*
X108454217Y-55137642D01*
X108454212Y-55137636D01*
X108451406Y-55133298D01*
X108291124Y-54957150D01*
X108287073Y-54953951D01*
X108287069Y-54953947D01*
X108108278Y-54812747D01*
X108108273Y-54812744D01*
X108104224Y-54809546D01*
X108099708Y-54807053D01*
X108099705Y-54807051D01*
X107900250Y-54696946D01*
X107900246Y-54696944D01*
X107895726Y-54694449D01*
X107890857Y-54692725D01*
X107890853Y-54692723D01*
X107676105Y-54616676D01*
X107676101Y-54616675D01*
X107671230Y-54614950D01*
X107666140Y-54614043D01*
X107666135Y-54614042D01*
X107538814Y-54591364D01*
X107436764Y-54573186D01*
X107347637Y-54572097D01*
X107203795Y-54570339D01*
X107203793Y-54570339D01*
X107198625Y-54570276D01*
X106963209Y-54606300D01*
X106736838Y-54680289D01*
X106525590Y-54790258D01*
X106521457Y-54793361D01*
X106521454Y-54793363D01*
X106339275Y-54930147D01*
X106335140Y-54933252D01*
X106170602Y-55105431D01*
X106148629Y-55137642D01*
X106135186Y-55157349D01*
X106080274Y-55202351D01*
X106009749Y-55210522D01*
X105946002Y-55179267D01*
X105925306Y-55154784D01*
X105914217Y-55137642D01*
X105914212Y-55137636D01*
X105911406Y-55133298D01*
X105751124Y-54957150D01*
X105747073Y-54953951D01*
X105747069Y-54953947D01*
X105568278Y-54812747D01*
X105568273Y-54812744D01*
X105564224Y-54809546D01*
X105559708Y-54807053D01*
X105559705Y-54807051D01*
X105360250Y-54696946D01*
X105360246Y-54696944D01*
X105355726Y-54694449D01*
X105350857Y-54692725D01*
X105350853Y-54692723D01*
X105136105Y-54616676D01*
X105136101Y-54616675D01*
X105131230Y-54614950D01*
X105126140Y-54614043D01*
X105126135Y-54614042D01*
X104998814Y-54591364D01*
X104896764Y-54573186D01*
X104807637Y-54572097D01*
X104663795Y-54570339D01*
X104663793Y-54570339D01*
X104658625Y-54570276D01*
X104423209Y-54606300D01*
X104196838Y-54680289D01*
X103985590Y-54790258D01*
X103981457Y-54793361D01*
X103981454Y-54793363D01*
X103799275Y-54930147D01*
X103795140Y-54933252D01*
X103630602Y-55105431D01*
X103608629Y-55137642D01*
X103595186Y-55157349D01*
X103540274Y-55202351D01*
X103469749Y-55210522D01*
X103406002Y-55179267D01*
X103385306Y-55154784D01*
X103374217Y-55137642D01*
X103374212Y-55137636D01*
X103371406Y-55133298D01*
X103211124Y-54957150D01*
X103207073Y-54953951D01*
X103207069Y-54953947D01*
X103028278Y-54812747D01*
X103028273Y-54812744D01*
X103024224Y-54809546D01*
X103019708Y-54807053D01*
X103019705Y-54807051D01*
X102820250Y-54696946D01*
X102820246Y-54696944D01*
X102815726Y-54694449D01*
X102810857Y-54692725D01*
X102810853Y-54692723D01*
X102596105Y-54616676D01*
X102596101Y-54616675D01*
X102591230Y-54614950D01*
X102586140Y-54614043D01*
X102586135Y-54614042D01*
X102458814Y-54591364D01*
X102356764Y-54573186D01*
X102267637Y-54572097D01*
X102123795Y-54570339D01*
X102123793Y-54570339D01*
X102118625Y-54570276D01*
X101883209Y-54606300D01*
X101656838Y-54680289D01*
X101445590Y-54790258D01*
X101441457Y-54793361D01*
X101441454Y-54793363D01*
X101259275Y-54930147D01*
X101255140Y-54933252D01*
X101090602Y-55105431D01*
X101068629Y-55137642D01*
X101055186Y-55157349D01*
X101000274Y-55202351D01*
X100929749Y-55210522D01*
X100866002Y-55179267D01*
X100845306Y-55154784D01*
X100834217Y-55137642D01*
X100834212Y-55137636D01*
X100831406Y-55133298D01*
X100671124Y-54957150D01*
X100667073Y-54953951D01*
X100667069Y-54953947D01*
X100488278Y-54812747D01*
X100488273Y-54812744D01*
X100484224Y-54809546D01*
X100479708Y-54807053D01*
X100479705Y-54807051D01*
X100280250Y-54696946D01*
X100280246Y-54696944D01*
X100275726Y-54694449D01*
X100270857Y-54692725D01*
X100270853Y-54692723D01*
X100056105Y-54616676D01*
X100056101Y-54616675D01*
X100051230Y-54614950D01*
X100046140Y-54614043D01*
X100046135Y-54614042D01*
X99918814Y-54591364D01*
X99816764Y-54573186D01*
X99727637Y-54572097D01*
X99583795Y-54570339D01*
X99583793Y-54570339D01*
X99578625Y-54570276D01*
X99343209Y-54606300D01*
X99116838Y-54680289D01*
X98905590Y-54790258D01*
X98901457Y-54793361D01*
X98901454Y-54793363D01*
X98719275Y-54930147D01*
X98715140Y-54933252D01*
X98550602Y-55105431D01*
X98528629Y-55137642D01*
X98515186Y-55157349D01*
X98460274Y-55202351D01*
X98389749Y-55210522D01*
X98326002Y-55179267D01*
X98305306Y-55154784D01*
X98294217Y-55137642D01*
X98294212Y-55137636D01*
X98291406Y-55133298D01*
X98131124Y-54957150D01*
X98127073Y-54953951D01*
X98127069Y-54953947D01*
X97948278Y-54812747D01*
X97948273Y-54812744D01*
X97944224Y-54809546D01*
X97939708Y-54807053D01*
X97939705Y-54807051D01*
X97740250Y-54696946D01*
X97740246Y-54696944D01*
X97735726Y-54694449D01*
X97730857Y-54692725D01*
X97730853Y-54692723D01*
X97516105Y-54616676D01*
X97516101Y-54616675D01*
X97511230Y-54614950D01*
X97506140Y-54614043D01*
X97506135Y-54614042D01*
X97378814Y-54591364D01*
X97276764Y-54573186D01*
X97187637Y-54572097D01*
X97043795Y-54570339D01*
X97043793Y-54570339D01*
X97038625Y-54570276D01*
X96803209Y-54606300D01*
X96576838Y-54680289D01*
X96365590Y-54790258D01*
X96361457Y-54793361D01*
X96361454Y-54793363D01*
X96179275Y-54930147D01*
X96175140Y-54933252D01*
X96010602Y-55105431D01*
X95988629Y-55137642D01*
X95975186Y-55157349D01*
X95920274Y-55202351D01*
X95849749Y-55210522D01*
X95786002Y-55179267D01*
X95765306Y-55154784D01*
X95754217Y-55137642D01*
X95754212Y-55137636D01*
X95751406Y-55133298D01*
X95591124Y-54957150D01*
X95587073Y-54953951D01*
X95587069Y-54953947D01*
X95408278Y-54812747D01*
X95408273Y-54812744D01*
X95404224Y-54809546D01*
X95399708Y-54807053D01*
X95399705Y-54807051D01*
X95200250Y-54696946D01*
X95200246Y-54696944D01*
X95195726Y-54694449D01*
X95190857Y-54692725D01*
X95190853Y-54692723D01*
X94976105Y-54616676D01*
X94976101Y-54616675D01*
X94971230Y-54614950D01*
X94966140Y-54614043D01*
X94966135Y-54614042D01*
X94838814Y-54591364D01*
X94736764Y-54573186D01*
X94647637Y-54572097D01*
X94503795Y-54570339D01*
X94503793Y-54570339D01*
X94498625Y-54570276D01*
X94263209Y-54606300D01*
X94036838Y-54680289D01*
X93825590Y-54790258D01*
X93821457Y-54793361D01*
X93821454Y-54793363D01*
X93639275Y-54930147D01*
X93635140Y-54933252D01*
X93470602Y-55105431D01*
X93448629Y-55137642D01*
X93435186Y-55157349D01*
X93380274Y-55202351D01*
X93309749Y-55210522D01*
X93246002Y-55179267D01*
X93225306Y-55154784D01*
X93214217Y-55137642D01*
X93214212Y-55137636D01*
X93211406Y-55133298D01*
X93051124Y-54957150D01*
X93047073Y-54953951D01*
X93047069Y-54953947D01*
X92868278Y-54812747D01*
X92868273Y-54812744D01*
X92864224Y-54809546D01*
X92859708Y-54807053D01*
X92859705Y-54807051D01*
X92660250Y-54696946D01*
X92660246Y-54696944D01*
X92655726Y-54694449D01*
X92650857Y-54692725D01*
X92650853Y-54692723D01*
X92436105Y-54616676D01*
X92436101Y-54616675D01*
X92431230Y-54614950D01*
X92426140Y-54614043D01*
X92426135Y-54614042D01*
X92298814Y-54591364D01*
X92196764Y-54573186D01*
X92107637Y-54572097D01*
X91963795Y-54570339D01*
X91963793Y-54570339D01*
X91958625Y-54570276D01*
X91723209Y-54606300D01*
X91496838Y-54680289D01*
X91285590Y-54790258D01*
X91281457Y-54793361D01*
X91281454Y-54793363D01*
X91099275Y-54930147D01*
X91095140Y-54933252D01*
X90930602Y-55105431D01*
X90888064Y-55167790D01*
X90833155Y-55212790D01*
X90762631Y-55220961D01*
X90710940Y-55196588D01*
X90708940Y-55196307D01*
X90697755Y-55201456D01*
X89892021Y-56007189D01*
X89884408Y-56021132D01*
X89884539Y-56022966D01*
X89888790Y-56029580D01*
X90694826Y-56835615D01*
X90708096Y-56842861D01*
X90770005Y-56819078D01*
X90839523Y-56833490D01*
X90881899Y-56870245D01*
X90884574Y-56873899D01*
X90887274Y-56878306D01*
X91043204Y-57058317D01*
X91196022Y-57185189D01*
X91222464Y-57207141D01*
X91226442Y-57210444D01*
X91230894Y-57213046D01*
X91230899Y-57213049D01*
X91425237Y-57326611D01*
X91432065Y-57330601D01*
X91654552Y-57415560D01*
X91659618Y-57416591D01*
X91659619Y-57416591D01*
X91713956Y-57427646D01*
X91887928Y-57463041D01*
X92022121Y-57467962D01*
X92120760Y-57471579D01*
X92120764Y-57471579D01*
X92125924Y-57471768D01*
X92131044Y-57471112D01*
X92131046Y-57471112D01*
X92357023Y-57442164D01*
X92357024Y-57442164D01*
X92362151Y-57441507D01*
X92446803Y-57416110D01*
X92585316Y-57374554D01*
X92585317Y-57374553D01*
X92590262Y-57373070D01*
X92804133Y-57268295D01*
X92808336Y-57265297D01*
X92808341Y-57265294D01*
X92993816Y-57132996D01*
X92993818Y-57132994D01*
X92998020Y-57129997D01*
X93166716Y-56961889D01*
X93224979Y-56880807D01*
X93280972Y-56837160D01*
X93351676Y-56830714D01*
X93414640Y-56863516D01*
X93426582Y-56877176D01*
X93427274Y-56878306D01*
X93583204Y-57058317D01*
X93736022Y-57185189D01*
X93762464Y-57207141D01*
X93766442Y-57210444D01*
X93770894Y-57213046D01*
X93770899Y-57213049D01*
X93965237Y-57326611D01*
X93972065Y-57330601D01*
X94194552Y-57415560D01*
X94199618Y-57416591D01*
X94199619Y-57416591D01*
X94253956Y-57427646D01*
X94427928Y-57463041D01*
X94562121Y-57467962D01*
X94660760Y-57471579D01*
X94660764Y-57471579D01*
X94665924Y-57471768D01*
X94671044Y-57471112D01*
X94671046Y-57471112D01*
X94897023Y-57442164D01*
X94897024Y-57442164D01*
X94902151Y-57441507D01*
X94986803Y-57416110D01*
X95125316Y-57374554D01*
X95125317Y-57374553D01*
X95130262Y-57373070D01*
X95344133Y-57268295D01*
X95348336Y-57265297D01*
X95348341Y-57265294D01*
X95533816Y-57132996D01*
X95533818Y-57132994D01*
X95538020Y-57129997D01*
X95706716Y-56961889D01*
X95764979Y-56880807D01*
X95820972Y-56837160D01*
X95891676Y-56830714D01*
X95954640Y-56863516D01*
X95966582Y-56877176D01*
X95967274Y-56878306D01*
X96123204Y-57058317D01*
X96276022Y-57185189D01*
X96302464Y-57207141D01*
X96306442Y-57210444D01*
X96310894Y-57213046D01*
X96310899Y-57213049D01*
X96505237Y-57326611D01*
X96512065Y-57330601D01*
X96734552Y-57415560D01*
X96739618Y-57416591D01*
X96739619Y-57416591D01*
X96793956Y-57427646D01*
X96967928Y-57463041D01*
X97102121Y-57467962D01*
X97200760Y-57471579D01*
X97200764Y-57471579D01*
X97205924Y-57471768D01*
X97211044Y-57471112D01*
X97211046Y-57471112D01*
X97437023Y-57442164D01*
X97437024Y-57442164D01*
X97442151Y-57441507D01*
X97526803Y-57416110D01*
X97665316Y-57374554D01*
X97665317Y-57374553D01*
X97670262Y-57373070D01*
X97884133Y-57268295D01*
X97888336Y-57265297D01*
X97888341Y-57265294D01*
X98073816Y-57132996D01*
X98073818Y-57132994D01*
X98078020Y-57129997D01*
X98246716Y-56961889D01*
X98304979Y-56880807D01*
X98360972Y-56837160D01*
X98431676Y-56830714D01*
X98494640Y-56863516D01*
X98506582Y-56877176D01*
X98507274Y-56878306D01*
X98663204Y-57058317D01*
X98816022Y-57185189D01*
X98842464Y-57207141D01*
X98846442Y-57210444D01*
X98850894Y-57213046D01*
X98850899Y-57213049D01*
X99045237Y-57326611D01*
X99052065Y-57330601D01*
X99274552Y-57415560D01*
X99279618Y-57416591D01*
X99279619Y-57416591D01*
X99352885Y-57431497D01*
X99441294Y-57449484D01*
X99504060Y-57482666D01*
X99538922Y-57544514D01*
X99534813Y-57615391D01*
X99505269Y-57662050D01*
X93842724Y-63324595D01*
X93780412Y-63358621D01*
X93753629Y-63361500D01*
X90147069Y-63361500D01*
X90128121Y-63360067D01*
X90120780Y-63358950D01*
X90113883Y-63357901D01*
X90113881Y-63357901D01*
X90106651Y-63356801D01*
X90099359Y-63357394D01*
X90099356Y-63357394D01*
X90053982Y-63361085D01*
X90043767Y-63361500D01*
X90035707Y-63361500D01*
X90022417Y-63363049D01*
X90007493Y-63364789D01*
X90003118Y-63365222D01*
X89937661Y-63370546D01*
X89937658Y-63370547D01*
X89930363Y-63371140D01*
X89923399Y-63373396D01*
X89917440Y-63374587D01*
X89911585Y-63375971D01*
X89904319Y-63376818D01*
X89835673Y-63401735D01*
X89831545Y-63403152D01*
X89769064Y-63423393D01*
X89769062Y-63423394D01*
X89762101Y-63425649D01*
X89755846Y-63429445D01*
X89750372Y-63431951D01*
X89744942Y-63434670D01*
X89738063Y-63437167D01*
X89677016Y-63477191D01*
X89673327Y-63479518D01*
X89653135Y-63491771D01*
X89615693Y-63514491D01*
X89615688Y-63514495D01*
X89610892Y-63517405D01*
X89602516Y-63524803D01*
X89602493Y-63524777D01*
X89599503Y-63527426D01*
X89596264Y-63530134D01*
X89590148Y-63534144D01*
X89585121Y-63539451D01*
X89585117Y-63539454D01*
X89536872Y-63590383D01*
X89534494Y-63592825D01*
X86701089Y-66426230D01*
X86686677Y-66438616D01*
X86675082Y-66447149D01*
X86675077Y-66447154D01*
X86669182Y-66451492D01*
X86664443Y-66457070D01*
X86664440Y-66457073D01*
X86634965Y-66491768D01*
X86628035Y-66499284D01*
X86622340Y-66504979D01*
X86620060Y-66507861D01*
X86604719Y-66527251D01*
X86601928Y-66530655D01*
X86559409Y-66580703D01*
X86554667Y-66586285D01*
X86551339Y-66592801D01*
X86547972Y-66597850D01*
X86544805Y-66602979D01*
X86540266Y-66608716D01*
X86509345Y-66674875D01*
X86507442Y-66678769D01*
X86474231Y-66743808D01*
X86472492Y-66750916D01*
X86470393Y-66756559D01*
X86468476Y-66762322D01*
X86465378Y-66768950D01*
X86463888Y-66776112D01*
X86463888Y-66776113D01*
X86450514Y-66840412D01*
X86449544Y-66844696D01*
X86432192Y-66915610D01*
X86431500Y-66926764D01*
X86431464Y-66926762D01*
X86431225Y-66930755D01*
X86430851Y-66934947D01*
X86429360Y-66942115D01*
X86429558Y-66949432D01*
X86431454Y-67019521D01*
X86431500Y-67022928D01*
X86431500Y-83938431D01*
X86411498Y-84006552D01*
X86371335Y-84045864D01*
X86312621Y-84081844D01*
X86226884Y-84134384D01*
X86031369Y-84301369D01*
X85864384Y-84496884D01*
X85730040Y-84716113D01*
X85631645Y-84953660D01*
X85571622Y-85203674D01*
X85551449Y-85460000D01*
X85571622Y-85716326D01*
X85631645Y-85966340D01*
X85633538Y-85970911D01*
X85633539Y-85970913D01*
X85715079Y-86167767D01*
X85730040Y-86203887D01*
X85864384Y-86423116D01*
X85884156Y-86446266D01*
X85913186Y-86511051D01*
X85902582Y-86581251D01*
X85855708Y-86634574D01*
X85798998Y-86653643D01*
X85775591Y-86655629D01*
X85775587Y-86655630D01*
X85770280Y-86656080D01*
X85765125Y-86657418D01*
X85765119Y-86657419D01*
X85552297Y-86712657D01*
X85552293Y-86712658D01*
X85547128Y-86713999D01*
X85542262Y-86716191D01*
X85542259Y-86716192D01*
X85433980Y-86764968D01*
X85336925Y-86808688D01*
X85145681Y-86937441D01*
X84978865Y-87096576D01*
X84841246Y-87281542D01*
X84736760Y-87487051D01*
X84735178Y-87492145D01*
X84735177Y-87492148D01*
X84673115Y-87692020D01*
X84668393Y-87707227D01*
X84667692Y-87712516D01*
X84652304Y-87828623D01*
X84638102Y-87935774D01*
X76508500Y-87935774D01*
X76508500Y-55984494D01*
X80447170Y-55984494D01*
X80447467Y-55989646D01*
X80447467Y-55989650D01*
X80453502Y-56094313D01*
X80460879Y-56222255D01*
X80462016Y-56227301D01*
X80462017Y-56227307D01*
X80495111Y-56374156D01*
X80513237Y-56454585D01*
X80515179Y-56459367D01*
X80515180Y-56459371D01*
X80600893Y-56670457D01*
X80602837Y-56675244D01*
X80690979Y-56819078D01*
X80722676Y-56870802D01*
X80727274Y-56878306D01*
X80883204Y-57058317D01*
X81036022Y-57185189D01*
X81062464Y-57207141D01*
X81066442Y-57210444D01*
X81070894Y-57213046D01*
X81070899Y-57213049D01*
X81265237Y-57326611D01*
X81272065Y-57330601D01*
X81494552Y-57415560D01*
X81499618Y-57416591D01*
X81499619Y-57416591D01*
X81553956Y-57427646D01*
X81727928Y-57463041D01*
X81862121Y-57467962D01*
X81960760Y-57471579D01*
X81960764Y-57471579D01*
X81965924Y-57471768D01*
X81971044Y-57471112D01*
X81971046Y-57471112D01*
X82197023Y-57442164D01*
X82197024Y-57442164D01*
X82202151Y-57441507D01*
X82286803Y-57416110D01*
X82425316Y-57374554D01*
X82425317Y-57374553D01*
X82430262Y-57373070D01*
X82644133Y-57268295D01*
X82648336Y-57265297D01*
X82648341Y-57265294D01*
X82833816Y-57132996D01*
X82833818Y-57132994D01*
X82838020Y-57129997D01*
X83006716Y-56961889D01*
X83064979Y-56880807D01*
X83120972Y-56837160D01*
X83191676Y-56830714D01*
X83254640Y-56863516D01*
X83266582Y-56877176D01*
X83267274Y-56878306D01*
X83423204Y-57058317D01*
X83576022Y-57185189D01*
X83602464Y-57207141D01*
X83606442Y-57210444D01*
X83610894Y-57213046D01*
X83610899Y-57213049D01*
X83805237Y-57326611D01*
X83812065Y-57330601D01*
X84034552Y-57415560D01*
X84039618Y-57416591D01*
X84039619Y-57416591D01*
X84093956Y-57427646D01*
X84267928Y-57463041D01*
X84402121Y-57467962D01*
X84500760Y-57471579D01*
X84500764Y-57471579D01*
X84505924Y-57471768D01*
X84511044Y-57471112D01*
X84511046Y-57471112D01*
X84737023Y-57442164D01*
X84737024Y-57442164D01*
X84742151Y-57441507D01*
X84826803Y-57416110D01*
X84965316Y-57374554D01*
X84965317Y-57374553D01*
X84970262Y-57373070D01*
X85184133Y-57268295D01*
X85188336Y-57265297D01*
X85188341Y-57265294D01*
X85265155Y-57210503D01*
X86154326Y-57210503D01*
X86159607Y-57217558D01*
X86347821Y-57327541D01*
X86357108Y-57331991D01*
X86569861Y-57413233D01*
X86579763Y-57416110D01*
X86802911Y-57461510D01*
X86813163Y-57462733D01*
X87040738Y-57471077D01*
X87051024Y-57470610D01*
X87276915Y-57441673D01*
X87287001Y-57439530D01*
X87505128Y-57374088D01*
X87514723Y-57370328D01*
X87719237Y-57270137D01*
X87728083Y-57264863D01*
X87793631Y-57218108D01*
X87799602Y-57210503D01*
X88694326Y-57210503D01*
X88699607Y-57217558D01*
X88887821Y-57327541D01*
X88897108Y-57331991D01*
X89109861Y-57413233D01*
X89119763Y-57416110D01*
X89342911Y-57461510D01*
X89353163Y-57462733D01*
X89580738Y-57471077D01*
X89591024Y-57470610D01*
X89816915Y-57441673D01*
X89827001Y-57439530D01*
X90045128Y-57374088D01*
X90054723Y-57370328D01*
X90259237Y-57270137D01*
X90268083Y-57264863D01*
X90333631Y-57218108D01*
X90342032Y-57207408D01*
X90335045Y-57194256D01*
X89532811Y-56392021D01*
X89518868Y-56384408D01*
X89517034Y-56384539D01*
X89510420Y-56388790D01*
X88701083Y-57198128D01*
X88694326Y-57210503D01*
X87799602Y-57210503D01*
X87802032Y-57207408D01*
X87795045Y-57194256D01*
X86992811Y-56392021D01*
X86978868Y-56384408D01*
X86977034Y-56384539D01*
X86970420Y-56388790D01*
X86161083Y-57198128D01*
X86154326Y-57210503D01*
X85265155Y-57210503D01*
X85373816Y-57132996D01*
X85373818Y-57132994D01*
X85378020Y-57129997D01*
X85546716Y-56961889D01*
X85549732Y-56957692D01*
X85549739Y-56957684D01*
X85612170Y-56870802D01*
X85668164Y-56827154D01*
X85738868Y-56820708D01*
X85785626Y-56844169D01*
X85789976Y-56844890D01*
X85800387Y-56840402D01*
X86607979Y-56032811D01*
X86614356Y-56021132D01*
X87344408Y-56021132D01*
X87344539Y-56022966D01*
X87348790Y-56029580D01*
X88154826Y-56835615D01*
X88166832Y-56842171D01*
X88171671Y-56838474D01*
X88237946Y-56813015D01*
X88307464Y-56827428D01*
X88331418Y-56844268D01*
X88340387Y-56840402D01*
X89147979Y-56032811D01*
X89155592Y-56018868D01*
X89155461Y-56017034D01*
X89151210Y-56010420D01*
X88345220Y-55204431D01*
X88333688Y-55198134D01*
X88328721Y-55202026D01*
X88262762Y-55228293D01*
X88193073Y-55214730D01*
X88168788Y-55198315D01*
X88167321Y-55197052D01*
X88157756Y-55201455D01*
X87352021Y-56007189D01*
X87344408Y-56021132D01*
X86614356Y-56021132D01*
X86615592Y-56018868D01*
X86615461Y-56017034D01*
X86611210Y-56010420D01*
X85805220Y-55204431D01*
X85792803Y-55197651D01*
X85729899Y-55222699D01*
X85660210Y-55209135D01*
X85612360Y-55165688D01*
X85594216Y-55137642D01*
X85591406Y-55133298D01*
X85431124Y-54957150D01*
X85427073Y-54953951D01*
X85427069Y-54953947D01*
X85273018Y-54832285D01*
X86157081Y-54832285D01*
X86163825Y-54844614D01*
X86967189Y-55647979D01*
X86981132Y-55655592D01*
X86982966Y-55655461D01*
X86989580Y-55651210D01*
X87797331Y-54843458D01*
X87803432Y-54832285D01*
X88697081Y-54832285D01*
X88703825Y-54844614D01*
X89507189Y-55647979D01*
X89521132Y-55655592D01*
X89522966Y-55655461D01*
X89529580Y-55651210D01*
X90337331Y-54843458D01*
X90344348Y-54830607D01*
X90336574Y-54819937D01*
X90328004Y-54813169D01*
X90319417Y-54807464D01*
X90120055Y-54697410D01*
X90110643Y-54693180D01*
X89895971Y-54617160D01*
X89886014Y-54614530D01*
X89661805Y-54574591D01*
X89651554Y-54573622D01*
X89423830Y-54570840D01*
X89413546Y-54571560D01*
X89188437Y-54606006D01*
X89178410Y-54608395D01*
X88961951Y-54679144D01*
X88952442Y-54683141D01*
X88750451Y-54788292D01*
X88741716Y-54793793D01*
X88705535Y-54820958D01*
X88697081Y-54832285D01*
X87803432Y-54832285D01*
X87804348Y-54830607D01*
X87796574Y-54819937D01*
X87788004Y-54813169D01*
X87779417Y-54807464D01*
X87580055Y-54697410D01*
X87570643Y-54693180D01*
X87355971Y-54617160D01*
X87346014Y-54614530D01*
X87121805Y-54574591D01*
X87111554Y-54573622D01*
X86883830Y-54570840D01*
X86873546Y-54571560D01*
X86648437Y-54606006D01*
X86638410Y-54608395D01*
X86421951Y-54679144D01*
X86412442Y-54683141D01*
X86210451Y-54788292D01*
X86201716Y-54793793D01*
X86165535Y-54820958D01*
X86157081Y-54832285D01*
X85273018Y-54832285D01*
X85248278Y-54812747D01*
X85248273Y-54812744D01*
X85244224Y-54809546D01*
X85239708Y-54807053D01*
X85239705Y-54807051D01*
X85040250Y-54696946D01*
X85040246Y-54696944D01*
X85035726Y-54694449D01*
X85030857Y-54692725D01*
X85030853Y-54692723D01*
X84816105Y-54616676D01*
X84816101Y-54616675D01*
X84811230Y-54614950D01*
X84806140Y-54614043D01*
X84806135Y-54614042D01*
X84678814Y-54591364D01*
X84576764Y-54573186D01*
X84487637Y-54572097D01*
X84343795Y-54570339D01*
X84343793Y-54570339D01*
X84338625Y-54570276D01*
X84103209Y-54606300D01*
X83876838Y-54680289D01*
X83665590Y-54790258D01*
X83661457Y-54793361D01*
X83661454Y-54793363D01*
X83479275Y-54930147D01*
X83475140Y-54933252D01*
X83310602Y-55105431D01*
X83288629Y-55137642D01*
X83275186Y-55157349D01*
X83220274Y-55202351D01*
X83149749Y-55210522D01*
X83086002Y-55179267D01*
X83065306Y-55154784D01*
X83054217Y-55137642D01*
X83054212Y-55137636D01*
X83051406Y-55133298D01*
X82891124Y-54957150D01*
X82887073Y-54953951D01*
X82887069Y-54953947D01*
X82708278Y-54812747D01*
X82708273Y-54812744D01*
X82704224Y-54809546D01*
X82699708Y-54807053D01*
X82699705Y-54807051D01*
X82500250Y-54696946D01*
X82500246Y-54696944D01*
X82495726Y-54694449D01*
X82490857Y-54692725D01*
X82490853Y-54692723D01*
X82276105Y-54616676D01*
X82276101Y-54616675D01*
X82271230Y-54614950D01*
X82266140Y-54614043D01*
X82266135Y-54614042D01*
X82138814Y-54591364D01*
X82036764Y-54573186D01*
X81947637Y-54572097D01*
X81803795Y-54570339D01*
X81803793Y-54570339D01*
X81798625Y-54570276D01*
X81563209Y-54606300D01*
X81336838Y-54680289D01*
X81125590Y-54790258D01*
X81121457Y-54793361D01*
X81121454Y-54793363D01*
X80939275Y-54930147D01*
X80935140Y-54933252D01*
X80770602Y-55105431D01*
X80767693Y-55109696D01*
X80767687Y-55109704D01*
X80735186Y-55157349D01*
X80636394Y-55302172D01*
X80536122Y-55518191D01*
X80472477Y-55747685D01*
X80471928Y-55752819D01*
X80471928Y-55752821D01*
X80466449Y-55804089D01*
X80447170Y-55984494D01*
X76508500Y-55984494D01*
X76508500Y-40744494D01*
X80447170Y-40744494D01*
X80447467Y-40749646D01*
X80447467Y-40749650D01*
X80453502Y-40854313D01*
X80460879Y-40982255D01*
X80462016Y-40987301D01*
X80462017Y-40987307D01*
X80495111Y-41134156D01*
X80513237Y-41214585D01*
X80515179Y-41219367D01*
X80515180Y-41219371D01*
X80600893Y-41430457D01*
X80602837Y-41435244D01*
X80605536Y-41439648D01*
X80722676Y-41630802D01*
X80727274Y-41638306D01*
X80883204Y-41818317D01*
X81066442Y-41970444D01*
X81070894Y-41973046D01*
X81070899Y-41973049D01*
X81169333Y-42030569D01*
X81272065Y-42090601D01*
X81494552Y-42175560D01*
X81499618Y-42176591D01*
X81499619Y-42176591D01*
X81553956Y-42187646D01*
X81727928Y-42223041D01*
X81862121Y-42227962D01*
X81960760Y-42231579D01*
X81960764Y-42231579D01*
X81965924Y-42231768D01*
X81971044Y-42231112D01*
X81971046Y-42231112D01*
X82197023Y-42202164D01*
X82197024Y-42202164D01*
X82202151Y-42201507D01*
X82286803Y-42176110D01*
X82425316Y-42134554D01*
X82425317Y-42134553D01*
X82430262Y-42133070D01*
X82644133Y-42028295D01*
X82648336Y-42025297D01*
X82648341Y-42025294D01*
X82725155Y-41970503D01*
X83614326Y-41970503D01*
X83619607Y-41977558D01*
X83807821Y-42087541D01*
X83817108Y-42091991D01*
X84029861Y-42173233D01*
X84039763Y-42176110D01*
X84262911Y-42221510D01*
X84273163Y-42222733D01*
X84500738Y-42231077D01*
X84511024Y-42230610D01*
X84736915Y-42201673D01*
X84747001Y-42199530D01*
X84965128Y-42134088D01*
X84974723Y-42130328D01*
X85179237Y-42030137D01*
X85188083Y-42024863D01*
X85253631Y-41978108D01*
X85262032Y-41967408D01*
X85255045Y-41954256D01*
X84452811Y-41152021D01*
X84438868Y-41144408D01*
X84437034Y-41144539D01*
X84430420Y-41148790D01*
X83621083Y-41958128D01*
X83614326Y-41970503D01*
X82725155Y-41970503D01*
X82833816Y-41892996D01*
X82833818Y-41892994D01*
X82838020Y-41889997D01*
X83006716Y-41721889D01*
X83009732Y-41717692D01*
X83009739Y-41717684D01*
X83072170Y-41630802D01*
X83128164Y-41587154D01*
X83198868Y-41580708D01*
X83245626Y-41604169D01*
X83249976Y-41604890D01*
X83260387Y-41600402D01*
X84067979Y-40792811D01*
X84074356Y-40781132D01*
X84804408Y-40781132D01*
X84804539Y-40782966D01*
X84808790Y-40789580D01*
X85614826Y-41595615D01*
X85628096Y-41602861D01*
X85690005Y-41579078D01*
X85759523Y-41593490D01*
X85801899Y-41630245D01*
X85804574Y-41633899D01*
X85807274Y-41638306D01*
X85963204Y-41818317D01*
X86146442Y-41970444D01*
X86150894Y-41973046D01*
X86150899Y-41973049D01*
X86249333Y-42030569D01*
X86352065Y-42090601D01*
X86574552Y-42175560D01*
X86579618Y-42176591D01*
X86579619Y-42176591D01*
X86633956Y-42187646D01*
X86807928Y-42223041D01*
X86942121Y-42227962D01*
X87040760Y-42231579D01*
X87040764Y-42231579D01*
X87045924Y-42231768D01*
X87051044Y-42231112D01*
X87051046Y-42231112D01*
X87277023Y-42202164D01*
X87277024Y-42202164D01*
X87282151Y-42201507D01*
X87366803Y-42176110D01*
X87505316Y-42134554D01*
X87505317Y-42134553D01*
X87510262Y-42133070D01*
X87724133Y-42028295D01*
X87728336Y-42025297D01*
X87728341Y-42025294D01*
X87913816Y-41892996D01*
X87913818Y-41892994D01*
X87918020Y-41889997D01*
X88086716Y-41721889D01*
X88144979Y-41640807D01*
X88200972Y-41597160D01*
X88271676Y-41590714D01*
X88334640Y-41623516D01*
X88346582Y-41637176D01*
X88347274Y-41638306D01*
X88503204Y-41818317D01*
X88686442Y-41970444D01*
X88690894Y-41973046D01*
X88690899Y-41973049D01*
X88789333Y-42030569D01*
X88892065Y-42090601D01*
X89114552Y-42175560D01*
X89119618Y-42176591D01*
X89119619Y-42176591D01*
X89173956Y-42187646D01*
X89347928Y-42223041D01*
X89482121Y-42227962D01*
X89580760Y-42231579D01*
X89580764Y-42231579D01*
X89585924Y-42231768D01*
X89591044Y-42231112D01*
X89591046Y-42231112D01*
X89817023Y-42202164D01*
X89817024Y-42202164D01*
X89822151Y-42201507D01*
X89906803Y-42176110D01*
X90045316Y-42134554D01*
X90045317Y-42134553D01*
X90050262Y-42133070D01*
X90264133Y-42028295D01*
X90268336Y-42025297D01*
X90268341Y-42025294D01*
X90453816Y-41892996D01*
X90453818Y-41892994D01*
X90458020Y-41889997D01*
X90626716Y-41721889D01*
X90684979Y-41640807D01*
X90740972Y-41597160D01*
X90811676Y-41590714D01*
X90874640Y-41623516D01*
X90886582Y-41637176D01*
X90887274Y-41638306D01*
X91043204Y-41818317D01*
X91226442Y-41970444D01*
X91230894Y-41973046D01*
X91230899Y-41973049D01*
X91329333Y-42030569D01*
X91432065Y-42090601D01*
X91654552Y-42175560D01*
X91659618Y-42176591D01*
X91659619Y-42176591D01*
X91713956Y-42187646D01*
X91887928Y-42223041D01*
X92022121Y-42227962D01*
X92120760Y-42231579D01*
X92120764Y-42231579D01*
X92125924Y-42231768D01*
X92131044Y-42231112D01*
X92131046Y-42231112D01*
X92357023Y-42202164D01*
X92357024Y-42202164D01*
X92362151Y-42201507D01*
X92446803Y-42176110D01*
X92585316Y-42134554D01*
X92585317Y-42134553D01*
X92590262Y-42133070D01*
X92804133Y-42028295D01*
X92808336Y-42025297D01*
X92808341Y-42025294D01*
X92993816Y-41892996D01*
X92993818Y-41892994D01*
X92998020Y-41889997D01*
X93166716Y-41721889D01*
X93224979Y-41640807D01*
X93280972Y-41597160D01*
X93351676Y-41590714D01*
X93414640Y-41623516D01*
X93426582Y-41637176D01*
X93427274Y-41638306D01*
X93583204Y-41818317D01*
X93766442Y-41970444D01*
X93770894Y-41973046D01*
X93770899Y-41973049D01*
X93869333Y-42030569D01*
X93972065Y-42090601D01*
X94194552Y-42175560D01*
X94199618Y-42176591D01*
X94199619Y-42176591D01*
X94253956Y-42187646D01*
X94427928Y-42223041D01*
X94562121Y-42227962D01*
X94660760Y-42231579D01*
X94660764Y-42231579D01*
X94665924Y-42231768D01*
X94671044Y-42231112D01*
X94671046Y-42231112D01*
X94897023Y-42202164D01*
X94897024Y-42202164D01*
X94902151Y-42201507D01*
X94986803Y-42176110D01*
X95125316Y-42134554D01*
X95125317Y-42134553D01*
X95130262Y-42133070D01*
X95344133Y-42028295D01*
X95348336Y-42025297D01*
X95348341Y-42025294D01*
X95533816Y-41892996D01*
X95533818Y-41892994D01*
X95538020Y-41889997D01*
X95706716Y-41721889D01*
X95764979Y-41640807D01*
X95820972Y-41597160D01*
X95891676Y-41590714D01*
X95954640Y-41623516D01*
X95966582Y-41637176D01*
X95967274Y-41638306D01*
X96123204Y-41818317D01*
X96306442Y-41970444D01*
X96310894Y-41973046D01*
X96310899Y-41973049D01*
X96409333Y-42030569D01*
X96512065Y-42090601D01*
X96734552Y-42175560D01*
X96739618Y-42176591D01*
X96739619Y-42176591D01*
X96793956Y-42187646D01*
X96967928Y-42223041D01*
X97102121Y-42227962D01*
X97200760Y-42231579D01*
X97200764Y-42231579D01*
X97205924Y-42231768D01*
X97211044Y-42231112D01*
X97211046Y-42231112D01*
X97437023Y-42202164D01*
X97437024Y-42202164D01*
X97442151Y-42201507D01*
X97526803Y-42176110D01*
X97665316Y-42134554D01*
X97665317Y-42134553D01*
X97670262Y-42133070D01*
X97884133Y-42028295D01*
X97888336Y-42025297D01*
X97888341Y-42025294D01*
X98073816Y-41892996D01*
X98073818Y-41892994D01*
X98078020Y-41889997D01*
X98246716Y-41721889D01*
X98304979Y-41640807D01*
X98360972Y-41597160D01*
X98431676Y-41590714D01*
X98494640Y-41623516D01*
X98506582Y-41637176D01*
X98507274Y-41638306D01*
X98663204Y-41818317D01*
X98846442Y-41970444D01*
X98850894Y-41973046D01*
X98850899Y-41973049D01*
X98949333Y-42030569D01*
X99052065Y-42090601D01*
X99274552Y-42175560D01*
X99279618Y-42176591D01*
X99279619Y-42176591D01*
X99333956Y-42187646D01*
X99507928Y-42223041D01*
X99642121Y-42227962D01*
X99740760Y-42231579D01*
X99740764Y-42231579D01*
X99745924Y-42231768D01*
X99751044Y-42231112D01*
X99751046Y-42231112D01*
X99977023Y-42202164D01*
X99977024Y-42202164D01*
X99982151Y-42201507D01*
X100066803Y-42176110D01*
X100205316Y-42134554D01*
X100205317Y-42134553D01*
X100210262Y-42133070D01*
X100424133Y-42028295D01*
X100428336Y-42025297D01*
X100428341Y-42025294D01*
X100613816Y-41892996D01*
X100613818Y-41892994D01*
X100618020Y-41889997D01*
X100786716Y-41721889D01*
X100844979Y-41640807D01*
X100900972Y-41597160D01*
X100971676Y-41590714D01*
X101034640Y-41623516D01*
X101046582Y-41637176D01*
X101047274Y-41638306D01*
X101203204Y-41818317D01*
X101386442Y-41970444D01*
X101390894Y-41973046D01*
X101390899Y-41973049D01*
X101489333Y-42030569D01*
X101592065Y-42090601D01*
X101814552Y-42175560D01*
X101819618Y-42176591D01*
X101819619Y-42176591D01*
X101873956Y-42187646D01*
X102047928Y-42223041D01*
X102182121Y-42227962D01*
X102280760Y-42231579D01*
X102280764Y-42231579D01*
X102285924Y-42231768D01*
X102291044Y-42231112D01*
X102291046Y-42231112D01*
X102517023Y-42202164D01*
X102517024Y-42202164D01*
X102522151Y-42201507D01*
X102606803Y-42176110D01*
X102745316Y-42134554D01*
X102745317Y-42134553D01*
X102750262Y-42133070D01*
X102964133Y-42028295D01*
X102968336Y-42025297D01*
X102968341Y-42025294D01*
X103153816Y-41892996D01*
X103153818Y-41892994D01*
X103158020Y-41889997D01*
X103326716Y-41721889D01*
X103384979Y-41640807D01*
X103440972Y-41597160D01*
X103511676Y-41590714D01*
X103574640Y-41623516D01*
X103586582Y-41637176D01*
X103587274Y-41638306D01*
X103743204Y-41818317D01*
X103926442Y-41970444D01*
X103930894Y-41973046D01*
X103930899Y-41973049D01*
X104029333Y-42030569D01*
X104132065Y-42090601D01*
X104354552Y-42175560D01*
X104359618Y-42176591D01*
X104359619Y-42176591D01*
X104413956Y-42187646D01*
X104587928Y-42223041D01*
X104722121Y-42227962D01*
X104820760Y-42231579D01*
X104820764Y-42231579D01*
X104825924Y-42231768D01*
X104831044Y-42231112D01*
X104831046Y-42231112D01*
X105057023Y-42202164D01*
X105057024Y-42202164D01*
X105062151Y-42201507D01*
X105146803Y-42176110D01*
X105285316Y-42134554D01*
X105285317Y-42134553D01*
X105290262Y-42133070D01*
X105504133Y-42028295D01*
X105508336Y-42025297D01*
X105508341Y-42025294D01*
X105693816Y-41892996D01*
X105693818Y-41892994D01*
X105698020Y-41889997D01*
X105866716Y-41721889D01*
X105924979Y-41640807D01*
X105980972Y-41597160D01*
X106051676Y-41590714D01*
X106114640Y-41623516D01*
X106126582Y-41637176D01*
X106127274Y-41638306D01*
X106283204Y-41818317D01*
X106466442Y-41970444D01*
X106470894Y-41973046D01*
X106470899Y-41973049D01*
X106569333Y-42030569D01*
X106672065Y-42090601D01*
X106894552Y-42175560D01*
X106899618Y-42176591D01*
X106899619Y-42176591D01*
X106953956Y-42187646D01*
X107127928Y-42223041D01*
X107262121Y-42227962D01*
X107360760Y-42231579D01*
X107360764Y-42231579D01*
X107365924Y-42231768D01*
X107371044Y-42231112D01*
X107371046Y-42231112D01*
X107597023Y-42202164D01*
X107597024Y-42202164D01*
X107602151Y-42201507D01*
X107686803Y-42176110D01*
X107825316Y-42134554D01*
X107825317Y-42134553D01*
X107830262Y-42133070D01*
X108044133Y-42028295D01*
X108048336Y-42025297D01*
X108048341Y-42025294D01*
X108233816Y-41892996D01*
X108233818Y-41892994D01*
X108238020Y-41889997D01*
X108406716Y-41721889D01*
X108464979Y-41640807D01*
X108520972Y-41597160D01*
X108591676Y-41590714D01*
X108654640Y-41623516D01*
X108666582Y-41637176D01*
X108667274Y-41638306D01*
X108823204Y-41818317D01*
X109006442Y-41970444D01*
X109010894Y-41973046D01*
X109010899Y-41973049D01*
X109109333Y-42030569D01*
X109212065Y-42090601D01*
X109434552Y-42175560D01*
X109439618Y-42176591D01*
X109439619Y-42176591D01*
X109493956Y-42187646D01*
X109667928Y-42223041D01*
X109802121Y-42227962D01*
X109900760Y-42231579D01*
X109900764Y-42231579D01*
X109905924Y-42231768D01*
X109911044Y-42231112D01*
X109911046Y-42231112D01*
X110137023Y-42202164D01*
X110137024Y-42202164D01*
X110142151Y-42201507D01*
X110226803Y-42176110D01*
X110365316Y-42134554D01*
X110365317Y-42134553D01*
X110370262Y-42133070D01*
X110584133Y-42028295D01*
X110588336Y-42025297D01*
X110588341Y-42025294D01*
X110773816Y-41892996D01*
X110773818Y-41892994D01*
X110778020Y-41889997D01*
X110946716Y-41721889D01*
X111085690Y-41528486D01*
X111131774Y-41435244D01*
X111188917Y-41319624D01*
X111188918Y-41319622D01*
X111191211Y-41314982D01*
X111260443Y-41087111D01*
X111291529Y-40850992D01*
X111293264Y-40780000D01*
X111273750Y-40542644D01*
X111215731Y-40311663D01*
X111120767Y-40093259D01*
X111117759Y-40088608D01*
X111037424Y-39964431D01*
X110991406Y-39893298D01*
X110972480Y-39872498D01*
X110940358Y-39837197D01*
X110831124Y-39717150D01*
X110827073Y-39713951D01*
X110827069Y-39713947D01*
X110648278Y-39572747D01*
X110648273Y-39572744D01*
X110644224Y-39569546D01*
X110639708Y-39567053D01*
X110639705Y-39567051D01*
X110440250Y-39456946D01*
X110440246Y-39456944D01*
X110435726Y-39454449D01*
X110430857Y-39452725D01*
X110430853Y-39452723D01*
X110216105Y-39376676D01*
X110216101Y-39376675D01*
X110211230Y-39374950D01*
X110206140Y-39374043D01*
X110206135Y-39374042D01*
X110078814Y-39351364D01*
X109976764Y-39333186D01*
X109887637Y-39332097D01*
X109743795Y-39330339D01*
X109743793Y-39330339D01*
X109738625Y-39330276D01*
X109503209Y-39366300D01*
X109276838Y-39440289D01*
X109252953Y-39452723D01*
X109103572Y-39530486D01*
X109065590Y-39550258D01*
X109061457Y-39553361D01*
X109061454Y-39553363D01*
X108987555Y-39608848D01*
X108875140Y-39693252D01*
X108710602Y-39865431D01*
X108688629Y-39897642D01*
X108675186Y-39917349D01*
X108620274Y-39962351D01*
X108549749Y-39970522D01*
X108486002Y-39939267D01*
X108465306Y-39914784D01*
X108454217Y-39897642D01*
X108454212Y-39897636D01*
X108451406Y-39893298D01*
X108432480Y-39872498D01*
X108400358Y-39837197D01*
X108291124Y-39717150D01*
X108287073Y-39713951D01*
X108287069Y-39713947D01*
X108108278Y-39572747D01*
X108108273Y-39572744D01*
X108104224Y-39569546D01*
X108099708Y-39567053D01*
X108099705Y-39567051D01*
X107900250Y-39456946D01*
X107900246Y-39456944D01*
X107895726Y-39454449D01*
X107890857Y-39452725D01*
X107890853Y-39452723D01*
X107676105Y-39376676D01*
X107676101Y-39376675D01*
X107671230Y-39374950D01*
X107666140Y-39374043D01*
X107666135Y-39374042D01*
X107538814Y-39351364D01*
X107436764Y-39333186D01*
X107347637Y-39332097D01*
X107203795Y-39330339D01*
X107203793Y-39330339D01*
X107198625Y-39330276D01*
X106963209Y-39366300D01*
X106736838Y-39440289D01*
X106712953Y-39452723D01*
X106563572Y-39530486D01*
X106525590Y-39550258D01*
X106521457Y-39553361D01*
X106521454Y-39553363D01*
X106447555Y-39608848D01*
X106335140Y-39693252D01*
X106170602Y-39865431D01*
X106148629Y-39897642D01*
X106135186Y-39917349D01*
X106080274Y-39962351D01*
X106009749Y-39970522D01*
X105946002Y-39939267D01*
X105925306Y-39914784D01*
X105914217Y-39897642D01*
X105914212Y-39897636D01*
X105911406Y-39893298D01*
X105892480Y-39872498D01*
X105860358Y-39837197D01*
X105751124Y-39717150D01*
X105747073Y-39713951D01*
X105747069Y-39713947D01*
X105568278Y-39572747D01*
X105568273Y-39572744D01*
X105564224Y-39569546D01*
X105559708Y-39567053D01*
X105559705Y-39567051D01*
X105360250Y-39456946D01*
X105360246Y-39456944D01*
X105355726Y-39454449D01*
X105350857Y-39452725D01*
X105350853Y-39452723D01*
X105136105Y-39376676D01*
X105136101Y-39376675D01*
X105131230Y-39374950D01*
X105126140Y-39374043D01*
X105126135Y-39374042D01*
X104998814Y-39351364D01*
X104896764Y-39333186D01*
X104807637Y-39332097D01*
X104663795Y-39330339D01*
X104663793Y-39330339D01*
X104658625Y-39330276D01*
X104423209Y-39366300D01*
X104196838Y-39440289D01*
X104172953Y-39452723D01*
X104023572Y-39530486D01*
X103985590Y-39550258D01*
X103981457Y-39553361D01*
X103981454Y-39553363D01*
X103907555Y-39608848D01*
X103795140Y-39693252D01*
X103630602Y-39865431D01*
X103608629Y-39897642D01*
X103595186Y-39917349D01*
X103540274Y-39962351D01*
X103469749Y-39970522D01*
X103406002Y-39939267D01*
X103385306Y-39914784D01*
X103374217Y-39897642D01*
X103374212Y-39897636D01*
X103371406Y-39893298D01*
X103352480Y-39872498D01*
X103320358Y-39837197D01*
X103211124Y-39717150D01*
X103207073Y-39713951D01*
X103207069Y-39713947D01*
X103028278Y-39572747D01*
X103028273Y-39572744D01*
X103024224Y-39569546D01*
X103019708Y-39567053D01*
X103019705Y-39567051D01*
X102820250Y-39456946D01*
X102820246Y-39456944D01*
X102815726Y-39454449D01*
X102810857Y-39452725D01*
X102810853Y-39452723D01*
X102596105Y-39376676D01*
X102596101Y-39376675D01*
X102591230Y-39374950D01*
X102586140Y-39374043D01*
X102586135Y-39374042D01*
X102458814Y-39351364D01*
X102356764Y-39333186D01*
X102267637Y-39332097D01*
X102123795Y-39330339D01*
X102123793Y-39330339D01*
X102118625Y-39330276D01*
X101883209Y-39366300D01*
X101656838Y-39440289D01*
X101632953Y-39452723D01*
X101483572Y-39530486D01*
X101445590Y-39550258D01*
X101441457Y-39553361D01*
X101441454Y-39553363D01*
X101367555Y-39608848D01*
X101255140Y-39693252D01*
X101090602Y-39865431D01*
X101068629Y-39897642D01*
X101055186Y-39917349D01*
X101000274Y-39962351D01*
X100929749Y-39970522D01*
X100866002Y-39939267D01*
X100845306Y-39914784D01*
X100834217Y-39897642D01*
X100834212Y-39897636D01*
X100831406Y-39893298D01*
X100812480Y-39872498D01*
X100780358Y-39837197D01*
X100671124Y-39717150D01*
X100667073Y-39713951D01*
X100667069Y-39713947D01*
X100488278Y-39572747D01*
X100488273Y-39572744D01*
X100484224Y-39569546D01*
X100479708Y-39567053D01*
X100479705Y-39567051D01*
X100280250Y-39456946D01*
X100280246Y-39456944D01*
X100275726Y-39454449D01*
X100270857Y-39452725D01*
X100270853Y-39452723D01*
X100056105Y-39376676D01*
X100056101Y-39376675D01*
X100051230Y-39374950D01*
X100046140Y-39374043D01*
X100046135Y-39374042D01*
X99918814Y-39351364D01*
X99816764Y-39333186D01*
X99727637Y-39332097D01*
X99583795Y-39330339D01*
X99583793Y-39330339D01*
X99578625Y-39330276D01*
X99343209Y-39366300D01*
X99116838Y-39440289D01*
X99092953Y-39452723D01*
X98943572Y-39530486D01*
X98905590Y-39550258D01*
X98901457Y-39553361D01*
X98901454Y-39553363D01*
X98827555Y-39608848D01*
X98715140Y-39693252D01*
X98550602Y-39865431D01*
X98528629Y-39897642D01*
X98515186Y-39917349D01*
X98460274Y-39962351D01*
X98389749Y-39970522D01*
X98326002Y-39939267D01*
X98305306Y-39914784D01*
X98294217Y-39897642D01*
X98294212Y-39897636D01*
X98291406Y-39893298D01*
X98272480Y-39872498D01*
X98240358Y-39837197D01*
X98131124Y-39717150D01*
X98127073Y-39713951D01*
X98127069Y-39713947D01*
X97948278Y-39572747D01*
X97948273Y-39572744D01*
X97944224Y-39569546D01*
X97939708Y-39567053D01*
X97939705Y-39567051D01*
X97740250Y-39456946D01*
X97740246Y-39456944D01*
X97735726Y-39454449D01*
X97730857Y-39452725D01*
X97730853Y-39452723D01*
X97516105Y-39376676D01*
X97516101Y-39376675D01*
X97511230Y-39374950D01*
X97506140Y-39374043D01*
X97506135Y-39374042D01*
X97378814Y-39351364D01*
X97276764Y-39333186D01*
X97187637Y-39332097D01*
X97043795Y-39330339D01*
X97043793Y-39330339D01*
X97038625Y-39330276D01*
X96803209Y-39366300D01*
X96576838Y-39440289D01*
X96552953Y-39452723D01*
X96403572Y-39530486D01*
X96365590Y-39550258D01*
X96361457Y-39553361D01*
X96361454Y-39553363D01*
X96287555Y-39608848D01*
X96175140Y-39693252D01*
X96010602Y-39865431D01*
X95988629Y-39897642D01*
X95975186Y-39917349D01*
X95920274Y-39962351D01*
X95849749Y-39970522D01*
X95786002Y-39939267D01*
X95765306Y-39914784D01*
X95754217Y-39897642D01*
X95754212Y-39897636D01*
X95751406Y-39893298D01*
X95732480Y-39872498D01*
X95700358Y-39837197D01*
X95591124Y-39717150D01*
X95587073Y-39713951D01*
X95587069Y-39713947D01*
X95408278Y-39572747D01*
X95408273Y-39572744D01*
X95404224Y-39569546D01*
X95399708Y-39567053D01*
X95399705Y-39567051D01*
X95200250Y-39456946D01*
X95200246Y-39456944D01*
X95195726Y-39454449D01*
X95190857Y-39452725D01*
X95190853Y-39452723D01*
X94976105Y-39376676D01*
X94976101Y-39376675D01*
X94971230Y-39374950D01*
X94966140Y-39374043D01*
X94966135Y-39374042D01*
X94838814Y-39351364D01*
X94736764Y-39333186D01*
X94647637Y-39332097D01*
X94503795Y-39330339D01*
X94503793Y-39330339D01*
X94498625Y-39330276D01*
X94263209Y-39366300D01*
X94036838Y-39440289D01*
X94012953Y-39452723D01*
X93863572Y-39530486D01*
X93825590Y-39550258D01*
X93821457Y-39553361D01*
X93821454Y-39553363D01*
X93747555Y-39608848D01*
X93635140Y-39693252D01*
X93470602Y-39865431D01*
X93448629Y-39897642D01*
X93435186Y-39917349D01*
X93380274Y-39962351D01*
X93309749Y-39970522D01*
X93246002Y-39939267D01*
X93225306Y-39914784D01*
X93214217Y-39897642D01*
X93214212Y-39897636D01*
X93211406Y-39893298D01*
X93192480Y-39872498D01*
X93160358Y-39837197D01*
X93051124Y-39717150D01*
X93047073Y-39713951D01*
X93047069Y-39713947D01*
X92868278Y-39572747D01*
X92868273Y-39572744D01*
X92864224Y-39569546D01*
X92859708Y-39567053D01*
X92859705Y-39567051D01*
X92660250Y-39456946D01*
X92660246Y-39456944D01*
X92655726Y-39454449D01*
X92650857Y-39452725D01*
X92650853Y-39452723D01*
X92436105Y-39376676D01*
X92436101Y-39376675D01*
X92431230Y-39374950D01*
X92426140Y-39374043D01*
X92426135Y-39374042D01*
X92298814Y-39351364D01*
X92196764Y-39333186D01*
X92107637Y-39332097D01*
X91963795Y-39330339D01*
X91963793Y-39330339D01*
X91958625Y-39330276D01*
X91723209Y-39366300D01*
X91496838Y-39440289D01*
X91472953Y-39452723D01*
X91323572Y-39530486D01*
X91285590Y-39550258D01*
X91281457Y-39553361D01*
X91281454Y-39553363D01*
X91207555Y-39608848D01*
X91095140Y-39693252D01*
X90930602Y-39865431D01*
X90908629Y-39897642D01*
X90895186Y-39917349D01*
X90840274Y-39962351D01*
X90769749Y-39970522D01*
X90706002Y-39939267D01*
X90685306Y-39914784D01*
X90674217Y-39897642D01*
X90674212Y-39897636D01*
X90671406Y-39893298D01*
X90652480Y-39872498D01*
X90620358Y-39837197D01*
X90511124Y-39717150D01*
X90507073Y-39713951D01*
X90507069Y-39713947D01*
X90328278Y-39572747D01*
X90328273Y-39572744D01*
X90324224Y-39569546D01*
X90319708Y-39567053D01*
X90319705Y-39567051D01*
X90120250Y-39456946D01*
X90120246Y-39456944D01*
X90115726Y-39454449D01*
X90110857Y-39452725D01*
X90110853Y-39452723D01*
X89896105Y-39376676D01*
X89896101Y-39376675D01*
X89891230Y-39374950D01*
X89886140Y-39374043D01*
X89886135Y-39374042D01*
X89758814Y-39351364D01*
X89656764Y-39333186D01*
X89567637Y-39332097D01*
X89423795Y-39330339D01*
X89423793Y-39330339D01*
X89418625Y-39330276D01*
X89183209Y-39366300D01*
X88956838Y-39440289D01*
X88932953Y-39452723D01*
X88783572Y-39530486D01*
X88745590Y-39550258D01*
X88741457Y-39553361D01*
X88741454Y-39553363D01*
X88667555Y-39608848D01*
X88555140Y-39693252D01*
X88390602Y-39865431D01*
X88368629Y-39897642D01*
X88355186Y-39917349D01*
X88300274Y-39962351D01*
X88229749Y-39970522D01*
X88166002Y-39939267D01*
X88145306Y-39914784D01*
X88134217Y-39897642D01*
X88134212Y-39897636D01*
X88131406Y-39893298D01*
X88112480Y-39872498D01*
X88080358Y-39837197D01*
X87971124Y-39717150D01*
X87967073Y-39713951D01*
X87967069Y-39713947D01*
X87788278Y-39572747D01*
X87788273Y-39572744D01*
X87784224Y-39569546D01*
X87779708Y-39567053D01*
X87779705Y-39567051D01*
X87580250Y-39456946D01*
X87580246Y-39456944D01*
X87575726Y-39454449D01*
X87570857Y-39452725D01*
X87570853Y-39452723D01*
X87356105Y-39376676D01*
X87356101Y-39376675D01*
X87351230Y-39374950D01*
X87346140Y-39374043D01*
X87346135Y-39374042D01*
X87218814Y-39351364D01*
X87116764Y-39333186D01*
X87027637Y-39332097D01*
X86883795Y-39330339D01*
X86883793Y-39330339D01*
X86878625Y-39330276D01*
X86643209Y-39366300D01*
X86416838Y-39440289D01*
X86392953Y-39452723D01*
X86243572Y-39530486D01*
X86205590Y-39550258D01*
X86201457Y-39553361D01*
X86201454Y-39553363D01*
X86127555Y-39608848D01*
X86015140Y-39693252D01*
X85850602Y-39865431D01*
X85808064Y-39927790D01*
X85753155Y-39972790D01*
X85682631Y-39980961D01*
X85630940Y-39956588D01*
X85628940Y-39956307D01*
X85617755Y-39961456D01*
X84812021Y-40767189D01*
X84804408Y-40781132D01*
X84074356Y-40781132D01*
X84075592Y-40778868D01*
X84075461Y-40777034D01*
X84071210Y-40770420D01*
X83265220Y-39964431D01*
X83252803Y-39957651D01*
X83189899Y-39982699D01*
X83120210Y-39969135D01*
X83072360Y-39925688D01*
X83054216Y-39897642D01*
X83051406Y-39893298D01*
X83032480Y-39872498D01*
X83000358Y-39837197D01*
X82891124Y-39717150D01*
X82887073Y-39713951D01*
X82887069Y-39713947D01*
X82733018Y-39592285D01*
X83617081Y-39592285D01*
X83623825Y-39604614D01*
X84427189Y-40407979D01*
X84441132Y-40415592D01*
X84442966Y-40415461D01*
X84449580Y-40411210D01*
X85257331Y-39603458D01*
X85264348Y-39590607D01*
X85256574Y-39579937D01*
X85248004Y-39573169D01*
X85239417Y-39567464D01*
X85040055Y-39457410D01*
X85030643Y-39453180D01*
X84815971Y-39377160D01*
X84806014Y-39374530D01*
X84581805Y-39334591D01*
X84571554Y-39333622D01*
X84343830Y-39330840D01*
X84333546Y-39331560D01*
X84108437Y-39366006D01*
X84098410Y-39368395D01*
X83881951Y-39439144D01*
X83872442Y-39443141D01*
X83670451Y-39548292D01*
X83661716Y-39553793D01*
X83625535Y-39580958D01*
X83617081Y-39592285D01*
X82733018Y-39592285D01*
X82708278Y-39572747D01*
X82708273Y-39572744D01*
X82704224Y-39569546D01*
X82699708Y-39567053D01*
X82699705Y-39567051D01*
X82500250Y-39456946D01*
X82500246Y-39456944D01*
X82495726Y-39454449D01*
X82490857Y-39452725D01*
X82490853Y-39452723D01*
X82276105Y-39376676D01*
X82276101Y-39376675D01*
X82271230Y-39374950D01*
X82266140Y-39374043D01*
X82266135Y-39374042D01*
X82138814Y-39351364D01*
X82036764Y-39333186D01*
X81947637Y-39332097D01*
X81803795Y-39330339D01*
X81803793Y-39330339D01*
X81798625Y-39330276D01*
X81563209Y-39366300D01*
X81336838Y-39440289D01*
X81312953Y-39452723D01*
X81163572Y-39530486D01*
X81125590Y-39550258D01*
X81121457Y-39553361D01*
X81121454Y-39553363D01*
X81047555Y-39608848D01*
X80935140Y-39693252D01*
X80770602Y-39865431D01*
X80767693Y-39869696D01*
X80767687Y-39869704D01*
X80735186Y-39917349D01*
X80636394Y-40062172D01*
X80536122Y-40278191D01*
X80472477Y-40507685D01*
X80471928Y-40512819D01*
X80471928Y-40512821D01*
X80467608Y-40553250D01*
X80447170Y-40744494D01*
X76508500Y-40744494D01*
X76508500Y-40553250D01*
X76510246Y-40532345D01*
X76512770Y-40517344D01*
X76512770Y-40517341D01*
X76513576Y-40512552D01*
X76513729Y-40500000D01*
X76513040Y-40495186D01*
X76513039Y-40495176D01*
X76512157Y-40489017D01*
X76511206Y-40462172D01*
X76521970Y-40311663D01*
X76523039Y-40296718D01*
X76525596Y-40278934D01*
X76566999Y-40088607D01*
X76572063Y-40071359D01*
X76640136Y-39888850D01*
X76647604Y-39872498D01*
X76740952Y-39701542D01*
X76750672Y-39686418D01*
X76867402Y-39530486D01*
X76879175Y-39516900D01*
X77016900Y-39379175D01*
X77030486Y-39367402D01*
X77186418Y-39250672D01*
X77201542Y-39240952D01*
X77372498Y-39147604D01*
X77388850Y-39140136D01*
X77571359Y-39072063D01*
X77588608Y-39066999D01*
X77778936Y-39025596D01*
X77796715Y-39023039D01*
X77958605Y-39011460D01*
X77976565Y-39012207D01*
X77984845Y-39012308D01*
X77993724Y-39013691D01*
X78025286Y-39009564D01*
X78041621Y-39008500D01*
X173950633Y-39008500D01*
X173970018Y-39010000D01*
G37*
%TD.AperFunction*%
%TD*%
M02*
