M48
; DRILL file {KiCad (6.0.7)} date Wed May 31 01:43:54 2023
; FORMAT={-:-/ absolute / inch / decimal}
; #@! TF.CreationDate,2023-05-31T01:43:54-04:00
; #@! TF.GenerationSoftware,Kicad,Pcbnew,(6.0.7)
; #@! TF.FileFunction,Plated,1,2,PTH
FMAT,2
INCH
; #@! TA.AperFunction,Plated,PTH,ViaDrill
T1C0.0157
; #@! TA.AperFunction,Plated,PTH,ComponentDrill
T2C0.0276
; #@! TA.AperFunction,Plated,PTH,ComponentDrill
T3C0.0287
; #@! TA.AperFunction,Plated,PTH,ComponentDrill
T4C0.0315
; #@! TA.AperFunction,Plated,PTH,ComponentDrill
T5C0.0394
; #@! TA.AperFunction,Plated,PTH,ComponentDrill
T6C0.0591
%
G90
G05
T1
X3.3228Y-4.3898
X3.3228Y-4.4291
X3.3346Y-4.3071
X3.3346Y-4.3504
X4.1575Y-4.3071
X4.2283Y-4.3425
X4.3189Y-4.3819
X4.3583Y-4.4252
X4.5118Y-2.6654
X4.6063Y-2.8465
X5.622Y-4.311
X6.3425Y-4.2825
X6.437Y-4.3504
X6.4882Y-4.311
X6.5039Y-4.3504
T2
X3.8189Y-3.8919
X3.8189Y-4.2183
X3.8189Y-5.4273
X6.5748Y-3.8919
X6.5748Y-4.2183
X6.5748Y-5.4273
X6.5748Y-5.7538
T3
X3.8189Y-5.7538
T4
X4.8433Y-2.6654
X4.8441Y-2.8465
X5.2433Y-2.6654
X5.2441Y-2.8465
T5
X2.5551Y-1.6055
X2.5551Y-2.2055
X2.6551Y-1.6055
X2.6551Y-2.2055
X2.7551Y-1.6055
X2.7551Y-2.2055
X2.8551Y-1.6055
X2.8551Y-2.2055
X2.9551Y-1.6055
X2.9551Y-2.2055
X3.0551Y-1.6055
X3.0551Y-2.2055
X3.1551Y-1.6055
X3.1551Y-2.2055
X3.2551Y-1.6055
X3.2551Y-2.2055
X3.3551Y-1.6055
X3.3551Y-2.2055
X3.4327Y-3.6646
X3.4327Y-6.4205
X3.4551Y-1.6055
X3.4551Y-2.2055
X3.5551Y-1.6055
X3.5551Y-2.2055
X3.6551Y-1.6055
X3.6551Y-2.2055
X3.7327Y-3.6646
X3.7327Y-6.4205
X6.1886Y-3.6646
X6.1886Y-6.4205
X6.4886Y-3.6646
X6.4886Y-6.4205
T6
X3.4327Y-3.3646
X3.4327Y-6.1205
X3.6815Y-3.2646
X3.6815Y-6.0205
X6.1886Y-3.3646
X6.1886Y-6.1205
X6.4374Y-3.2646
X6.4374Y-6.0205
T0
M30
